%FSLAX43Y43*%
%MOMM*%
G71*
G01*
G75*
G04 Layer_Color=65535*
%ADD10R,0.600X1.550*%
%ADD11R,1.000X0.900*%
%ADD12R,0.600X1.300*%
%ADD13C,1.800*%
%ADD14R,1.800X1.800*%
%ADD15R,1.050X1.050*%
%ADD16C,1.050*%
%ADD17C,2.050*%
%ADD18C,8.000*%
%ADD19C,0.250*%
%ADD20C,0.600*%
%ADD21C,0.200*%
%ADD22C,0.254*%
D19*
X208325Y48875D02*
G03*
X208325Y48875I-125J0D01*
G01*
X238325D02*
G03*
X238325Y48875I-125J0D01*
G01*
X268325D02*
G03*
X268325Y48875I-125J0D01*
G01*
X178325Y58875D02*
G03*
X178325Y58875I-125J0D01*
G01*
X118325D02*
G03*
X118325Y58875I-125J0D01*
G01*
X148325D02*
G03*
X148325Y58875I-125J0D01*
G01*
X28325D02*
G03*
X28325Y58875I-125J0D01*
G01*
X58325D02*
G03*
X58325Y58875I-125J0D01*
G01*
X88325D02*
G03*
X88325Y58875I-125J0D01*
G01*
Y48875D02*
G03*
X88325Y48875I-125J0D01*
G01*
X28325D02*
G03*
X28325Y48875I-125J0D01*
G01*
X58325D02*
G03*
X58325Y48875I-125J0D01*
G01*
X178325D02*
G03*
X178325Y48875I-125J0D01*
G01*
X118325D02*
G03*
X118325Y48875I-125J0D01*
G01*
X148325D02*
G03*
X148325Y48875I-125J0D01*
G01*
X238325Y33875D02*
G03*
X238325Y33875I-125J0D01*
G01*
X268325D02*
G03*
X268325Y33875I-125J0D01*
G01*
X208325D02*
G03*
X208325Y33875I-125J0D01*
G01*
D20*
X45248Y59952D02*
G03*
X45248Y59952I-300J0D01*
G01*
X75248D02*
G03*
X75248Y59952I-300J0D01*
G01*
X105248D02*
G03*
X105248Y59952I-300J0D01*
G01*
X135248D02*
G03*
X135248Y59952I-300J0D01*
G01*
X165248D02*
G03*
X165248Y59952I-300J0D01*
G01*
X195248D02*
G03*
X195248Y59952I-300J0D01*
G01*
X215352Y20048D02*
G03*
X215352Y20048I-300J0D01*
G01*
X245352D02*
G03*
X245352Y20048I-300J0D01*
G01*
X275352D02*
G03*
X275352Y20048I-300J0D01*
G01*
D21*
X210700Y50850D02*
X211500D01*
Y50050D02*
Y50850D01*
X208500D02*
X209300D01*
X208500Y50050D02*
Y50850D01*
X240700D02*
X241500D01*
Y50050D02*
Y50850D01*
X238500D02*
X239300D01*
X238500Y50050D02*
Y50850D01*
X270700D02*
X271500D01*
Y50050D02*
Y50850D01*
X268500D02*
X269300D01*
X268500Y50050D02*
Y50850D01*
X180700Y60850D02*
X181500D01*
Y60050D02*
Y60850D01*
X178500D02*
X179300D01*
X178500Y60050D02*
Y60850D01*
X120700D02*
X121500D01*
Y60050D02*
Y60850D01*
X118500D02*
X119300D01*
X118500Y60050D02*
Y60850D01*
X150700D02*
X151500D01*
Y60050D02*
Y60850D01*
X148500D02*
X149300D01*
X148500Y60050D02*
Y60850D01*
X30700D02*
X31500D01*
Y60050D02*
Y60850D01*
X28500D02*
X29300D01*
X28500Y60050D02*
Y60850D01*
X60700D02*
X61500D01*
Y60050D02*
Y60850D01*
X58500D02*
X59300D01*
X58500Y60050D02*
Y60850D01*
X90700D02*
X91500D01*
Y60050D02*
Y60850D01*
X88500D02*
X89300D01*
X88500Y60050D02*
Y60850D01*
X90400Y39950D02*
Y40050D01*
X89600Y39950D02*
Y40050D01*
X89492Y41524D02*
X90508D01*
X210400Y39950D02*
Y40050D01*
X209600Y39950D02*
Y40050D01*
X209492Y41524D02*
X210508D01*
X240400Y39950D02*
Y40050D01*
X239600Y39950D02*
Y40050D01*
X239492Y41524D02*
X240508D01*
X270400Y39950D02*
Y40050D01*
X269600Y39950D02*
Y40050D01*
X269492Y41524D02*
X270508D01*
X29600Y39950D02*
Y40050D01*
X30400Y39950D02*
Y40050D01*
X29492Y38476D02*
X30508D01*
X59600Y39950D02*
Y40050D01*
X60400Y39950D02*
Y40050D01*
X59492Y38476D02*
X60508D01*
X180400Y39950D02*
Y40050D01*
X179600Y39950D02*
Y40050D01*
X179492Y41524D02*
X180508D01*
X120400Y39950D02*
Y40050D01*
X119600Y39950D02*
Y40050D01*
X119492Y41524D02*
X120508D01*
X150400Y39950D02*
Y40050D01*
X149600Y39950D02*
Y40050D01*
X149492Y41524D02*
X150508D01*
X240400Y24950D02*
Y25050D01*
X239600Y24950D02*
Y25050D01*
X239492Y26524D02*
X240508D01*
X270400Y24950D02*
Y25050D01*
X269600Y24950D02*
Y25050D01*
X269492Y26524D02*
X270508D01*
X210400Y24950D02*
Y25050D01*
X209600Y24950D02*
Y25050D01*
X209492Y26524D02*
X210508D01*
X36245Y62475D02*
X43745D01*
Y60160D02*
Y62475D01*
Y37225D02*
Y39205D01*
X36245Y60160D02*
Y62475D01*
Y37225D02*
Y39205D01*
Y37225D02*
X38725D01*
X41265D02*
X43745D01*
X66245Y62475D02*
X73745D01*
Y60160D02*
Y62475D01*
Y37225D02*
Y39205D01*
X66245Y60160D02*
Y62475D01*
Y37225D02*
Y39205D01*
Y37225D02*
X68725D01*
X71265D02*
X73745D01*
X96245Y62475D02*
X103745D01*
Y60160D02*
Y62475D01*
Y37225D02*
Y39205D01*
X96245Y60160D02*
Y62475D01*
Y37225D02*
Y39205D01*
Y37225D02*
X98725D01*
X101265D02*
X103745D01*
X126245Y62475D02*
X133745D01*
Y60160D02*
Y62475D01*
Y37225D02*
Y39205D01*
X126245Y60160D02*
Y62475D01*
Y37225D02*
Y39205D01*
Y37225D02*
X128725D01*
X131265D02*
X133745D01*
X156245Y62475D02*
X163745D01*
Y60160D02*
Y62475D01*
Y37225D02*
Y39205D01*
X156245Y60160D02*
Y62475D01*
Y37225D02*
Y39205D01*
Y37225D02*
X158725D01*
X161265D02*
X163745D01*
X186245Y62475D02*
X193745D01*
Y60160D02*
Y62475D01*
Y37225D02*
Y39205D01*
X186245Y60160D02*
Y62475D01*
Y37225D02*
Y39205D01*
Y37225D02*
X188725D01*
X191265D02*
X193745D01*
X216255Y17525D02*
X223755D01*
X216255D02*
Y19840D01*
Y40795D02*
Y42775D01*
X223755Y17525D02*
Y19840D01*
Y40795D02*
Y42775D01*
X221275D02*
X223755D01*
X216255D02*
X218735D01*
X246255Y17525D02*
X253755D01*
X246255D02*
Y19840D01*
Y40795D02*
Y42775D01*
X253755Y17525D02*
Y19840D01*
Y40795D02*
Y42775D01*
X251275D02*
X253755D01*
X246255D02*
X248735D01*
X276255Y17525D02*
X283755D01*
X276255D02*
Y19840D01*
Y40795D02*
Y42775D01*
X283755Y17525D02*
Y19840D01*
Y40795D02*
Y42775D01*
X281275D02*
X283755D01*
X276255D02*
X278735D01*
X50400Y29950D02*
Y30050D01*
X49600Y29950D02*
Y30050D01*
X50400Y24950D02*
Y25050D01*
X49600Y24950D02*
Y25050D01*
X30400Y54950D02*
Y55050D01*
X29600Y54950D02*
Y55050D01*
X60400Y54950D02*
Y55050D01*
X59600Y54950D02*
Y55050D01*
X90400Y54950D02*
Y55050D01*
X89600Y54950D02*
Y55050D01*
X80400Y29950D02*
Y30050D01*
X79600Y29950D02*
Y30050D01*
X80400Y24950D02*
Y25050D01*
X79600Y24950D02*
Y25050D01*
X90400Y44950D02*
Y45050D01*
X89600Y44950D02*
Y45050D01*
X30400Y44950D02*
Y45050D01*
X29600Y44950D02*
Y45050D01*
X60400Y44950D02*
Y45050D01*
X59600Y44950D02*
Y45050D01*
X110400Y29950D02*
Y30050D01*
X109600Y29950D02*
Y30050D01*
X110400Y24950D02*
Y25050D01*
X109600Y24950D02*
Y25050D01*
X120400Y54950D02*
Y55050D01*
X119600Y54950D02*
Y55050D01*
X150400Y54950D02*
Y55050D01*
X149600Y54950D02*
Y55050D01*
X180400Y54950D02*
Y55050D01*
X179600Y54950D02*
Y55050D01*
X140400Y29150D02*
Y29250D01*
X139600Y29150D02*
Y29250D01*
X140400Y24150D02*
Y24250D01*
X139600Y24150D02*
Y24250D01*
X170400Y29950D02*
Y30050D01*
X169600Y29950D02*
Y30050D01*
X180400Y44950D02*
Y45050D01*
X179600Y44950D02*
Y45050D01*
X120400Y44950D02*
Y45050D01*
X119600Y44950D02*
Y45050D01*
X150400Y44950D02*
Y45050D01*
X149600Y44950D02*
Y45050D01*
X170400Y24950D02*
Y25050D01*
X169600Y24950D02*
Y25050D01*
X240400Y44950D02*
Y45050D01*
X239600Y44950D02*
Y45050D01*
X270400Y44950D02*
Y45050D01*
X269600Y44950D02*
Y45050D01*
X210400Y44950D02*
Y45050D01*
X209600Y44950D02*
Y45050D01*
X240400Y29950D02*
Y30050D01*
X239600Y29950D02*
Y30050D01*
X270400Y29950D02*
Y30050D01*
X269600Y29950D02*
Y30050D01*
X210400Y29950D02*
Y30050D01*
X209600Y29950D02*
Y30050D01*
X220400Y49950D02*
Y50050D01*
X219600Y49950D02*
Y50050D01*
X250400Y49950D02*
Y50050D01*
X249600Y49950D02*
Y50050D01*
X280400Y49950D02*
Y50050D01*
X279600Y49950D02*
Y50050D01*
X161016Y5428D02*
Y8476D01*
X158984D02*
X161016D01*
X158984Y5428D02*
Y8476D01*
X161016Y11524D02*
Y14572D01*
X158984Y11524D02*
X161016D01*
X158984D02*
Y14572D01*
X150348Y5174D02*
Y7206D01*
Y5174D02*
X152634D01*
X169652Y12794D02*
Y14826D01*
X167366D02*
X169652D01*
X150348D02*
X152380D01*
X150348Y12540D02*
Y14826D01*
X169652Y5174D02*
Y7460D01*
X167620Y5174D02*
X169652D01*
X191016Y85428D02*
Y88476D01*
X188984D02*
X191016D01*
X188984Y85428D02*
Y88476D01*
X191016Y91524D02*
Y94572D01*
X188984Y91524D02*
X191016D01*
X188984D02*
Y94572D01*
X180348Y85174D02*
Y87206D01*
Y85174D02*
X182634D01*
X199652Y92794D02*
Y94826D01*
X197366D02*
X199652D01*
X180348D02*
X182380D01*
X180348Y92540D02*
Y94826D01*
X199652Y85174D02*
Y87460D01*
X197620Y85174D02*
X199652D01*
X191016Y5428D02*
Y8476D01*
X188984D02*
X191016D01*
X188984Y5428D02*
Y8476D01*
X191016Y11524D02*
Y14572D01*
X188984Y11524D02*
X191016D01*
X188984D02*
Y14572D01*
X180348Y5174D02*
Y7206D01*
Y5174D02*
X182634D01*
X199652Y12794D02*
Y14826D01*
X197366D02*
X199652D01*
X180348D02*
X182380D01*
X180348Y12540D02*
Y14826D01*
X199652Y5174D02*
Y7460D01*
X197620Y5174D02*
X199652D01*
X221016Y85428D02*
Y88476D01*
X218984D02*
X221016D01*
X218984Y85428D02*
Y88476D01*
X221016Y91524D02*
Y94572D01*
X218984Y91524D02*
X221016D01*
X218984D02*
Y94572D01*
X210348Y85174D02*
Y87206D01*
Y85174D02*
X212634D01*
X229652Y92794D02*
Y94826D01*
X227366D02*
X229652D01*
X210348D02*
X212380D01*
X210348Y92540D02*
Y94826D01*
X229652Y85174D02*
Y87460D01*
X227620Y85174D02*
X229652D01*
X221016Y5428D02*
Y8476D01*
X218984D02*
X221016D01*
X218984Y5428D02*
Y8476D01*
X221016Y11524D02*
Y14572D01*
X218984Y11524D02*
X221016D01*
X218984D02*
Y14572D01*
X210348Y5174D02*
Y7206D01*
Y5174D02*
X212634D01*
X229652Y12794D02*
Y14826D01*
X227366D02*
X229652D01*
X210348D02*
X212380D01*
X210348Y12540D02*
Y14826D01*
X229652Y5174D02*
Y7460D01*
X227620Y5174D02*
X229652D01*
X251016Y85428D02*
Y88476D01*
X248984D02*
X251016D01*
X248984Y85428D02*
Y88476D01*
X251016Y91524D02*
Y94572D01*
X248984Y91524D02*
X251016D01*
X248984D02*
Y94572D01*
X240348Y85174D02*
Y87206D01*
Y85174D02*
X242634D01*
X259652Y92794D02*
Y94826D01*
X257366D02*
X259652D01*
X240348D02*
X242380D01*
X240348Y92540D02*
Y94826D01*
X259652Y85174D02*
Y87460D01*
X257620Y85174D02*
X259652D01*
X251016Y5428D02*
Y8476D01*
X248984D02*
X251016D01*
X248984Y5428D02*
Y8476D01*
X251016Y11524D02*
Y14572D01*
X248984Y11524D02*
X251016D01*
X248984D02*
Y14572D01*
X240348Y5174D02*
Y7206D01*
Y5174D02*
X242634D01*
X259652Y12794D02*
Y14826D01*
X257366D02*
X259652D01*
X240348D02*
X242380D01*
X240348Y12540D02*
Y14826D01*
X259652Y5174D02*
Y7460D01*
X257620Y5174D02*
X259652D01*
X281016Y85428D02*
Y88476D01*
X278984D02*
X281016D01*
X278984Y85428D02*
Y88476D01*
X281016Y91524D02*
Y94572D01*
X278984Y91524D02*
X281016D01*
X278984D02*
Y94572D01*
X270348Y85174D02*
Y87206D01*
Y85174D02*
X272634D01*
X289652Y92794D02*
Y94826D01*
X287366D02*
X289652D01*
X270348D02*
X272380D01*
X270348Y92540D02*
Y94826D01*
X289652Y85174D02*
Y87460D01*
X287620Y85174D02*
X289652D01*
X281016Y5428D02*
Y8476D01*
X278984D02*
X281016D01*
X278984Y5428D02*
Y8476D01*
X281016Y11524D02*
Y14572D01*
X278984Y11524D02*
X281016D01*
X278984D02*
Y14572D01*
X270348Y5174D02*
Y7206D01*
Y5174D02*
X272634D01*
X289652Y12794D02*
Y14826D01*
X287366D02*
X289652D01*
X270348D02*
X272380D01*
X270348Y12540D02*
Y14826D01*
X289652Y5174D02*
Y7460D01*
X287620Y5174D02*
X289652D01*
X41016Y85428D02*
Y88476D01*
X38984D02*
X41016D01*
X38984Y85428D02*
Y88476D01*
X41016Y91524D02*
Y94572D01*
X38984Y91524D02*
X41016D01*
X38984D02*
Y94572D01*
X30348Y85174D02*
Y87206D01*
Y85174D02*
X32634D01*
X49652Y92794D02*
Y94826D01*
X47366D02*
X49652D01*
X30348D02*
X32380D01*
X30348Y92540D02*
Y94826D01*
X49652Y85174D02*
Y87460D01*
X47620Y85174D02*
X49652D01*
X41016Y5428D02*
Y8476D01*
X38984D02*
X41016D01*
X38984Y5428D02*
Y8476D01*
X41016Y11524D02*
Y14572D01*
X38984Y11524D02*
X41016D01*
X38984D02*
Y14572D01*
X30348Y5174D02*
Y7206D01*
Y5174D02*
X32634D01*
X49652Y12794D02*
Y14826D01*
X47366D02*
X49652D01*
X30348D02*
X32380D01*
X30348Y12540D02*
Y14826D01*
X49652Y5174D02*
Y7460D01*
X47620Y5174D02*
X49652D01*
X71016Y85428D02*
Y88476D01*
X68984D02*
X71016D01*
X68984Y85428D02*
Y88476D01*
X71016Y91524D02*
Y94572D01*
X68984Y91524D02*
X71016D01*
X68984D02*
Y94572D01*
X60348Y85174D02*
Y87206D01*
Y85174D02*
X62634D01*
X79652Y92794D02*
Y94826D01*
X77366D02*
X79652D01*
X60348D02*
X62380D01*
X60348Y92540D02*
Y94826D01*
X79652Y85174D02*
Y87460D01*
X77620Y85174D02*
X79652D01*
X71016Y5428D02*
Y8476D01*
X68984D02*
X71016D01*
X68984Y5428D02*
Y8476D01*
X71016Y11524D02*
Y14572D01*
X68984Y11524D02*
X71016D01*
X68984D02*
Y14572D01*
X60348Y5174D02*
Y7206D01*
Y5174D02*
X62634D01*
X79652Y12794D02*
Y14826D01*
X77366D02*
X79652D01*
X60348D02*
X62380D01*
X60348Y12540D02*
Y14826D01*
X79652Y5174D02*
Y7460D01*
X77620Y5174D02*
X79652D01*
X101016Y85428D02*
Y88476D01*
X98984D02*
X101016D01*
X98984Y85428D02*
Y88476D01*
X101016Y91524D02*
Y94572D01*
X98984Y91524D02*
X101016D01*
X98984D02*
Y94572D01*
X90348Y85174D02*
Y87206D01*
Y85174D02*
X92634D01*
X109652Y92794D02*
Y94826D01*
X107366D02*
X109652D01*
X90348D02*
X92380D01*
X90348Y92540D02*
Y94826D01*
X109652Y85174D02*
Y87460D01*
X107620Y85174D02*
X109652D01*
X101016Y5428D02*
Y8476D01*
X98984D02*
X101016D01*
X98984Y5428D02*
Y8476D01*
X101016Y11524D02*
Y14572D01*
X98984Y11524D02*
X101016D01*
X98984D02*
Y14572D01*
X90348Y5174D02*
Y7206D01*
Y5174D02*
X92634D01*
X109652Y12794D02*
Y14826D01*
X107366D02*
X109652D01*
X90348D02*
X92380D01*
X90348Y12540D02*
Y14826D01*
X109652Y5174D02*
Y7460D01*
X107620Y5174D02*
X109652D01*
X131016Y85428D02*
Y88476D01*
X128984D02*
X131016D01*
X128984Y85428D02*
Y88476D01*
X131016Y91524D02*
Y94572D01*
X128984Y91524D02*
X131016D01*
X128984D02*
Y94572D01*
X120348Y85174D02*
Y87206D01*
Y85174D02*
X122634D01*
X139652Y92794D02*
Y94826D01*
X137366D02*
X139652D01*
X120348D02*
X122380D01*
X120348Y92540D02*
Y94826D01*
X139652Y85174D02*
Y87460D01*
X137620Y85174D02*
X139652D01*
X131016Y5428D02*
Y8476D01*
X128984D02*
X131016D01*
X128984Y5428D02*
Y8476D01*
X131016Y11524D02*
Y14572D01*
X128984Y11524D02*
X131016D01*
X128984D02*
Y14572D01*
X120348Y5174D02*
Y7206D01*
Y5174D02*
X122634D01*
X139652Y12794D02*
Y14826D01*
X137366D02*
X139652D01*
X120348D02*
X122380D01*
X120348Y12540D02*
Y14826D01*
X139652Y5174D02*
Y7460D01*
X137620Y5174D02*
X139652D01*
X161016Y85428D02*
Y88476D01*
X158984D02*
X161016D01*
X158984Y85428D02*
Y88476D01*
X161016Y91524D02*
Y94572D01*
X158984Y91524D02*
X161016D01*
X158984D02*
Y94572D01*
X150348Y85174D02*
Y87206D01*
Y85174D02*
X152634D01*
X169652Y92794D02*
Y94826D01*
X167366D02*
X169652D01*
X150348D02*
X152380D01*
X150348Y92540D02*
Y94826D01*
X169652Y85174D02*
Y87460D01*
X167620Y85174D02*
X169652D01*
X90700Y50850D02*
X91500D01*
Y50050D02*
Y50850D01*
X88500D02*
X89300D01*
X88500Y50050D02*
Y50850D01*
X30700D02*
X31500D01*
Y50050D02*
Y50850D01*
X28500D02*
X29300D01*
X28500Y50050D02*
Y50850D01*
X60700D02*
X61500D01*
Y50050D02*
Y50850D01*
X58500D02*
X59300D01*
X58500Y50050D02*
Y50850D01*
X180700D02*
X181500D01*
Y50050D02*
Y50850D01*
X178500D02*
X179300D01*
X178500Y50050D02*
Y50850D01*
X120700D02*
X121500D01*
Y50050D02*
Y50850D01*
X118500D02*
X119300D01*
X118500Y50050D02*
Y50850D01*
X150700D02*
X151500D01*
Y50050D02*
Y50850D01*
X148500D02*
X149300D01*
X148500Y50050D02*
Y50850D01*
X240700Y35850D02*
X241500D01*
Y35050D02*
Y35850D01*
X238500D02*
X239300D01*
X238500Y35050D02*
Y35850D01*
X270700D02*
X271500D01*
Y35050D02*
Y35850D01*
X268500D02*
X269300D01*
X268500Y35050D02*
Y35850D01*
X210700D02*
X211500D01*
Y35050D02*
Y35850D01*
X208500D02*
X209300D01*
X208500Y35050D02*
Y35850D01*
D22*
X35857Y64947D02*
X35349D01*
X35603D01*
Y63678D01*
X35349Y63424D01*
X35095D01*
X34841Y63678D01*
X37380Y64947D02*
X36365D01*
Y64186D01*
X36873Y64439D01*
X37126D01*
X37380Y64186D01*
Y63678D01*
X37126Y63424D01*
X36619D01*
X36365Y63678D01*
X37888Y63424D02*
X38396D01*
X38142D01*
Y64947D01*
X37888Y64693D01*
X39158D02*
X39412Y64947D01*
X39920D01*
X40173Y64693D01*
Y63678D01*
X39920Y63424D01*
X39412D01*
X39158Y63678D01*
Y64693D01*
X40681D02*
X40935Y64947D01*
X41443D01*
X41697Y64693D01*
Y63678D01*
X41443Y63424D01*
X40935D01*
X40681Y63678D01*
Y64693D01*
X42205D02*
X42459Y64947D01*
X42967D01*
X43220Y64693D01*
Y63678D01*
X42967Y63424D01*
X42459D01*
X42205Y63678D01*
Y64693D01*
X65872Y64947D02*
X65364D01*
X65618D01*
Y63678D01*
X65364Y63424D01*
X65110D01*
X64856Y63678D01*
X67396Y64947D02*
X66380D01*
Y64186D01*
X66888Y64439D01*
X67142D01*
X67396Y64186D01*
Y63678D01*
X67142Y63424D01*
X66634D01*
X66380Y63678D01*
X67903Y63424D02*
X68411D01*
X68157D01*
Y64947D01*
X67903Y64693D01*
X69173D02*
X69427Y64947D01*
X69935D01*
X70189Y64693D01*
Y63678D01*
X69935Y63424D01*
X69427D01*
X69173Y63678D01*
Y64693D01*
X70697D02*
X70950Y64947D01*
X71458D01*
X71712Y64693D01*
Y63678D01*
X71458Y63424D01*
X70950D01*
X70697Y63678D01*
Y64693D01*
X72220Y63424D02*
X72728D01*
X72474D01*
Y64947D01*
X72220Y64693D01*
X95862Y64947D02*
X95354D01*
X95608D01*
Y63678D01*
X95354Y63424D01*
X95100D01*
X94846Y63678D01*
X97385Y64947D02*
X96370D01*
Y64186D01*
X96878Y64439D01*
X97131D01*
X97385Y64186D01*
Y63678D01*
X97131Y63424D01*
X96624D01*
X96370Y63678D01*
X97893Y63424D02*
X98401D01*
X98147D01*
Y64947D01*
X97893Y64693D01*
X99163D02*
X99417Y64947D01*
X99925D01*
X100178Y64693D01*
Y63678D01*
X99925Y63424D01*
X99417D01*
X99163Y63678D01*
Y64693D01*
X100686D02*
X100940Y64947D01*
X101448D01*
X101702Y64693D01*
Y63678D01*
X101448Y63424D01*
X100940D01*
X100686Y63678D01*
Y64693D01*
X103225Y63424D02*
X102210D01*
X103225Y64439D01*
Y64693D01*
X102972Y64947D01*
X102464D01*
X102210Y64693D01*
X125852Y64947D02*
X125344D01*
X125598D01*
Y63678D01*
X125344Y63424D01*
X125090D01*
X124836Y63678D01*
X127375Y64947D02*
X126360D01*
Y64186D01*
X126867Y64439D01*
X127121D01*
X127375Y64186D01*
Y63678D01*
X127121Y63424D01*
X126613D01*
X126360Y63678D01*
X127883Y63424D02*
X128391D01*
X128137D01*
Y64947D01*
X127883Y64693D01*
X129153D02*
X129407Y64947D01*
X129914D01*
X130168Y64693D01*
Y63678D01*
X129914Y63424D01*
X129407D01*
X129153Y63678D01*
Y64693D01*
X130676D02*
X130930Y64947D01*
X131438D01*
X131692Y64693D01*
Y63678D01*
X131438Y63424D01*
X130930D01*
X130676Y63678D01*
Y64693D01*
X132200D02*
X132454Y64947D01*
X132961D01*
X133215Y64693D01*
Y64439D01*
X132961Y64186D01*
X132707D01*
X132961D01*
X133215Y63932D01*
Y63678D01*
X132961Y63424D01*
X132454D01*
X132200Y63678D01*
X155867Y64947D02*
X155359D01*
X155613D01*
Y63678D01*
X155359Y63424D01*
X155105D01*
X154851Y63678D01*
X157390Y64947D02*
X156375D01*
Y64186D01*
X156883Y64439D01*
X157136D01*
X157390Y64186D01*
Y63678D01*
X157136Y63424D01*
X156629D01*
X156375Y63678D01*
X157898Y63424D02*
X158406D01*
X158152D01*
Y64947D01*
X157898Y64693D01*
X159168D02*
X159422Y64947D01*
X159930D01*
X160183Y64693D01*
Y63678D01*
X159930Y63424D01*
X159422D01*
X159168Y63678D01*
Y64693D01*
X160691D02*
X160945Y64947D01*
X161453D01*
X161707Y64693D01*
Y63678D01*
X161453Y63424D01*
X160945D01*
X160691Y63678D01*
Y64693D01*
X162977Y63424D02*
Y64947D01*
X162215Y64186D01*
X163230D01*
X185857Y64947D02*
X185349D01*
X185603D01*
Y63678D01*
X185349Y63424D01*
X185095D01*
X184841Y63678D01*
X187380Y64947D02*
X186365D01*
Y64186D01*
X186872Y64439D01*
X187126D01*
X187380Y64186D01*
Y63678D01*
X187126Y63424D01*
X186618D01*
X186365Y63678D01*
X187888Y63424D02*
X188396D01*
X188142D01*
Y64947D01*
X187888Y64693D01*
X189158D02*
X189412Y64947D01*
X189919D01*
X190173Y64693D01*
Y63678D01*
X189919Y63424D01*
X189412D01*
X189158Y63678D01*
Y64693D01*
X190681D02*
X190935Y64947D01*
X191443D01*
X191697Y64693D01*
Y63678D01*
X191443Y63424D01*
X190935D01*
X190681Y63678D01*
Y64693D01*
X193220Y64947D02*
X192205D01*
Y64186D01*
X192712Y64439D01*
X192966D01*
X193220Y64186D01*
Y63678D01*
X192966Y63424D01*
X192459D01*
X192205Y63678D01*
X215719Y45201D02*
X215212D01*
X215466D01*
Y43932D01*
X215212Y43678D01*
X214958D01*
X214704Y43932D01*
X217243Y45201D02*
X216227D01*
Y44440D01*
X216735Y44693D01*
X216989D01*
X217243Y44440D01*
Y43932D01*
X216989Y43678D01*
X216481D01*
X216227Y43932D01*
X217751Y43678D02*
X218259D01*
X218005D01*
Y45201D01*
X217751Y44947D01*
X219020D02*
X219274Y45201D01*
X219782D01*
X220036Y44947D01*
Y43932D01*
X219782Y43678D01*
X219274D01*
X219020Y43932D01*
Y44947D01*
X220544D02*
X220798Y45201D01*
X221306D01*
X221560Y44947D01*
Y43932D01*
X221306Y43678D01*
X220798D01*
X220544Y43932D01*
Y44947D01*
X223083Y45201D02*
X222575Y44947D01*
X222067Y44440D01*
Y43932D01*
X222321Y43678D01*
X222829D01*
X223083Y43932D01*
Y44186D01*
X222829Y44440D01*
X222067D01*
X245735Y45212D02*
X245227D01*
X245481D01*
Y43942D01*
X245227Y43688D01*
X244973D01*
X244719Y43942D01*
X247258Y45212D02*
X246243D01*
Y44450D01*
X246750Y44704D01*
X247004D01*
X247258Y44450D01*
Y43942D01*
X247004Y43688D01*
X246496D01*
X246243Y43942D01*
X247766Y43688D02*
X248274D01*
X248020D01*
Y45212D01*
X247766Y44958D01*
X249036D02*
X249290Y45212D01*
X249797D01*
X250051Y44958D01*
Y43942D01*
X249797Y43688D01*
X249290D01*
X249036Y43942D01*
Y44958D01*
X250559D02*
X250813Y45212D01*
X251321D01*
X251575Y44958D01*
Y43942D01*
X251321Y43688D01*
X250813D01*
X250559Y43942D01*
Y44958D01*
X252083Y45212D02*
X253098D01*
Y44958D01*
X252083Y43942D01*
Y43688D01*
X275724Y45212D02*
X275217D01*
X275471D01*
Y43942D01*
X275217Y43688D01*
X274963D01*
X274709Y43942D01*
X277248Y45212D02*
X276232D01*
Y44450D01*
X276740Y44704D01*
X276994D01*
X277248Y44450D01*
Y43942D01*
X276994Y43688D01*
X276486D01*
X276232Y43942D01*
X277756Y43688D02*
X278264D01*
X278010D01*
Y45212D01*
X277756Y44958D01*
X279025D02*
X279279Y45212D01*
X279787D01*
X280041Y44958D01*
Y43942D01*
X279787Y43688D01*
X279279D01*
X279025Y43942D01*
Y44958D01*
X280549D02*
X280803Y45212D01*
X281311D01*
X281565Y44958D01*
Y43942D01*
X281311Y43688D01*
X280803D01*
X280549Y43942D01*
Y44958D01*
X282072D02*
X282326Y45212D01*
X282834D01*
X283088Y44958D01*
Y44704D01*
X282834Y44450D01*
X283088Y44196D01*
Y43942D01*
X282834Y43688D01*
X282326D01*
X282072Y43942D01*
Y44196D01*
X282326Y44450D01*
X282072Y44704D01*
Y44958D01*
X282326Y44450D02*
X282834D01*
M02*
