%FSLAX43Y43*%
%MOMM*%
G71*
G01*
G75*
G04 Layer_Physical_Order=1*
G04 Layer_Color=255*
%ADD10R,0.600X1.550*%
%ADD11R,1.000X0.900*%
%ADD12R,0.600X1.300*%
%ADD13C,1.800*%
%ADD14R,1.800X1.800*%
%ADD15R,1.050X1.050*%
%ADD16C,1.050*%
%ADD17C,2.050*%
%ADD18C,8.000*%
D10*
X210000Y51125D02*
D03*
X210950Y48875D02*
D03*
X209050D02*
D03*
X240000Y51125D02*
D03*
X240950Y48875D02*
D03*
X239050D02*
D03*
X270000Y51125D02*
D03*
X270950Y48875D02*
D03*
X269050D02*
D03*
X180000Y61125D02*
D03*
X180950Y58875D02*
D03*
X179050D02*
D03*
X120000Y61125D02*
D03*
X120950Y58875D02*
D03*
X119050D02*
D03*
X150000Y61125D02*
D03*
X150950Y58875D02*
D03*
X149050D02*
D03*
X30000Y61125D02*
D03*
X30950Y58875D02*
D03*
X29050D02*
D03*
X60000Y61125D02*
D03*
X60950Y58875D02*
D03*
X59050D02*
D03*
X90000Y61125D02*
D03*
X90950Y58875D02*
D03*
X89050D02*
D03*
D11*
X90000Y39200D02*
D03*
Y40800D02*
D03*
X210000Y39200D02*
D03*
Y40800D02*
D03*
X240000Y39200D02*
D03*
Y40800D02*
D03*
X270000Y39200D02*
D03*
Y40800D02*
D03*
X30000Y40800D02*
D03*
Y39200D02*
D03*
X60000Y40800D02*
D03*
Y39200D02*
D03*
X180000Y39200D02*
D03*
Y40800D02*
D03*
X120000Y39200D02*
D03*
Y40800D02*
D03*
X150000Y39200D02*
D03*
Y40800D02*
D03*
X240000Y24200D02*
D03*
Y25800D02*
D03*
X270000Y24200D02*
D03*
Y25800D02*
D03*
X210000Y24200D02*
D03*
Y25800D02*
D03*
X50000Y29200D02*
D03*
Y30800D02*
D03*
Y24200D02*
D03*
Y25800D02*
D03*
X30000Y54200D02*
D03*
Y55800D02*
D03*
X60000Y54200D02*
D03*
Y55800D02*
D03*
X90000Y54200D02*
D03*
Y55800D02*
D03*
X80000Y29200D02*
D03*
Y30800D02*
D03*
X80000Y24200D02*
D03*
Y25800D02*
D03*
X90000Y44200D02*
D03*
Y45800D02*
D03*
X30000Y44200D02*
D03*
Y45800D02*
D03*
X60000Y44200D02*
D03*
Y45800D02*
D03*
X110000Y29200D02*
D03*
Y30800D02*
D03*
Y24200D02*
D03*
Y25800D02*
D03*
X120000Y54200D02*
D03*
Y55800D02*
D03*
X150000Y54200D02*
D03*
Y55800D02*
D03*
X180000Y54200D02*
D03*
Y55800D02*
D03*
X140000Y28400D02*
D03*
Y30000D02*
D03*
Y23400D02*
D03*
Y25000D02*
D03*
X170000Y29200D02*
D03*
Y30800D02*
D03*
X180000Y44200D02*
D03*
Y45800D02*
D03*
X120000Y44200D02*
D03*
Y45800D02*
D03*
X150000Y44200D02*
D03*
Y45800D02*
D03*
X170000Y24200D02*
D03*
Y25800D02*
D03*
X240000Y44200D02*
D03*
Y45800D02*
D03*
X270000Y44200D02*
D03*
Y45800D02*
D03*
X210000Y44200D02*
D03*
Y45800D02*
D03*
X240000Y29200D02*
D03*
Y30800D02*
D03*
X270000Y29200D02*
D03*
Y30800D02*
D03*
X210000Y29200D02*
D03*
Y30800D02*
D03*
X220000Y49200D02*
D03*
Y50800D02*
D03*
X250000Y49200D02*
D03*
Y50800D02*
D03*
X280000Y49200D02*
D03*
Y50800D02*
D03*
D12*
X90000Y51050D02*
D03*
X90950Y48950D02*
D03*
X89050D02*
D03*
X30000Y51050D02*
D03*
X30950Y48950D02*
D03*
X29050D02*
D03*
X60000Y51050D02*
D03*
X60950Y48950D02*
D03*
X59050D02*
D03*
X180000Y51050D02*
D03*
X180950Y48950D02*
D03*
X179050D02*
D03*
X120000Y51050D02*
D03*
X120950Y48950D02*
D03*
X119050D02*
D03*
X150000Y51050D02*
D03*
X150950Y48950D02*
D03*
X149050D02*
D03*
X240000Y36050D02*
D03*
X240950Y33950D02*
D03*
X239050D02*
D03*
X270000Y36050D02*
D03*
X270950Y33950D02*
D03*
X269050D02*
D03*
X210000Y36050D02*
D03*
X210950Y33950D02*
D03*
X209050D02*
D03*
D13*
X230000Y31270D02*
D03*
X290000D02*
D03*
X260000D02*
D03*
X21270Y70320D02*
D03*
X18730D02*
D03*
X21270Y67780D02*
D03*
X18730D02*
D03*
X21270Y65240D02*
D03*
X18730D02*
D03*
X21270Y62700D02*
D03*
X18730D02*
D03*
X21270Y60160D02*
D03*
X18730D02*
D03*
X21270Y57620D02*
D03*
X18730D02*
D03*
X21270Y55080D02*
D03*
X18730D02*
D03*
X21270Y52540D02*
D03*
X18730D02*
D03*
X21270Y50000D02*
D03*
X18730D02*
D03*
X21270Y47460D02*
D03*
X18730D02*
D03*
X21270Y44920D02*
D03*
X18730D02*
D03*
X21270Y42380D02*
D03*
X18730D02*
D03*
X21270Y39840D02*
D03*
X18730D02*
D03*
X21270Y37300D02*
D03*
X18730D02*
D03*
X21270Y34760D02*
D03*
X18730D02*
D03*
X21270Y32220D02*
D03*
X18730D02*
D03*
X21270Y29680D02*
D03*
X18730D02*
D03*
X200000Y38730D02*
D03*
Y48730D02*
D03*
X140000Y38730D02*
D03*
Y48730D02*
D03*
X170000Y38730D02*
D03*
Y48730D02*
D03*
X201270Y75080D02*
D03*
X198730D02*
D03*
X201270Y72540D02*
D03*
X198730D02*
D03*
X201270Y70000D02*
D03*
X198730D02*
D03*
X201270Y67460D02*
D03*
X198730D02*
D03*
X201270Y64920D02*
D03*
X198730D02*
D03*
X141270Y75080D02*
D03*
X138730D02*
D03*
X141270Y72540D02*
D03*
X138730D02*
D03*
X141270Y70000D02*
D03*
X138730D02*
D03*
X141270Y67460D02*
D03*
X138730D02*
D03*
X141270Y64920D02*
D03*
X138730D02*
D03*
X171270Y75080D02*
D03*
X168730D02*
D03*
X171270Y72540D02*
D03*
X168730D02*
D03*
X171270Y70000D02*
D03*
X168730D02*
D03*
X171270Y67460D02*
D03*
X168730D02*
D03*
X171270Y64920D02*
D03*
X168730D02*
D03*
X81270Y75080D02*
D03*
X78730D02*
D03*
X81270Y72540D02*
D03*
X78730D02*
D03*
X81270Y70000D02*
D03*
X78730D02*
D03*
X81270Y67460D02*
D03*
X78730D02*
D03*
X81270Y64920D02*
D03*
X78730D02*
D03*
X111270Y75080D02*
D03*
X108730D02*
D03*
X111270Y72540D02*
D03*
X108730D02*
D03*
X111270Y70000D02*
D03*
X108730D02*
D03*
X111270Y67460D02*
D03*
X108730D02*
D03*
X111270Y64920D02*
D03*
X108730D02*
D03*
X51270Y75080D02*
D03*
X48730D02*
D03*
X51270Y72540D02*
D03*
X48730D02*
D03*
X51270Y70000D02*
D03*
X48730D02*
D03*
X51270Y67460D02*
D03*
X48730D02*
D03*
X51270Y64920D02*
D03*
X48730D02*
D03*
X50000Y48730D02*
D03*
Y38730D02*
D03*
X110000Y48730D02*
D03*
Y38730D02*
D03*
X80000Y48730D02*
D03*
Y38730D02*
D03*
D14*
X230000Y28730D02*
D03*
X290000D02*
D03*
X260000D02*
D03*
X200000Y41270D02*
D03*
Y51270D02*
D03*
X140000Y41270D02*
D03*
Y51270D02*
D03*
X170000Y41270D02*
D03*
Y51270D02*
D03*
X50000D02*
D03*
Y41270D02*
D03*
X110000Y51270D02*
D03*
Y41270D02*
D03*
X80000Y51270D02*
D03*
Y41270D02*
D03*
D15*
X41245Y59500D02*
D03*
X71245D02*
D03*
X101245D02*
D03*
X131245D02*
D03*
X161245D02*
D03*
X191245D02*
D03*
X218755Y20500D02*
D03*
X248755D02*
D03*
X278755D02*
D03*
D16*
X41245Y57500D02*
D03*
Y55500D02*
D03*
Y53500D02*
D03*
Y51500D02*
D03*
Y49500D02*
D03*
Y45500D02*
D03*
Y43500D02*
D03*
Y41500D02*
D03*
X43245Y58500D02*
D03*
Y56500D02*
D03*
Y54500D02*
D03*
Y52500D02*
D03*
Y50500D02*
D03*
Y46500D02*
D03*
Y44500D02*
D03*
Y42500D02*
D03*
Y40500D02*
D03*
X38745Y59500D02*
D03*
Y57500D02*
D03*
Y55500D02*
D03*
Y53500D02*
D03*
Y51500D02*
D03*
Y49500D02*
D03*
Y45500D02*
D03*
Y43500D02*
D03*
Y41500D02*
D03*
X36745Y58500D02*
D03*
Y56500D02*
D03*
Y54500D02*
D03*
Y52500D02*
D03*
Y50500D02*
D03*
Y46500D02*
D03*
Y44500D02*
D03*
Y42500D02*
D03*
Y40500D02*
D03*
X71245Y57500D02*
D03*
Y55500D02*
D03*
Y53500D02*
D03*
Y51500D02*
D03*
Y49500D02*
D03*
Y45500D02*
D03*
Y43500D02*
D03*
Y41500D02*
D03*
X73245Y58500D02*
D03*
Y56500D02*
D03*
Y54500D02*
D03*
Y52500D02*
D03*
Y50500D02*
D03*
Y46500D02*
D03*
Y44500D02*
D03*
Y42500D02*
D03*
Y40500D02*
D03*
X68745Y59500D02*
D03*
Y57500D02*
D03*
Y55500D02*
D03*
Y53500D02*
D03*
Y51500D02*
D03*
Y49500D02*
D03*
Y45500D02*
D03*
Y43500D02*
D03*
Y41500D02*
D03*
X66745Y58500D02*
D03*
Y56500D02*
D03*
Y54500D02*
D03*
Y52500D02*
D03*
Y50500D02*
D03*
Y46500D02*
D03*
Y44500D02*
D03*
Y42500D02*
D03*
Y40500D02*
D03*
X101245Y57500D02*
D03*
Y55500D02*
D03*
Y53500D02*
D03*
Y51500D02*
D03*
Y49500D02*
D03*
Y45500D02*
D03*
Y43500D02*
D03*
Y41500D02*
D03*
X103245Y58500D02*
D03*
Y56500D02*
D03*
Y54500D02*
D03*
Y52500D02*
D03*
Y50500D02*
D03*
Y46500D02*
D03*
Y44500D02*
D03*
Y42500D02*
D03*
Y40500D02*
D03*
X98745Y59500D02*
D03*
Y57500D02*
D03*
Y55500D02*
D03*
Y53500D02*
D03*
Y51500D02*
D03*
Y49500D02*
D03*
Y45500D02*
D03*
Y43500D02*
D03*
Y41500D02*
D03*
X96745Y58500D02*
D03*
Y56500D02*
D03*
Y54500D02*
D03*
Y52500D02*
D03*
Y50500D02*
D03*
Y46500D02*
D03*
Y44500D02*
D03*
Y42500D02*
D03*
Y40500D02*
D03*
X131245Y57500D02*
D03*
Y55500D02*
D03*
Y53500D02*
D03*
Y51500D02*
D03*
Y49500D02*
D03*
Y45500D02*
D03*
Y43500D02*
D03*
Y41500D02*
D03*
X133245Y58500D02*
D03*
Y56500D02*
D03*
Y54500D02*
D03*
Y52500D02*
D03*
Y50500D02*
D03*
Y46500D02*
D03*
Y44500D02*
D03*
Y42500D02*
D03*
Y40500D02*
D03*
X128745Y59500D02*
D03*
Y57500D02*
D03*
Y55500D02*
D03*
Y53500D02*
D03*
Y51500D02*
D03*
Y49500D02*
D03*
Y45500D02*
D03*
Y43500D02*
D03*
Y41500D02*
D03*
X126745Y58500D02*
D03*
Y56500D02*
D03*
Y54500D02*
D03*
Y52500D02*
D03*
Y50500D02*
D03*
Y46500D02*
D03*
Y44500D02*
D03*
Y42500D02*
D03*
Y40500D02*
D03*
X161245Y57500D02*
D03*
Y55500D02*
D03*
Y53500D02*
D03*
Y51500D02*
D03*
Y49500D02*
D03*
Y45500D02*
D03*
Y43500D02*
D03*
Y41500D02*
D03*
X163245Y58500D02*
D03*
Y56500D02*
D03*
Y54500D02*
D03*
Y52500D02*
D03*
Y50500D02*
D03*
Y46500D02*
D03*
Y44500D02*
D03*
Y42500D02*
D03*
Y40500D02*
D03*
X158745Y59500D02*
D03*
Y57500D02*
D03*
Y55500D02*
D03*
Y53500D02*
D03*
Y51500D02*
D03*
Y49500D02*
D03*
Y45500D02*
D03*
Y43500D02*
D03*
Y41500D02*
D03*
X156745Y58500D02*
D03*
Y56500D02*
D03*
Y54500D02*
D03*
Y52500D02*
D03*
Y50500D02*
D03*
Y46500D02*
D03*
Y44500D02*
D03*
Y42500D02*
D03*
Y40500D02*
D03*
X191245Y57500D02*
D03*
Y55500D02*
D03*
Y53500D02*
D03*
Y51500D02*
D03*
Y49500D02*
D03*
Y45500D02*
D03*
Y43500D02*
D03*
Y41500D02*
D03*
X193245Y58500D02*
D03*
Y56500D02*
D03*
Y54500D02*
D03*
Y52500D02*
D03*
Y50500D02*
D03*
Y46500D02*
D03*
Y44500D02*
D03*
Y42500D02*
D03*
Y40500D02*
D03*
X188745Y59500D02*
D03*
Y57500D02*
D03*
Y55500D02*
D03*
Y53500D02*
D03*
Y51500D02*
D03*
Y49500D02*
D03*
Y45500D02*
D03*
Y43500D02*
D03*
Y41500D02*
D03*
X186745Y58500D02*
D03*
Y56500D02*
D03*
Y54500D02*
D03*
Y52500D02*
D03*
Y50500D02*
D03*
Y46500D02*
D03*
Y44500D02*
D03*
Y42500D02*
D03*
Y40500D02*
D03*
X218755Y22500D02*
D03*
Y24500D02*
D03*
Y26500D02*
D03*
Y28500D02*
D03*
Y30500D02*
D03*
Y34500D02*
D03*
Y36500D02*
D03*
Y38500D02*
D03*
X216755Y21500D02*
D03*
Y23500D02*
D03*
Y25500D02*
D03*
Y27500D02*
D03*
Y29500D02*
D03*
Y33500D02*
D03*
Y35500D02*
D03*
Y37500D02*
D03*
Y39500D02*
D03*
X221255Y20500D02*
D03*
Y22500D02*
D03*
Y24500D02*
D03*
Y26500D02*
D03*
Y28500D02*
D03*
Y30500D02*
D03*
Y34500D02*
D03*
Y36500D02*
D03*
Y38500D02*
D03*
X223255Y21500D02*
D03*
Y23500D02*
D03*
Y25500D02*
D03*
Y27500D02*
D03*
Y29500D02*
D03*
Y33500D02*
D03*
Y35500D02*
D03*
Y37500D02*
D03*
Y39500D02*
D03*
X248755Y22500D02*
D03*
Y24500D02*
D03*
Y26500D02*
D03*
Y28500D02*
D03*
Y30500D02*
D03*
Y34500D02*
D03*
Y36500D02*
D03*
Y38500D02*
D03*
X246755Y21500D02*
D03*
Y23500D02*
D03*
Y25500D02*
D03*
Y27500D02*
D03*
Y29500D02*
D03*
Y33500D02*
D03*
Y35500D02*
D03*
Y37500D02*
D03*
Y39500D02*
D03*
X251255Y20500D02*
D03*
Y22500D02*
D03*
Y24500D02*
D03*
Y26500D02*
D03*
Y28500D02*
D03*
Y30500D02*
D03*
Y34500D02*
D03*
Y36500D02*
D03*
Y38500D02*
D03*
X253255Y21500D02*
D03*
Y23500D02*
D03*
Y25500D02*
D03*
Y27500D02*
D03*
Y29500D02*
D03*
Y33500D02*
D03*
Y35500D02*
D03*
Y37500D02*
D03*
Y39500D02*
D03*
X278755Y22500D02*
D03*
Y24500D02*
D03*
Y26500D02*
D03*
Y28500D02*
D03*
Y30500D02*
D03*
Y34500D02*
D03*
Y36500D02*
D03*
Y38500D02*
D03*
X276755Y21500D02*
D03*
Y23500D02*
D03*
Y25500D02*
D03*
Y27500D02*
D03*
Y29500D02*
D03*
Y33500D02*
D03*
Y35500D02*
D03*
Y37500D02*
D03*
Y39500D02*
D03*
X281255Y20500D02*
D03*
Y22500D02*
D03*
Y24500D02*
D03*
Y26500D02*
D03*
Y28500D02*
D03*
Y30500D02*
D03*
Y34500D02*
D03*
Y36500D02*
D03*
Y38500D02*
D03*
X283255Y21500D02*
D03*
Y23500D02*
D03*
Y25500D02*
D03*
Y27500D02*
D03*
Y29500D02*
D03*
Y33500D02*
D03*
Y35500D02*
D03*
Y37500D02*
D03*
Y39500D02*
D03*
D17*
X39995Y47850D02*
D03*
Y38700D02*
D03*
X69995Y47850D02*
D03*
Y38700D02*
D03*
X99995Y47850D02*
D03*
Y38700D02*
D03*
X129995Y47850D02*
D03*
Y38700D02*
D03*
X159995Y47850D02*
D03*
Y38700D02*
D03*
X189995Y47850D02*
D03*
Y38700D02*
D03*
X220005Y32150D02*
D03*
Y41300D02*
D03*
X250005Y32150D02*
D03*
Y41300D02*
D03*
X280005Y32150D02*
D03*
Y41300D02*
D03*
D18*
X153777Y10000D02*
D03*
X166223D02*
D03*
X183777Y90000D02*
D03*
X196223D02*
D03*
X183777Y10000D02*
D03*
X196223D02*
D03*
X213777Y90000D02*
D03*
X226223D02*
D03*
X213777Y10000D02*
D03*
X226223D02*
D03*
X243777Y90000D02*
D03*
X256223D02*
D03*
X243777Y10000D02*
D03*
X256223D02*
D03*
X273777Y90000D02*
D03*
X286223D02*
D03*
X273777Y10000D02*
D03*
X286223D02*
D03*
X33777Y90000D02*
D03*
X46223D02*
D03*
X33777Y10000D02*
D03*
X46223D02*
D03*
X63777Y90000D02*
D03*
X76223D02*
D03*
X63777Y10000D02*
D03*
X76223D02*
D03*
X93777Y90000D02*
D03*
X106223D02*
D03*
X93777Y10000D02*
D03*
X106223D02*
D03*
X123777Y90000D02*
D03*
X136223D02*
D03*
X123777Y10000D02*
D03*
X136223D02*
D03*
X153777Y90000D02*
D03*
X166223D02*
D03*
M02*
