%FSLAX43Y43*%
%MOMM*%
G71*
G01*
G75*
G04 Layer_Color=32896*
%ADD10R,0.600X1.550*%
%ADD11R,1.000X0.900*%
%ADD12R,0.600X1.300*%
%ADD13C,1.800*%
%ADD14R,1.800X1.800*%
%ADD15R,1.050X1.050*%
%ADD16C,1.050*%
%ADD17C,2.050*%
%ADD18C,8.000*%
%ADD19C,0.250*%
%ADD20C,0.600*%
%ADD21C,0.200*%
%ADD22C,0.254*%
%ADD23R,0.803X1.753*%
%ADD24R,1.203X1.103*%
%ADD25R,0.803X1.503*%
%ADD26C,2.003*%
%ADD27R,2.003X2.003*%
%ADD28R,1.253X1.253*%
%ADD29C,1.253*%
%ADD30C,2.253*%
%ADD31C,8.203*%
%ADD32C,0.500*%
D21*
X22000Y73500D02*
X24500D01*
Y71000D02*
Y73500D01*
X15500Y71000D02*
Y73500D01*
X18000D01*
X15500Y26500D02*
X18000D01*
X15500D02*
Y29000D01*
X22000Y26500D02*
X24500D01*
Y29000D01*
X204800Y59600D02*
Y61900D01*
X202400Y59600D02*
X204800D01*
X195200D02*
X197500D01*
X195200D02*
Y62000D01*
Y78100D02*
Y80400D01*
X197600D01*
X204800Y78000D02*
Y80400D01*
X202500D02*
X204800D01*
X144800Y59600D02*
Y61900D01*
X142400Y59600D02*
X144800D01*
X135200D02*
X137500D01*
X135200D02*
Y62000D01*
Y78100D02*
Y80400D01*
X137600D01*
X144800Y78000D02*
Y80400D01*
X142500D02*
X144800D01*
X174800Y59600D02*
Y61900D01*
X172400Y59600D02*
X174800D01*
X165200D02*
X167500D01*
X165200D02*
Y62000D01*
Y78100D02*
Y80400D01*
X167600D01*
X174800Y78000D02*
Y80400D01*
X172500D02*
X174800D01*
X84800Y59600D02*
Y61900D01*
X82400Y59600D02*
X84800D01*
X75200D02*
X77500D01*
X75200D02*
Y62000D01*
Y78100D02*
Y80400D01*
X77600D01*
X84800Y78000D02*
Y80400D01*
X82500D02*
X84800D01*
X114800Y59600D02*
Y61900D01*
X112400Y59600D02*
X114800D01*
X105200D02*
X107500D01*
X105200D02*
Y62000D01*
Y78100D02*
Y80400D01*
X107600D01*
X114800Y78000D02*
Y80400D01*
X112500D02*
X114800D01*
X54800Y59600D02*
Y61900D01*
X52400Y59600D02*
X54800D01*
X45200D02*
X47500D01*
X45200D02*
Y62000D01*
Y78100D02*
Y80400D01*
X47600D01*
X54800Y78000D02*
Y80400D01*
X52500D02*
X54800D01*
D22*
X53620Y82786D02*
X54128D01*
X53874D01*
Y81516D01*
X54128Y81262D01*
X54381D01*
X54635Y81516D01*
X52096Y82786D02*
X53112D01*
Y82024D01*
X52604Y82278D01*
X52350D01*
X52096Y82024D01*
Y81516D01*
X52350Y81262D01*
X52858D01*
X53112Y81516D01*
X51588Y81262D02*
X51081D01*
X51334D01*
Y82786D01*
X51588Y82532D01*
X50319D02*
X50065Y82786D01*
X49557D01*
X49303Y82532D01*
Y81516D01*
X49557Y81262D01*
X50065D01*
X50319Y81516D01*
Y82532D01*
X48795D02*
X48541Y82786D01*
X48034D01*
X47780Y82532D01*
Y81516D01*
X48034Y81262D01*
X48541D01*
X48795Y81516D01*
Y82532D01*
X47272Y81516D02*
X47018Y81262D01*
X46510D01*
X46256Y81516D01*
Y82532D01*
X46510Y82786D01*
X47018D01*
X47272Y82532D01*
Y82278D01*
X47018Y82024D01*
X46256D01*
X113640Y82786D02*
X114148D01*
X113894D01*
Y81516D01*
X114148Y81262D01*
X114402D01*
X114656Y81516D01*
X112116Y82786D02*
X113132D01*
Y82024D01*
X112624Y82278D01*
X112370D01*
X112116Y82024D01*
Y81516D01*
X112370Y81262D01*
X112878D01*
X113132Y81516D01*
X111609Y81262D02*
X111101D01*
X111355D01*
Y82786D01*
X111609Y82532D01*
X110339D02*
X110085Y82786D01*
X109577D01*
X109323Y82532D01*
Y81516D01*
X109577Y81262D01*
X110085D01*
X110339Y81516D01*
Y82532D01*
X108815Y81262D02*
X108308D01*
X108562D01*
Y82786D01*
X108815Y82532D01*
X107546D02*
X107292Y82786D01*
X106784D01*
X106530Y82532D01*
Y81516D01*
X106784Y81262D01*
X107292D01*
X107546Y81516D01*
Y82532D01*
X83643Y82786D02*
X84150D01*
X83896D01*
Y81516D01*
X84150Y81262D01*
X84404D01*
X84658Y81516D01*
X82119Y82786D02*
X83135D01*
Y82024D01*
X82627Y82278D01*
X82373D01*
X82119Y82024D01*
Y81516D01*
X82373Y81262D01*
X82881D01*
X83135Y81516D01*
X81611Y81262D02*
X81103D01*
X81357D01*
Y82786D01*
X81611Y82532D01*
X80342D02*
X80088Y82786D01*
X79580D01*
X79326Y82532D01*
Y81516D01*
X79580Y81262D01*
X80088D01*
X80342Y81516D01*
Y82532D01*
X78818Y81262D02*
X78310D01*
X78564D01*
Y82786D01*
X78818Y82532D01*
X77549Y81262D02*
X77041D01*
X77295D01*
Y82786D01*
X77549Y82532D01*
X52241Y56108D02*
X52748D01*
X52494D01*
Y54839D01*
X52748Y54585D01*
X53002D01*
X53256Y54839D01*
X50717Y56108D02*
X51733D01*
Y55346D01*
X51225Y55600D01*
X50971D01*
X50717Y55346D01*
Y54839D01*
X50971Y54585D01*
X51479D01*
X51733Y54839D01*
X50209Y54585D02*
X49701D01*
X49955D01*
Y56108D01*
X50209Y55854D01*
X48940D02*
X48686Y56108D01*
X48178D01*
X47924Y55854D01*
Y54839D01*
X48178Y54585D01*
X48686D01*
X48940Y54839D01*
Y55854D01*
X47416Y54585D02*
X46908D01*
X47162D01*
Y56108D01*
X47416Y55854D01*
X45131Y54585D02*
X46146D01*
X45131Y55600D01*
Y55854D01*
X45385Y56108D01*
X45893D01*
X46146Y55854D01*
X52241Y46126D02*
X52748D01*
X52494D01*
Y44856D01*
X52748Y44602D01*
X53002D01*
X53256Y44856D01*
X50717Y46126D02*
X51733D01*
Y45364D01*
X51225Y45618D01*
X50971D01*
X50717Y45364D01*
Y44856D01*
X50971Y44602D01*
X51479D01*
X51733Y44856D01*
X50209Y44602D02*
X49701D01*
X49955D01*
Y46126D01*
X50209Y45872D01*
X48940D02*
X48686Y46126D01*
X48178D01*
X47924Y45872D01*
Y44856D01*
X48178Y44602D01*
X48686D01*
X48940Y44856D01*
Y45872D01*
X47416Y44602D02*
X46908D01*
X47162D01*
Y46126D01*
X47416Y45872D01*
X46146D02*
X45893Y46126D01*
X45385D01*
X45131Y45872D01*
Y45618D01*
X45385Y45364D01*
X45639D01*
X45385D01*
X45131Y45110D01*
Y44856D01*
X45385Y44602D01*
X45893D01*
X46146Y44856D01*
X112220Y56108D02*
X112728D01*
X112474D01*
Y54839D01*
X112728Y54585D01*
X112982D01*
X113236Y54839D01*
X110697Y56108D02*
X111712D01*
Y55346D01*
X111204Y55600D01*
X110951D01*
X110697Y55346D01*
Y54839D01*
X110951Y54585D01*
X111458D01*
X111712Y54839D01*
X110189Y54585D02*
X109681D01*
X109935D01*
Y56108D01*
X110189Y55854D01*
X108919D02*
X108665Y56108D01*
X108157D01*
X107904Y55854D01*
Y54839D01*
X108157Y54585D01*
X108665D01*
X108919Y54839D01*
Y55854D01*
X107396Y54585D02*
X106888D01*
X107142D01*
Y56108D01*
X107396Y55854D01*
X105364Y54585D02*
Y56108D01*
X106126Y55346D01*
X105110D01*
X112220Y46126D02*
X112728D01*
X112474D01*
Y44856D01*
X112728Y44602D01*
X112982D01*
X113236Y44856D01*
X110697Y46126D02*
X111712D01*
Y45364D01*
X111204Y45618D01*
X110951D01*
X110697Y45364D01*
Y44856D01*
X110951Y44602D01*
X111458D01*
X111712Y44856D01*
X110189Y44602D02*
X109681D01*
X109935D01*
Y46126D01*
X110189Y45872D01*
X108919D02*
X108665Y46126D01*
X108157D01*
X107904Y45872D01*
Y44856D01*
X108157Y44602D01*
X108665D01*
X108919Y44856D01*
Y45872D01*
X107396Y44602D02*
X106888D01*
X107142D01*
Y46126D01*
X107396Y45872D01*
X105110Y46126D02*
X106126D01*
Y45364D01*
X105618Y45618D01*
X105364D01*
X105110Y45364D01*
Y44856D01*
X105364Y44602D01*
X105872D01*
X106126Y44856D01*
X82230Y56126D02*
X82738D01*
X82484D01*
Y54856D01*
X82738Y54602D01*
X82992D01*
X83246Y54856D01*
X80707Y56126D02*
X81722D01*
Y55364D01*
X81215Y55618D01*
X80961D01*
X80707Y55364D01*
Y54856D01*
X80961Y54602D01*
X81469D01*
X81722Y54856D01*
X80199Y54602D02*
X79691D01*
X79945D01*
Y56126D01*
X80199Y55872D01*
X78929D02*
X78675Y56126D01*
X78168D01*
X77914Y55872D01*
Y54856D01*
X78168Y54602D01*
X78675D01*
X78929Y54856D01*
Y55872D01*
X77406Y54602D02*
X76898D01*
X77152D01*
Y56126D01*
X77406Y55872D01*
X75121Y56126D02*
X75628Y55872D01*
X76136Y55364D01*
Y54856D01*
X75882Y54602D01*
X75375D01*
X75121Y54856D01*
Y55110D01*
X75375Y55364D01*
X76136D01*
X82230Y46126D02*
X82738D01*
X82484D01*
Y44856D01*
X82738Y44602D01*
X82992D01*
X83246Y44856D01*
X80707Y46126D02*
X81722D01*
Y45364D01*
X81215Y45618D01*
X80961D01*
X80707Y45364D01*
Y44856D01*
X80961Y44602D01*
X81469D01*
X81722Y44856D01*
X80199Y44602D02*
X79691D01*
X79945D01*
Y46126D01*
X80199Y45872D01*
X78929D02*
X78675Y46126D01*
X78168D01*
X77914Y45872D01*
Y44856D01*
X78168Y44602D01*
X78675D01*
X78929Y44856D01*
Y45872D01*
X77406Y44602D02*
X76898D01*
X77152D01*
Y46126D01*
X77406Y45872D01*
X76136Y46126D02*
X75121D01*
Y45872D01*
X76136Y44856D01*
Y44602D01*
X173635Y82786D02*
X174143D01*
X173889D01*
Y81516D01*
X174143Y81262D01*
X174396D01*
X174650Y81516D01*
X172111Y82786D02*
X173127D01*
Y82024D01*
X172619Y82278D01*
X172365D01*
X172111Y82024D01*
Y81516D01*
X172365Y81262D01*
X172873D01*
X173127Y81516D01*
X171603Y81262D02*
X171096D01*
X171349D01*
Y82786D01*
X171603Y82532D01*
X170334D02*
X170080Y82786D01*
X169572D01*
X169318Y82532D01*
Y81516D01*
X169572Y81262D01*
X170080D01*
X170334Y81516D01*
Y82532D01*
X168810Y81262D02*
X168302D01*
X168556D01*
Y82786D01*
X168810Y82532D01*
X167541D02*
X167287Y82786D01*
X166779D01*
X166525Y82532D01*
Y82278D01*
X166779Y82024D01*
X166525Y81770D01*
Y81516D01*
X166779Y81262D01*
X167287D01*
X167541Y81516D01*
Y81770D01*
X167287Y82024D01*
X167541Y82278D01*
Y82532D01*
X167287Y82024D02*
X166779D01*
X143637Y82786D02*
X144145D01*
X143891D01*
Y81516D01*
X144145Y81262D01*
X144399D01*
X144653Y81516D01*
X142114Y82786D02*
X143129D01*
Y82024D01*
X142622Y82278D01*
X142368D01*
X142114Y82024D01*
Y81516D01*
X142368Y81262D01*
X142876D01*
X143129Y81516D01*
X141606Y81262D02*
X141098D01*
X141352D01*
Y82786D01*
X141606Y82532D01*
X140336D02*
X140082Y82786D01*
X139575D01*
X139321Y82532D01*
Y81516D01*
X139575Y81262D01*
X140082D01*
X140336Y81516D01*
Y82532D01*
X138813Y81262D02*
X138305D01*
X138559D01*
Y82786D01*
X138813Y82532D01*
X137543Y81516D02*
X137289Y81262D01*
X136782D01*
X136528Y81516D01*
Y82532D01*
X136782Y82786D01*
X137289D01*
X137543Y82532D01*
Y82278D01*
X137289Y82024D01*
X136528D01*
X203632Y82786D02*
X204140D01*
X203886D01*
Y81516D01*
X204140Y81262D01*
X204394D01*
X204648Y81516D01*
X202109Y82786D02*
X203124D01*
Y82024D01*
X202616Y82278D01*
X202363D01*
X202109Y82024D01*
Y81516D01*
X202363Y81262D01*
X202870D01*
X203124Y81516D01*
X201601Y81262D02*
X201093D01*
X201347D01*
Y82786D01*
X201601Y82532D01*
X200331D02*
X200077Y82786D01*
X199569D01*
X199316Y82532D01*
Y81516D01*
X199569Y81262D01*
X200077D01*
X200331Y81516D01*
Y82532D01*
X197792Y81262D02*
X198808D01*
X197792Y82278D01*
Y82532D01*
X198046Y82786D01*
X198554D01*
X198808Y82532D01*
X197284D02*
X197030Y82786D01*
X196522D01*
X196269Y82532D01*
Y81516D01*
X196522Y81262D01*
X197030D01*
X197284Y81516D01*
Y82532D01*
X172225Y56108D02*
X172733D01*
X172479D01*
Y54839D01*
X172733Y54585D01*
X172987D01*
X173241Y54839D01*
X170702Y56108D02*
X171717D01*
Y55346D01*
X171209Y55600D01*
X170956D01*
X170702Y55346D01*
Y54839D01*
X170956Y54585D01*
X171463D01*
X171717Y54839D01*
X170194Y54585D02*
X169686D01*
X169940D01*
Y56108D01*
X170194Y55854D01*
X168924D02*
X168670Y56108D01*
X168162D01*
X167909Y55854D01*
Y54839D01*
X168162Y54585D01*
X168670D01*
X168924Y54839D01*
Y55854D01*
X166385Y54585D02*
X167401D01*
X166385Y55600D01*
Y55854D01*
X166639Y56108D01*
X167147D01*
X167401Y55854D01*
X165877Y54585D02*
X165369D01*
X165623D01*
Y56108D01*
X165877Y55854D01*
X172225Y46126D02*
X172733D01*
X172479D01*
Y44856D01*
X172733Y44602D01*
X172987D01*
X173241Y44856D01*
X170702Y46126D02*
X171717D01*
Y45364D01*
X171209Y45618D01*
X170956D01*
X170702Y45364D01*
Y44856D01*
X170956Y44602D01*
X171463D01*
X171717Y44856D01*
X170194Y44602D02*
X169686D01*
X169940D01*
Y46126D01*
X170194Y45872D01*
X168924D02*
X168670Y46126D01*
X168162D01*
X167909Y45872D01*
Y44856D01*
X168162Y44602D01*
X168670D01*
X168924Y44856D01*
Y45872D01*
X166385Y44602D02*
X167401D01*
X166385Y45618D01*
Y45872D01*
X166639Y46126D01*
X167147D01*
X167401Y45872D01*
X164862Y44602D02*
X165877D01*
X164862Y45618D01*
Y45872D01*
X165115Y46126D01*
X165623D01*
X165877Y45872D01*
X142235Y56108D02*
X142743D01*
X142489D01*
Y54839D01*
X142743Y54585D01*
X142997D01*
X143251Y54839D01*
X140712Y56108D02*
X141727D01*
Y55346D01*
X141220Y55600D01*
X140966D01*
X140712Y55346D01*
Y54839D01*
X140966Y54585D01*
X141474D01*
X141727Y54839D01*
X140204Y54585D02*
X139696D01*
X139950D01*
Y56108D01*
X140204Y55854D01*
X138934D02*
X138680Y56108D01*
X138173D01*
X137919Y55854D01*
Y54839D01*
X138173Y54585D01*
X138680D01*
X138934Y54839D01*
Y55854D01*
X136395Y54585D02*
X137411D01*
X136395Y55600D01*
Y55854D01*
X136649Y56108D01*
X137157D01*
X137411Y55854D01*
X135887D02*
X135633Y56108D01*
X135126D01*
X134872Y55854D01*
Y55600D01*
X135126Y55346D01*
X135380D01*
X135126D01*
X134872Y55092D01*
Y54839D01*
X135126Y54585D01*
X135633D01*
X135887Y54839D01*
X142235Y46126D02*
X142743D01*
X142489D01*
Y44856D01*
X142743Y44602D01*
X142997D01*
X143251Y44856D01*
X140712Y46126D02*
X141727D01*
Y45364D01*
X141220Y45618D01*
X140966D01*
X140712Y45364D01*
Y44856D01*
X140966Y44602D01*
X141474D01*
X141727Y44856D01*
X140204Y44602D02*
X139696D01*
X139950D01*
Y46126D01*
X140204Y45872D01*
X138934D02*
X138680Y46126D01*
X138173D01*
X137919Y45872D01*
Y44856D01*
X138173Y44602D01*
X138680D01*
X138934Y44856D01*
Y45872D01*
X136395Y44602D02*
X137411D01*
X136395Y45618D01*
Y45872D01*
X136649Y46126D01*
X137157D01*
X137411Y45872D01*
X135126Y44602D02*
Y46126D01*
X135887Y45364D01*
X134872D01*
X202240Y56108D02*
X202748D01*
X202494D01*
Y54839D01*
X202748Y54585D01*
X203002D01*
X203256Y54839D01*
X200717Y56108D02*
X201732D01*
Y55346D01*
X201225Y55600D01*
X200971D01*
X200717Y55346D01*
Y54839D01*
X200971Y54585D01*
X201479D01*
X201732Y54839D01*
X200209Y54585D02*
X199701D01*
X199955D01*
Y56108D01*
X200209Y55854D01*
X198939D02*
X198685Y56108D01*
X198178D01*
X197924Y55854D01*
Y54839D01*
X198178Y54585D01*
X198685D01*
X198939Y54839D01*
Y55854D01*
X196400Y54585D02*
X197416D01*
X196400Y55600D01*
Y55854D01*
X196654Y56108D01*
X197162D01*
X197416Y55854D01*
X194877Y56108D02*
X195892D01*
Y55346D01*
X195385Y55600D01*
X195131D01*
X194877Y55346D01*
Y54839D01*
X195131Y54585D01*
X195638D01*
X195892Y54839D01*
X202240Y46126D02*
X202748D01*
X202494D01*
Y44856D01*
X202748Y44602D01*
X203002D01*
X203256Y44856D01*
X200717Y46126D02*
X201732D01*
Y45364D01*
X201225Y45618D01*
X200971D01*
X200717Y45364D01*
Y44856D01*
X200971Y44602D01*
X201479D01*
X201732Y44856D01*
X200209Y44602D02*
X199701D01*
X199955D01*
Y46126D01*
X200209Y45872D01*
X198939D02*
X198685Y46126D01*
X198178D01*
X197924Y45872D01*
Y44856D01*
X198178Y44602D01*
X198685D01*
X198939Y44856D01*
Y45872D01*
X196400Y44602D02*
X197416D01*
X196400Y45618D01*
Y45872D01*
X196654Y46126D01*
X197162D01*
X197416Y45872D01*
X194877Y46126D02*
X195385Y45872D01*
X195892Y45364D01*
Y44856D01*
X195638Y44602D01*
X195131D01*
X194877Y44856D01*
Y45110D01*
X195131Y45364D01*
X195892D01*
X24590Y75887D02*
X25097D01*
X24843D01*
Y74618D01*
X25097Y74364D01*
X25351D01*
X25605Y74618D01*
X23066Y75887D02*
X24082D01*
Y75125D01*
X23574Y75379D01*
X23320D01*
X23066Y75125D01*
Y74618D01*
X23320Y74364D01*
X23828D01*
X24082Y74618D01*
X22558Y74364D02*
X22050D01*
X22304D01*
Y75887D01*
X22558Y75633D01*
X21289D02*
X21035Y75887D01*
X20527D01*
X20273Y75633D01*
Y74618D01*
X20527Y74364D01*
X21035D01*
X21289Y74618D01*
Y75633D01*
X18749Y74364D02*
X19765D01*
X18749Y75379D01*
Y75633D01*
X19003Y75887D01*
X19511D01*
X19765Y75633D01*
X18242Y75887D02*
X17226D01*
Y75633D01*
X18242Y74618D01*
Y74364D01*
X261229Y36118D02*
X261737D01*
X261483D01*
Y34849D01*
X261737Y34595D01*
X261991D01*
X262245Y34849D01*
X259706Y36118D02*
X260721D01*
Y35357D01*
X260214Y35610D01*
X259960D01*
X259706Y35357D01*
Y34849D01*
X259960Y34595D01*
X260468D01*
X260721Y34849D01*
X259198Y34595D02*
X258690D01*
X258944D01*
Y36118D01*
X259198Y35864D01*
X257928D02*
X257674Y36118D01*
X257167D01*
X256913Y35864D01*
Y34849D01*
X257167Y34595D01*
X257674D01*
X257928Y34849D01*
Y35864D01*
X255389Y34595D02*
X256405D01*
X255389Y35610D01*
Y35864D01*
X255643Y36118D01*
X256151D01*
X256405Y35864D01*
X254881D02*
X254627Y36118D01*
X254120D01*
X253866Y35864D01*
Y35610D01*
X254120Y35357D01*
X253866Y35103D01*
Y34849D01*
X254120Y34595D01*
X254627D01*
X254881Y34849D01*
Y35103D01*
X254627Y35357D01*
X254881Y35610D01*
Y35864D01*
X254627Y35357D02*
X254120D01*
X291219Y36118D02*
X291727D01*
X291473D01*
Y34849D01*
X291727Y34595D01*
X291981D01*
X292235Y34849D01*
X289696Y36118D02*
X290711D01*
Y35357D01*
X290203Y35610D01*
X289950D01*
X289696Y35357D01*
Y34849D01*
X289950Y34595D01*
X290457D01*
X290711Y34849D01*
X289188Y34595D02*
X288680D01*
X288934D01*
Y36118D01*
X289188Y35864D01*
X287918D02*
X287664Y36118D01*
X287156D01*
X286903Y35864D01*
Y34849D01*
X287156Y34595D01*
X287664D01*
X287918Y34849D01*
Y35864D01*
X285379Y34595D02*
X286395D01*
X285379Y35610D01*
Y35864D01*
X285633Y36118D01*
X286141D01*
X286395Y35864D01*
X284871Y34849D02*
X284617Y34595D01*
X284109D01*
X283855Y34849D01*
Y35864D01*
X284109Y36118D01*
X284617D01*
X284871Y35864D01*
Y35610D01*
X284617Y35357D01*
X283855D01*
X231240Y36118D02*
X231747D01*
X231493D01*
Y34849D01*
X231747Y34595D01*
X232001D01*
X232255Y34849D01*
X229716Y36118D02*
X230732D01*
Y35357D01*
X230224Y35610D01*
X229970D01*
X229716Y35357D01*
Y34849D01*
X229970Y34595D01*
X230478D01*
X230732Y34849D01*
X229208Y34595D02*
X228700D01*
X228954D01*
Y36118D01*
X229208Y35864D01*
X227939D02*
X227685Y36118D01*
X227177D01*
X226923Y35864D01*
Y34849D01*
X227177Y34595D01*
X227685D01*
X227939Y34849D01*
Y35864D01*
X226415D02*
X226161Y36118D01*
X225653D01*
X225399Y35864D01*
Y35610D01*
X225653Y35357D01*
X225907D01*
X225653D01*
X225399Y35103D01*
Y34849D01*
X225653Y34595D01*
X226161D01*
X226415Y34849D01*
X224892Y35864D02*
X224638Y36118D01*
X224130D01*
X223876Y35864D01*
Y34849D01*
X224130Y34595D01*
X224638D01*
X224892Y34849D01*
Y35864D01*
D32*
X25600Y73100D02*
G03*
X25600Y73100I-200J0D01*
G01*
X194700Y60000D02*
G03*
X194700Y60000I-200J0D01*
G01*
X134700D02*
G03*
X134700Y60000I-200J0D01*
G01*
X164700D02*
G03*
X164700Y60000I-200J0D01*
G01*
X74700D02*
G03*
X74700Y60000I-200J0D01*
G01*
X104700D02*
G03*
X104700Y60000I-200J0D01*
G01*
X44700D02*
G03*
X44700Y60000I-200J0D01*
G01*
M02*
