%FSLAX43Y43*%
%MOMM*%
G71*
G01*
G75*
G04 Layer_Color=8421504*
%ADD10R,0.600X1.550*%
%ADD11R,1.000X0.900*%
%ADD12R,0.600X1.300*%
%ADD13C,1.800*%
%ADD14R,1.800X1.800*%
%ADD15R,1.050X1.050*%
%ADD16C,1.050*%
%ADD17C,2.050*%
%ADD18C,8.000*%
%ADD19C,0.250*%
%ADD20C,0.600*%
%ADD21C,0.200*%
%ADD22C,0.254*%
D10*
X210000Y51125D02*
D03*
X210950Y48875D02*
D03*
X209050D02*
D03*
X240000Y51125D02*
D03*
X240950Y48875D02*
D03*
X239050D02*
D03*
X270000Y51125D02*
D03*
X270950Y48875D02*
D03*
X269050D02*
D03*
X180000Y61125D02*
D03*
X180950Y58875D02*
D03*
X179050D02*
D03*
X120000Y61125D02*
D03*
X120950Y58875D02*
D03*
X119050D02*
D03*
X150000Y61125D02*
D03*
X150950Y58875D02*
D03*
X149050D02*
D03*
X30000Y61125D02*
D03*
X30950Y58875D02*
D03*
X29050D02*
D03*
X60000Y61125D02*
D03*
X60950Y58875D02*
D03*
X59050D02*
D03*
X90000Y61125D02*
D03*
X90950Y58875D02*
D03*
X89050D02*
D03*
D11*
X90000Y39200D02*
D03*
Y40800D02*
D03*
X210000Y39200D02*
D03*
Y40800D02*
D03*
X240000Y39200D02*
D03*
Y40800D02*
D03*
X270000Y39200D02*
D03*
Y40800D02*
D03*
X30000Y40800D02*
D03*
Y39200D02*
D03*
X60000Y40800D02*
D03*
Y39200D02*
D03*
X180000Y39200D02*
D03*
Y40800D02*
D03*
X120000Y39200D02*
D03*
Y40800D02*
D03*
X150000Y39200D02*
D03*
Y40800D02*
D03*
X240000Y24200D02*
D03*
Y25800D02*
D03*
X270000Y24200D02*
D03*
Y25800D02*
D03*
X210000Y24200D02*
D03*
Y25800D02*
D03*
X50000Y29200D02*
D03*
Y30800D02*
D03*
Y24200D02*
D03*
Y25800D02*
D03*
X30000Y54200D02*
D03*
Y55800D02*
D03*
X60000Y54200D02*
D03*
Y55800D02*
D03*
X90000Y54200D02*
D03*
Y55800D02*
D03*
X80000Y29200D02*
D03*
Y30800D02*
D03*
X80000Y24200D02*
D03*
Y25800D02*
D03*
X90000Y44200D02*
D03*
Y45800D02*
D03*
X30000Y44200D02*
D03*
Y45800D02*
D03*
X60000Y44200D02*
D03*
Y45800D02*
D03*
X110000Y29200D02*
D03*
Y30800D02*
D03*
Y24200D02*
D03*
Y25800D02*
D03*
X120000Y54200D02*
D03*
Y55800D02*
D03*
X150000Y54200D02*
D03*
Y55800D02*
D03*
X180000Y54200D02*
D03*
Y55800D02*
D03*
X140000Y28400D02*
D03*
Y30000D02*
D03*
Y23400D02*
D03*
Y25000D02*
D03*
X170000Y29200D02*
D03*
Y30800D02*
D03*
X180000Y44200D02*
D03*
Y45800D02*
D03*
X120000Y44200D02*
D03*
Y45800D02*
D03*
X150000Y44200D02*
D03*
Y45800D02*
D03*
X170000Y24200D02*
D03*
Y25800D02*
D03*
X240000Y44200D02*
D03*
Y45800D02*
D03*
X270000Y44200D02*
D03*
Y45800D02*
D03*
X210000Y44200D02*
D03*
Y45800D02*
D03*
X240000Y29200D02*
D03*
Y30800D02*
D03*
X270000Y29200D02*
D03*
Y30800D02*
D03*
X210000Y29200D02*
D03*
Y30800D02*
D03*
X220000Y49200D02*
D03*
Y50800D02*
D03*
X250000Y49200D02*
D03*
Y50800D02*
D03*
X280000Y49200D02*
D03*
Y50800D02*
D03*
D12*
X90000Y51050D02*
D03*
X90950Y48950D02*
D03*
X89050D02*
D03*
X30000Y51050D02*
D03*
X30950Y48950D02*
D03*
X29050D02*
D03*
X60000Y51050D02*
D03*
X60950Y48950D02*
D03*
X59050D02*
D03*
X180000Y51050D02*
D03*
X180950Y48950D02*
D03*
X179050D02*
D03*
X120000Y51050D02*
D03*
X120950Y48950D02*
D03*
X119050D02*
D03*
X150000Y51050D02*
D03*
X150950Y48950D02*
D03*
X149050D02*
D03*
X240000Y36050D02*
D03*
X240950Y33950D02*
D03*
X239050D02*
D03*
X270000Y36050D02*
D03*
X270950Y33950D02*
D03*
X269050D02*
D03*
X210000Y36050D02*
D03*
X210950Y33950D02*
D03*
X209050D02*
D03*
M02*
