  0
SECTION
  2
HEADER
  9
$ACADVER
  1
AC1015
  9
$ACADMAINTVER
 70
     6
  9
$DWGCODEPAGE
  3
UNDEFINED
  9
$INSBASE
 10
0.0
 20
0.0
 30
0.0
  9
$EXTMIN
 10
-432.0383296343
 20
-16.8928559482
 30
0.0
  9
$EXTMAX
 10
270.2469001832
 20
748.1837103787
 30
0.0
  9
$LIMMIN
 10
0.0
 20
0.0
  9
$LIMMAX
 10
420.0
 20
297.0
  9
$ORTHOMODE
 70
     0
  9
$REGENMODE
 70
     1
  9
$FILLMODE
 70
     1
  9
$QTEXTMODE
 70
     0
  9
$MIRRTEXT
 70
     1
  9
$LTSCALE
 40
1.0
  9
$ATTMODE
 70
     1
  9
$TEXTSIZE
 40
3.5
  9
$TRACEWID
 40
1.0
  9
$TEXTSTYLE
  7
Standard
  9
$CLAYER
  8
0
  9
$CELTYPE
  6
ByLayer
  9
$CECOLOR
 62
   256
  9
$CELTSCALE
 40
1.0
  9
$DISPSILH
 70
     0
  9
$DIMSCALE
 40
1.0
  9
$DIMASZ
 40
3.302
  9
$DIMEXO
 40
1.0
  9
$DIMDLI
 40
3.75
  9
$DIMRND
 40
0.0
  9
$DIMDLE
 40
0.0
  9
$DIMEXE
 40
1.0
  9
$DIMTP
 40
0.0
  9
$DIMTM
 40
0.0
  9
$DIMTXT
 40
3.5
  9
$DIMCEN
 40
2.5
  9
$DIMTSZ
 40
0.0
  9
$DIMTOL
 70
     0
  9
$DIMLIM
 70
     0
  9
$DIMTIH
 70
     1
  9
$DIMTOH
 70
     1
  9
$DIMSE1
 70
     0
  9
$DIMSE2
 70
     0
  9
$DIMTAD
 70
     1
  9
$DIMZIN
 70
     0
  9
$DIMBLK
  1

  9
$DIMASO
 70
     1
  9
$DIMSHO
 70
     1
  9
$DIMPOST
  1

  9
$DIMAPOST
  1

  9
$DIMALT
 70
     0
  9
$DIMALTD
 70
     3
  9
$DIMALTF
 40
0.0393700787
  9
$DIMLFAC
 40
1.0
  9
$DIMTOFL
 70
     1
  9
$DIMTVP
 40
0.0
  9
$DIMTIX
 70
     0
  9
$DIMSOXD
 70
     0
  9
$DIMSAH
 70
     0
  9
$DIMBLK1
  1

  9
$DIMBLK2
  1

  9
$DIMSTYLE
  2
ISO-25
  9
$DIMCLRD
 70
     0
  9
$DIMCLRE
 70
     0
  9
$DIMCLRT
 70
     0
  9
$DIMTFAC
 40
1.0
  9
$DIMGAP
 40
1.524
  9
$DIMJUST
 70
     0
  9
$DIMSD1
 70
     0
  9
$DIMSD2
 70
     0
  9
$DIMTOLJ
 70
     0
  9
$DIMTZIN
 70
     0
  9
$DIMALTZ
 70
     0
  9
$DIMALTTZ
 70
     0
  9
$DIMUPT
 70
     0
  9
$DIMDEC
 70
     2
  9
$DIMTDEC
 70
     2
  9
$DIMALTU
 70
     2
  9
$DIMALTTD
 70
     3
  9
$DIMTXSTY
  7
Standard
  9
$DIMAUNIT
 70
     0
  9
$DIMADEC
 70
     2
  9
$DIMALTRND
 40
0.0
  9
$DIMAZIN
 70
     0
  9
$DIMDSEP
 70
    44
  9
$DIMATFIT
 70
     3
  9
$DIMFRAC
 70
     0
  9
$DIMLDRBLK
  1

  9
$DIMLUNIT
 70
     2
  9
$DIMLWD
 70
    -2
  9
$DIMLWE
 70
    -2
  9
$DIMTMOVE
 70
     0
  9
$LUNITS
 70
     2
  9
$LUPREC
 70
     2
  9
$SKETCHINC
 40
1.0
  9
$FILLETRAD
 40
10.0
  9
$AUNITS
 70
     0
  9
$AUPREC
 70
     2
  9
$MENU
  1
.
  9
$ELEVATION
 40
0.0
  9
$PELEVATION
 40
0.0
  9
$THICKNESS
 40
0.0
  9
$LIMCHECK
 70
     0
  9
$CHAMFERA
 40
0.0
  9
$CHAMFERB
 40
0.0
  9
$CHAMFERC
 40
0.0
  9
$CHAMFERD
 40
0.0
  9
$SKPOLY
 70
     0
  9
$TDCREATE
 40
2458727.860580995
  9
$TDUCREATE
 40
2458727.777247662
  9
$TDUPDATE
 40
2458727.860610938
  9
$TDUUPDATE
 40
2458727.777277604
  9
$TDINDWG
 40
0.0000000116
  9
$TDUSRTIMER
 40
0.0000000116
  9
$USRTIMER
 70
     1
  9
$ANGBASE
 50
0.0
  9
$ANGDIR
 70
     0
  9
$PDMODE
 70
     0
  9
$PDSIZE
 40
-1.0
  9
$PLINEWID
 40
0.0
  9
$SPLFRAME
 70
     0
  9
$SPLINETYPE
 70
     6
  9
$SPLINESEGS
 70
     8
  9
$HANDSEED
  5
20B
  9
$SURFTAB1
 70
     6
  9
$SURFTAB2
 70
     6
  9
$SURFTYPE
 70
     6
  9
$SURFU
 70
     6
  9
$SURFV
 70
     6
  9
$UCSBASE
  2

  9
$UCSNAME
  2

  9
$UCSORG
 10
0.0
 20
0.0
 30
0.0
  9
$UCSXDIR
 10
1.0
 20
0.0
 30
0.0
  9
$UCSYDIR
 10
0.0
 20
1.0
 30
0.0
  9
$UCSORTHOREF
  2

  9
$UCSORTHOVIEW
 70
     0
  9
$UCSORGTOP
 10
0.0
 20
0.0
 30
0.0
  9
$UCSORGBOTTOM
 10
0.0
 20
0.0
 30
0.0
  9
$UCSORGLEFT
 10
0.0
 20
0.0
 30
0.0
  9
$UCSORGRIGHT
 10
0.0
 20
0.0
 30
0.0
  9
$UCSORGFRONT
 10
0.0
 20
0.0
 30
0.0
  9
$UCSORGBACK
 10
0.0
 20
0.0
 30
0.0
  9
$PUCSBASE
  2

  9
$PUCSNAME
  2

  9
$PUCSORG
 10
0.0
 20
0.0
 30
0.0
  9
$PUCSXDIR
 10
1.0
 20
0.0
 30
0.0
  9
$PUCSYDIR
 10
0.0
 20
1.0
 30
0.0
  9
$PUCSORTHOREF
  2

  9
$PUCSORTHOVIEW
 70
     0
  9
$PUCSORGTOP
 10
0.0
 20
0.0
 30
0.0
  9
$PUCSORGBOTTOM
 10
0.0
 20
0.0
 30
0.0
  9
$PUCSORGLEFT
 10
0.0
 20
0.0
 30
0.0
  9
$PUCSORGRIGHT
 10
0.0
 20
0.0
 30
0.0
  9
$PUCSORGFRONT
 10
0.0
 20
0.0
 30
0.0
  9
$PUCSORGBACK
 10
0.0
 20
0.0
 30
0.0
  9
$USERI1
 70
     0
  9
$USERI2
 70
     0
  9
$USERI3
 70
     0
  9
$USERI4
 70
     0
  9
$USERI5
 70
     0
  9
$USERR1
 40
0.0
  9
$USERR2
 40
0.0
  9
$USERR3
 40
0.0
  9
$USERR4
 40
0.0
  9
$USERR5
 40
0.0
  9
$WORLDVIEW
 70
     1
  9
$SHADEDGE
 70
     3
  9
$SHADEDIF
 70
    70
  9
$TILEMODE
 70
     1
  9
$MAXACTVP
 70
    64
  9
$PINSBASE
 10
0.0
 20
0.0
 30
0.0
  9
$PLIMCHECK
 70
     0
  9
$PEXTMIN
 10
1.0000000000E+20
 20
1.0000000000E+20
 30
1.0000000000E+20
  9
$PEXTMAX
 10
-1.0000000000E+20
 20
-1.0000000000E+20
 30
-1.0000000000E+20
  9
$PLIMMIN
 10
0.0
 20
0.0
  9
$PLIMMAX
 10
420.0
 20
297.0
  9
$UNITMODE
 70
     0
  9
$VISRETAIN
 70
     1
  9
$PLINEGEN
 70
     0
  9
$PSLTSCALE
 70
     1
  9
$TREEDEPTH
 70
  3020
  9
$CMLSTYLE
  2
Standard
  9
$CMLJUST
 70
     0
  9
$CMLSCALE
 40
20.0
  9
$PROXYGRAPHICS
 70
     1
  9
$MEASUREMENT
 70
     1
  9
$CELWEIGHT
370
    -1
  9
$ENDCAPS
280
     0
  9
$JOINSTYLE
280
     0
  9
$LWDISPLAY
290
     1
  9
$INSUNITS
 70
     4
  9
$HYPERLINKBASE
  1

  9
$STYLESHEET
  1

  9
$XEDIT
290
     1
  9
$CEPSNTYPE
380
     0
  9
$PSTYLEMODE
290
     1
  9
$FINGERPRINTGUID
  2
{c1b769ce-5dee-4ed4-b8b6-d5af7bbdcf2d}
  9
$VERSIONGUID
  2
{FAEB1C32-E019-11D5-929B-00C0DF256EC4}
  9
$EXTNAMES
290
     1
  9
$PSVPSCALE
 40
0.0
  9
$OLESTARTUP
290
     0
  0
ENDSEC
  0
SECTION
  2
CLASSES
  0
CLASS
  1
ACDBDICTIONARYWDFLT
  2
AcDbDictionaryWithDefault
  3
ObjectDBX Classes
 90
        0
280
     0
281
     0
  0
CLASS
  1
VISUALSTYLE
  2
AcDbVisualStyle
  3
ObjectDBX Classes
 90
     4095
280
     0
281
     0
  0
CLASS
  1
MATERIAL
  2
AcDbMaterial
  3
ObjectDBX Classes
 90
     1153
280
     0
281
     0
  0
CLASS
  1
SCALE
  2
AcDbScale
  3
ObjectDBX Classes
 90
     1153
280
     0
281
     0
  0
CLASS
  1
TABLESTYLE
  2
AcDbTableStyle
  3
ObjectDBX Classes
 90
     4095
280
     0
281
     0
  0
CLASS
  1
MLEADERSTYLE
  2
AcDbMLeaderStyle
  3
ACDB_MLEADERSTYLE_CLASS
 90
     4095
280
     0
281
     0
  0
CLASS
  1
SUN
  2
AcDbSun
  3
SCENEOE
 90
     1153
280
     0
281
     0
  0
CLASS
  1
ACDBPLACEHOLDER
  2
AcDbPlaceHolder
  3
ObjectDBX Classes
 90
        0
280
     0
281
     0
  0
CLASS
  1
LAYOUT
  2
AcDbLayout
  3
ObjectDBX Classes
 90
        0
280
     0
281
     0
  0
ENDSEC
  0
SECTION
  2
TABLES
  0
TABLE
  2
VPORT
  5
8
330
0
100
AcDbSymbolTable
 70
     1
  0
VPORT
  5
29
330
8
100
AcDbSymbolTableRecord
100
AcDbViewportTableRecord
  2
*Active
 70
     0
 10
0.0
 20
0.0
 11
1.0
 21
1.0
 12
-80.8957147256
 22
365.6454272153
 13
0.0
 23
0.0
 14
10.0
 24
10.0
 15
10.0
 25
10.0
 16
0.0
 26
0.0
 36
1.0
 17
0.0
 27
0.0
 37
0.0
 40
780.3780976534
 41
0.9179280359
 42
50.0
 43
0.0
 44
0.0
 50
0.0
 51
0.0
 71
     0
 72
   100
 73
     1
 74
     3
 75
     0
 76
     0
 77
     0
 78
     0
281
     0
 65
     1
110
0.0
120
0.0
130
0.0
111
1.0
121
0.0
131
0.0
112
0.0
122
1.0
132
0.0
 79
     0
146
0.0
  0
ENDTAB
  0
TABLE
  2
LTYPE
  5
5
330
0
100
AcDbSymbolTable
 70
     6
  0
LTYPE
  5
14
330
5
100
AcDbSymbolTableRecord
100
AcDbLinetypeTableRecord
  2
ByBlock
 70
     0
  3

 72
    65
 73
     0
 40
0.0
  0
LTYPE
  5
15
330
5
100
AcDbSymbolTableRecord
100
AcDbLinetypeTableRecord
  2
ByLayer
 70
     0
  3

 72
    65
 73
     0
 40
0.0
  0
LTYPE
  5
16
330
5
100
AcDbSymbolTableRecord
100
AcDbLinetypeTableRecord
  2
Continuous
 70
     0
  3
Solid line
 72
    65
 73
     0
 40
0.0
  0
LTYPE
  5
6E
330
5
100
AcDbSymbolTableRecord
100
AcDbLinetypeTableRecord
  2
HIDDEN
 70
     0
  3
Hidden __ __ __ __ __ __ __ __ __ __ __ __ __ __
 72
    65
 73
     2
 40
1.905
 49
1.27
 74
     0
 49
-0.635
 74
     0
  0
LTYPE
  5
6F
330
5
100
AcDbSymbolTableRecord
100
AcDbLinetypeTableRecord
  2
PHANTOM
 70
     0
  3
Phantom ______  __  __  ______  __  __  ______
 72
    65
 73
     6
 40
12.7
 49
6.35
 74
     0
 49
-1.27
 74
     0
 49
1.27
 74
     0
 49
-1.27
 74
     0
 49
1.27
 74
     0
 49
-1.27
 74
     0
  0
LTYPE
  5
70
330
5
100
AcDbSymbolTableRecord
100
AcDbLinetypeTableRecord
  2
CENTER
 70
     0
  3
Center ____ _ ____ _ ____ _ ____ _ ____ _ ____
 72
    65
 73
     4
 40
10.16
 49
6.35
 74
     0
 49
-1.27
 74
     0
 49
1.27
 74
     0
 49
-1.27
 74
     0
  0
LTYPE
  5
71
330
5
100
AcDbSymbolTableRecord
100
AcDbLinetypeTableRecord
  2
CENTERX2
 70
     0
  3
Center (2x) ________  __  ________  __  _____
 72
    65
 73
     4
 40
20.32
 49
12.7
 74
     0
 49
-2.54
 74
     0
 49
2.54
 74
     0
 49
-2.54
 74
     0
  0
LTYPE
  5
72
330
5
100
AcDbSymbolTableRecord
100
AcDbLinetypeTableRecord
  2
DOT2
 70
     0
  3
Dot (.5x) ........................................
 72
    65
 73
     2
 40
0.635
 49
0.0
 74
     0
 49
-0.635
 74
     0
  0
ENDTAB
  0
TABLE
  2
LAYER
  5
2
330
0
100
AcDbSymbolTable
 70
     1
  0
LAYER
  5
10
330
2
100
AcDbSymbolTableRecord
100
AcDbLayerTableRecord
  2
0
 70
     0
 62
     7
  6
Continuous
370
    -3
390
F
  0
ENDTAB
  0
TABLE
  2
STYLE
  5
3
330
0
100
AcDbSymbolTable
 70
     2
  0
STYLE
  5
11
330
3
100
AcDbSymbolTableRecord
100
AcDbTextStyleTableRecord
  2
Standard
 70
     0
 40
0.0
 41
1.0
 50
0.0
 71
     0
 42
3.5
  3
txt
  4

  0
STYLE
  5
208
330
3
100
AcDbSymbolTableRecord
100
AcDbTextStyleTableRecord
  2
SLDTEXTSTYLE0
 70
     0
 40
0.0
 41
0.7
 50
0.0
 71
     0
 42
3.5
  3
TXT
  4

  0
ENDTAB
  0
TABLE
  2
VIEW
  5
6
330
0
100
AcDbSymbolTable
 70
     0
  0
ENDTAB
  0
TABLE
  2
UCS
  5
7
330
0
100
AcDbSymbolTable
 70
     0
  0
ENDTAB
  0
TABLE
  2
APPID
  5
9
330
0
100
AcDbSymbolTable
 70
     1
  0
APPID
  5
12
330
9
100
AcDbSymbolTableRecord
100
AcDbRegAppTableRecord
  2
ACAD
 70
     0
  0
ENDTAB
  0
TABLE
  2
DIMSTYLE
  5
A
330
0
100
AcDbSymbolTable
 70
     1
100
AcDbDimStyleTable
  0
DIMSTYLE
105
27
330
A
100
AcDbSymbolTableRecord
100
AcDbDimStyleTableRecord
  2
ISO-25
 70
     0
 41
2.5
 42
0.625
 43
3.75
 44
1.25
 73
     0
 74
     0
 77
     1
 78
     8
140
2.5
141
2.5
143
0.0393700787
147
0.625
171
     3
172
     1
178
     0
271
     2
272
     2
274
     3
278
    44
283
     0
284
     8
340
11
  0
ENDTAB
  0
TABLE
  2
BLOCK_RECORD
  5
1
330
0
100
AcDbSymbolTable
 70
     1
  0
BLOCK_RECORD
  5
1F
330
1
100
AcDbSymbolTableRecord
100
AcDbBlockTableRecord
  2
*Model_Space
340
22
  0
BLOCK_RECORD
  5
1B
330
1
100
AcDbSymbolTableRecord
100
AcDbBlockTableRecord
  2
*Paper_Space
340
1E
  0
BLOCK_RECORD
  5
23
330
1
100
AcDbSymbolTableRecord
100
AcDbBlockTableRecord
  2
*Paper_Space0
340
26
  0
ENDTAB
  0
ENDSEC
  0
SECTION
  2
BLOCKS
  0
BLOCK
  5
20
330
1F
100
AcDbEntity
  8
0
100
AcDbBlockBegin
  2
*Model_Space
 70
     0
 10
0.0
 20
0.0
 30
0.0
  3
*Model_Space
  1

  0
ENDBLK
  5
21
330
1F
100
AcDbEntity
  8
0
100
AcDbBlockEnd
  0
BLOCK
  5
1C
330
1B
100
AcDbEntity
 67
     1
  8
0
100
AcDbBlockBegin
  2
*Paper_Space
 70
     0
 10
0.0
 20
0.0
 30
0.0
  3
*Paper_Space
  1

  0
ENDBLK
  5
1D
330
1B
100
AcDbEntity
 67
     1
  8
0
100
AcDbBlockEnd
  0
BLOCK
  5
24
330
23
100
AcDbEntity
  8
0
100
AcDbBlockBegin
  2
*Paper_Space0
 70
     0
 10
0.0
 20
0.0
 30
0.0
  3
*Paper_Space0
  1

  0
ENDBLK
  5
25
330
23
100
AcDbEntity
  8
0
100
AcDbBlockEnd
  0
ENDSEC
  0
SECTION
  2
ENTITIES
  0
LINE
  5
73
330
1F
100
AcDbEntity
  8
0
  6
Continuous
 62
     7
100
AcDbLine
 10
-296.8081512443
 20
-3.238592328
 30
0.0
 11
-296.8081512443
 21
31.779878202
 31
0.0
  0
LINE
  5
74
330
1F
100
AcDbEntity
  8
0
  6
Continuous
 62
     7
100
AcDbLine
 10
-296.8081512443
 20
31.779878202
 30
0.0
 11
-309.889230129
 21
31.779878202
 31
0.0
  0
LINE
  5
75
330
1F
100
AcDbEntity
  8
0
  6
Continuous
 62
     7
100
AcDbLine
 10
-309.889230129
 20
31.779878202
 30
0.0
 11
-309.889230129
 21
36.4652513398
 31
0.0
  0
LINE
  5
76
330
1F
100
AcDbEntity
  8
0
  6
Continuous
 62
     7
100
AcDbLine
 10
-309.889230129
 20
36.4652513398
 30
0.0
 11
-278.4187237034
 21
36.4652513398
 31
0.0
  0
LINE
  5
77
330
1F
100
AcDbEntity
  8
0
  6
Continuous
 62
     7
100
AcDbLine
 10
-278.4187237034
 20
36.4652513398
 30
0.0
 11
-278.4187237034
 21
31.779878202
 31
0.0
  0
LINE
  5
78
330
1F
100
AcDbEntity
  8
0
  6
Continuous
 62
     7
100
AcDbLine
 10
-278.4187237034
 20
31.779878202
 30
0.0
 11
-291.5539755897
 21
31.779878202
 31
0.0
  0
LINE
  5
79
330
1F
100
AcDbEntity
  8
0
  6
Continuous
 62
     7
100
AcDbLine
 10
-291.5539755897
 20
31.779878202
 30
0.0
 11
-291.5539755897
 21
-3.238592328
 31
0.0
  0
LINE
  5
7A
330
1F
100
AcDbEntity
  8
0
  6
Continuous
 62
     7
100
AcDbLine
 10
-291.5539755897
 20
-3.238592328
 30
0.0
 11
-296.8081512443
 21
-3.238592328
 31
0.0
  0
LINE
  5
7B
330
1F
100
AcDbEntity
  8
0
  6
Continuous
 62
     7
100
AcDbLine
 10
-273.2458530512
 20
-3.238592328
 30
0.0
 11
-273.2458530512
 21
36.4652513398
 31
0.0
  0
LINE
  5
7C
330
1F
100
AcDbEntity
  8
0
  6
Continuous
 62
     7
100
AcDbLine
 10
-273.2458530512
 20
36.4652513398
 30
0.0
 11
-267.9916773967
 21
36.4652513398
 31
0.0
  0
LINE
  5
7D
330
1F
100
AcDbEntity
  8
0
  6
Continuous
 62
     7
100
AcDbLine
 10
-267.9916773967
 20
36.4652513398
 30
0.0
 11
-267.9916773967
 21
16.7758257607
 31
0.0
  0
LINE
  5
7E
330
1F
100
AcDbEntity
  8
0
  6
Continuous
 62
     7
100
AcDbLine
 10
-267.9916773967
 20
16.7758257607
 30
0.0
 11
-248.2751408168
 21
36.4652513398
 31
0.0
  0
LINE
  5
7F
330
1F
100
AcDbEntity
  8
0
  6
Continuous
 62
     7
100
AcDbLine
 10
-248.2751408168
 20
36.4652513398
 30
0.0
 11
-241.1523046073
 21
36.4652513398
 31
0.0
  0
LINE
  5
80
330
1F
100
AcDbEntity
  8
0
  6
Continuous
 62
     7
100
AcDbLine
 10
-241.1523046073
 20
36.4652513398
 30
0.0
 11
-257.8084620972
 21
20.3778788666
 31
0.0
  0
LINE
  5
81
330
1F
100
AcDbEntity
  8
0
  6
Continuous
 62
     7
100
AcDbLine
 10
-257.8084620972
 20
20.3778788666
 30
0.0
 11
-240.4211020858
 21
-3.238592328
 31
0.0
  0
LINE
  5
82
330
1F
100
AcDbEntity
  8
0
  6
Continuous
 62
     7
100
AcDbLine
 10
-240.4211020858
 20
-3.238592328
 30
0.0
 11
-247.3543747897
 21
-3.238592328
 31
0.0
  0
LINE
  5
83
330
1F
100
AcDbEntity
  8
0
  6
Continuous
 62
     7
100
AcDbLine
 10
-247.3543747897
 20
-3.238592328
 30
0.0
 11
-261.4916977055
 21
16.8570782631
 31
0.0
  0
LINE
  5
84
330
1F
100
AcDbEntity
  8
0
  6
Continuous
 62
     7
100
AcDbLine
 10
-261.4916977055
 20
16.8570782631
 30
0.0
 11
-267.9916773967
 21
10.5196280767
 31
0.0
  0
LINE
  5
85
330
1F
100
AcDbEntity
  8
0
  6
Continuous
 62
     7
100
AcDbLine
 10
-267.9916773967
 20
10.5196280767
 30
0.0
 11
-267.9916773967
 21
-3.238592328
 31
0.0
  0
LINE
  5
86
330
1F
100
AcDbEntity
  8
0
  6
Continuous
 62
     7
100
AcDbLine
 10
-267.9916773967
 20
-3.238592328
 30
0.0
 11
-273.2458530512
 21
-3.238592328
 31
0.0
  0
LINE
  5
87
330
1F
100
AcDbEntity
  8
0
  6
Continuous
 62
     7
100
AcDbLine
 10
-238.5523505309
 20
8.6779805225
 30
0.0
 11
-238.5523505309
 21
13.5800211667
 31
0.0
  0
LINE
  5
88
330
1F
100
AcDbEntity
  8
0
  6
Continuous
 62
     7
100
AcDbLine
 10
-238.5523505309
 20
13.5800211667
 30
0.0
 11
-223.5753845904
 21
13.5800211667
 31
0.0
  0
LINE
  5
89
330
1F
100
AcDbEntity
  8
0
  6
Continuous
 62
     7
100
AcDbLine
 10
-223.5753845904
 20
13.5800211667
 30
0.0
 11
-223.5753845904
 21
8.6779805225
 31
0.0
  0
LINE
  5
8A
330
1F
100
AcDbEntity
  8
0
  6
Continuous
 62
     7
100
AcDbLine
 10
-223.5753845904
 20
8.6779805225
 30
0.0
 11
-238.5523505309
 21
8.6779805225
 31
0.0
  0
LINE
  5
8B
330
1F
100
AcDbEntity
  8
0
  6
Continuous
 62
     7
100
AcDbLine
 10
-201.1776764316
 20
-3.238592328
 30
0.0
 11
-206.052637575
 21
-3.238592328
 31
0.0
  0
LINE
  5
8C
330
1F
100
AcDbEntity
  8
0
  6
Continuous
 62
     7
100
AcDbLine
 10
-206.052637575
 20
-3.238592328
 30
0.0
 11
-206.052637575
 21
27.8257355857
 31
0.0
  0
LINE
  5
8D
330
1F
100
AcDbEntity
  8
0
  6
Continuous
 62
     7
100
AcDbLine
 10
-215.8025598617
 20
21.9487034128
 30
0.0
 11
-215.8025598617
 21
26.6611630514
 31
0.0
  0
LINE
  5
8E
330
1F
100
AcDbEntity
  8
0
  6
Continuous
 62
     7
100
AcDbLine
 10
-204.319273024
 20
36.6277528446
 30
0.0
 11
-201.1776764316
 21
36.6277528446
 31
0.0
  0
LINE
  5
8F
330
1F
100
AcDbEntity
  8
0
  6
Continuous
 62
     7
100
AcDbLine
 10
-201.1776764316
 20
36.6277528446
 30
0.0
 11
-201.1776764316
 21
-3.238592328
 31
0.0
  0
LINE
  5
90
330
1F
100
AcDbEntity
  8
0
  6
Continuous
 62
     7
100
AcDbLine
 10
-137.6922671185
 20
591.45487483
 30
0.0
 11
-154.3905513094
 21
591.45487483
 31
0.0
  0
LINE
  5
91
330
1F
100
AcDbEntity
  8
0
  6
Continuous
 62
     7
100
AcDbLine
 10
-134.3905513094
 20
226.6239259569
 30
0.0
 11
-154.3905513094
 21
226.6239259569
 31
0.0
  0
LINE
  5
92
330
1F
100
AcDbEntity
  8
0
  6
Continuous
 62
     7
100
AcDbLine
 10
-134.3905513094
 20
226.6239259569
 30
0.0
 11
-134.3905513094
 21
222.6239259569
 31
0.0
  0
LINE
  5
93
330
1F
100
AcDbEntity
  8
0
  6
Continuous
 62
     7
100
AcDbLine
 10
-134.3905513094
 20
222.6239259569
 30
0.0
 11
-154.3905513094
 21
222.6239259569
 31
0.0
  0
LINE
  5
94
330
1F
100
AcDbEntity
  8
0
  6
Continuous
 62
     7
100
AcDbLine
 10
-154.3905513094
 20
226.6239259569
 30
0.0
 11
-154.3905513094
 21
222.6239259569
 31
0.0
  0
LINE
  5
95
330
1F
100
AcDbEntity
  8
0
  6
Continuous
 62
     7
100
AcDbLine
 10
-294.3905513094
 20
226.6239259569
 30
0.0
 11
-274.3905513094
 21
226.6239259569
 31
0.0
  0
LINE
  5
96
330
1F
100
AcDbEntity
  8
0
  6
Continuous
 62
     7
100
AcDbLine
 10
-294.3905513094
 20
226.6239259569
 30
0.0
 11
-294.3905513094
 21
222.6239259569
 31
0.0
  0
LINE
  5
97
330
1F
100
AcDbEntity
  8
0
  6
Continuous
 62
     7
100
AcDbLine
 10
-294.3905513094
 20
222.6239259569
 30
0.0
 11
-274.3905513094
 21
222.6239259569
 31
0.0
  0
LINE
  5
98
330
1F
100
AcDbEntity
  8
0
  6
Continuous
 62
     7
100
AcDbLine
 10
-274.3905513094
 20
226.6239259569
 30
0.0
 11
-274.3905513094
 21
222.6239259569
 31
0.0
  0
LINE
  5
99
330
1F
100
AcDbEntity
  8
0
  6
Continuous
 62
     7
100
AcDbLine
 10
-294.3905513094
 20
207.6239259569
 30
0.0
 11
-274.3905513094
 21
207.6239259569
 31
0.0
  0
LINE
  5
9A
330
1F
100
AcDbEntity
  8
0
  6
Continuous
 62
     7
100
AcDbLine
 10
-294.3905513094
 20
207.6239259569
 30
0.0
 11
-294.3905513094
 21
203.6239259569
 31
0.0
  0
LINE
  5
9B
330
1F
100
AcDbEntity
  8
0
  6
Continuous
 62
     7
100
AcDbLine
 10
-294.3905513094
 20
203.6239259569
 30
0.0
 11
-274.3905513094
 21
203.6239259569
 31
0.0
  0
LINE
  5
9C
330
1F
100
AcDbEntity
  8
0
  6
Continuous
 62
     7
100
AcDbLine
 10
-274.3905513094
 20
207.6239259569
 30
0.0
 11
-274.3905513094
 21
203.6239259569
 31
0.0
  0
LINE
  5
9D
330
1F
100
AcDbEntity
  8
0
  6
Continuous
 62
     7
100
AcDbLine
 10
-154.3905513094
 20
207.6239259569
 30
0.0
 11
-134.3905513094
 21
207.6239259569
 31
0.0
  0
LINE
  5
9E
330
1F
100
AcDbEntity
  8
0
  6
Continuous
 62
     7
100
AcDbLine
 10
-154.3905513094
 20
207.6239259569
 30
0.0
 11
-154.3905513094
 21
203.6239259569
 31
0.0
  0
LINE
  5
9F
330
1F
100
AcDbEntity
  8
0
  6
Continuous
 62
     7
100
AcDbLine
 10
-154.3905513094
 20
203.6239259569
 30
0.0
 11
-134.3905513094
 21
203.6239259569
 31
0.0
  0
LINE
  5
A0
330
1F
100
AcDbEntity
  8
0
  6
Continuous
 62
     7
100
AcDbLine
 10
-134.3905513094
 20
207.6239259569
 30
0.0
 11
-134.3905513094
 21
203.6239259569
 31
0.0
  0
LINE
  5
A1
330
1F
100
AcDbEntity
  8
0
  6
Continuous
 62
     7
100
AcDbLine
 10
-137.6922671185
 20
591.45487483
 30
0.0
 11
-137.6922671185
 21
587.45487483
 31
0.0
  0
LINE
  5
A2
330
1F
100
AcDbEntity
  8
0
  6
Continuous
 62
     7
100
AcDbLine
 10
-137.6922671185
 20
587.45487483
 30
0.0
 11
-154.3905513094
 21
587.45487483
 31
0.0
  0
LINE
  5
A3
330
1F
100
AcDbEntity
  8
0
  6
Continuous
 62
     7
100
AcDbLine
 10
-154.3905513094
 20
591.45487483
 30
0.0
 11
-154.3905513094
 21
587.45487483
 31
0.0
  0
LINE
  5
A4
330
1F
100
AcDbEntity
  8
0
  6
Continuous
 62
     7
100
AcDbLine
 10
-294.3905513094
 20
591.45487483
 30
0.0
 11
-277.6922671185
 21
591.45487483
 31
0.0
  0
LINE
  5
A5
330
1F
100
AcDbEntity
  8
0
  6
Continuous
 62
     7
100
AcDbLine
 10
-294.3905513094
 20
591.45487483
 30
0.0
 11
-294.3905513094
 21
587.45487483
 31
0.0
  0
LINE
  5
A6
330
1F
100
AcDbEntity
  8
0
  6
Continuous
 62
     7
100
AcDbLine
 10
-294.3905513094
 20
587.45487483
 30
0.0
 11
-277.6922671185
 21
587.45487483
 31
0.0
  0
LINE
  5
A7
330
1F
100
AcDbEntity
  8
0
  6
Continuous
 62
     7
100
AcDbLine
 10
-277.6922671185
 20
591.45487483
 30
0.0
 11
-277.6922671185
 21
587.45487483
 31
0.0
  0
LINE
  5
A8
330
1F
100
AcDbEntity
  8
0
  6
Continuous
 62
     7
100
AcDbLine
 10
-294.3905513094
 20
572.45487483
 30
0.0
 11
-277.6922671185
 21
572.45487483
 31
0.0
  0
LINE
  5
A9
330
1F
100
AcDbEntity
  8
0
  6
Continuous
 62
     7
100
AcDbLine
 10
-294.3905513094
 20
572.45487483
 30
0.0
 11
-294.3905513094
 21
568.45487483
 31
0.0
  0
LINE
  5
AA
330
1F
100
AcDbEntity
  8
0
  6
Continuous
 62
     7
100
AcDbLine
 10
-294.3905513094
 20
568.45487483
 30
0.0
 11
-277.6922671185
 21
568.45487483
 31
0.0
  0
LINE
  5
AB
330
1F
100
AcDbEntity
  8
0
  6
Continuous
 62
     7
100
AcDbLine
 10
-277.6922671185
 20
572.45487483
 30
0.0
 11
-277.6922671185
 21
568.45487483
 31
0.0
  0
LINE
  5
AC
330
1F
100
AcDbEntity
  8
0
  6
Continuous
 62
     7
100
AcDbLine
 10
-154.3905513094
 20
572.45487483
 30
0.0
 11
-137.6922671185
 21
572.45487483
 31
0.0
  0
LINE
  5
AD
330
1F
100
AcDbEntity
  8
0
  6
Continuous
 62
     7
100
AcDbLine
 10
-154.3905513094
 20
572.45487483
 30
0.0
 11
-154.3905513094
 21
568.45487483
 31
0.0
  0
LINE
  5
AE
330
1F
100
AcDbEntity
  8
0
  6
Continuous
 62
     7
100
AcDbLine
 10
-154.3905513094
 20
568.45487483
 30
0.0
 11
-137.6922671185
 21
568.45487483
 31
0.0
  0
LINE
  5
AF
330
1F
100
AcDbEntity
  8
0
  6
Continuous
 62
     7
100
AcDbLine
 10
-137.6922671185
 20
572.45487483
 30
0.0
 11
-137.6922671185
 21
568.45487483
 31
0.0
  0
LINE
  5
B0
330
1F
100
AcDbEntity
  8
0
  6
Continuous
 62
     7
100
AcDbLine
 10
85.5177094367
 20
300.4901436191
 30
0.0
 11
34.2381314057
 21
424.2900017651
 31
0.0
  0
LINE
  5
B1
330
1F
100
AcDbEntity
  8
0
  6
Continuous
 62
     7
100
AcDbLine
 10
85.5177094367
 20
300.4901436191
 30
0.0
 11
85.5177094367
 21
294.4901436191
 31
0.0
  0
LINE
  5
B2
330
1F
100
AcDbEntity
  8
0
  6
Continuous
 62
     7
100
AcDbLine
 10
85.5177094367
 20
294.4901436191
 30
0.0
 11
65.5177094367
 21
294.4901436191
 31
0.0
  0
LINE
  5
B3
330
1F
100
AcDbEntity
  8
0
  6
Continuous
 62
     7
100
AcDbLine
 10
65.5177094367
 20
294.4901436191
 30
0.0
 11
65.5177094367
 21
298.4901436191
 31
0.0
  0
LINE
  5
B4
330
1F
100
AcDbEntity
  8
0
  6
Continuous
 62
     7
100
AcDbLine
 10
65.5177094367
 20
298.4901436191
 30
0.0
 11
45.5177094367
 21
298.4901436191
 31
0.0
  0
LINE
  5
B5
330
1F
100
AcDbEntity
  8
0
  6
Continuous
 62
     7
100
AcDbLine
 10
45.5177094367
 20
298.4901436191
 30
0.0
 11
45.5177094367
 21
294.4901436191
 31
0.0
  0
LINE
  5
B6
330
1F
100
AcDbEntity
  8
0
  6
Continuous
 62
     7
100
AcDbLine
 10
45.5177094367
 20
294.4901436191
 30
0.0
 11
25.5177094367
 21
294.4901436191
 31
0.0
  0
LINE
  5
B7
330
1F
100
AcDbEntity
  8
0
  6
Continuous
 62
     7
100
AcDbLine
 10
25.5177094367
 20
294.4901436191
 30
0.0
 11
25.5177094367
 21
298.4901436191
 31
0.0
  0
LINE
  5
B8
330
1F
100
AcDbEntity
  8
0
  6
Continuous
 62
     7
100
AcDbLine
 10
25.5177094367
 20
298.4901436191
 30
0.0
 11
5.5177094367
 21
298.4901436191
 31
0.0
  0
LINE
  5
B9
330
1F
100
AcDbEntity
  8
0
  6
Continuous
 62
     7
100
AcDbLine
 10
-14.4822905633
 20
294.4901436191
 30
0.0
 11
-14.4822905633
 21
314.4901436191
 31
0.0
  0
LINE
  5
BA
330
1F
100
AcDbEntity
  8
0
  6
Continuous
 62
     7
100
AcDbLine
 10
-14.4822905633
 20
314.4901436191
 30
0.0
 11
-10.4822905633
 21
314.4901436191
 31
0.0
  0
LINE
  5
BB
330
1F
100
AcDbEntity
  8
0
  6
Continuous
 62
     7
100
AcDbLine
 10
-10.4822905633
 20
314.4901436191
 30
0.0
 11
-10.4822905633
 21
334.4901436191
 31
0.0
  0
LINE
  5
BC
330
1F
100
AcDbEntity
  8
0
  6
Continuous
 62
     7
100
AcDbLine
 10
-10.4822905633
 20
334.4901436191
 30
0.0
 11
-14.4822905633
 21
334.4901436191
 31
0.0
  0
LINE
  5
BD
330
1F
100
AcDbEntity
  8
0
  6
Continuous
 62
     7
100
AcDbLine
 10
-14.4822905633
 20
334.4901436191
 30
0.0
 11
-14.4822905633
 21
354.4901436191
 31
0.0
  0
LINE
  5
BE
330
1F
100
AcDbEntity
  8
0
  6
Continuous
 62
     7
100
AcDbLine
 10
-14.4822905633
 20
354.4901436191
 30
0.0
 11
-10.4822905633
 21
354.4901436191
 31
0.0
  0
LINE
  5
BF
330
1F
100
AcDbEntity
  8
0
  6
Continuous
 62
     7
100
AcDbLine
 10
-10.4822905633
 20
354.4901436191
 30
0.0
 11
-10.4822905633
 21
374.4901436191
 31
0.0
  0
LINE
  5
C0
330
1F
100
AcDbEntity
  8
0
  6
Continuous
 62
     7
100
AcDbLine
 10
-10.4822905633
 20
374.4901436191
 30
0.0
 11
-14.4822905633
 21
374.4901436191
 31
0.0
  0
LINE
  5
C1
330
1F
100
AcDbEntity
  8
0
  6
Continuous
 62
     7
100
AcDbLine
 10
-14.4822905633
 20
374.4901436191
 30
0.0
 11
-14.4822905633
 21
394.4901436191
 31
0.0
  0
LINE
  5
C2
330
1F
100
AcDbEntity
  8
0
  6
Continuous
 62
     7
100
AcDbLine
 10
-14.4822905633
 20
394.4901436191
 30
0.0
 11
-10.4822905633
 21
394.4901436191
 31
0.0
  0
LINE
  5
C3
330
1F
100
AcDbEntity
  8
0
  6
Continuous
 62
     7
100
AcDbLine
 10
-10.4822905633
 20
394.4901436191
 30
0.0
 11
-10.4822905633
 21
414.4901436191
 31
0.0
  0
LINE
  5
C4
330
1F
100
AcDbEntity
  8
0
  6
Continuous
 62
     7
100
AcDbLine
 10
-10.4822905633
 20
414.4901436191
 30
0.0
 11
-14.4822905633
 21
414.4901436191
 31
0.0
  0
LINE
  5
C5
330
1F
100
AcDbEntity
  8
0
  6
Continuous
 62
     7
100
AcDbLine
 10
-14.4822905633
 20
414.4901436191
 30
0.0
 11
-14.4822905633
 21
434.4901436191
 31
0.0
  0
LINE
  5
C6
330
1F
100
AcDbEntity
  8
0
  6
Continuous
 62
     7
100
AcDbLine
 10
-14.4822905633
 20
434.4901436191
 30
0.0
 11
-10.4822905633
 21
434.4901436191
 31
0.0
  0
LINE
  5
C7
330
1F
100
AcDbEntity
  8
0
  6
Continuous
 62
     7
100
AcDbLine
 10
34.2381314057
 20
484.4901436191
 30
0.0
 11
9.8779204212
 21
484.4901436191
 31
0.0
  0
LINE
  5
C8
330
1F
100
AcDbEntity
  8
0
  6
Continuous
 62
     7
100
AcDbLine
 10
34.2381314057
 20
424.2900017651
 30
0.0
 11
34.2381314057
 21
484.4901436191
 31
0.0
  0
LINE
  5
C9
330
1F
100
AcDbEntity
  8
0
  6
Continuous
 62
     7
100
AcDbLine
 10
9.8779204212
 20
484.4901436191
 30
0.0
 11
9.8779204212
 21
480.4901436191
 31
0.0
  0
LINE
  5
CA
330
1F
100
AcDbEntity
  8
0
  6
Continuous
 62
     7
100
AcDbLine
 10
-10.4822905633
 20
434.4901436191
 30
0.0
 11
-10.4822905633
 21
454.4901436191
 31
0.0
  0
LINE
  5
CB
330
1F
100
AcDbEntity
  8
0
  6
Continuous
 62
     7
100
AcDbLine
 10
-10.4822905633
 20
454.4901436191
 30
0.0
 11
-14.4822905633
 21
454.4901436191
 31
0.0
  0
LINE
  5
CC
330
1F
100
AcDbEntity
  8
0
  6
Continuous
 62
     7
100
AcDbLine
 10
-14.4822905633
 20
454.4901436191
 30
0.0
 11
-14.4822905633
 21
480.4901436191
 31
0.0
  0
LINE
  5
CD
330
1F
100
AcDbEntity
  8
0
  6
Continuous
 62
     7
100
AcDbLine
 10
5.5177094367
 20
298.4901436191
 30
0.0
 11
5.5177094367
 21
294.4901436191
 31
0.0
  0
LINE
  5
CE
330
1F
100
AcDbEntity
  8
0
  6
Continuous
 62
     7
100
AcDbLine
 10
5.5177094367
 20
294.4901436191
 30
0.0
 11
-14.4822905633
 21
294.4901436191
 31
0.0
  0
LINE
  5
CF
330
1F
100
AcDbEntity
  8
0
  6
Continuous
 62
     7
100
AcDbLine
 10
9.8779204212
 20
480.4901436191
 30
0.0
 11
-14.4822905633
 21
480.4901436191
 31
0.0
  0
LINE
  5
D0
330
1F
100
AcDbEntity
  8
0
  6
Continuous
 62
     7
100
AcDbLine
 10
-109.8905513094
 20
294.4901436191
 30
0.0
 11
-109.8905513094
 21
314.4901436191
 31
0.0
  0
LINE
  5
D1
330
1F
100
AcDbEntity
  8
0
  6
Continuous
 62
     7
100
AcDbLine
 10
-109.8905513094
 20
314.4901436191
 30
0.0
 11
-101.8905513094
 21
314.4901436191
 31
0.0
  0
LINE
  5
D2
330
1F
100
AcDbEntity
  8
0
  6
Continuous
 62
     7
100
AcDbLine
 10
-101.8905513094
 20
314.4901436191
 30
0.0
 11
-101.8905513094
 21
334.4901436191
 31
0.0
  0
LINE
  5
D3
330
1F
100
AcDbEntity
  8
0
  6
Continuous
 62
     7
100
AcDbLine
 10
-101.8905513094
 20
334.4901436191
 30
0.0
 11
-109.8905513094
 21
334.4901436191
 31
0.0
  0
LINE
  5
D4
330
1F
100
AcDbEntity
  8
0
  6
Continuous
 62
     7
100
AcDbLine
 10
-109.8905513094
 20
334.4901436191
 30
0.0
 11
-109.8905513094
 21
354.4901436191
 31
0.0
  0
LINE
  5
D5
330
1F
100
AcDbEntity
  8
0
  6
Continuous
 62
     7
100
AcDbLine
 10
-109.8905513094
 20
354.4901436191
 30
0.0
 11
-101.8905513094
 21
354.4901436191
 31
0.0
  0
LINE
  5
D6
330
1F
100
AcDbEntity
  8
0
  6
Continuous
 62
     7
100
AcDbLine
 10
-101.8905513094
 20
354.4901436191
 30
0.0
 11
-101.8905513094
 21
374.4901436191
 31
0.0
  0
LINE
  5
D7
330
1F
100
AcDbEntity
  8
0
  6
Continuous
 62
     7
100
AcDbLine
 10
-101.8905513094
 20
374.4901436191
 30
0.0
 11
-109.8905513094
 21
374.4901436191
 31
0.0
  0
LINE
  5
D8
330
1F
100
AcDbEntity
  8
0
  6
Continuous
 62
     7
100
AcDbLine
 10
-109.8905513094
 20
374.4901436191
 30
0.0
 11
-109.8905513094
 21
394.4901436191
 31
0.0
  0
LINE
  5
D9
330
1F
100
AcDbEntity
  8
0
  6
Continuous
 62
     7
100
AcDbLine
 10
-109.8905513094
 20
394.4901436191
 30
0.0
 11
-101.8905513094
 21
394.4901436191
 31
0.0
  0
LINE
  5
DA
330
1F
100
AcDbEntity
  8
0
  6
Continuous
 62
     7
100
AcDbLine
 10
-101.8905513094
 20
394.4901436191
 30
0.0
 11
-101.8905513094
 21
414.4901436191
 31
0.0
  0
LINE
  5
DB
330
1F
100
AcDbEntity
  8
0
  6
Continuous
 62
     7
100
AcDbLine
 10
-101.8905513094
 20
414.4901436191
 30
0.0
 11
-109.8905513094
 21
414.4901436191
 31
0.0
  0
LINE
  5
DC
330
1F
100
AcDbEntity
  8
0
  6
Continuous
 62
     7
100
AcDbLine
 10
-109.8905513094
 20
414.4901436191
 30
0.0
 11
-109.8905513094
 21
434.4901436191
 31
0.0
  0
LINE
  5
DD
330
1F
100
AcDbEntity
  8
0
  6
Continuous
 62
     7
100
AcDbLine
 10
-109.8905513094
 20
434.4901436191
 30
0.0
 11
-101.8905513094
 21
434.4901436191
 31
0.0
  0
LINE
  5
DE
330
1F
100
AcDbEntity
  8
0
  6
Continuous
 62
     7
100
AcDbLine
 10
-101.8905513094
 20
434.4901436191
 30
0.0
 11
-101.8905513094
 21
454.4901436191
 31
0.0
  0
LINE
  5
DF
330
1F
100
AcDbEntity
  8
0
  6
Continuous
 62
     7
100
AcDbLine
 10
-101.8905513094
 20
454.4901436191
 30
0.0
 11
-109.8905513094
 21
454.4901436191
 31
0.0
  0
LINE
  5
E0
330
1F
100
AcDbEntity
  8
0
  6
Continuous
 62
     7
100
AcDbLine
 10
-109.8905513094
 20
454.4901436191
 30
0.0
 11
-109.8905513094
 21
468.4901436191
 31
0.0
  0
LINE
  5
E1
330
1F
100
AcDbEntity
  8
0
  6
Continuous
 62
     7
100
AcDbLine
 10
-109.8905513094
 20
468.4901436191
 30
0.0
 11
-124.3905513094
 21
468.4901436191
 31
0.0
  0
LINE
  5
E2
330
1F
100
AcDbEntity
  8
0
  6
Continuous
 62
     7
100
AcDbLine
 10
-124.3905513094
 20
468.4901436191
 30
0.0
 11
-124.3905513094
 21
476.4901436191
 31
0.0
  0
LINE
  5
E3
330
1F
100
AcDbEntity
  8
0
  6
Continuous
 62
     7
100
AcDbLine
 10
-124.3905513094
 20
476.4901436191
 30
0.0
 11
-144.3905513094
 21
476.4901436191
 31
0.0
  0
LINE
  5
E4
330
1F
100
AcDbEntity
  8
0
  6
Continuous
 62
     7
100
AcDbLine
 10
-144.3905513094
 20
476.4901436191
 30
0.0
 11
-144.3905513094
 21
468.4901436191
 31
0.0
  0
LINE
  5
E5
330
1F
100
AcDbEntity
  8
0
  6
Continuous
 62
     7
100
AcDbLine
 10
-144.3905513094
 20
468.4901436191
 30
0.0
 11
-164.3905513094
 21
468.4901436191
 31
0.0
  0
LINE
  5
E6
330
1F
100
AcDbEntity
  8
0
  6
Continuous
 62
     7
100
AcDbLine
 10
-164.3905513094
 20
468.4901436191
 30
0.0
 11
-164.3905513094
 21
476.4901436191
 31
0.0
  0
LINE
  5
E7
330
1F
100
AcDbEntity
  8
0
  6
Continuous
 62
     7
100
AcDbLine
 10
-164.3905513094
 20
476.4901436191
 30
0.0
 11
-184.3905513094
 21
476.4901436191
 31
0.0
  0
LINE
  5
E8
330
1F
100
AcDbEntity
  8
0
  6
Continuous
 62
     7
100
AcDbLine
 10
-184.3905513094
 20
476.4901436191
 30
0.0
 11
-184.3905513094
 21
468.4901436191
 31
0.0
  0
LINE
  5
E9
330
1F
100
AcDbEntity
  8
0
  6
Continuous
 62
     7
100
AcDbLine
 10
-109.8905513094
 20
294.4901436191
 30
0.0
 11
-124.3905513094
 21
294.4901436191
 31
0.0
  0
LINE
  5
EA
330
1F
100
AcDbEntity
  8
0
  6
Continuous
 62
     7
100
AcDbLine
 10
-124.3905513094
 20
294.4901436191
 30
0.0
 11
-124.3905513094
 21
286.4901436191
 31
0.0
  0
LINE
  5
EB
330
1F
100
AcDbEntity
  8
0
  6
Continuous
 62
     7
100
AcDbLine
 10
-124.3905513094
 20
286.4901436191
 30
0.0
 11
-144.3905513094
 21
286.4901436191
 31
0.0
  0
LINE
  5
EC
330
1F
100
AcDbEntity
  8
0
  6
Continuous
 62
     7
100
AcDbLine
 10
-144.3905513094
 20
286.4901436191
 30
0.0
 11
-144.3905513094
 21
294.4901436191
 31
0.0
  0
LINE
  5
ED
330
1F
100
AcDbEntity
  8
0
  6
Continuous
 62
     7
100
AcDbLine
 10
-144.3905513094
 20
294.4901436191
 30
0.0
 11
-164.3905513094
 21
294.4901436191
 31
0.0
  0
LINE
  5
EE
330
1F
100
AcDbEntity
  8
0
  6
Continuous
 62
     7
100
AcDbLine
 10
-164.3905513094
 20
294.4901436191
 30
0.0
 11
-164.3905513094
 21
286.4901436191
 31
0.0
  0
LINE
  5
EF
330
1F
100
AcDbEntity
  8
0
  6
Continuous
 62
     7
100
AcDbLine
 10
-164.3905513094
 20
286.4901436191
 30
0.0
 11
-184.3905513094
 21
286.4901436191
 31
0.0
  0
LINE
  5
F0
330
1F
100
AcDbEntity
  8
0
  6
Continuous
 62
     7
100
AcDbLine
 10
-184.3905513094
 20
286.4901436191
 30
0.0
 11
-184.3905513094
 21
294.4901436191
 31
0.0
  0
LINE
  5
F1
330
1F
100
AcDbEntity
  8
0
  6
Continuous
 62
     7
100
AcDbLine
 10
-184.3905513094
 20
294.4901436191
 30
0.0
 11
-204.3905513094
 21
294.4901436191
 31
0.0
  0
LINE
  5
F2
330
1F
100
AcDbEntity
  8
0
  6
Continuous
 62
     7
100
AcDbLine
 10
-204.3905513094
 20
294.4901436191
 30
0.0
 11
-204.3905513094
 21
286.4901436191
 31
0.0
  0
LINE
  5
F3
330
1F
100
AcDbEntity
  8
0
  6
Continuous
 62
     7
100
AcDbLine
 10
-204.3905513094
 20
286.4901436191
 30
0.0
 11
-224.3905513094
 21
286.4901436191
 31
0.0
  0
LINE
  5
F4
330
1F
100
AcDbEntity
  8
0
  6
Continuous
 62
     7
100
AcDbLine
 10
-224.3905513094
 20
286.4901436191
 30
0.0
 11
-224.3905513094
 21
294.4901436191
 31
0.0
  0
LINE
  5
F5
330
1F
100
AcDbEntity
  8
0
  6
Continuous
 62
     7
100
AcDbLine
 10
-224.3905513094
 20
294.4901436191
 30
0.0
 11
-244.3905513094
 21
294.4901436191
 31
0.0
  0
LINE
  5
F6
330
1F
100
AcDbEntity
  8
0
  6
Continuous
 62
     7
100
AcDbLine
 10
-244.3905513094
 20
294.4901436191
 30
0.0
 11
-244.3905513094
 21
286.4901436191
 31
0.0
  0
LINE
  5
F7
330
1F
100
AcDbEntity
  8
0
  6
Continuous
 62
     7
100
AcDbLine
 10
-244.3905513094
 20
286.4901436191
 30
0.0
 11
-264.3905513094
 21
286.4901436191
 31
0.0
  0
LINE
  5
F8
330
1F
100
AcDbEntity
  8
0
  6
Continuous
 62
     7
100
AcDbLine
 10
-264.3905513094
 20
286.4901436191
 30
0.0
 11
-264.3905513094
 21
294.4901436191
 31
0.0
  0
LINE
  5
F9
330
1F
100
AcDbEntity
  8
0
  6
Continuous
 62
     7
100
AcDbLine
 10
-264.3905513094
 20
294.4901436191
 30
0.0
 11
-284.3905513094
 21
294.4901436191
 31
0.0
  0
LINE
  5
FA
330
1F
100
AcDbEntity
  8
0
  6
Continuous
 62
     7
100
AcDbLine
 10
-284.3905513094
 20
294.4901436191
 30
0.0
 11
-284.3905513094
 21
286.4901436191
 31
0.0
  0
LINE
  5
FB
330
1F
100
AcDbEntity
  8
0
  6
Continuous
 62
     7
100
AcDbLine
 10
-284.3905513094
 20
286.4901436191
 30
0.0
 11
-304.3905513094
 21
286.4901436191
 31
0.0
  0
LINE
  5
FC
330
1F
100
AcDbEntity
  8
0
  6
Continuous
 62
     7
100
AcDbLine
 10
-184.3905513094
 20
468.4901436191
 30
0.0
 11
-204.3905513094
 21
468.4901436191
 31
0.0
  0
LINE
  5
FD
330
1F
100
AcDbEntity
  8
0
  6
Continuous
 62
     7
100
AcDbLine
 10
-204.3905513094
 20
468.4901436191
 30
0.0
 11
-204.3905513094
 21
476.4901436191
 31
0.0
  0
LINE
  5
FE
330
1F
100
AcDbEntity
  8
0
  6
Continuous
 62
     7
100
AcDbLine
 10
-204.3905513094
 20
476.4901436191
 30
0.0
 11
-224.3905513094
 21
476.4901436191
 31
0.0
  0
LINE
  5
FF
330
1F
100
AcDbEntity
  8
0
  6
Continuous
 62
     7
100
AcDbLine
 10
-224.3905513094
 20
476.4901436191
 30
0.0
 11
-224.3905513094
 21
468.4901436191
 31
0.0
  0
LINE
  5
100
330
1F
100
AcDbEntity
  8
0
  6
Continuous
 62
     7
100
AcDbLine
 10
-224.3905513094
 20
468.4901436191
 30
0.0
 11
-244.3905513094
 21
468.4901436191
 31
0.0
  0
LINE
  5
101
330
1F
100
AcDbEntity
  8
0
  6
Continuous
 62
     7
100
AcDbLine
 10
-244.3905513094
 20
468.4901436191
 30
0.0
 11
-244.3905513094
 21
476.4901436191
 31
0.0
  0
LINE
  5
102
330
1F
100
AcDbEntity
  8
0
  6
Continuous
 62
     7
100
AcDbLine
 10
-244.3905513094
 20
476.4901436191
 30
0.0
 11
-264.3905513094
 21
476.4901436191
 31
0.0
  0
LINE
  5
103
330
1F
100
AcDbEntity
  8
0
  6
Continuous
 62
     7
100
AcDbLine
 10
-264.3905513094
 20
476.4901436191
 30
0.0
 11
-264.3905513094
 21
468.4901436191
 31
0.0
  0
LINE
  5
104
330
1F
100
AcDbEntity
  8
0
  6
Continuous
 62
     7
100
AcDbLine
 10
-264.3905513094
 20
468.4901436191
 30
0.0
 11
-284.3905513094
 21
468.4901436191
 31
0.0
  0
LINE
  5
105
330
1F
100
AcDbEntity
  8
0
  6
Continuous
 62
     7
100
AcDbLine
 10
-284.3905513094
 20
468.4901436191
 30
0.0
 11
-284.3905513094
 21
476.4901436191
 31
0.0
  0
LINE
  5
106
330
1F
100
AcDbEntity
  8
0
  6
Continuous
 62
     7
100
AcDbLine
 10
-284.3905513094
 20
476.4901436191
 30
0.0
 11
-304.3905513094
 21
476.4901436191
 31
0.0
  0
LINE
  5
107
330
1F
100
AcDbEntity
  8
0
  6
Continuous
 62
     7
100
AcDbLine
 10
-304.3905513094
 20
286.4901436191
 30
0.0
 11
-304.3905513094
 21
294.4901436191
 31
0.0
  0
LINE
  5
108
330
1F
100
AcDbEntity
  8
0
  6
Continuous
 62
     7
100
AcDbLine
 10
-304.3905513094
 20
294.4901436191
 30
0.0
 11
-318.8905513094
 21
294.4901436191
 31
0.0
  0
LINE
  5
109
330
1F
100
AcDbEntity
  8
0
  6
Continuous
 62
     7
100
AcDbLine
 10
-318.8905513094
 20
294.4901436191
 30
0.0
 11
-318.8905513094
 21
314.4901436191
 31
0.0
  0
LINE
  5
10A
330
1F
100
AcDbEntity
  8
0
  6
Continuous
 62
     7
100
AcDbLine
 10
-318.8905513094
 20
314.4901436191
 30
0.0
 11
-326.8905513094
 21
314.4901436191
 31
0.0
  0
LINE
  5
10B
330
1F
100
AcDbEntity
  8
0
  6
Continuous
 62
     7
100
AcDbLine
 10
-326.8905513094
 20
314.4901436191
 30
0.0
 11
-326.8905513094
 21
334.4901436191
 31
0.0
  0
LINE
  5
10C
330
1F
100
AcDbEntity
  8
0
  6
Continuous
 62
     7
100
AcDbLine
 10
-326.8905513094
 20
334.4901436191
 30
0.0
 11
-318.8905513094
 21
334.4901436191
 31
0.0
  0
LINE
  5
10D
330
1F
100
AcDbEntity
  8
0
  6
Continuous
 62
     7
100
AcDbLine
 10
-318.8905513094
 20
334.4901436191
 30
0.0
 11
-318.8905513094
 21
354.4901436191
 31
0.0
  0
LINE
  5
10E
330
1F
100
AcDbEntity
  8
0
  6
Continuous
 62
     7
100
AcDbLine
 10
-318.8905513094
 20
354.4901436191
 30
0.0
 11
-326.8905513094
 21
354.4901436191
 31
0.0
  0
LINE
  5
10F
330
1F
100
AcDbEntity
  8
0
  6
Continuous
 62
     7
100
AcDbLine
 10
-326.8905513094
 20
354.4901436191
 30
0.0
 11
-326.8905513094
 21
374.4901436191
 31
0.0
  0
LINE
  5
110
330
1F
100
AcDbEntity
  8
0
  6
Continuous
 62
     7
100
AcDbLine
 10
-326.8905513094
 20
374.4901436191
 30
0.0
 11
-318.8905513094
 21
374.4901436191
 31
0.0
  0
LINE
  5
111
330
1F
100
AcDbEntity
  8
0
  6
Continuous
 62
     7
100
AcDbLine
 10
-318.8905513094
 20
374.4901436191
 30
0.0
 11
-318.8905513094
 21
394.4901436191
 31
0.0
  0
LINE
  5
112
330
1F
100
AcDbEntity
  8
0
  6
Continuous
 62
     7
100
AcDbLine
 10
-318.8905513094
 20
394.4901436191
 30
0.0
 11
-326.8905513094
 21
394.4901436191
 31
0.0
  0
LINE
  5
113
330
1F
100
AcDbEntity
  8
0
  6
Continuous
 62
     7
100
AcDbLine
 10
-326.8905513094
 20
394.4901436191
 30
0.0
 11
-326.8905513094
 21
414.4901436191
 31
0.0
  0
LINE
  5
114
330
1F
100
AcDbEntity
  8
0
  6
Continuous
 62
     7
100
AcDbLine
 10
-326.8905513094
 20
414.4901436191
 30
0.0
 11
-318.8905513094
 21
414.4901436191
 31
0.0
  0
LINE
  5
115
330
1F
100
AcDbEntity
  8
0
  6
Continuous
 62
     7
100
AcDbLine
 10
-318.8905513094
 20
414.4901436191
 30
0.0
 11
-318.8905513094
 21
434.4901436191
 31
0.0
  0
LINE
  5
116
330
1F
100
AcDbEntity
  8
0
  6
Continuous
 62
     7
100
AcDbLine
 10
-318.8905513094
 20
434.4901436191
 30
0.0
 11
-326.8905513094
 21
434.4901436191
 31
0.0
  0
LINE
  5
117
330
1F
100
AcDbEntity
  8
0
  6
Continuous
 62
     7
100
AcDbLine
 10
-326.8905513094
 20
434.4901436191
 30
0.0
 11
-326.8905513094
 21
454.4901436191
 31
0.0
  0
LINE
  5
118
330
1F
100
AcDbEntity
  8
0
  6
Continuous
 62
     7
100
AcDbLine
 10
-326.8905513094
 20
454.4901436191
 30
0.0
 11
-318.8905513094
 21
454.4901436191
 31
0.0
  0
LINE
  5
119
330
1F
100
AcDbEntity
  8
0
  6
Continuous
 62
     7
100
AcDbLine
 10
-318.8905513094
 20
454.4901436191
 30
0.0
 11
-318.8905513094
 21
468.4901436191
 31
0.0
  0
LINE
  5
11A
330
1F
100
AcDbEntity
  8
0
  6
Continuous
 62
     7
100
AcDbLine
 10
-318.8905513094
 20
468.4901436191
 30
0.0
 11
-304.3905513094
 21
468.4901436191
 31
0.0
  0
LINE
  5
11B
330
1F
100
AcDbEntity
  8
0
  6
Continuous
 62
     7
100
AcDbLine
 10
-304.3905513094
 20
468.4901436191
 30
0.0
 11
-304.3905513094
 21
476.4901436191
 31
0.0
  0
LINE
  5
11C
330
1F
100
AcDbEntity
  8
0
  6
Continuous
 62
     7
100
AcDbLine
 10
-109.8905513094
 20
103.1071440518
 30
0.0
 11
-109.8905513094
 21
83.1071440518
 31
0.0
  0
LINE
  5
11D
330
1F
100
AcDbEntity
  8
0
  6
Continuous
 62
     7
100
AcDbLine
 10
-109.8905513094
 20
103.1071440518
 30
0.0
 11
-124.3905513094
 21
103.1071440518
 31
0.0
  0
LINE
  5
11E
330
1F
100
AcDbEntity
  8
0
  6
Continuous
 62
     7
100
AcDbLine
 10
-124.3905513094
 20
103.1071440518
 30
0.0
 11
-124.3905513094
 21
99.1071440518
 31
0.0
  0
LINE
  5
11F
330
1F
100
AcDbEntity
  8
0
  6
Continuous
 62
     7
100
AcDbLine
 10
-124.3905513094
 20
99.1071440518
 30
0.0
 11
-144.3905513094
 21
99.1071440518
 31
0.0
  0
LINE
  5
120
330
1F
100
AcDbEntity
  8
0
  6
Continuous
 62
     7
100
AcDbLine
 10
-144.3905513094
 20
99.1071440518
 30
0.0
 11
-144.3905513094
 21
103.1071440518
 31
0.0
  0
LINE
  5
121
330
1F
100
AcDbEntity
  8
0
  6
Continuous
 62
     7
100
AcDbLine
 10
-144.3905513094
 20
103.1071440518
 30
0.0
 11
-164.3905513094
 21
103.1071440518
 31
0.0
  0
LINE
  5
122
330
1F
100
AcDbEntity
  8
0
  6
Continuous
 62
     7
100
AcDbLine
 10
-164.3905513094
 20
103.1071440518
 30
0.0
 11
-164.3905513094
 21
99.1071440518
 31
0.0
  0
LINE
  5
123
330
1F
100
AcDbEntity
  8
0
  6
Continuous
 62
     7
100
AcDbLine
 10
-164.3905513094
 20
99.1071440518
 30
0.0
 11
-184.3905513094
 21
99.1071440518
 31
0.0
  0
LINE
  5
124
330
1F
100
AcDbEntity
  8
0
  6
Continuous
 62
     7
100
AcDbLine
 10
-184.3905513094
 20
99.1071440518
 30
0.0
 11
-184.3905513094
 21
103.1071440518
 31
0.0
  0
LINE
  5
125
330
1F
100
AcDbEntity
  8
0
  6
Continuous
 62
     7
100
AcDbLine
 10
-184.3905513094
 20
103.1071440518
 30
0.0
 11
-204.3905513094
 21
103.1071440518
 31
0.0
  0
LINE
  5
126
330
1F
100
AcDbEntity
  8
0
  6
Continuous
 62
     7
100
AcDbLine
 10
-204.3905513094
 20
103.1071440518
 30
0.0
 11
-204.3905513094
 21
99.1071440518
 31
0.0
  0
LINE
  5
127
330
1F
100
AcDbEntity
  8
0
  6
Continuous
 62
     7
100
AcDbLine
 10
-204.3905513094
 20
99.1071440518
 30
0.0
 11
-224.3905513094
 21
99.1071440518
 31
0.0
  0
LINE
  5
128
330
1F
100
AcDbEntity
  8
0
  6
Continuous
 62
     7
100
AcDbLine
 10
-224.3905513094
 20
99.1071440518
 30
0.0
 11
-224.3905513094
 21
103.1071440518
 31
0.0
  0
LINE
  5
129
330
1F
100
AcDbEntity
  8
0
  6
Continuous
 62
     7
100
AcDbLine
 10
-224.3905513094
 20
103.1071440518
 30
0.0
 11
-244.3905513094
 21
103.1071440518
 31
0.0
  0
LINE
  5
12A
330
1F
100
AcDbEntity
  8
0
  6
Continuous
 62
     7
100
AcDbLine
 10
-244.3905513094
 20
103.1071440518
 30
0.0
 11
-244.3905513094
 21
99.1071440518
 31
0.0
  0
LINE
  5
12B
330
1F
100
AcDbEntity
  8
0
  6
Continuous
 62
     7
100
AcDbLine
 10
-244.3905513094
 20
99.1071440518
 30
0.0
 11
-264.3905513094
 21
99.1071440518
 31
0.0
  0
LINE
  5
12C
330
1F
100
AcDbEntity
  8
0
  6
Continuous
 62
     7
100
AcDbLine
 10
-264.3905513094
 20
99.1071440518
 30
0.0
 11
-264.3905513094
 21
103.1071440518
 31
0.0
  0
LINE
  5
12D
330
1F
100
AcDbEntity
  8
0
  6
Continuous
 62
     7
100
AcDbLine
 10
-264.3905513094
 20
103.1071440518
 30
0.0
 11
-284.3905513094
 21
103.1071440518
 31
0.0
  0
LINE
  5
12E
330
1F
100
AcDbEntity
  8
0
  6
Continuous
 62
     7
100
AcDbLine
 10
-284.3905513094
 20
103.1071440518
 30
0.0
 11
-284.3905513094
 21
99.1071440518
 31
0.0
  0
LINE
  5
12F
330
1F
100
AcDbEntity
  8
0
  6
Continuous
 62
     7
100
AcDbLine
 10
-284.3905513094
 20
99.1071440518
 30
0.0
 11
-304.3905513094
 21
99.1071440518
 31
0.0
  0
LINE
  5
130
330
1F
100
AcDbEntity
  8
0
  6
Continuous
 62
     7
100
AcDbLine
 10
-304.3905513094
 20
99.1071440518
 30
0.0
 11
-304.3905513094
 21
103.1071440518
 31
0.0
  0
LINE
  5
131
330
1F
100
AcDbEntity
  8
0
  6
Continuous
 62
     7
100
AcDbLine
 10
-304.3905513094
 20
103.1071440518
 30
0.0
 11
-318.8905513094
 21
103.1071440518
 31
0.0
  0
LINE
  5
132
330
1F
100
AcDbEntity
  8
0
  6
Continuous
 62
     7
100
AcDbLine
 10
-109.8905513094
 20
83.1071440518
 30
0.0
 11
-101.8905513094
 21
83.1071440518
 31
0.0
  0
LINE
  5
133
330
1F
100
AcDbEntity
  8
0
  6
Continuous
 62
     7
100
AcDbLine
 10
-101.8905513094
 20
83.1071440518
 30
0.0
 11
-101.8905513094
 21
63.1071440518
 31
0.0
  0
LINE
  5
134
330
1F
100
AcDbEntity
  8
0
  6
Continuous
 62
     7
100
AcDbLine
 10
-101.8905513094
 20
63.1071440518
 30
0.0
 11
-109.8905513094
 21
63.1071440518
 31
0.0
  0
LINE
  5
135
330
1F
100
AcDbEntity
  8
0
  6
Continuous
 62
     7
100
AcDbLine
 10
-109.8905513094
 20
63.1071440518
 30
0.0
 11
-109.8905513094
 21
43.1071440518
 31
0.0
  0
LINE
  5
136
330
1F
100
AcDbEntity
  8
0
  6
Continuous
 62
     7
100
AcDbLine
 10
-109.8905513094
 20
43.1071440518
 30
0.0
 11
-101.8905513094
 21
43.1071440518
 31
0.0
  0
LINE
  5
137
330
1F
100
AcDbEntity
  8
0
  6
Continuous
 62
     7
100
AcDbLine
 10
-101.8905513094
 20
43.1071440518
 30
0.0
 11
-101.8905513094
 21
23.1071440518
 31
0.0
  0
LINE
  5
138
330
1F
100
AcDbEntity
  8
0
  6
Continuous
 62
     7
100
AcDbLine
 10
-101.8905513094
 20
23.1071440518
 30
0.0
 11
-109.8905513094
 21
23.1071440518
 31
0.0
  0
LINE
  5
139
330
1F
100
AcDbEntity
  8
0
  6
Continuous
 62
     7
100
AcDbLine
 10
-109.8905513094
 20
23.1071440518
 30
0.0
 11
-109.8905513094
 21
3.1071440518
 31
0.0
  0
LINE
  5
13A
330
1F
100
AcDbEntity
  8
0
  6
Continuous
 62
     7
100
AcDbLine
 10
-318.8905513094
 20
3.517187091
 30
0.0
 11
-318.8905513094
 21
23.9272301301
 31
0.0
  0
LINE
  5
13B
330
1F
100
AcDbEntity
  8
0
  6
Continuous
 62
     7
100
AcDbLine
 10
-318.8905513094
 20
23.9272301301
 30
0.0
 11
-326.8905513094
 21
23.9272301301
 31
0.0
  0
LINE
  5
13C
330
1F
100
AcDbEntity
  8
0
  6
Continuous
 62
     7
100
AcDbLine
 10
-326.8905513094
 20
23.9272301301
 30
0.0
 11
-326.8905513094
 21
47.814736744
 31
0.0
  0
LINE
  5
13D
330
1F
100
AcDbEntity
  8
0
  6
Continuous
 62
     7
100
AcDbLine
 10
-326.8905513094
 20
47.814736744
 30
0.0
 11
-318.8905513094
 21
47.814736744
 31
0.0
  0
LINE
  5
13E
330
1F
100
AcDbEntity
  8
0
  6
Continuous
 62
     7
100
AcDbLine
 10
-318.8905513094
 20
47.814736744
 30
0.0
 11
-318.8905513094
 21
68.5636153694
 31
0.0
  0
LINE
  5
13F
330
1F
100
AcDbEntity
  8
0
  6
Continuous
 62
     7
100
AcDbLine
 10
-318.8905513094
 20
68.5636153694
 30
0.0
 11
-326.8905513094
 21
68.5636153694
 31
0.0
  0
LINE
  5
140
330
1F
100
AcDbEntity
  8
0
  6
Continuous
 62
     7
100
AcDbLine
 10
-326.8905513094
 20
68.5636153694
 30
0.0
 11
-326.8905513094
 21
93.0891443543
 31
0.0
  0
LINE
  5
141
330
1F
100
AcDbEntity
  8
0
  6
Continuous
 62
     7
100
AcDbLine
 10
-326.8905513094
 20
93.0891443543
 30
0.0
 11
-318.8905513094
 21
93.0891443543
 31
0.0
  0
LINE
  5
142
330
1F
100
AcDbEntity
  8
0
  6
Continuous
 62
     7
100
AcDbLine
 10
-318.8905513094
 20
93.0891443543
 30
0.0
 11
-318.8905513094
 21
103.1071440518
 31
0.0
  0
LINE
  5
143
330
1F
100
AcDbEntity
  8
0
  6
Continuous
 62
     7
100
AcDbLine
 10
-101.8905513094
 20
679.4632884097
 30
0.0
 11
-124.3905513094
 21
679.4632884097
 31
0.0
  0
LINE
  5
144
330
1F
100
AcDbEntity
  8
0
  6
Continuous
 62
     7
100
AcDbLine
 10
-124.3905513094
 20
679.4632884097
 30
0.0
 11
-124.3905513094
 21
683.4632884097
 31
0.0
  0
LINE
  5
145
330
1F
100
AcDbEntity
  8
0
  6
Continuous
 62
     7
100
AcDbLine
 10
-124.3905513094
 20
683.4632884097
 30
0.0
 11
-144.3905513094
 21
683.4632884097
 31
0.0
  0
LINE
  5
146
330
1F
100
AcDbEntity
  8
0
  6
Continuous
 62
     7
100
AcDbLine
 10
-144.3905513094
 20
683.4632884097
 30
0.0
 11
-144.3905513094
 21
679.4632884097
 31
0.0
  0
LINE
  5
147
330
1F
100
AcDbEntity
  8
0
  6
Continuous
 62
     7
100
AcDbLine
 10
-144.3905513094
 20
679.4632884097
 30
0.0
 11
-164.3905513094
 21
679.4632884097
 31
0.0
  0
LINE
  5
148
330
1F
100
AcDbEntity
  8
0
  6
Continuous
 62
     7
100
AcDbLine
 10
-164.3905513094
 20
679.4632884097
 30
0.0
 11
-164.3905513094
 21
683.4632884097
 31
0.0
  0
LINE
  5
149
330
1F
100
AcDbEntity
  8
0
  6
Continuous
 62
     7
100
AcDbLine
 10
-164.3905513094
 20
683.4632884097
 30
0.0
 11
-184.3905513094
 21
683.4632884097
 31
0.0
  0
LINE
  5
14A
330
1F
100
AcDbEntity
  8
0
  6
Continuous
 62
     7
100
AcDbLine
 10
-184.3905513094
 20
683.4632884097
 30
0.0
 11
-184.3905513094
 21
679.4632884097
 31
0.0
  0
LINE
  5
14B
330
1F
100
AcDbEntity
  8
0
  6
Continuous
 62
     7
100
AcDbLine
 10
-184.3905513094
 20
679.4632884097
 30
0.0
 11
-204.3905513094
 21
679.4632884097
 31
0.0
  0
LINE
  5
14C
330
1F
100
AcDbEntity
  8
0
  6
Continuous
 62
     7
100
AcDbLine
 10
-204.3905513094
 20
679.4632884097
 30
0.0
 11
-204.3905513094
 21
683.4632884097
 31
0.0
  0
LINE
  5
14D
330
1F
100
AcDbEntity
  8
0
  6
Continuous
 62
     7
100
AcDbLine
 10
-204.3905513094
 20
683.4632884097
 30
0.0
 11
-224.3905513094
 21
683.4632884097
 31
0.0
  0
LINE
  5
14E
330
1F
100
AcDbEntity
  8
0
  6
Continuous
 62
     7
100
AcDbLine
 10
-224.3905513094
 20
683.4632884097
 30
0.0
 11
-224.3905513094
 21
679.4632884097
 31
0.0
  0
LINE
  5
14F
330
1F
100
AcDbEntity
  8
0
  6
Continuous
 62
     7
100
AcDbLine
 10
-224.3905513094
 20
679.4632884097
 30
0.0
 11
-244.3905513094
 21
679.4632884097
 31
0.0
  0
LINE
  5
150
330
1F
100
AcDbEntity
  8
0
  6
Continuous
 62
     7
100
AcDbLine
 10
-244.3905513094
 20
679.4632884097
 30
0.0
 11
-244.3905513094
 21
683.4632884097
 31
0.0
  0
LINE
  5
151
330
1F
100
AcDbEntity
  8
0
  6
Continuous
 62
     7
100
AcDbLine
 10
-244.3905513094
 20
683.4632884097
 30
0.0
 11
-264.3905513094
 21
683.4632884097
 31
0.0
  0
LINE
  5
152
330
1F
100
AcDbEntity
  8
0
  6
Continuous
 62
     7
100
AcDbLine
 10
-264.3905513094
 20
683.4632884097
 30
0.0
 11
-264.3905513094
 21
679.4632884097
 31
0.0
  0
LINE
  5
153
330
1F
100
AcDbEntity
  8
0
  6
Continuous
 62
     7
100
AcDbLine
 10
-264.3905513094
 20
679.4632884097
 30
0.0
 11
-284.3905513094
 21
679.4632884097
 31
0.0
  0
LINE
  5
154
330
1F
100
AcDbEntity
  8
0
  6
Continuous
 62
     7
100
AcDbLine
 10
-284.3905513094
 20
679.4632884097
 30
0.0
 11
-284.3905513094
 21
683.4632884097
 31
0.0
  0
LINE
  5
155
330
1F
100
AcDbEntity
  8
0
  6
Continuous
 62
     7
100
AcDbLine
 10
-284.3905513094
 20
683.4632884097
 30
0.0
 11
-304.3905513094
 21
683.4632884097
 31
0.0
  0
LINE
  5
156
330
1F
100
AcDbEntity
  8
0
  6
Continuous
 62
     7
100
AcDbLine
 10
-326.8905513094
 20
679.4632884097
 30
0.0
 11
-304.3905513094
 21
679.4632884097
 31
0.0
  0
LINE
  5
157
330
1F
100
AcDbEntity
  8
0
  6
Continuous
 62
     7
100
AcDbLine
 10
-304.3905513094
 20
679.4632884097
 30
0.0
 11
-304.3905513094
 21
683.4632884097
 31
0.0
  0
LINE
  5
158
330
1F
100
AcDbEntity
  8
0
  6
Continuous
 62
     7
100
AcDbLine
 10
-101.8905513094
 20
679.4632884097
 30
0.0
 11
-101.8905513094
 21
703.8234993942
 31
0.0
  0
LINE
  5
159
330
1F
100
AcDbEntity
  8
0
  6
Continuous
 62
     7
100
AcDbLine
 10
-101.8905513094
 20
703.8234993942
 30
0.0
 11
-109.8905513094
 21
703.8234993942
 31
0.0
  0
LINE
  5
15A
330
1F
100
AcDbEntity
  8
0
  6
Continuous
 62
     7
100
AcDbLine
 10
-109.8905513094
 20
703.8234993942
 30
0.0
 11
-109.8905513094
 21
728.1837103787
 31
0.0
  0
LINE
  5
15B
330
1F
100
AcDbEntity
  8
0
  6
Continuous
 62
     7
100
AcDbLine
 10
-318.8905513094
 20
728.1837103787
 30
0.0
 11
-318.8905513094
 21
703.8234993942
 31
0.0
  0
LINE
  5
15C
330
1F
100
AcDbEntity
  8
0
  6
Continuous
 62
     7
100
AcDbLine
 10
-318.8905513094
 20
703.8234993942
 30
0.0
 11
-326.8905513094
 21
703.8234993942
 31
0.0
  0
LINE
  5
15D
330
1F
100
AcDbEntity
  8
0
  6
Continuous
 62
     7
100
AcDbLine
 10
-326.8905513094
 20
703.8234993942
 30
0.0
 11
-326.8905513094
 21
679.4632884097
 31
0.0
  0
LINE
  5
15E
330
1F
100
AcDbEntity
  8
0
  6
Continuous
 62
     7
100
AcDbLine
 10
270.2469001832
 20
300.4901436191
 30
0.0
 11
218.9673221522
 21
424.2900017651
 31
0.0
  0
LINE
  5
15F
330
1F
100
AcDbEntity
  8
0
  6
Continuous
 62
     7
100
AcDbLine
 10
230.2469001832
 20
294.4901436191
 30
0.0
 11
230.2469001832
 21
298.4901436191
 31
0.0
  0
LINE
  5
160
330
1F
100
AcDbEntity
  8
0
  6
Continuous
 62
     7
100
AcDbLine
 10
230.2469001832
 20
298.4901436191
 30
0.0
 11
210.2469001832
 21
298.4901436191
 31
0.0
  0
LINE
  5
161
330
1F
100
AcDbEntity
  8
0
  6
Continuous
 62
     7
100
AcDbLine
 10
210.2469001832
 20
298.4901436191
 30
0.0
 11
210.2469001832
 21
294.4901436191
 31
0.0
  0
LINE
  5
162
330
1F
100
AcDbEntity
  8
0
  6
Continuous
 62
     7
100
AcDbLine
 10
210.2469001832
 20
294.4901436191
 30
0.0
 11
190.2469001832
 21
294.4901436191
 31
0.0
  0
LINE
  5
163
330
1F
100
AcDbEntity
  8
0
  6
Continuous
 62
     7
100
AcDbLine
 10
190.2469001832
 20
294.4901436191
 30
0.0
 11
190.2469001832
 21
298.4901436191
 31
0.0
  0
LINE
  5
164
330
1F
100
AcDbEntity
  8
0
  6
Continuous
 62
     7
100
AcDbLine
 10
190.2469001832
 20
298.4901436191
 30
0.0
 11
170.2469001832
 21
298.4901436191
 31
0.0
  0
LINE
  5
165
330
1F
100
AcDbEntity
  8
0
  6
Continuous
 62
     7
100
AcDbLine
 10
150.2469001832
 20
294.4901436191
 30
0.0
 11
150.2469001832
 21
314.4901436191
 31
0.0
  0
LINE
  5
166
330
1F
100
AcDbEntity
  8
0
  6
Continuous
 62
     7
100
AcDbLine
 10
150.2469001832
 20
314.4901436191
 30
0.0
 11
154.2469001832
 21
314.4901436191
 31
0.0
  0
LINE
  5
167
330
1F
100
AcDbEntity
  8
0
  6
Continuous
 62
     7
100
AcDbLine
 10
154.2469001832
 20
314.4901436191
 30
0.0
 11
154.2469001832
 21
334.4901436191
 31
0.0
  0
LINE
  5
168
330
1F
100
AcDbEntity
  8
0
  6
Continuous
 62
     7
100
AcDbLine
 10
154.2469001832
 20
334.4901436191
 30
0.0
 11
150.2469001832
 21
334.4901436191
 31
0.0
  0
LINE
  5
169
330
1F
100
AcDbEntity
  8
0
  6
Continuous
 62
     7
100
AcDbLine
 10
150.2469001832
 20
334.4901436191
 30
0.0
 11
150.2469001832
 21
354.4901436191
 31
0.0
  0
LINE
  5
16A
330
1F
100
AcDbEntity
  8
0
  6
Continuous
 62
     7
100
AcDbLine
 10
150.2469001832
 20
354.4901436191
 30
0.0
 11
154.2469001832
 21
354.4901436191
 31
0.0
  0
LINE
  5
16B
330
1F
100
AcDbEntity
  8
0
  6
Continuous
 62
     7
100
AcDbLine
 10
154.2469001832
 20
354.4901436191
 30
0.0
 11
154.2469001832
 21
374.4901436191
 31
0.0
  0
LINE
  5
16C
330
1F
100
AcDbEntity
  8
0
  6
Continuous
 62
     7
100
AcDbLine
 10
154.2469001832
 20
374.4901436191
 30
0.0
 11
150.2469001832
 21
374.4901436191
 31
0.0
  0
LINE
  5
16D
330
1F
100
AcDbEntity
  8
0
  6
Continuous
 62
     7
100
AcDbLine
 10
150.2469001832
 20
374.4901436191
 30
0.0
 11
150.2469001832
 21
394.4901436191
 31
0.0
  0
LINE
  5
16E
330
1F
100
AcDbEntity
  8
0
  6
Continuous
 62
     7
100
AcDbLine
 10
150.2469001832
 20
394.4901436191
 30
0.0
 11
154.2469001832
 21
394.4901436191
 31
0.0
  0
LINE
  5
16F
330
1F
100
AcDbEntity
  8
0
  6
Continuous
 62
     7
100
AcDbLine
 10
154.2469001832
 20
394.4901436191
 30
0.0
 11
154.2469001832
 21
414.4901436191
 31
0.0
  0
LINE
  5
170
330
1F
100
AcDbEntity
  8
0
  6
Continuous
 62
     7
100
AcDbLine
 10
154.2469001832
 20
414.4901436191
 30
0.0
 11
150.2469001832
 21
414.4901436191
 31
0.0
  0
LINE
  5
171
330
1F
100
AcDbEntity
  8
0
  6
Continuous
 62
     7
100
AcDbLine
 10
150.2469001832
 20
414.4901436191
 30
0.0
 11
150.2469001832
 21
434.4901436191
 31
0.0
  0
LINE
  5
172
330
1F
100
AcDbEntity
  8
0
  6
Continuous
 62
     7
100
AcDbLine
 10
150.2469001832
 20
434.4901436191
 30
0.0
 11
154.2469001832
 21
434.4901436191
 31
0.0
  0
LINE
  5
173
330
1F
100
AcDbEntity
  8
0
  6
Continuous
 62
     7
100
AcDbLine
 10
174.6071111677
 20
484.4901436191
 30
0.0
 11
174.6071111677
 21
480.4901436191
 31
0.0
  0
LINE
  5
174
330
1F
100
AcDbEntity
  8
0
  6
Continuous
 62
     7
100
AcDbLine
 10
154.2469001832
 20
434.4901436191
 30
0.0
 11
154.2469001832
 21
454.4901436191
 31
0.0
  0
LINE
  5
175
330
1F
100
AcDbEntity
  8
0
  6
Continuous
 62
     7
100
AcDbLine
 10
154.2469001832
 20
454.4901436191
 30
0.0
 11
150.2469001832
 21
454.4901436191
 31
0.0
  0
LINE
  5
176
330
1F
100
AcDbEntity
  8
0
  6
Continuous
 62
     7
100
AcDbLine
 10
150.2469001832
 20
454.4901436191
 30
0.0
 11
150.2469001832
 21
480.4901436191
 31
0.0
  0
LINE
  5
177
330
1F
100
AcDbEntity
  8
0
  6
Continuous
 62
     7
100
AcDbLine
 10
170.2469001832
 20
298.4901436191
 30
0.0
 11
170.2469001832
 21
294.4901436191
 31
0.0
  0
LINE
  5
178
330
1F
100
AcDbEntity
  8
0
  6
Continuous
 62
     7
100
AcDbLine
 10
170.2469001832
 20
294.4901436191
 30
0.0
 11
150.2469001832
 21
294.4901436191
 31
0.0
  0
LINE
  5
179
330
1F
100
AcDbEntity
  8
0
  6
Continuous
 62
     7
100
AcDbLine
 10
174.6071111677
 20
480.4901436191
 30
0.0
 11
150.2469001832
 21
480.4901436191
 31
0.0
  0
LINE
  5
17A
330
1F
100
AcDbEntity
  8
0
  6
Continuous
 62
     7
100
AcDbLine
 10
230.2469001832
 20
294.4901436191
 30
0.0
 11
250.2469001832
 21
294.4901436191
 31
0.0
  0
LINE
  5
17B
330
1F
100
AcDbEntity
  8
0
  6
Continuous
 62
     7
100
AcDbLine
 10
250.2469001832
 20
294.4901436191
 30
0.0
 11
250.2469001832
 21
298.4901436191
 31
0.0
  0
LINE
  5
17C
330
1F
100
AcDbEntity
  8
0
  6
Continuous
 62
     7
100
AcDbLine
 10
250.2469001832
 20
298.4901436191
 30
0.0
 11
270.2469001832
 21
298.4901436191
 31
0.0
  0
LINE
  5
17D
330
1F
100
AcDbEntity
  8
0
  6
Continuous
 62
     7
100
AcDbLine
 10
270.2469001832
 20
298.4901436191
 30
0.0
 11
270.2469001832
 21
300.4901436191
 31
0.0
  0
LINE
  5
17E
330
1F
100
AcDbEntity
  8
0
  6
Continuous
 62
     7
100
AcDbLine
 10
-109.8905513094
 20
3.1071440518
 30
0.0
 11
-101.8905513094
 21
3.1071440518
 31
0.0
  0
LINE
  5
17F
330
1F
100
AcDbEntity
  8
0
  6
Continuous
 62
     7
100
AcDbLine
 10
-101.8905513094
 20
3.1071440518
 30
0.0
 11
-101.8905513094
 21
-16.8928559482
 31
0.0
  0
LINE
  5
180
330
1F
100
AcDbEntity
  8
0
  6
Continuous
 62
     7
100
AcDbLine
 10
-101.8905513094
 20
-16.8928559482
 30
0.0
 11
-326.8905513094
 21
-16.8928559482
 31
0.0
  0
LINE
  5
181
330
1F
100
AcDbEntity
  8
0
  6
Continuous
 62
     7
100
AcDbLine
 10
-326.8905513094
 20
-16.8928559482
 30
0.0
 11
-326.8905513094
 21
3.517187091
 31
0.0
  0
LINE
  5
182
330
1F
100
AcDbEntity
  8
0
  6
Continuous
 62
     7
100
AcDbLine
 10
-326.8905513094
 20
3.517187091
 30
0.0
 11
-318.8905513094
 21
3.517187091
 31
0.0
  0
LINE
  5
183
330
1F
100
AcDbEntity
  8
0
  6
Continuous
 62
     7
100
AcDbLine
 10
-109.8905513094
 20
728.1837103787
 30
0.0
 11
-101.8905513094
 21
728.1837103787
 31
0.0
  0
LINE
  5
184
330
1F
100
AcDbEntity
  8
0
  6
Continuous
 62
     7
100
AcDbLine
 10
-101.8905513094
 20
728.1837103787
 30
0.0
 11
-101.8905513094
 21
748.1837103787
 31
0.0
  0
LINE
  5
185
330
1F
100
AcDbEntity
  8
0
  6
Continuous
 62
     7
100
AcDbLine
 10
-101.8905513094
 20
748.1837103787
 30
0.0
 11
-326.8905513094
 21
748.1837103787
 31
0.0
  0
LINE
  5
186
330
1F
100
AcDbEntity
  8
0
  6
Continuous
 62
     7
100
AcDbLine
 10
-326.8905513094
 20
748.1837103787
 30
0.0
 11
-326.8905513094
 21
728.1837103787
 31
0.0
  0
LINE
  5
187
330
1F
100
AcDbEntity
  8
0
  6
Continuous
 62
     7
100
AcDbLine
 10
-326.8905513094
 20
728.1837103787
 30
0.0
 11
-318.8905513094
 21
728.1837103787
 31
0.0
  0
LINE
  5
188
330
1F
100
AcDbEntity
  8
0
  6
Continuous
 62
     7
100
AcDbLine
 10
174.6071111677
 20
484.4901436191
 30
0.0
 11
198.9673221522
 21
484.4901436191
 31
0.0
  0
LINE
  5
189
330
1F
100
AcDbEntity
  8
0
  6
Continuous
 62
     7
100
AcDbLine
 10
198.9673221522
 20
484.4901436191
 30
0.0
 11
198.9673221522
 21
480.4901436191
 31
0.0
  0
LINE
  5
18A
330
1F
100
AcDbEntity
  8
0
  6
Continuous
 62
     7
100
AcDbLine
 10
198.9673221522
 20
480.4901436191
 30
0.0
 11
218.9673221522
 21
480.4901436191
 31
0.0
  0
LINE
  5
18B
330
1F
100
AcDbEntity
  8
0
  6
Continuous
 62
     7
100
AcDbLine
 10
218.9673221522
 20
480.4901436191
 30
0.0
 11
218.9673221522
 21
424.2900017651
 31
0.0
  0
LINE
  5
18C
330
1F
100
AcDbEntity
  8
0
  6
Continuous
 62
     7
100
AcDbLine
 10
-392.0383296343
 20
294.4901436191
 30
0.0
 11
-392.0383296343
 21
476.4901436191
 31
0.0
  0
LINE
  5
18D
330
1F
100
AcDbEntity
  8
0
  6
Continuous
 62
     7
100
AcDbLine
 10
-392.0383296343
 20
476.4901436191
 30
0.0
 11
-402.0383296343
 21
476.4901436191
 31
0.0
  0
LINE
  5
18E
330
1F
100
AcDbEntity
  8
0
  6
Continuous
 62
     7
100
AcDbLine
 10
-402.0383296343
 20
476.4901436191
 30
0.0
 11
-402.0383296343
 21
480.4901436191
 31
0.0
  0
LINE
  5
18F
330
1F
100
AcDbEntity
  8
0
  6
Continuous
 62
     7
100
AcDbLine
 10
-402.0383296343
 20
480.4901436191
 30
0.0
 11
-422.0383296343
 21
480.4901436191
 31
0.0
  0
LINE
  5
190
330
1F
100
AcDbEntity
  8
0
  6
Continuous
 62
     7
100
AcDbLine
 10
-422.0383296343
 20
480.4901436191
 30
0.0
 11
-422.0383296343
 21
476.4901436191
 31
0.0
  0
LINE
  5
191
330
1F
100
AcDbEntity
  8
0
  6
Continuous
 62
     7
100
AcDbLine
 10
-422.0383296343
 20
476.4901436191
 30
0.0
 11
-432.0383296343
 21
476.4901436191
 31
0.0
  0
LINE
  5
192
330
1F
100
AcDbEntity
  8
0
  6
Continuous
 62
     7
100
AcDbLine
 10
-432.0383296343
 20
476.4901436191
 30
0.0
 11
-432.0383296343
 21
294.4901436191
 31
0.0
  0
LINE
  5
193
330
1F
100
AcDbEntity
  8
0
  6
Continuous
 62
     7
100
AcDbLine
 10
-432.0383296343
 20
294.4901436191
 30
0.0
 11
-422.0383296343
 21
294.4901436191
 31
0.0
  0
LINE
  5
194
330
1F
100
AcDbEntity
  8
0
  6
Continuous
 62
     7
100
AcDbLine
 10
-422.0383296343
 20
294.4901436191
 30
0.0
 11
-422.0383296343
 21
290.4901436191
 31
0.0
  0
LINE
  5
195
330
1F
100
AcDbEntity
  8
0
  6
Continuous
 62
     7
100
AcDbLine
 10
-422.0383296343
 20
290.4901436191
 30
0.0
 11
-402.0383296343
 21
290.4901436191
 31
0.0
  0
LINE
  5
196
330
1F
100
AcDbEntity
  8
0
  6
Continuous
 62
     7
100
AcDbLine
 10
-402.0383296343
 20
290.4901436191
 30
0.0
 11
-402.0383296343
 21
294.4901436191
 31
0.0
  0
LINE
  5
197
330
1F
100
AcDbEntity
  8
0
  6
Continuous
 62
     7
100
AcDbLine
 10
-402.0383296343
 20
294.4901436191
 30
0.0
 11
-392.0383296343
 21
294.4901436191
 31
0.0
  0
LINE
  5
198
330
1F
100
AcDbEntity
  8
0
  6
Continuous
 62
     7
100
AcDbLine
 10
-105.8905513094
 20
549.45487483
 30
0.0
 11
-124.3905513094
 21
549.45487483
 31
0.0
  0
LINE
  5
199
330
1F
100
AcDbEntity
  8
0
  6
Continuous
 62
     7
100
AcDbLine
 10
-124.3905513094
 20
549.45487483
 30
0.0
 11
-124.3905513094
 21
553.45487483
 31
0.0
  0
LINE
  5
19A
330
1F
100
AcDbEntity
  8
0
  6
Continuous
 62
     7
100
AcDbLine
 10
-124.3905513094
 20
553.45487483
 30
0.0
 11
-144.3905513094
 21
553.45487483
 31
0.0
  0
LINE
  5
19B
330
1F
100
AcDbEntity
  8
0
  6
Continuous
 62
     7
100
AcDbLine
 10
-144.3905513094
 20
553.45487483
 30
0.0
 11
-144.3905513094
 21
549.45487483
 31
0.0
  0
LINE
  5
19C
330
1F
100
AcDbEntity
  8
0
  6
Continuous
 62
     7
100
AcDbLine
 10
-144.3905513094
 20
549.45487483
 30
0.0
 11
-164.3905513094
 21
549.45487483
 31
0.0
  0
LINE
  5
19D
330
1F
100
AcDbEntity
  8
0
  6
Continuous
 62
     7
100
AcDbLine
 10
-164.3905513094
 20
549.45487483
 30
0.0
 11
-164.3905513094
 21
553.45487483
 31
0.0
  0
LINE
  5
19E
330
1F
100
AcDbEntity
  8
0
  6
Continuous
 62
     7
100
AcDbLine
 10
-164.3905513094
 20
553.45487483
 30
0.0
 11
-184.3905513094
 21
553.45487483
 31
0.0
  0
LINE
  5
19F
330
1F
100
AcDbEntity
  8
0
  6
Continuous
 62
     7
100
AcDbLine
 10
-184.3905513094
 20
553.45487483
 30
0.0
 11
-184.3905513094
 21
549.45487483
 31
0.0
  0
LINE
  5
1A0
330
1F
100
AcDbEntity
  8
0
  6
Continuous
 62
     7
100
AcDbLine
 10
-184.3905513094
 20
549.45487483
 30
0.0
 11
-204.3905513094
 21
549.45487483
 31
0.0
  0
LINE
  5
1A1
330
1F
100
AcDbEntity
  8
0
  6
Continuous
 62
     7
100
AcDbLine
 10
-204.3905513094
 20
549.45487483
 30
0.0
 11
-204.3905513094
 21
553.45487483
 31
0.0
  0
LINE
  5
1A2
330
1F
100
AcDbEntity
  8
0
  6
Continuous
 62
     7
100
AcDbLine
 10
-204.3905513094
 20
553.45487483
 30
0.0
 11
-224.3905513094
 21
553.45487483
 31
0.0
  0
LINE
  5
1A3
330
1F
100
AcDbEntity
  8
0
  6
Continuous
 62
     7
100
AcDbLine
 10
-224.3905513094
 20
553.45487483
 30
0.0
 11
-224.3905513094
 21
549.45487483
 31
0.0
  0
LINE
  5
1A4
330
1F
100
AcDbEntity
  8
0
  6
Continuous
 62
     7
100
AcDbLine
 10
-224.3905513094
 20
549.45487483
 30
0.0
 11
-244.3905513094
 21
549.45487483
 31
0.0
  0
LINE
  5
1A5
330
1F
100
AcDbEntity
  8
0
  6
Continuous
 62
     7
100
AcDbLine
 10
-244.3905513094
 20
549.45487483
 30
0.0
 11
-244.3905513094
 21
553.45487483
 31
0.0
  0
LINE
  5
1A6
330
1F
100
AcDbEntity
  8
0
  6
Continuous
 62
     7
100
AcDbLine
 10
-244.3905513094
 20
553.45487483
 30
0.0
 11
-264.3905513094
 21
553.45487483
 31
0.0
  0
LINE
  5
1A7
330
1F
100
AcDbEntity
  8
0
  6
Continuous
 62
     7
100
AcDbLine
 10
-264.3905513094
 20
553.45487483
 30
0.0
 11
-264.3905513094
 21
549.45487483
 31
0.0
  0
LINE
  5
1A8
330
1F
100
AcDbEntity
  8
0
  6
Continuous
 62
     7
100
AcDbLine
 10
-264.3905513094
 20
549.45487483
 30
0.0
 11
-284.3905513094
 21
549.45487483
 31
0.0
  0
LINE
  5
1A9
330
1F
100
AcDbEntity
  8
0
  6
Continuous
 62
     7
100
AcDbLine
 10
-284.3905513094
 20
549.45487483
 30
0.0
 11
-284.3905513094
 21
553.45487483
 31
0.0
  0
LINE
  5
1AA
330
1F
100
AcDbEntity
  8
0
  6
Continuous
 62
     7
100
AcDbLine
 10
-284.3905513094
 20
553.45487483
 30
0.0
 11
-304.3905513094
 21
553.45487483
 31
0.0
  0
LINE
  5
1AB
330
1F
100
AcDbEntity
  8
0
  6
Continuous
 62
     7
100
AcDbLine
 10
-326.8905513094
 20
549.45487483
 30
0.0
 11
-304.3905513094
 21
549.45487483
 31
0.0
  0
LINE
  5
1AC
330
1F
100
AcDbEntity
  8
0
  6
Continuous
 62
     7
100
AcDbLine
 10
-304.3905513094
 20
549.45487483
 30
0.0
 11
-304.3905513094
 21
553.45487483
 31
0.0
  0
LINE
  5
1AD
330
1F
100
AcDbEntity
  8
0
  6
Continuous
 62
     7
100
AcDbLine
 10
-105.8905513094
 20
549.45487483
 30
0.0
 11
-105.8905513094
 21
573.8150858145
 31
0.0
  0
LINE
  5
1AE
330
1F
100
AcDbEntity
  8
0
  6
Continuous
 62
     7
100
AcDbLine
 10
-105.8905513094
 20
573.8150858145
 30
0.0
 11
-113.8905513094
 21
573.8150858145
 31
0.0
  0
LINE
  5
1AF
330
1F
100
AcDbEntity
  8
0
  6
Continuous
 62
     7
100
AcDbLine
 10
-113.8905513094
 20
573.8150858145
 30
0.0
 11
-113.8905513094
 21
598.175296799
 31
0.0
  0
LINE
  5
1B0
330
1F
100
AcDbEntity
  8
0
  6
Continuous
 62
     7
100
AcDbLine
 10
-318.8905513094
 20
598.175296799
 30
0.0
 11
-318.8905513094
 21
573.8150858145
 31
0.0
  0
LINE
  5
1B1
330
1F
100
AcDbEntity
  8
0
  6
Continuous
 62
     7
100
AcDbLine
 10
-318.8905513094
 20
573.8150858145
 30
0.0
 11
-326.8905513094
 21
573.8150858145
 31
0.0
  0
LINE
  5
1B2
330
1F
100
AcDbEntity
  8
0
  6
Continuous
 62
     7
100
AcDbLine
 10
-326.8905513094
 20
573.8150858145
 30
0.0
 11
-326.8905513094
 21
549.45487483
 31
0.0
  0
LINE
  5
1B3
330
1F
100
AcDbEntity
  8
0
  6
Continuous
 62
     7
100
AcDbLine
 10
-318.8905513094
 20
598.175296799
 30
0.0
 11
-113.8905513094
 21
598.175296799
 31
0.0
  0
LINE
  5
1B4
330
1F
100
AcDbEntity
  8
0
  6
Continuous
 62
     7
100
AcDbLine
 10
-109.8905513094
 20
245.6239259569
 30
0.0
 11
-109.8905513094
 21
225.6239259569
 31
0.0
  0
LINE
  5
1B5
330
1F
100
AcDbEntity
  8
0
  6
Continuous
 62
     7
100
AcDbLine
 10
-109.8905513094
 20
245.6239259569
 30
0.0
 11
-124.3905513094
 21
245.6239259569
 31
0.0
  0
LINE
  5
1B6
330
1F
100
AcDbEntity
  8
0
  6
Continuous
 62
     7
100
AcDbLine
 10
-124.3905513094
 20
245.6239259569
 30
0.0
 11
-124.3905513094
 21
241.6239259569
 31
0.0
  0
LINE
  5
1B7
330
1F
100
AcDbEntity
  8
0
  6
Continuous
 62
     7
100
AcDbLine
 10
-124.3905513094
 20
241.6239259569
 30
0.0
 11
-144.3905513094
 21
241.6239259569
 31
0.0
  0
LINE
  5
1B8
330
1F
100
AcDbEntity
  8
0
  6
Continuous
 62
     7
100
AcDbLine
 10
-144.3905513094
 20
241.6239259569
 30
0.0
 11
-144.3905513094
 21
245.6239259569
 31
0.0
  0
LINE
  5
1B9
330
1F
100
AcDbEntity
  8
0
  6
Continuous
 62
     7
100
AcDbLine
 10
-144.3905513094
 20
245.6239259569
 30
0.0
 11
-164.3905513094
 21
245.6239259569
 31
0.0
  0
LINE
  5
1BA
330
1F
100
AcDbEntity
  8
0
  6
Continuous
 62
     7
100
AcDbLine
 10
-164.3905513094
 20
245.6239259569
 30
0.0
 11
-164.3905513094
 21
241.6239259569
 31
0.0
  0
LINE
  5
1BB
330
1F
100
AcDbEntity
  8
0
  6
Continuous
 62
     7
100
AcDbLine
 10
-164.3905513094
 20
241.6239259569
 30
0.0
 11
-184.3905513094
 21
241.6239259569
 31
0.0
  0
LINE
  5
1BC
330
1F
100
AcDbEntity
  8
0
  6
Continuous
 62
     7
100
AcDbLine
 10
-184.3905513094
 20
241.6239259569
 30
0.0
 11
-184.3905513094
 21
245.6239259569
 31
0.0
  0
LINE
  5
1BD
330
1F
100
AcDbEntity
  8
0
  6
Continuous
 62
     7
100
AcDbLine
 10
-184.3905513094
 20
245.6239259569
 30
0.0
 11
-204.3905513094
 21
245.6239259569
 31
0.0
  0
LINE
  5
1BE
330
1F
100
AcDbEntity
  8
0
  6
Continuous
 62
     7
100
AcDbLine
 10
-204.3905513094
 20
245.6239259569
 30
0.0
 11
-204.3905513094
 21
241.6239259569
 31
0.0
  0
LINE
  5
1BF
330
1F
100
AcDbEntity
  8
0
  6
Continuous
 62
     7
100
AcDbLine
 10
-204.3905513094
 20
241.6239259569
 30
0.0
 11
-224.3905513094
 21
241.6239259569
 31
0.0
  0
LINE
  5
1C0
330
1F
100
AcDbEntity
  8
0
  6
Continuous
 62
     7
100
AcDbLine
 10
-224.3905513094
 20
241.6239259569
 30
0.0
 11
-224.3905513094
 21
245.6239259569
 31
0.0
  0
LINE
  5
1C1
330
1F
100
AcDbEntity
  8
0
  6
Continuous
 62
     7
100
AcDbLine
 10
-224.3905513094
 20
245.6239259569
 30
0.0
 11
-244.3905513094
 21
245.6239259569
 31
0.0
  0
LINE
  5
1C2
330
1F
100
AcDbEntity
  8
0
  6
Continuous
 62
     7
100
AcDbLine
 10
-244.3905513094
 20
245.6239259569
 30
0.0
 11
-244.3905513094
 21
241.6239259569
 31
0.0
  0
LINE
  5
1C3
330
1F
100
AcDbEntity
  8
0
  6
Continuous
 62
     7
100
AcDbLine
 10
-244.3905513094
 20
241.6239259569
 30
0.0
 11
-264.3905513094
 21
241.6239259569
 31
0.0
  0
LINE
  5
1C4
330
1F
100
AcDbEntity
  8
0
  6
Continuous
 62
     7
100
AcDbLine
 10
-264.3905513094
 20
241.6239259569
 30
0.0
 11
-264.3905513094
 21
245.6239259569
 31
0.0
  0
LINE
  5
1C5
330
1F
100
AcDbEntity
  8
0
  6
Continuous
 62
     7
100
AcDbLine
 10
-264.3905513094
 20
245.6239259569
 30
0.0
 11
-284.3905513094
 21
245.6239259569
 31
0.0
  0
LINE
  5
1C6
330
1F
100
AcDbEntity
  8
0
  6
Continuous
 62
     7
100
AcDbLine
 10
-284.3905513094
 20
245.6239259569
 30
0.0
 11
-284.3905513094
 21
241.6239259569
 31
0.0
  0
LINE
  5
1C7
330
1F
100
AcDbEntity
  8
0
  6
Continuous
 62
     7
100
AcDbLine
 10
-284.3905513094
 20
241.6239259569
 30
0.0
 11
-304.3905513094
 21
241.6239259569
 31
0.0
  0
LINE
  5
1C8
330
1F
100
AcDbEntity
  8
0
  6
Continuous
 62
     7
100
AcDbLine
 10
-304.3905513094
 20
241.6239259569
 30
0.0
 11
-304.3905513094
 21
245.6239259569
 31
0.0
  0
LINE
  5
1C9
330
1F
100
AcDbEntity
  8
0
  6
Continuous
 62
     7
100
AcDbLine
 10
-304.3905513094
 20
245.6239259569
 30
0.0
 11
-318.8905513094
 21
245.6239259569
 31
0.0
  0
LINE
  5
1CA
330
1F
100
AcDbEntity
  8
0
  6
Continuous
 62
     7
100
AcDbLine
 10
-109.8905513094
 20
225.6239259569
 30
0.0
 11
-101.8905513094
 21
225.6239259569
 31
0.0
  0
LINE
  5
1CB
330
1F
100
AcDbEntity
  8
0
  6
Continuous
 62
     7
100
AcDbLine
 10
-101.8905513094
 20
225.6239259569
 30
0.0
 11
-101.8905513094
 21
205.6239259569
 31
0.0
  0
LINE
  5
1CC
330
1F
100
AcDbEntity
  8
0
  6
Continuous
 62
     7
100
AcDbLine
 10
-101.8905513094
 20
205.6239259569
 30
0.0
 11
-109.8905513094
 21
205.6239259569
 31
0.0
  0
LINE
  5
1CD
330
1F
100
AcDbEntity
  8
0
  6
Continuous
 62
     7
100
AcDbLine
 10
-109.8905513094
 20
205.6239259569
 30
0.0
 11
-109.8905513094
 21
185.6239259569
 31
0.0
  0
LINE
  5
1CE
330
1F
100
AcDbEntity
  8
0
  6
Continuous
 62
     7
100
AcDbLine
 10
-109.8905513094
 20
185.6239259569
 30
0.0
 11
-101.8905513094
 21
185.6239259569
 31
0.0
  0
LINE
  5
1CF
330
1F
100
AcDbEntity
  8
0
  6
Continuous
 62
     7
100
AcDbLine
 10
-101.8905513094
 20
185.6239259569
 30
0.0
 11
-101.8905513094
 21
165.6239259569
 31
0.0
  0
LINE
  5
1D0
330
1F
100
AcDbEntity
  8
0
  6
Continuous
 62
     7
100
AcDbLine
 10
-101.8905513094
 20
165.6239259569
 30
0.0
 11
-109.8905513094
 21
165.6239259569
 31
0.0
  0
LINE
  5
1D1
330
1F
100
AcDbEntity
  8
0
  6
Continuous
 62
     7
100
AcDbLine
 10
-109.8905513094
 20
165.6239259569
 30
0.0
 11
-109.8905513094
 21
145.6239259569
 31
0.0
  0
LINE
  5
1D2
330
1F
100
AcDbEntity
  8
0
  6
Continuous
 62
     7
100
AcDbLine
 10
-318.8905513094
 20
145.6239259569
 30
0.0
 11
-318.8905513094
 21
165.6239259569
 31
0.0
  0
LINE
  5
1D3
330
1F
100
AcDbEntity
  8
0
  6
Continuous
 62
     7
100
AcDbLine
 10
-318.8905513094
 20
165.6239259569
 30
0.0
 11
-326.8905513094
 21
165.6239259569
 31
0.0
  0
LINE
  5
1D4
330
1F
100
AcDbEntity
  8
0
  6
Continuous
 62
     7
100
AcDbLine
 10
-326.8905513094
 20
165.6239259569
 30
0.0
 11
-326.8905513094
 21
185.6239259569
 31
0.0
  0
LINE
  5
1D5
330
1F
100
AcDbEntity
  8
0
  6
Continuous
 62
     7
100
AcDbLine
 10
-326.8905513094
 20
185.6239259569
 30
0.0
 11
-318.8905513094
 21
185.6239259569
 31
0.0
  0
LINE
  5
1D6
330
1F
100
AcDbEntity
  8
0
  6
Continuous
 62
     7
100
AcDbLine
 10
-318.8905513094
 20
185.6239259569
 30
0.0
 11
-318.8905513094
 21
205.6239259569
 31
0.0
  0
LINE
  5
1D7
330
1F
100
AcDbEntity
  8
0
  6
Continuous
 62
     7
100
AcDbLine
 10
-318.8905513094
 20
205.6239259569
 30
0.0
 11
-326.8905513094
 21
205.6239259569
 31
0.0
  0
LINE
  5
1D8
330
1F
100
AcDbEntity
  8
0
  6
Continuous
 62
     7
100
AcDbLine
 10
-326.8905513094
 20
205.6239259569
 30
0.0
 11
-326.8905513094
 21
225.6239259569
 31
0.0
  0
LINE
  5
1D9
330
1F
100
AcDbEntity
  8
0
  6
Continuous
 62
     7
100
AcDbLine
 10
-326.8905513094
 20
225.6239259569
 30
0.0
 11
-318.8905513094
 21
225.6239259569
 31
0.0
  0
LINE
  5
1DA
330
1F
100
AcDbEntity
  8
0
  6
Continuous
 62
     7
100
AcDbLine
 10
-318.8905513094
 20
225.6239259569
 30
0.0
 11
-318.8905513094
 21
245.6239259569
 31
0.0
  0
LINE
  5
1DB
330
1F
100
AcDbEntity
  8
0
  6
Continuous
 62
     7
100
AcDbLine
 10
-318.8905513094
 20
145.6239259569
 30
0.0
 11
-109.8905513094
 21
145.6239259569
 31
0.0
  0
LWPOLYLINE
  5
1DC
330
1F
100
AcDbEntity
  8
0
  6
Continuous
 62
     7
100
AcDbPolyline
 90
        3
 70
   128
 43
0.0
 10
-206.0525417328
 20
27.8257355857
 10
-208.3724907957
 20
25.9450906776
 10
-210.6837747112
 20
24.4674364869
  0
LWPOLYLINE
  5
1DD
330
1F
100
AcDbEntity
  8
0
  6
Continuous
 62
     7
100
AcDbPolyline
 90
        3
 70
   128
 43
0.0
 10
-210.6837034225
 20
24.4674364869
 10
-213.6904405399
 20
22.8500747927
 10
-215.8025598617
 20
21.9487034128
  0
LWPOLYLINE
  5
1DE
330
1F
100
AcDbEntity
  8
0
  6
Continuous
 62
     7
100
AcDbPolyline
 90
        3
 70
   128
 43
0.0
 10
-215.8025503159
 20
26.6611630514
 10
-211.5449848597
 20
29.069614597
 10
-208.6525951514
 20
31.3194601884
  0
LWPOLYLINE
  5
1DF
330
1F
100
AcDbEntity
  8
0
  6
Continuous
 62
     7
100
AcDbPolyline
 90
        3
 70
   128
 43
0.0
 10
-208.6524963379
 20
31.3194601884
 10
-205.785507826
 20
34.3321449296
 10
-204.319273024
 20
36.6277528446
  0
LWPOLYLINE
  5
1E0
330
1F
100
AcDbEntity
  8
0
  6
Continuous
 62
     7
100
AcDbPolyline
 90
        3
 70
   128
 43
0.0
 10
-188.6922121048
 20
16.3424942479
 10
-188.2421903202
 20
23.3627885605
 10
-187.2569545222
 20
27.6632445809
  0
LWPOLYLINE
  5
1E1
330
1F
100
AcDbEntity
  8
0
  6
Continuous
 62
     7
100
AcDbPolyline
 90
        3
 70
   128
 43
0.0
 10
-187.2569322586
 20
27.6632445809
 10
-185.1857879119
 20
31.8661944723
 10
-182.9506768955
 20
34.2986007761
  0
LWPOLYLINE
  5
1E2
330
1F
100
AcDbEntity
  8
0
  6
Continuous
 62
     7
100
AcDbPolyline
 90
        3
 70
   128
 43
0.0
 10
-182.9506158829
 20
34.2986007761
 10
-179.2767462419
 20
36.1768290041
 10
-175.7466266836
 20
36.6277528446
  0
LWPOLYLINE
  5
1E3
330
1F
100
AcDbEntity
  8
0
  6
Continuous
 62
     7
100
AcDbPolyline
 90
        3
 70
   128
 43
0.0
 10
-175.7465600967
 20
36.6277528446
 10
-172.4135859824
 20
36.2200772355
 10
-170.1403720187
 20
35.3277653063
  0
LWPOLYLINE
  5
1E4
330
1F
100
AcDbEntity
  8
0
  6
Continuous
 62
     7
100
AcDbPolyline
 90
        3
 70
   128
 43
0.0
 10
-170.1402664185
 20
35.3277653063
 10
-167.7040131802
 20
33.5368979782
 10
-166.1591324016
 20
31.6173766972
  0
LWPOLYLINE
  5
1E5
330
1F
100
AcDbEntity
  8
0
  6
Continuous
 62
     7
100
AcDbPolyline
 90
        3
 70
   128
 43
0.0
 10
-166.1590337753
 20
31.6173766972
 10
-164.6121781556
 20
28.5780020206
 10
-163.6945653292
 20
25.7132580236
  0
LWPOLYLINE
  5
1E6
330
1F
100
AcDbEntity
  8
0
  6
Continuous
 62
     7
100
AcDbPolyline
 90
        3
 70
   128
 43
0.0
 10
-163.6945009232
 20
25.7132580236
 10
-162.9738679109
 20
21.0662282128
 10
-162.8008438029
 20
16.3424942479
  0
LWPOLYLINE
  5
1E7
330
1F
100
AcDbEntity
  8
0
  6
Continuous
 62
     7
100
AcDbPolyline
 90
        3
 70
   128
 43
0.0
 10
-162.8007888794
 20
16.3424942479
 10
-163.2510025041
 20
9.3573964937
 10
-164.2362988451
 20
5.0488409158
  0
LWPOLYLINE
  5
1E8
330
1F
100
AcDbEntity
  8
0
  6
Continuous
 62
     7
100
AcDbPolyline
 90
        3
 70
   128
 43
0.0
 10
-164.2361879349
 20
5.0488409158
 10
-166.2940672336
 20
0.8592325096
 10
-168.5424854717
 20
-1.5865257794
  0
LWPOLYLINE
  5
1E9
330
1F
100
AcDbEntity
  8
0
  6
Continuous
 62
     7
100
AcDbPolyline
 90
        3
 70
   128
 43
0.0
 10
-168.5423851013
 20
-1.5865257794
 10
-172.2030744959
 20
-3.4647455402
 10
-175.7466266836
 20
-3.9156673479
  0
LWPOLYLINE
  5
1EA
330
1F
100
AcDbEntity
  8
0
  6
Continuous
 62
     7
100
AcDbPolyline
 90
        3
 70
   128
 43
0.0
 10
-175.7465600967
 20
-3.9156673479
 10
-181.4043056964
 20
-2.6246927566
 10
-184.7652554489
 20
0.2009592732
  0
LWPOLYLINE
  5
1EB
330
1F
100
AcDbEntity
  8
0
  6
Continuous
 62
     7
100
AcDbPolyline
 90
        4
 70
   128
 43
0.0
 10
-184.7652196884
 20
0.2009592732
 10
-186.6565297148
 20
3.464799546
 10
-187.9320412087
 20
7.7053650011
 10
-188.6923220644
 20
16.3424942479
  0
LWPOLYLINE
  5
1EC
330
1F
100
AcDbEntity
  8
0
  6
Continuous
 62
     7
100
AcDbPolyline
 90
        4
 70
   128
 43
0.0
 10
-183.6819648743
 20
16.3424942479
 10
-183.5036101374
 20
11.379094686
 10
-182.9685292984
 20
7.4391324295
 10
-181.4069668501
 20
3.3155253648
  0
LWPOLYLINE
  5
1ED
330
1F
100
AcDbEntity
  8
0
  6
Continuous
 62
     7
100
AcDbPolyline
 90
        3
 70
   128
 43
0.0
 10
-181.4068555832
 20
3.3155253648
 10
-178.4974346102
 20
0.7165827841
 10
-175.7466266836
 20
0.09263077
  0
LWPOLYLINE
  5
1EE
330
1F
100
AcDbEntity
  8
0
  6
Continuous
 62
     7
100
AcDbPolyline
 90
        3
 70
   128
 43
0.0
 10
-175.7465600967
 20
0.09263077
 10
-172.3250144547
 20
1.1118215488
 10
-170.1133310179
 20
3.3426013656
  0
LWPOLYLINE
  5
1EF
330
1F
100
AcDbEntity
  8
0
  6
Continuous
 62
     7
100
AcDbPolyline
 90
        4
 70
   128
 43
0.0
 10
-170.113325119
 20
3.3426013656
 10
-169.0046203349
 20
5.6721853453
 10
-168.2568856943
 20
9.0209584574
 10
-167.8111919502
 20
16.3424942479
  0
LWPOLYLINE
  5
1F0
330
1F
100
AcDbEntity
  8
0
  6
Continuous
 62
     7
100
AcDbPolyline
 90
        4
 70
   128
 43
0.0
 10
-167.8111553192
 20
16.3424942479
 10
-167.9916794556
 20
21.316821555
 10
-168.5331422789
 20
25.2592144859
 10
-170.1133310179
 20
29.3694736311
  0
LWPOLYLINE
  5
1F1
330
1F
100
AcDbEntity
  8
0
  6
Continuous
 62
     7
100
AcDbPolyline
 90
        3
 70
   128
 43
0.0
 10
-170.113325119
 20
29.3694736311
 10
-173.0179704298
 20
31.9684162118
 10
-175.8007086852
 20
32.5923682259
  0
LWPOLYLINE
  5
1F2
330
1F
100
AcDbEntity
  8
0
  6
Continuous
 62
     7
100
AcDbPolyline
 90
        3
 70
   128
 43
0.0
 10
-175.8006811142
 20
32.5923682259
 10
-179.1374061852
 20
31.7005758829
 10
-181.1632303429
 20
29.7486426422
  0
LWPOLYLINE
  5
1F3
330
1F
100
AcDbEntity
  8
0
  6
Continuous
 62
     7
100
AcDbPolyline
 90
        4
 70
   128
 43
0.0
 10
-181.1631917953
 20
29.7486426422
 10
-182.3762555626
 20
27.2343329299
 10
-183.1943423387
 20
23.7560362324
 10
-183.681970417
 20
16.3424942479
  0
LWPOLYLINE
  5
1F4
330
1F
100
AcDbEntity
  8
0
  6
Continuous
 62
     7
100
AcDbPolyline
 90
        3
 70
   128
 43
0.0
 10
-157.8446626663
 20
16.3424942479
 10
-157.3945093412
 20
23.3627885605
 10
-156.4092101149
 20
27.6632445809
  0
LWPOLYLINE
  5
1F5
330
1F
100
AcDbEntity
  8
0
  6
Continuous
 62
     7
100
AcDbPolyline
 90
        3
 70
   128
 43
0.0
 10
-156.4091444016
 20
27.6632445809
 10
-154.338117646
 20
31.8661944723
 10
-152.1030234882
 20
34.2986007761
  0
LWPOLYLINE
  5
1F6
330
1F
100
AcDbEntity
  8
0
  6
Continuous
 62
     7
100
AcDbPolyline
 90
        3
 70
   128
 43
0.0
 10
-152.1029472351
 20
34.2986007761
 10
-148.429063814
 20
36.1768290041
 10
-144.8988822763
 20
36.6277528446
  0
LWPOLYLINE
  5
1F7
330
1F
100
AcDbEntity
  8
0
  6
Continuous
 62
     7
100
AcDbPolyline
 90
        3
 70
   128
 43
0.0
 10
-144.8987722397
 20
36.6277528446
 10
-141.5659145781
 20
36.2200772355
 10
-139.2927186114
 20
35.3277653063
  0
LWPOLYLINE
  5
1F8
330
1F
100
AcDbEntity
  8
0
  6
Continuous
 62
     7
100
AcDbPolyline
 90
        3
 70
   128
 43
0.0
 10
-139.29271698
 20
35.3277653063
 10
-136.8563597729
 20
33.5368979782
 10
-135.3114789944
 20
31.6173766972
  0
LWPOLYLINE
  5
1F9
330
1F
100
AcDbEntity
  8
0
  6
Continuous
 62
     7
100
AcDbPolyline
 90
        3
 70
   128
 43
0.0
 10
-135.3113651276
 20
31.6173766972
 10
-133.7645258867
 20
28.5780020206
 10
-132.8469119219
 20
25.7132580236
  0
LWPOLYLINE
  5
1FA
330
1F
100
AcDbEntity
  8
0
  6
Continuous
 62
     7
100
AcDbPolyline
 90
        3
 70
   128
 43
0.0
 10
-132.8468322754
 20
25.7132580236
 10
-132.1262145036
 20
21.0662282128
 10
-131.9531903956
 20
16.3424942479
  0
LWPOLYLINE
  5
1FB
330
1F
100
AcDbEntity
  8
0
  6
Continuous
 62
     7
100
AcDbPolyline
 90
        3
 70
   128
 43
0.0
 10
-131.9531202316
 20
16.3424942479
 10
-132.4033497115
 20
9.3573964937
 10
-133.3886489378
 20
5.0488409158
  0
LWPOLYLINE
  5
1FC
330
1F
100
AcDbEntity
  8
0
  6
Continuous
 62
     7
100
AcDbPolyline
 90
        3
 70
   128
 43
0.0
 10
-133.3886384964
 20
5.0488409158
 10
-135.4464147391
 20
0.8592325096
 10
-137.6948355645
 20
-1.5865257794
  0
LWPOLYLINE
  5
1FD
330
1F
100
AcDbEntity
  8
0
  6
Continuous
 62
     7
100
AcDbPolyline
 90
        3
 70
   128
 43
0.0
 10
-137.6947164536
 20
-1.5865257794
 10
-141.3553935046
 20
-3.4647455402
 10
-144.8988822763
 20
-3.9156673479
  0
LWPOLYLINE
  5
1FE
330
1F
100
AcDbEntity
  8
0
  6
Continuous
 62
     7
100
AcDbPolyline
 90
        3
 70
   128
 43
0.0
 10
-144.8987722397
 20
-3.9156673479
 10
-150.5566354305
 20
-2.6246927566
 10
-153.9176020416
 20
0.2009592732
  0
LWPOLYLINE
  5
1FF
330
1F
100
AcDbEntity
  8
0
  6
Continuous
 62
     7
100
AcDbPolyline
 90
        4
 70
   128
 43
0.0
 10
-153.9175510406
 20
0.2009592732
 10
-155.8088778317
 20
3.464799546
 10
-157.0843889398
 20
7.7053650011
 10
-157.8446686571
 20
16.3424942479
  0
LWPOLYLINE
  5
200
330
1F
100
AcDbEntity
  8
0
  6
Continuous
 62
     7
100
AcDbPolyline
 90
        4
 70
   128
 43
0.0
 10
-152.8342962265
 20
16.3424942479
 10
-152.6559595606
 20
11.379094686
 10
-152.1208773277
 20
7.4391324295
 10
-150.5593134428
 20
3.3155253648
  0
LWPOLYLINE
  5
201
330
1F
100
AcDbEntity
  8
0
  6
Continuous
 62
     7
100
AcDbPolyline
 90
        3
 70
   128
 43
0.0
 10
-150.5593061447
 20
3.3155253648
 10
-147.6497533207
 20
0.7165827841
 10
-144.8988822763
 20
0.09263077
  0
LWPOLYLINE
  5
202
330
1F
100
AcDbEntity
  8
0
  6
Continuous
 62
     7
100
AcDbPolyline
 90
        3
 70
   128
 43
0.0
 10
-144.8987722397
 20
0.09263077
 10
-141.4773441888
 20
1.1118215488
 10
-139.2656776107
 20
3.3426013656
  0
LWPOLYLINE
  5
203
330
1F
100
AcDbEntity
  8
0
  6
Continuous
 62
     7
100
AcDbPolyline
 90
        4
 70
   128
 43
0.0
 10
-139.2656564713
 20
3.3426013656
 10
-138.1569684517
 20
5.6721853453
 10
-137.4092334254
 20
9.0209584574
 10
-136.9635385429
 20
16.3424942479
  0
LWPOLYLINE
  5
204
330
1F
100
AcDbEntity
  8
0
  6
Continuous
 62
     7
100
AcDbPolyline
 90
        4
 70
   128
 43
0.0
 10
-136.9634866714
 20
16.3424942479
 10
-137.144026641
 20
21.316821555
 10
-137.6854903205
 20
25.2592144859
 10
-139.2656776107
 20
29.3694736311
  0
LWPOLYLINE
  5
205
330
1F
100
AcDbEntity
  8
0
  6
Continuous
 62
     7
100
AcDbPolyline
 90
        3
 70
   128
 43
0.0
 10
-139.2656564713
 20
29.3694736311
 10
-142.1703170225
 20
31.9684162118
 10
-144.9530552779
 20
32.5923682259
  0
LWPOLYLINE
  5
206
330
1F
100
AcDbEntity
  8
0
  6
Continuous
 62
     7
100
AcDbPolyline
 90
        3
 70
   128
 43
0.0
 10
-144.9530124664
 20
32.5923682259
 10
-148.2897542268
 20
31.7005758829
 10
-150.3155769357
 20
29.7486426422
  0
LWPOLYLINE
  5
207
330
1F
100
AcDbEntity
  8
0
  6
Continuous
 62
     7
100
AcDbPolyline
 90
        4
 70
   128
 43
0.0
 10
-150.3155231476
 20
29.7486426422
 10
-151.528604349
 20
27.2343329299
 10
-152.3466921332
 20
23.7560362324
 10
-152.8343205097
 20
16.3424942479
  0
MTEXT
  5
209
330
1F
100
AcDbEntity
  8
0
  6
Continuous
 62
     7
100
AcDbMText
 10
-432.0383296343
 20
-17.9124223398
 30
0.0
 40
4.83362
 41
0.0
 71
     1
 72
     1
  1
SOLIDWORKS Educational Product.
  7
SLDTEXTSTYLE0
 73
     1
 44
1.0
  0
MTEXT
  5
20A
330
1F
100
AcDbEntity
  8
0
  6
Continuous
 62
     7
100
AcDbMText
 10
-432.0383296343
 20
-25.1628523398
 30
0.0
 40
4.83362
 41
0.0
 71
     1
 72
     1
  1
For Instructional Use Only.
  7
SLDTEXTSTYLE0
 73
     1
 44
1.0
  0
ENDSEC
  0
SECTION
  2
OBJECTS
  0
DICTIONARY
  5
C
330
0
100
AcDbDictionary
281
     1
  3
ACAD_GROUP
350
D
  3
ACAD_LAYOUT
350
1A
  3
ACAD_MLINESTYLE
350
17
  3
ACAD_PLOTSETTINGS
350
19
  3
ACAD_PLOTSTYLENAME
350
E
  3
ACAD_SCALELIST
350
47
  0
DICTIONARY
  5
D
102
{ACAD_REACTORS
330
C
102
}
330
C
100
AcDbDictionary
281
     1
  0
DICTIONARY
  5
1A
102
{ACAD_REACTORS
330
C
102
}
330
C
100
AcDbDictionary
281
     1
  3
Layout1
350
1E
  3
Layout2
350
26
  3
Model
350
22
  0
DICTIONARY
  5
17
102
{ACAD_REACTORS
330
C
102
}
330
C
100
AcDbDictionary
281
     1
  3
Standard
350
18
  0
DICTIONARY
  5
19
102
{ACAD_REACTORS
330
C
102
}
330
C
100
AcDbDictionary
281
     1
  0
ACDBDICTIONARYWDFLT
  5
E
102
{ACAD_REACTORS
330
C
102
}
330
C
100
AcDbDictionary
281
     1
  3
Normal
350
F
100
AcDbDictionaryWithDefault
340
F
  0
DICTIONARY
  5
47
102
{ACAD_REACTORS
330
C
102
}
330
C
100
AcDbDictionary
281
     1
  3
A0
350
48
  3
A1
350
49
  3
A2
350
4A
  3
A3
350
4B
  3
A4
350
4C
  3
A5
350
4D
  3
A6
350
4E
  3
A7
350
4F
  3
A8
350
50
  3
A9
350
51
  3
B0
350
52
  3
B1
350
53
  3
B2
350
54
  3
B3
350
55
  3
B4
350
56
  3
B5
350
57
  3
B6
350
58
  3
B7
350
59
  3
B8
350
5A
  3
B9
350
5B
  3
C0
350
5C
  3
C1
350
5D
  3
C2
350
5E
  3
C3
350
5F
  3
C4
350
60
  3
C5
350
61
  3
C6
350
62
  3
C7
350
63
  3
C8
350
64
  3
C9
350
65
  3
D0
350
66
  3
D1
350
67
  3
D2
350
68
  0
LAYOUT
  5
1E
102
{ACAD_REACTORS
330
1A
102
}
330
1A
100
AcDbPlotSettings
  1

  2
none_device
  4

  6

 40
0.0
 41
0.0
 42
0.0
 43
0.0
 44
0.0
 45
0.0
 46
0.0
 47
0.0
 48
0.0
 49
0.0
140
0.0
141
0.0
142
1.0
143
1.0
 70
   688
 72
     1
 73
     0
 74
     5
  7

 75
    16
147
1.0
148
0.0
149
0.0
100
AcDbLayout
  1
Layout1
 70
     1
 71
     1
 10
0.0
 20
0.0
 11
420.0
 21
297.0
 12
0.0
 22
0.0
 32
0.0
 14
1.0000000000E+20
 24
1.0000000000E+20
 34
1.0000000000E+20
 15
-1.0000000000E+20
 25
-1.0000000000E+20
 35
-1.0000000000E+20
146
0.0
 13
0.0
 23
0.0
 33
0.0
 16
1.0
 26
0.0
 36
0.0
 17
0.0
 27
1.0
 37
0.0
 76
     0
330
1B
  0
LAYOUT
  5
26
102
{ACAD_REACTORS
330
1A
102
}
330
1A
100
AcDbPlotSettings
  1

  2
none_device
  4

  6

 40
0.0
 41
0.0
 42
0.0
 43
0.0
 44
0.0
 45
0.0
 46
0.0
 47
0.0
 48
0.0
 49
0.0
140
0.0
141
0.0
142
1.0
143
1.0
 70
   688
 72
     1
 73
     0
 74
     5
  7

 75
    16
147
1.0
148
0.0
149
0.0
100
AcDbLayout
  1
Layout2
 70
     1
 71
     2
 10
0.0
 20
0.0
 11
0.0
 21
0.0
 12
0.0
 22
0.0
 32
0.0
 14
0.0
 24
0.0
 34
0.0
 15
0.0
 25
0.0
 35
0.0
146
0.0
 13
0.0
 23
0.0
 33
0.0
 16
1.0
 26
0.0
 36
0.0
 17
0.0
 27
1.0
 37
0.0
 76
     0
330
23
  0
LAYOUT
  5
22
102
{ACAD_REACTORS
330
1A
102
}
330
1A
100
AcDbPlotSettings
  1

  2
none_device
  4
ANSI_A_(11.00_x_8.50_Inches)
  6

 40
6.35
 41
19.05
 42
6.35000508
 43
19.05000254
 44
279.4
 45
215.9
 46
155.9499981948
 47
-13.2511096664
 48
0.0
 49
0.0
140
0.0
141
0.0
142
0.0109988992
143
1.0
 70
  1696
 72
     0
 73
     0
 74
     0
  7

 75
     0
147
0.0179189148
148
-1300.4909072572
149
0.0
100
AcDbLayout
  1
Model
 70
     1
 71
     0
 10
0.0
 20
0.0
 11
420.0
 21
297.0
 12
0.0
 22
0.0
 32
0.0
 14
-432.0383296343
 24
-16.8928559482
 34
0.0
 15
270.2469001832
 25
748.1837103787
 35
0.0
146
0.0
 13
0.0
 23
0.0
 33
0.0
 16
1.0
 26
0.0
 36
0.0
 17
0.0
 27
1.0
 37
0.0
 76
     0
330
1F
331
29
  0
MLINESTYLE
  5
18
102
{ACAD_REACTORS
330
17
102
}
330
17
100
AcDbMlineStyle
  2
Standard
 70
     0
  3

 62
   256
 51
90.0
 52
90.0
 71
     2
 49
0.5
 62
   256
  6
BYLAYER
 49
-0.5
 62
   256
  6
BYLAYER
  0
ACDBPLACEHOLDER
  5
F
102
{ACAD_REACTORS
330
E
102
}
330
E
  0
SCALE
  5
48
102
{ACAD_REACTORS
330
47
102
}
330
47
100
AcDbScale
 70
     0
300
1:1
140
1.0
141
1.0
290
     1
  0
SCALE
  5
49
102
{ACAD_REACTORS
330
47
102
}
330
47
100
AcDbScale
 70
     0
300
1:2
140
1.0
141
2.0
290
     0
  0
SCALE
  5
4A
102
{ACAD_REACTORS
330
47
102
}
330
47
100
AcDbScale
 70
     0
300
1:4
140
1.0
141
4.0
290
     0
  0
SCALE
  5
4B
102
{ACAD_REACTORS
330
47
102
}
330
47
100
AcDbScale
 70
     0
300
1:5
140
1.0
141
5.0
290
     0
  0
SCALE
  5
4C
102
{ACAD_REACTORS
330
47
102
}
330
47
100
AcDbScale
 70
     0
300
1:8
140
1.0
141
8.0
290
     0
  0
SCALE
  5
4D
102
{ACAD_REACTORS
330
47
102
}
330
47
100
AcDbScale
 70
     0
300
1:10
140
1.0
141
10.0
290
     0
  0
SCALE
  5
4E
102
{ACAD_REACTORS
330
47
102
}
330
47
100
AcDbScale
 70
     0
300
1:16
140
1.0
141
16.0
290
     0
  0
SCALE
  5
4F
102
{ACAD_REACTORS
330
47
102
}
330
47
100
AcDbScale
 70
     0
300
1:20
140
1.0
141
20.0
290
     0
  0
SCALE
  5
50
102
{ACAD_REACTORS
330
47
102
}
330
47
100
AcDbScale
 70
     0
300
1:30
140
1.0
141
30.0
290
     0
  0
SCALE
  5
51
102
{ACAD_REACTORS
330
47
102
}
330
47
100
AcDbScale
 70
     0
300
1:40
140
1.0
141
40.0
290
     0
  0
SCALE
  5
52
102
{ACAD_REACTORS
330
47
102
}
330
47
100
AcDbScale
 70
     0
300
1:50
140
1.0
141
50.0
290
     0
  0
SCALE
  5
53
102
{ACAD_REACTORS
330
47
102
}
330
47
100
AcDbScale
 70
     0
300
1:100
140
1.0
141
100.0
290
     0
  0
SCALE
  5
54
102
{ACAD_REACTORS
330
47
102
}
330
47
100
AcDbScale
 70
     0
300
2:1
140
2.0
141
1.0
290
     0
  0
SCALE
  5
55
102
{ACAD_REACTORS
330
47
102
}
330
47
100
AcDbScale
 70
     0
300
4:1
140
4.0
141
1.0
290
     0
  0
SCALE
  5
56
102
{ACAD_REACTORS
330
47
102
}
330
47
100
AcDbScale
 70
     0
300
8:1
140
8.0
141
1.0
290
     0
  0
SCALE
  5
57
102
{ACAD_REACTORS
330
47
102
}
330
47
100
AcDbScale
 70
     0
300
10:1
140
10.0
141
1.0
290
     0
  0
SCALE
  5
58
102
{ACAD_REACTORS
330
47
102
}
330
47
100
AcDbScale
 70
     0
300
100:1
140
100.0
141
1.0
290
     0
  0
SCALE
  5
59
102
{ACAD_REACTORS
330
47
102
}
330
47
100
AcDbScale
 70
     0
300
1/128" = 1'-0"
140
0.0078125
141
12.0
290
     0
  0
SCALE
  5
5A
102
{ACAD_REACTORS
330
47
102
}
330
47
100
AcDbScale
 70
     0
300
1/64" = 1'-0"
140
0.015625
141
12.0
290
     0
  0
SCALE
  5
5B
102
{ACAD_REACTORS
330
47
102
}
330
47
100
AcDbScale
 70
     0
300
1/32" = 1'-0"
140
0.03125
141
12.0
290
     0
  0
SCALE
  5
5C
102
{ACAD_REACTORS
330
47
102
}
330
47
100
AcDbScale
 70
     0
300
1/16" = 1'-0"
140
0.0625
141
12.0
290
     0
  0
SCALE
  5
5D
102
{ACAD_REACTORS
330
47
102
}
330
47
100
AcDbScale
 70
     0
300
3/32" = 1'-0"
140
0.09375
141
12.0
290
     0
  0
SCALE
  5
5E
102
{ACAD_REACTORS
330
47
102
}
330
47
100
AcDbScale
 70
     0
300
1/8" = 1'-0"
140
0.125
141
12.0
290
     0
  0
SCALE
  5
5F
102
{ACAD_REACTORS
330
47
102
}
330
47
100
AcDbScale
 70
     0
300
3/16" = 1'-0"
140
0.1875
141
12.0
290
     0
  0
SCALE
  5
60
102
{ACAD_REACTORS
330
47
102
}
330
47
100
AcDbScale
 70
     0
300
1/4" = 1'-0"
140
0.25
141
12.0
290
     0
  0
SCALE
  5
61
102
{ACAD_REACTORS
330
47
102
}
330
47
100
AcDbScale
 70
     0
300
3/8" = 1'-0"
140
0.375
141
12.0
290
     0
  0
SCALE
  5
62
102
{ACAD_REACTORS
330
47
102
}
330
47
100
AcDbScale
 70
     0
300
1/2" = 1'-0"
140
0.5
141
12.0
290
     0
  0
SCALE
  5
63
102
{ACAD_REACTORS
330
47
102
}
330
47
100
AcDbScale
 70
     0
300
3/4" = 1'-0"
140
0.75
141
12.0
290
     0
  0
SCALE
  5
64
102
{ACAD_REACTORS
330
47
102
}
330
47
100
AcDbScale
 70
     0
300
1" = 1'-0"
140
1.0
141
12.0
290
     0
  0
SCALE
  5
65
102
{ACAD_REACTORS
330
47
102
}
330
47
100
AcDbScale
 70
     0
300
1-1/2" = 1'-0"
140
1.5
141
12.0
290
     0
  0
SCALE
  5
66
102
{ACAD_REACTORS
330
47
102
}
330
47
100
AcDbScale
 70
     0
300
3" = 1'-0"
140
3.0
141
12.0
290
     0
  0
SCALE
  5
67
102
{ACAD_REACTORS
330
47
102
}
330
47
100
AcDbScale
 70
     0
300
6" = 1'-0"
140
6.0
141
12.0
290
     0
  0
SCALE
  5
68
102
{ACAD_REACTORS
330
47
102
}
330
47
100
AcDbScale
 70
     0
300
1'-0" = 1'-0"
140
12.0
141
12.0
290
     0
  0
ENDSEC
  0
EOF
