<?xml version="1.0" encoding="UTF-8" standalone="no"?>
<svg
   xmlns:dc="http://purl.org/dc/elements/1.1/"
   xmlns:cc="http://creativecommons.org/ns#"
   xmlns:rdf="http://www.w3.org/1999/02/22-rdf-syntax-ns#"
   xmlns:svg="http://www.w3.org/2000/svg"
   xmlns="http://www.w3.org/2000/svg"
   xmlns:sodipodi="http://sodipodi.sourceforge.net/DTD/sodipodi-0.dtd"
   xmlns:inkscape="http://www.inkscape.org/namespaces/inkscape"
   width="793.700787402"
   height="1122.51968504"
   version="1.1"
   id="svg1292"
   sodipodi:docname="Unfuckcase_flat_3.svg"
   inkscape:version="0.92.2 (5c3e80d, 2017-08-06)">
  <metadata
     id="metadata1296">
    <rdf:RDF>
      <cc:Work
         rdf:about="">
        <dc:format>image/svg+xml</dc:format>
        <dc:type
           rdf:resource="http://purl.org/dc/dcmitype/StillImage" />
        <dc:title />
      </cc:Work>
    </rdf:RDF>
  </metadata>
  <sodipodi:namedview
     pagecolor="#ffffff"
     bordercolor="#666666"
     borderopacity="1"
     objecttolerance="10"
     gridtolerance="10"
     guidetolerance="10"
     inkscape:pageopacity="0"
     inkscape:pageshadow="2"
     inkscape:window-width="1920"
     inkscape:window-height="1137"
     id="namedview1294"
     showgrid="false"
     inkscape:zoom="0.59213251"
     inkscape:cx="1037.957"
     inkscape:cy="497.57818"
     inkscape:window-x="1192"
     inkscape:window-y="321"
     inkscape:window-maximized="1"
     inkscape:current-layer="g1290" />
  <desc
     id="desc815">D:\Downloads\Unfuckcase_flat_3.DXF - scale = 1.000000, origin = (0.000000, 0.000000), method = manual</desc>
  <defs
     id="defs830">
    <marker
       id="DistanceX"
       orient="auto"
       refX="0.0"
       refY="0.0"
       style="overflow:visible">
      <path
         d="M 3,-3 L -3,3 M 0,-5 L  0,5"
         style="stroke:#000000; stroke-width:0.5"
         id="path817" />
    </marker>
    <pattern
       height="8"
       id="Hatch"
       patternUnits="userSpaceOnUse"
       width="8"
       x="0"
       y="0">
      <path
         d="M8 4 l-4,4"
         linecap="square"
         stroke="#000000"
         stroke-width="0.25"
         id="path820" />
      <path
         d="M6 2 l-4,4"
         linecap="square"
         stroke="#000000"
         stroke-width="0.25"
         id="path822" />
      <path
         d="M4 0 l-4,4"
         linecap="square"
         stroke="#000000"
         stroke-width="0.25"
         id="path824" />
    </pattern>
    <symbol
       id="*Model_Space" />
    <symbol
       id="*Paper_Space" />
    <symbol
       id="*Paper_Space0" />
  </defs>
  <g
     inkscape:groupmode="layer"
     inkscape:label="0"
     id="g1290">
    <path
       id="path1280"
       style="stroke:#000000;fill:none;stroke-linecap: round"
       d="m 178.97417,344.79774 h 75.59056 m -75.59056,-22.67715 v 22.67715 m -75.59054,-22.67715 h 75.59054 m -75.59054,22.67715 v -22.67715 m -75.590533,22.67715 h 75.590533 m -75.590533,55.93647 v -55.93647 m 22.677155,55.93647 H 27.793097 m 22.677155,75.59056 V 400.73421 M 27.793097,476.32477 H 50.470252 M 27.793097,551.9153 V 476.32477 M 50.470252,551.9153 H 27.793097 m 22.677155,75.59054 V 551.9153 m -22.677155,75.59054 h 22.677155 m -22.677155,75.59053 v -75.59053 m 22.677155,75.59053 H 27.793097 m 22.677155,75.5906 v -75.5906 m -22.677155,75.5906 H 50.470252 M 27.793097,854.2775 V 778.68697 M 50.470252,854.2775 H 27.793097 m 22.677155,75.59054 V 854.2775 M 27.793097,929.86804 H 50.470252 M 27.793097,1005.4586 V 929.86804 M 216.76946,1005.4586 H 27.793097 M 216.76946,982.78147 v 22.67713 m 79.37008,-22.67713 h -79.37008 m 79.37008,22.67713 v -22.67713 m 76.64722,22.67713 h -76.64722 m 76.64722,-22.67713 v 22.67713 m 52.91338,-22.67713 h -52.91338 m 52.91338,-56.69297 v 56.69297 M 448.3773,926.0885 h -22.67716 m 22.67716,-56.69291 v 56.69291 m -22.67716,-56.69291 h 22.67716 m -22.67716,-56.69292 v 56.69292 M 448.3773,812.70267 H 425.70014 M 254.56473,344.79774 448.3773,812.70267 m 87.63276,1.03193 h -75.59057 m 75.59057,22.67716 V 813.7346 m 75.59053,22.67716 h -75.59053 m 75.59053,-22.67716 v 22.67716 m 75.59054,-22.67716 h -75.59054 m 75.59054,-55.93646 v 55.93646 m -22.67716,-55.93646 h 22.67716 m -22.67716,-75.59056 v 75.59056 m 22.67716,-75.59056 h -22.67716 m 22.67716,-75.59054 v 75.59054 m -22.67716,-75.59054 h 22.67716 m -22.67716,-75.59053 v 75.59053 m 22.67716,-75.59053 h -22.67716 m 22.67716,-75.59054 v 75.59054 m -22.67716,-75.59054 h 22.67716 m -22.67716,-75.59059 v 75.59059 m 22.67716,-75.59059 h -22.67716 m 22.67716,-75.59054 v 75.59054 m -22.67716,-75.59054 h 22.67716 m -22.67716,-75.59053 v 75.59053 m 22.67716,-75.59053 h -22.67716 m 22.67716,-75.59054 v 75.59054 M 498.21476,153.07377 h 188.97637 m -188.97637,22.6771 v -22.6771 m -79.37007,22.6771 h 79.37007 m -79.37007,-22.6771 v 22.6771 m -76.64722,-22.6771 h 76.64722 m -76.64722,22.6771 v -22.6771 m -52.91339,22.6771 h 52.91339 m -52.91339,56.69297 v -56.69297 m -22.67715,56.69297 h 22.67715 m -22.67715,56.69292 v -56.69292 m 22.67715,56.69292 h -22.67715 m 22.67715,56.69291 v -56.69291 m -22.67715,56.69291 h 22.67715 M 460.41949,813.7346 266.60693,345.82967 M 762.59277,813.7346 H 717.2384 m 45.35437,22.67716 V 813.7346 m 75.59054,22.67716 h -75.59054 m 75.59054,-22.67716 v 22.67716 m 75.59053,-22.67716 h -75.59053 m 75.59053,22.67716 V 813.7346 m 75.59054,22.67716 h -75.59054 m 75.59054,-22.67716 v 22.67716 m 75.59052,-22.67716 h -75.59052 m 75.59052,22.67716 V 813.7346 m 75.5905,22.67716 h -75.5905 m 75.5905,-22.67716 v 22.67716 m 75.5906,-22.67716 h -75.5906 m 75.5906,22.67716 V 813.7346 m 75.5905,22.67716 h -75.5905 m 75.5905,-22.67716 v 22.67716 m 75.5906,-22.67716 h -75.5906 m 75.5906,22.67716 V 813.7346 m 75.5906,22.67716 h -75.5906 m 75.5906,-22.67716 v 22.67716 m 45.3543,-22.67716 h -45.3543 m 45.3543,-55.93646 v 55.93646 m 22.6771,-55.93646 h -22.6771 m 22.6771,-75.59056 v 75.59056 m -22.6771,-75.59056 h 22.6771 m -22.6771,-75.59054 v 75.59054 m 22.6771,-75.59054 h -22.6771 m 22.6771,-75.59053 v 75.59053 m -22.6771,-75.59053 h 22.6771 m -22.6771,-75.59054 v 75.59054 m 22.6771,-75.59054 h -22.6771 m 22.6771,-75.59059 v 75.59059 m -22.6771,-75.59059 h 22.6771 m -22.6771,-75.59054 v 75.59054 m 22.6771,-75.59054 h -22.6771 m 22.6771,-75.59053 v 75.59053 m -22.6771,-75.59053 h 22.6771 m -22.6771,-75.59054 v 75.59054 M 717.2384,153.07377 h 771.0236 m -771.0236,75.59054 v -75.59054 m -22.67715,75.59054 h 22.67715 m -22.67715,75.59053 v -75.59053 m 22.67715,75.59053 h -22.67715 m 22.67715,75.59054 v -75.59054 m -22.67715,75.59054 h 22.67715 m -22.67715,75.59059 v -75.59059 m 22.67715,75.59059 h -22.67715 m 22.67715,75.59054 v -75.59054 m -22.67715,75.59054 h 22.67715 m -22.67715,75.59053 v -75.59053 m 22.67715,75.59053 h -22.67715 m 22.67715,75.59054 v -75.59054 m -22.67715,75.59054 h 22.67715 m -22.67715,75.59056 v -75.59056 m 22.67715,75.59056 h -22.67715 m 22.67715,55.93646 v -55.93646 m 887.8111,211.65355 h -56.6929 m 56.6929,-22.67717 v 22.67717 m 56.6929,-22.67717 h -56.6929 m 56.6929,22.67717 v -22.67717 m 56.693,22.67717 h -56.693 m 56.693,-816.37795 v 816.37795 m -56.693,-816.37795 h 56.693 m -56.693,22.67713 v -22.67713 m -56.6929,22.67713 h 56.6929 m -56.6929,-22.6771 v 22.6771 m -56.6929,-22.6771 h 56.6929 m -56.6929,68.03147 v -68.03147 m -22.6773,68.03147 h 22.6773 m -22.6773,75.59053 v -75.59053 m 22.6773,75.59053 h -22.6773 m 22.6773,75.59059 v -75.59059 m -22.6773,75.59059 h 22.6773 m -22.6773,75.59054 v -75.59054 m 22.6773,75.59054 h -22.6773 m 22.6773,75.59054 V 447.8769 m -22.6773,75.59054 h 22.6773 m -22.6773,75.59059 v -75.59059 m 22.6773,75.59059 h -22.6773 m 22.6773,75.59051 v -75.59051 m -22.6773,75.59051 h 22.6773 m -22.6773,75.59053 v -75.59053 m 22.6773,75.59053 h -22.6773 m 22.6773,75.59056 v -75.59056 m -22.6773,75.59056 h 22.6773 m -22.6773,75.59057 v -75.59057 m 22.6773,75.59057 h -22.6773 m 22.6773,68.03149 V 901.4202 m 279.496,68.03149 h -79.3701 m 79.3701,-22.67717 v 22.67717 m 76.6473,-22.67717 h -76.6473 m 76.6473,22.67717 v -22.67717 m 75.5904,22.67717 h -75.5904 m 75.5904,-68.03149 v 68.03149 m -22.6771,-68.03149 h 22.6771 m -22.6771,-75.59057 v 75.59057 m 22.6771,-75.59057 h -22.6771 m 22.6771,-75.59056 v 75.59056 m -22.6771,-75.59056 h 22.6771 m -22.6771,-75.59053 v 75.59053 m 22.6771,-75.59053 h -22.6771 m 22.6771,-75.59051 v 75.59051 m -22.6771,-75.59051 h 22.6771 m -22.6771,-75.59059 v 75.59059 m 22.6771,-75.59059 h -22.6771 m 22.6771,-75.59054 v 75.59054 m -22.6771,-75.59054 h 22.6771 m -22.6771,-75.59054 v 75.59054 m 22.6771,-75.59054 h -22.6771 m 22.6771,-75.59059 v 75.59059 m -22.6771,-75.59059 h 22.6771 m -22.6771,-75.59053 v 75.59053 m 22.6771,-75.59053 h -22.6771 m 22.6771,-68.03147 v 68.03147 m -75.5904,-68.03147 h 75.5904 m -75.5904,22.6771 v -22.6771 m -76.6473,22.6771 h 76.6473 m -76.6473,-22.6771 v 22.6771 m -79.3701,-22.6771 h 79.3701 m -79.3701,816.37792 V 153.07377 M 1272.1487,1082.8045 H 455.77067 m 816.37803,-75.5862 v 75.5862 m -22.6772,-75.5862 h 22.6772 m -22.6772,-75.58611 v 75.58611 m 22.6772,-75.58611 h -22.6772 m 22.6772,-75.58613 v 75.58613 m -68.0315,-75.58613 h 68.0315 m -68.0315,22.67584 v -22.67584 m -75.5906,22.67584 h 75.5906 m -75.5906,-22.67584 v 22.67584 m -75.5905,-22.67584 h 75.5905 m -75.5905,22.67584 v -22.67584 m -75.59061,22.67584 h 75.59061 m -75.59061,-22.67584 v 22.67584 m -75.59054,-22.67584 h 75.59054 m -75.59054,22.67584 v -22.67584 m -75.59059,22.67584 h 75.59059 m -75.59059,-22.67584 v 22.67584 m -75.59053,-22.67584 h 75.59053 m -75.59053,22.67584 v -22.67584 m -75.59054,22.67584 h 75.59054 M 674.98329,856.04606 V 878.7219 M 599.3927,856.04606 h 75.59059 M 599.3927,878.7219 v -22.67584 m -75.59054,22.67584 h 75.59054 m -75.59054,-22.67584 v 22.67584 m -68.03149,-22.67584 h 68.03149 m -68.03149,75.58613 v -75.58613 m 22.67718,75.58613 h -22.67718 m 22.67718,75.58611 v -75.58611 m -22.67718,75.58611 h 22.67718 m -22.67718,75.5862 v -75.5862 m 816.37803,75.5862 H 455.77067" />
  </g>
</svg>
