M48
;Layer_Color=9474304
;FILE_FORMAT=4:3
METRIC,TZ
;TYPE=PLATED
T1F00S00C0.700
T2F00S00C0.800
T3F00S00C0.900
T4F00S00C3.200
;TYPE=NON_PLATED
T5F00S00C2.350
%
T01
X36745Y40500
Y42500
Y44500
Y46500
X38745Y45500
Y43500
Y41500
X41245
Y43500
Y45500
X43245Y46500
Y44500
Y42500
Y40500
Y50500
Y52500
Y54500
X41245Y55500
Y53500
Y51500
Y49500
X38745
Y51500
Y53500
Y55500
X36745Y54500
Y52500
Y50500
X66745
Y52500
Y54500
X68745Y55500
Y53500
Y51500
Y49500
X71245
Y51500
Y53500
Y55500
X73245Y54500
Y52500
Y50500
Y46500
Y44500
Y42500
Y40500
X71245Y41500
Y43500
Y45500
X68745
Y43500
Y41500
X66745Y42500
Y44500
Y46500
Y40500
X96745
Y42500
Y44500
Y46500
X98745Y45500
Y43500
Y41500
X101245
Y43500
Y45500
X103245Y46500
Y44500
Y42500
Y40500
Y50500
Y52500
Y54500
X101245Y55500
Y53500
Y51500
Y49500
X98745
Y51500
Y53500
Y55500
X96745Y54500
Y52500
Y50500
X126745
Y52500
Y54500
X128745Y55500
Y53500
Y51500
Y49500
X131245
Y51500
Y53500
Y55500
X133245Y54500
Y52500
Y50500
Y46500
Y44500
Y42500
Y40500
X131245Y41500
Y43500
Y45500
X128745
Y43500
Y41500
X126745Y42500
Y44500
Y46500
Y40500
X156745
Y42500
Y44500
Y46500
X158745Y45500
Y43500
Y41500
X161245
Y43500
Y45500
X163245Y46500
Y44500
Y42500
Y40500
Y50500
Y52500
Y54500
X161245Y55500
Y53500
Y51500
Y49500
X158745
Y51500
Y53500
Y55500
X156745Y54500
Y52500
Y50500
X186745
Y52500
Y54500
X188745Y55500
Y53500
Y51500
Y49500
X191245
Y51500
Y53500
Y55500
X193245Y54500
Y52500
Y50500
Y46500
Y44500
Y42500
Y40500
X191245Y41500
Y43500
Y45500
X188745
Y43500
Y41500
X186745Y42500
Y44500
Y46500
Y40500
X216755Y39500
Y37500
Y35500
Y33500
X218755Y34500
Y36500
Y38500
X221255
Y36500
Y34500
X223255Y33500
Y35500
Y37500
Y39500
Y29500
Y27500
Y25500
Y23500
Y21500
X221255Y20500
Y22500
Y24500
Y26500
Y28500
Y30500
X218755
Y28500
Y26500
Y24500
Y22500
Y20500
X216755Y21500
Y23500
Y25500
Y27500
Y29500
X246755
Y27500
Y25500
Y23500
Y21500
X248755Y20500
Y22500
Y24500
Y26500
Y28500
Y30500
X251255
Y28500
Y26500
Y24500
Y22500
Y20500
X253255Y21500
Y23500
Y25500
Y27500
Y29500
Y33500
Y35500
Y37500
Y39500
X251255Y38500
Y36500
Y34500
X248755
Y36500
Y38500
X246755Y37500
Y35500
Y33500
Y39500
X276755
Y37500
Y35500
Y33500
X278755Y34500
Y36500
Y38500
X281255
Y36500
Y34500
X283255Y33500
Y35500
Y37500
Y39500
Y29500
Y27500
Y25500
Y23500
Y21500
X281255Y20500
Y22500
Y24500
Y26500
Y28500
Y30500
X278755
Y28500
Y26500
Y24500
Y22500
Y20500
X276755Y21500
Y23500
Y25500
Y27500
Y29500
X193245Y56500
Y58500
X191245Y59500
Y57500
X188745
Y59500
X186745Y58500
Y56500
X163245
Y58500
X161245Y59500
Y57500
X158745
Y59500
X156745Y58500
Y56500
X133245
Y58500
X131245Y59500
Y57500
X128745
Y59500
X126745Y58500
Y56500
X103245
Y58500
X101245Y59500
Y57500
X98745
Y59500
X96745Y58500
Y56500
X73245
Y58500
X71245Y59500
Y57500
X68745
Y59500
X66745Y58500
Y56500
X43245
Y58500
X41245Y59500
Y57500
X38745
Y59500
X36745Y58500
Y56500
T02
X50000Y38730
Y41270
Y48730
Y51270
X80000
Y48730
Y41270
Y38730
X110000
Y41270
Y48730
Y51270
X140000
Y48730
Y41270
Y38730
X170000
Y41270
Y48730
Y51270
X200000
Y48730
Y41270
Y38730
X230000Y31270
Y28730
X260000
Y31270
X290000
Y28730
T03
X18730Y29680
Y32220
Y34760
Y37300
Y39840
Y42380
Y44920
Y47460
Y50000
Y52540
Y55080
X21270
Y52540
Y50000
Y47460
Y44920
Y42380
Y39840
Y37300
Y34760
Y32220
Y29680
X198730Y64920
Y67460
Y70000
Y72540
Y75080
X201270
Y72540
Y70000
Y67460
Y64920
X171270
Y67460
Y70000
Y72540
Y75080
X168730
Y72540
Y70000
Y67460
Y64920
X141270
Y67460
Y70000
Y72540
Y75080
X138730
Y72540
Y70000
Y67460
Y64920
X111270
Y67460
Y70000
Y72540
Y75080
X108730
Y72540
Y70000
Y67460
Y64920
X81270
Y67460
Y70000
Y72540
Y75080
X78730
Y72540
Y70000
Y67460
Y64920
X51270
Y67460
Y70000
Y72540
Y75080
X48730
Y72540
Y70000
Y67460
Y64920
X21270Y65240
Y67780
Y70320
X18730
Y67780
Y65240
Y62700
X21270
Y60160
X18730
Y57620
X21270
T04
X256223Y10000
X273777
X286223
X243777
X226223
X213777
X196223
X183777
X166223
X153777
X136223
X123777
X106223
X93777
X76223
X63777
X46223
X33777
X256223Y90000
X273777
X286223
X243777
X226223
X213777
X196223Y90000
X183777
X166223
X153777
X136223
X123777
X106223
X93777
X76223
X63777
X46223
X33777
T05
X39995Y38700
Y47850
X69995
Y38700
X99995
Y47850
X129995
Y38700
X159995
Y47850
X189995
Y38700
X220005Y41300
Y32150
X250005
Y41300
X280005
Y32150
M30
