  0
SECTION
  2
HEADER
  9
$ACADVER
  1
AC1027
  9
$ACADMAINTVER
 70
     8
  9
$DWGCODEPAGE
  3
ANSI_1252
  9
$REQUIREDVERSIONS
160
                 0
  9
$INSBASE
 10
0.0
 20
0.0
 30
0.0
  9
$EXTMIN
 10
1.000000000000000E+20
 20
1.000000000000000E+20
 30
1.000000000000000E+20
  9
$EXTMAX
 10
-1.000000000000000E+20
 20
-1.000000000000000E+20
 30
-1.000000000000000E+20
  9
$LIMMIN
 10
4.03650196
 20
0.93650054
  9
$LIMMAX
 10
24.463502
 20
129.56350008
  9
$ORTHOMODE
 70
     0
  9
$REGENMODE
 70
     1
  9
$FILLMODE
 70
     1
  9
$QTEXTMODE
 70
     0
  9
$MIRRTEXT
 70
     1
  9
$LTSCALE
 40
1.0
  9
$ATTMODE
 70
     1
  9
$TEXTSIZE
 40
2.5
  9
$TRACEWID
 40
1.0
  9
$TEXTSTYLE
  7
Standard
  9
$CLAYER
  8
0
  9
$CELTYPE
  6
ByLayer
  9
$CECOLOR
 62
   256
  9
$CELTSCALE
 40
1.0
  9
$DISPSILH
 70
     0
  9
$DIMSCALE
 40
1.0
  9
$DIMASZ
 40
2.5
  9
$DIMEXO
 40
0.625
  9
$DIMDLI
 40
3.75
  9
$DIMRND
 40
0.0
  9
$DIMDLE
 40
0.0
  9
$DIMEXE
 40
1.25
  9
$DIMTP
 40
0.0
  9
$DIMTM
 40
0.0
  9
$DIMTXT
 40
2.5
  9
$DIMCEN
 40
2.5
  9
$DIMTSZ
 40
0.0
  9
$DIMTOL
 70
     0
  9
$DIMLIM
 70
     0
  9
$DIMTIH
 70
     0
  9
$DIMTOH
 70
     0
  9
$DIMSE1
 70
     0
  9
$DIMSE2
 70
     0
  9
$DIMTAD
 70
     1
  9
$DIMZIN
 70
     8
  9
$DIMBLK
  1

  9
$DIMASO
 70
     1
  9
$DIMSHO
 70
     1
  9
$DIMPOST
  1

  9
$DIMAPOST
  1

  9
$DIMALT
 70
     0
  9
$DIMALTD
 70
     3
  9
$DIMALTF
 40
0.03937007874016
  9
$DIMLFAC
 40
1.0
  9
$DIMTOFL
 70
     1
  9
$DIMTVP
 40
0.0
  9
$DIMTIX
 70
     0
  9
$DIMSOXD
 70
     0
  9
$DIMSAH
 70
     0
  9
$DIMBLK1
  1

  9
$DIMBLK2
  1

  9
$DIMSTYLE
  2
ISO-25
  9
$DIMCLRD
 70
     0
  9
$DIMCLRE
 70
     0
  9
$DIMCLRT
 70
     0
  9
$DIMTFAC
 40
1.0
  9
$DIMGAP
 40
0.625
  9
$DIMJUST
 70
     0
  9
$DIMSD1
 70
     0
  9
$DIMSD2
 70
     0
  9
$DIMTOLJ
 70
     0
  9
$DIMTZIN
 70
     8
  9
$DIMALTZ
 70
     0
  9
$DIMALTTZ
 70
     0
  9
$DIMUPT
 70
     0
  9
$DIMDEC
 70
     2
  9
$DIMTDEC
 70
     2
  9
$DIMALTU
 70
     2
  9
$DIMALTTD
 70
     3
  9
$DIMTXSTY
  7
Standard
  9
$DIMAUNIT
 70
     0
  9
$DIMADEC
 70
     0
  9
$DIMALTRND
 40
0.0
  9
$DIMAZIN
 70
     0
  9
$DIMDSEP
 70
    44
  9
$DIMATFIT
 70
     3
  9
$DIMFRAC
 70
     0
  9
$DIMLDRBLK
  1

  9
$DIMLUNIT
 70
     2
  9
$DIMLWD
 70
    -2
  9
$DIMLWE
 70
    -2
  9
$DIMTMOVE
 70
     0
  9
$DIMFXL
 40
1.0
  9
$DIMFXLON
 70
     0
  9
$DIMJOGANG
 40
0.7853981633974483
  9
$DIMTFILL
 70
     0
  9
$DIMTFILLCLR
 70
     0
  9
$DIMARCSYM
 70
     0
  9
$DIMLTYPE
  6

  9
$DIMLTEX1
  6

  9
$DIMLTEX2
  6

  9
$DIMTXTDIRECTION
 70
     0
  9
$LUNITS
 70
     2
  9
$LUPREC
 70
     4
  9
$SKETCHINC
 40
1.0
  9
$FILLETRAD
 40
10.0
  9
$AUNITS
 70
     0
  9
$AUPREC
 70
     0
  9
$MENU
  1
.
  9
$ELEVATION
 40
0.0
  9
$PELEVATION
 40
0.0
  9
$THICKNESS
 40
0.0
  9
$LIMCHECK
 70
     0
  9
$CHAMFERA
 40
0.0
  9
$CHAMFERB
 40
0.0
  9
$CHAMFERC
 40
0.0
  9
$CHAMFERD
 40
0.0
  9
$SKPOLY
 70
     0
  9
$TDCREATE
 40
2458528.952574433
  9
$TDUCREATE
 40
2458528.910907766
  9
$TDUPDATE
 40
2458528.952574583
  9
$TDUUPDATE
 40
2458528.910907917
  9
$TDINDWG
 40
0.0000000116
  9
$TDUSRTIMER
 40
0.0000000116
  9
$USRTIMER
 70
     1
  9
$ANGBASE
 50
0.0
  9
$ANGDIR
 70
     0
  9
$PDMODE
 70
     0
  9
$PDSIZE
 40
0.0
  9
$PLINEWID
 40
0.0
  9
$SPLFRAME
 70
     0
  9
$SPLINETYPE
 70
     6
  9
$SPLINESEGS
 70
     8
  9
$HANDSEED
  5
2AA
  9
$SURFTAB1
 70
     6
  9
$SURFTAB2
 70
     6
  9
$SURFTYPE
 70
     6
  9
$SURFU
 70
     6
  9
$SURFV
 70
     6
  9
$UCSBASE
  2

  9
$UCSNAME
  2

  9
$UCSORG
 10
0.0
 20
0.0
 30
0.0
  9
$UCSXDIR
 10
1.0
 20
0.0
 30
0.0
  9
$UCSYDIR
 10
0.0
 20
1.0
 30
0.0
  9
$UCSORTHOREF
  2

  9
$UCSORTHOVIEW
 70
     0
  9
$UCSORGTOP
 10
0.0
 20
0.0
 30
0.0
  9
$UCSORGBOTTOM
 10
0.0
 20
0.0
 30
0.0
  9
$UCSORGLEFT
 10
0.0
 20
0.0
 30
0.0
  9
$UCSORGRIGHT
 10
0.0
 20
0.0
 30
0.0
  9
$UCSORGFRONT
 10
0.0
 20
0.0
 30
0.0
  9
$UCSORGBACK
 10
0.0
 20
0.0
 30
0.0
  9
$PUCSBASE
  2

  9
$PUCSNAME
  2

  9
$PUCSORG
 10
0.0
 20
0.0
 30
0.0
  9
$PUCSXDIR
 10
1.0
 20
0.0
 30
0.0
  9
$PUCSYDIR
 10
0.0
 20
1.0
 30
0.0
  9
$PUCSORTHOREF
  2

  9
$PUCSORTHOVIEW
 70
     0
  9
$PUCSORGTOP
 10
0.0
 20
0.0
 30
0.0
  9
$PUCSORGBOTTOM
 10
0.0
 20
0.0
 30
0.0
  9
$PUCSORGLEFT
 10
0.0
 20
0.0
 30
0.0
  9
$PUCSORGRIGHT
 10
0.0
 20
0.0
 30
0.0
  9
$PUCSORGFRONT
 10
0.0
 20
0.0
 30
0.0
  9
$PUCSORGBACK
 10
0.0
 20
0.0
 30
0.0
  9
$USERI1
 70
     0
  9
$USERI2
 70
     0
  9
$USERI3
 70
     0
  9
$USERI4
 70
     0
  9
$USERI5
 70
     0
  9
$USERR1
 40
0.0
  9
$USERR2
 40
0.0
  9
$USERR3
 40
0.0
  9
$USERR4
 40
0.0
  9
$USERR5
 40
0.0
  9
$WORLDVIEW
 70
     1
  9
$SHADEDGE
 70
     3
  9
$SHADEDIF
 70
    70
  9
$TILEMODE
 70
     1
  9
$MAXACTVP
 70
    64
  9
$PINSBASE
 10
0.0
 20
0.0
 30
0.0
  9
$PLIMCHECK
 70
     0
  9
$PEXTMIN
 10
1.000000000000000E+20
 20
1.000000000000000E+20
 30
1.000000000000000E+20
  9
$PEXTMAX
 10
-1.000000000000000E+20
 20
-1.000000000000000E+20
 30
-1.000000000000000E+20
  9
$PLIMMIN
 10
0.0
 20
0.0
  9
$PLIMMAX
 10
420.0
 20
297.0
  9
$UNITMODE
 70
     0
  9
$VISRETAIN
 70
     1
  9
$PLINEGEN
 70
     0
  9
$PSLTSCALE
 70
     1
  9
$TREEDEPTH
 70
  3020
  9
$CMLSTYLE
  2
Standard
  9
$CMLJUST
 70
     0
  9
$CMLSCALE
 40
20.0
  9
$PROXYGRAPHICS
 70
     1
  9
$MEASUREMENT
 70
     1
  9
$CELWEIGHT
370
    -1
  9
$ENDCAPS
280
     0
  9
$JOINSTYLE
280
     0
  9
$LWDISPLAY
290
     0
  9
$INSUNITS
 70
     4
  9
$HYPERLINKBASE
  1

  9
$STYLESHEET
  1

  9
$XEDIT
290
     1
  9
$CEPSNTYPE
380
     0
  9
$PSTYLEMODE
290
     1
  9
$FINGERPRINTGUID
  2
{56BCA0C7-F45A-4816-9CBC-9D47E23F97C6}
  9
$VERSIONGUID
  2
{FAEB1C32-E019-11D5-929B-00C0DF256EC4}
  9
$EXTNAMES
290
     1
  9
$PSVPSCALE
 40
0.0
  9
$OLESTARTUP
290
     0
  9
$SORTENTS
280
   127
  9
$INDEXCTL
280
     0
  9
$HIDETEXT
280
     1
  9
$XCLIPFRAME
280
     2
  9
$HALOGAP
280
     0
  9
$OBSCOLOR
 70
   257
  9
$OBSLTYPE
280
     0
  9
$INTERSECTIONDISPLAY
280
     0
  9
$INTERSECTIONCOLOR
 70
   257
  9
$DIMASSOC
280
     2
  9
$PROJECTNAME
  1

  9
$CAMERADISPLAY
290
     0
  9
$LENSLENGTH
 40
50.0
  9
$CAMERAHEIGHT
 40
0.0
  9
$STEPSPERSEC
 40
2.0
  9
$STEPSIZE
 40
6.0
  9
$3DDWFPREC
 40
2.0
  9
$PSOLWIDTH
 40
5.0
  9
$PSOLHEIGHT
 40
80.0
  9
$LOFTANG1
 40
1.570796326794897
  9
$LOFTANG2
 40
1.570796326794897
  9
$LOFTMAG1
 40
0.0
  9
$LOFTMAG2
 40
0.0
  9
$LOFTPARAM
 70
     7
  9
$LOFTNORMALS
280
     1
  9
$LATITUDE
 40
37.795
  9
$LONGITUDE
 40
-122.394
  9
$NORTHDIRECTION
 40
0.0
  9
$TIMEZONE
 70
 -8000
  9
$LIGHTGLYPHDISPLAY
280
     1
  9
$TILEMODELIGHTSYNCH
280
     1
  9
$CMATERIAL
347
44
  9
$SOLIDHIST
280
     0
  9
$SHOWHIST
280
     1
  9
$DWFFRAME
280
     2
  9
$DGNFRAME
280
     2
  9
$REALWORLDSCALE
290
     1
  9
$INTERFERECOLOR
 62
   256
  9
$CSHADOW
280
     0
  9
$SHADOWPLANELOCATION
 40
0.0
  0
ENDSEC
  0
SECTION
  2
CLASSES
  0
CLASS
  1
ACDBDICTIONARYWDFLT
  2
AcDbDictionaryWithDefault
  3
ObjectDBX Classes
 90
        0
 91
        4
280
     0
281
     0
  0
CLASS
  1
VISUALSTYLE
  2
AcDbVisualStyle
  3
ObjectDBX Classes
 90
     4095
 91
        4
280
     0
281
     0
  0
CLASS
  1
MATERIAL
  2
AcDbMaterial
  3
ObjectDBX Classes
 90
     1153
 91
        4
280
     0
281
     0
  0
CLASS
  1
SCALE
  2
AcDbScale
  3
ObjectDBX Classes
 90
     1153
 91
        4
280
     0
281
     0
  0
CLASS
  1
TABLESTYLE
  2
AcDbTableStyle
  3
ObjectDBX Classes
 90
     4095
 91
        4
280
     0
281
     0
  0
CLASS
  1
MLEADERSTYLE
  2
AcDbMLeaderStyle
  3
ACDB_MLEADERSTYLE_CLASS
 90
     4095
 91
        4
280
     0
281
     0
  0
CLASS
  1
SUN
  2
AcDbSun
  3
SCENEOE
 90
     1153
 91
        4
280
     0
281
     0
  0
CLASS
  1
DICTIONARYVAR
  2
AcDbDictionaryVar
  3
ObjectDBX Classes
 90
        0
 91
        4
280
     0
281
     0
  0
CLASS
  1
CELLSTYLEMAP
  2
AcDbCellStyleMap
  3
ObjectDBX Classes
 90
     1152
 91
        4
280
     0
281
     0
  0
ENDSEC
  0
SECTION
  2
TABLES
  0
TABLE
  2
VPORT
  5
8
330
0
100
AcDbSymbolTable
 70
     1
  0
VPORT
  5
29
330
8
100
AcDbSymbolTableRecord
100
AcDbViewportTableRecord
  2
*Active
 70
     0
 10
0.0
 20
0.0
 11
1.0
 21
1.0
 12
344.1869158878504
 22
148.5
 13
0.0
 23
0.0
 14
10.0
 24
10.0
 15
10.0
 25
10.0
 16
0.0
 26
0.0
 36
1.0
 17
0.0
 27
0.0
 37
0.0
 40
297.0
 41
1.972972972850329
 42
50.0
 43
0.0
 44
0.0
 50
0.0
 51
0.0
 71
     0
 72
   100
 73
     1
 74
     3
 75
     0
 76
     0
 77
     0
 78
     0
281
     0
 65
     1
110
0.0
120
0.0
130
0.0
111
1.0
121
0.0
131
0.0
112
0.0
122
1.0
132
0.0
 79
     0
146
0.0
 60
     3
 61
     5
292
     1
282
     1
141
0.0
142
0.0
 63
   250
361
6D
  0
ENDTAB
  0
TABLE
  2
LTYPE
  5
5
330
0
100
AcDbSymbolTable
 70
     1
  0
LTYPE
  5
14
330
5
100
AcDbSymbolTableRecord
100
AcDbLinetypeTableRecord
  2
ByBlock
 70
     0
  3

 72
    65
 73
     0
 40
0.0
  0
LTYPE
  5
15
330
5
100
AcDbSymbolTableRecord
100
AcDbLinetypeTableRecord
  2
ByLayer
 70
     0
  3

 72
    65
 73
     0
 40
0.0
  0
LTYPE
  5
16
330
5
100
AcDbSymbolTableRecord
100
AcDbLinetypeTableRecord
  2
Continuous
 70
     0
  3
Solid line
 72
    65
 73
     0
 40
0.0
  0
ENDTAB
  0
TABLE
  2
LAYER
  5
2
330
0
100
AcDbSymbolTable
 70
    15
  0
LAYER
  5
10
330
2
100
AcDbSymbolTableRecord
100
AcDbLayerTableRecord
  2
0
 70
     0
 62
     7
  6
Continuous
370
    -3
390
F
347
46
348
0
  0
LAYER
  5
6E
330
2
100
AcDbSymbolTableRecord
100
AcDbLayerTableRecord
  2
TopLayer
 70
     0
 62
     1
  6
Continuous
370
    -3
390
F
347
46
348
0
  0
LAYER
  5
6F
330
2
100
AcDbSymbolTableRecord
100
AcDbLayerTableRecord
  2
BottomLayer
 70
     0
 62
     5
  6
Continuous
370
    -3
390
F
347
46
348
0
  0
LAYER
  5
70
330
2
100
AcDbSymbolTableRecord
100
AcDbLayerTableRecord
  2
Mechanical13
 70
     0
 62
    56
  6
Continuous
370
    -3
390
F
347
46
348
0
  0
LAYER
  5
71
330
2
100
AcDbSymbolTableRecord
100
AcDbLayerTableRecord
  2
Mechanical7
 70
     0
 62
    56
  6
Continuous
370
    -3
390
F
347
46
348
0
  0
LAYER
  5
72
330
2
100
AcDbSymbolTableRecord
100
AcDbLayerTableRecord
  2
Mechanical1
 70
     0
 62
     6
  6
Continuous
370
    -3
390
F
347
46
348
0
  0
LAYER
  5
73
330
2
100
AcDbSymbolTableRecord
100
AcDbLayerTableRecord
  2
BottomOverlay
 70
     0
 62
    54
  6
Continuous
370
    -3
390
F
347
46
348
0
  0
LAYER
  5
74
330
2
100
AcDbSymbolTableRecord
100
AcDbLayerTableRecord
  2
MultiLayer
 70
     0
 62
     9
  6
Continuous
370
    -3
390
F
347
46
348
0
  0
LAYER
  5
75
330
2
100
AcDbSymbolTableRecord
100
AcDbLayerTableRecord
  2
TopOverlay
 70
     0
 62
     2
  6
Continuous
370
    -3
390
F
347
46
348
0
  0
LAYER
  5
76
330
2
100
AcDbSymbolTableRecord
100
AcDbLayerTableRecord
  2
TopPaste
 70
     0
 62
     8
  6
Continuous
370
    -3
390
F
347
46
348
0
  0
LAYER
  5
77
330
2
100
AcDbSymbolTableRecord
100
AcDbLayerTableRecord
  2
BottomPaste
 70
     0
 62
    16
  6
Continuous
370
    -3
390
F
347
46
348
0
  0
LAYER
  5
78
330
2
100
AcDbSymbolTableRecord
100
AcDbLayerTableRecord
  2
TopSolder
 70
     0
 62
   216
  6
Continuous
370
    -3
390
F
347
46
348
0
  0
LAYER
  5
79
330
2
100
AcDbSymbolTableRecord
100
AcDbLayerTableRecord
  2
BottomSolder
 70
     0
 62
     6
  6
Continuous
370
    -3
390
F
347
46
348
0
  0
LAYER
  5
7A
330
2
100
AcDbSymbolTableRecord
100
AcDbLayerTableRecord
  2
PadHoleLayer
 70
     0
 62
   156
  6
Continuous
370
    -3
390
F
347
46
348
0
  0
LAYER
  5
7B
330
2
100
AcDbSymbolTableRecord
100
AcDbLayerTableRecord
  2
ViaHoleLayer
 70
     0
 62
    16
  6
Continuous
370
    -3
390
F
347
46
348
0
  0
ENDTAB
  0
TABLE
  2
STYLE
  5
3
330
0
100
AcDbSymbolTable
 70
     1
  0
STYLE
  5
11
330
3
100
AcDbSymbolTableRecord
100
AcDbTextStyleTableRecord
  2
Standard
 70
     0
 40
0.0
 41
1.0
 50
0.0
 71
     0
 42
2.5
  3
txt
  4

  0
ENDTAB
  0
TABLE
  2
VIEW
  5
6
330
0
100
AcDbSymbolTable
 70
     0
  0
ENDTAB
  0
TABLE
  2
UCS
  5
7
330
0
100
AcDbSymbolTable
 70
     0
  0
ENDTAB
  0
TABLE
  2
APPID
  5
9
330
0
100
AcDbSymbolTable
 70
     1
  0
APPID
  5
12
330
9
100
AcDbSymbolTableRecord
100
AcDbRegAppTableRecord
  2
ACAD
 70
     0
  0
ENDTAB
  0
TABLE
  2
DIMSTYLE
  5
A
330
0
100
AcDbSymbolTable
 70
     1
100
AcDbDimStyleTable
  0
DIMSTYLE
105
27
330
A
100
AcDbSymbolTableRecord
100
AcDbDimStyleTableRecord
  2
ISO-25
 70
     0
 41
2.5
 42
0.625
 43
3.75
 44
1.25
 73
     0
 74
     0
 77
     1
 78
     8
140
2.5
141
2.5
143
0.03937007874016
147
0.625
171
     3
172
     1
178
     0
271
     2
272
     2
274
     3
278
    44
283
     0
284
     8
340
11
  0
ENDTAB
  0
TABLE
  2
BLOCK_RECORD
  5
1
330
0
100
AcDbSymbolTable
 70
     2
  0
BLOCK_RECORD
  5
1F
330
1
100
AcDbSymbolTableRecord
100
AcDbBlockTableRecord
  2
*Model_Space
340
22
 70
     0
280
     1
281
     0
  0
BLOCK_RECORD
  5
1B
330
1
100
AcDbSymbolTableRecord
100
AcDbBlockTableRecord
  2
*Paper_Space
340
1E
 70
     0
280
     1
281
     0
  0
BLOCK_RECORD
  5
23
330
1
100
AcDbSymbolTableRecord
100
AcDbBlockTableRecord
  2
*Paper_Space0
340
26
 70
     0
280
     1
281
     0
  0
BLOCK_RECORD
  5
187
330
1
100
AcDbSymbolTableRecord
100
AcDbBlockTableRecord
  2
PTA4543_PANEL_1
340
0
102
{BLKREFS
331
2A0
102
}
 70
     0
280
     1
281
     0
  0
ENDTAB
  0
ENDSEC
  0
SECTION
  2
BLOCKS
  0
BLOCK
  5
20
330
1F
100
AcDbEntity
  8
0
100
AcDbBlockBegin
  2
*Model_Space
 70
     0
 10
0.0
 20
0.0
 30
0.0
  3
*Model_Space
  1

  0
ENDBLK
  5
21
330
1F
100
AcDbEntity
  8
0
100
AcDbBlockEnd
  0
BLOCK
  5
1C
330
1B
100
AcDbEntity
 67
     1
  8
0
100
AcDbBlockBegin
  2
*Paper_Space
 70
     0
 10
0.0
 20
0.0
 30
0.0
  3
*Paper_Space
  1

  0
ENDBLK
  5
1D
330
1B
100
AcDbEntity
 67
     1
  8
0
100
AcDbBlockEnd
  0
BLOCK
  5
24
330
23
100
AcDbEntity
  8
0
100
AcDbBlockBegin
  2
*Paper_Space0
 70
     0
 10
0.0
 20
0.0
 30
0.0
  3
*Paper_Space0
  1

  0
ENDBLK
  5
25
330
23
100
AcDbEntity
  8
0
100
AcDbBlockEnd
  0
BLOCK
  5
188
330
187
100
AcDbEntity
  8
0
100
AcDbBlockBegin
  2
PTA4543_PANEL_1
 70
     0
 10
0.0
 20
0.0
 30
0.0
  3
PTA4543_PANEL_1
  1

  0
LWPOLYLINE
  5
18A
330
187
100
AcDbEntity
  8
Mechanical13
100
AcDbPolyline
 90
        2
 70
     0
 43
0.0999998
 10
30.00012288
 20
-4.64986624
 10
-29.99979776
 20
-4.64986624
  0
LWPOLYLINE
  5
18B
330
187
100
AcDbEntity
  8
Mechanical13
100
AcDbPolyline
 90
        2
 70
     1
 43
0.0499999
 10
29.9751242
 20
-4.64986624
 42
1.0
 10
30.02512156
 20
-4.64986624
 42
1.0
  0
LWPOLYLINE
  5
18C
330
187
100
AcDbEntity
  8
Mechanical13
100
AcDbPolyline
 90
        2
 70
     1
 43
0.0499999
 10
-30.02479644
 20
-4.64986624
 42
1.0
 10
-29.97479908
 20
-4.64986624
 42
1.0
  0
LWPOLYLINE
  5
18D
330
187
100
AcDbEntity
  8
Mechanical13
100
AcDbPolyline
 90
        2
 70
     0
 43
0.0999998
 10
30.00012288
 20
-4.64986624
 10
30.00012288
 20
4.65019136
  0
LWPOLYLINE
  5
18E
330
187
100
AcDbEntity
  8
Mechanical13
100
AcDbPolyline
 90
        2
 70
     1
 43
0.0499999
 10
29.9751242
 20
-4.64986624
 42
1.0
 10
30.02512156
 20
-4.64986624
 42
1.0
  0
LWPOLYLINE
  5
18F
330
187
100
AcDbEntity
  8
Mechanical13
100
AcDbPolyline
 90
        2
 70
     1
 43
0.0499999
 10
29.9751242
 20
4.65019136
 42
1.0
 10
30.02512156
 20
4.65019136
 42
1.0
  0
LWPOLYLINE
  5
190
330
187
100
AcDbEntity
  8
Mechanical13
100
AcDbPolyline
 90
        2
 70
     0
 43
0.0999998
 10
30.00012288
 20
4.65019136
 10
-29.99979776
 20
4.65019136
  0
LWPOLYLINE
  5
191
330
187
100
AcDbEntity
  8
Mechanical13
100
AcDbPolyline
 90
        2
 70
     1
 43
0.0499999
 10
29.9751242
 20
4.65019136
 42
1.0
 10
30.02512156
 20
4.65019136
 42
1.0
  0
LWPOLYLINE
  5
192
330
187
100
AcDbEntity
  8
Mechanical13
100
AcDbPolyline
 90
        2
 70
     1
 43
0.0499999
 10
-30.02479644
 20
4.65019136
 42
1.0
 10
-29.97479908
 20
4.65019136
 42
1.0
  0
LWPOLYLINE
  5
193
330
187
100
AcDbEntity
  8
Mechanical13
100
AcDbPolyline
 90
        2
 70
     0
 43
0.0999998
 10
-29.99979776
 20
-4.64986624
 10
-29.99979776
 20
4.65019136
  0
LWPOLYLINE
  5
194
330
187
100
AcDbEntity
  8
Mechanical13
100
AcDbPolyline
 90
        2
 70
     1
 43
0.0499999
 10
-30.02479644
 20
-4.64986624
 42
1.0
 10
-29.97479908
 20
-4.64986624
 42
1.0
  0
LWPOLYLINE
  5
195
330
187
100
AcDbEntity
  8
Mechanical13
100
AcDbPolyline
 90
        2
 70
     1
 43
0.0499999
 10
-30.02479644
 20
4.65019136
 42
1.0
 10
-29.97479908
 20
4.65019136
 42
1.0
  0
LWPOLYLINE
  5
196
330
187
100
AcDbEntity
  8
Mechanical13
100
AcDbPolyline
 90
        2
 70
     0
 43
0.0999998
 10
-25.1000006
 20
-4.19999922
 10
-25.146
 20
-4.19999922
  0
LWPOLYLINE
  5
197
330
187
100
AcDbEntity
  8
Mechanical13
100
AcDbPolyline
 90
        2
 70
     1
 43
0.0499999
 10
-25.12499928
 20
-4.19999922
 42
1.0
 10
-25.07500192
 20
-4.19999922
 42
1.0
  0
LWPOLYLINE
  5
198
330
187
100
AcDbEntity
  8
Mechanical13
100
AcDbPolyline
 90
        2
 70
     1
 43
0.0499999
 10
-25.17099868
 20
-4.19999922
 42
1.0
 10
-25.12100132
 20
-4.19999922
 42
1.0
  0
LWPOLYLINE
  5
199
330
187
100
AcDbEntity
  8
Mechanical7
100
AcDbPolyline
 90
        2
 70
     0
 43
0.0999998
 10
-25.1000006
 20
-4.19999922
 10
-25.146
 20
-4.19999922
  0
LWPOLYLINE
  5
19A
330
187
100
AcDbEntity
  8
Mechanical7
100
AcDbPolyline
 90
        2
 70
     1
 43
0.0499999
 10
-25.12499928
 20
-4.19999922
 42
1.0
 10
-25.07500192
 20
-4.19999922
 42
1.0
  0
LWPOLYLINE
  5
19B
330
187
100
AcDbEntity
  8
Mechanical7
100
AcDbPolyline
 90
        2
 70
     1
 43
0.0499999
 10
-25.17099868
 20
-4.19999922
 42
1.0
 10
-25.12100132
 20
-4.19999922
 42
1.0
  0
LWPOLYLINE
  5
19C
330
187
100
AcDbEntity
  8
Mechanical7
100
AcDbPolyline
 90
        2
 70
     0
 43
0.0999998
 10
-29.99979776
 20
-4.64986624
 10
-29.99979776
 20
4.65019136
  0
LWPOLYLINE
  5
19D
330
187
100
AcDbEntity
  8
Mechanical7
100
AcDbPolyline
 90
        2
 70
     1
 43
0.0499999
 10
-30.02479644
 20
-4.64986624
 42
1.0
 10
-29.97479908
 20
-4.64986624
 42
1.0
  0
LWPOLYLINE
  5
19E
330
187
100
AcDbEntity
  8
Mechanical7
100
AcDbPolyline
 90
        2
 70
     1
 43
0.0499999
 10
-30.02479644
 20
4.65019136
 42
1.0
 10
-29.97479908
 20
4.65019136
 42
1.0
  0
LWPOLYLINE
  5
19F
330
187
100
AcDbEntity
  8
Mechanical7
100
AcDbPolyline
 90
        2
 70
     0
 43
0.0999998
 10
30.00012288
 20
4.65019136
 10
-29.99979776
 20
4.65019136
  0
LWPOLYLINE
  5
1A0
330
187
100
AcDbEntity
  8
Mechanical7
100
AcDbPolyline
 90
        2
 70
     1
 43
0.0499999
 10
29.9751242
 20
4.65019136
 42
1.0
 10
30.02512156
 20
4.65019136
 42
1.0
  0
LWPOLYLINE
  5
1A1
330
187
100
AcDbEntity
  8
Mechanical7
100
AcDbPolyline
 90
        2
 70
     1
 43
0.0499999
 10
-30.02479644
 20
4.65019136
 42
1.0
 10
-29.97479908
 20
4.65019136
 42
1.0
  0
LWPOLYLINE
  5
1A2
330
187
100
AcDbEntity
  8
Mechanical7
100
AcDbPolyline
 90
        2
 70
     0
 43
0.0999998
 10
30.00012288
 20
-4.64986624
 10
30.00012288
 20
4.65019136
  0
LWPOLYLINE
  5
1A3
330
187
100
AcDbEntity
  8
Mechanical7
100
AcDbPolyline
 90
        2
 70
     1
 43
0.0499999
 10
29.9751242
 20
-4.64986624
 42
1.0
 10
30.02512156
 20
-4.64986624
 42
1.0
  0
LWPOLYLINE
  5
1A4
330
187
100
AcDbEntity
  8
Mechanical7
100
AcDbPolyline
 90
        2
 70
     1
 43
0.0499999
 10
29.9751242
 20
4.65019136
 42
1.0
 10
30.02512156
 20
4.65019136
 42
1.0
  0
LWPOLYLINE
  5
1A5
330
187
100
AcDbEntity
  8
Mechanical7
100
AcDbPolyline
 90
        2
 70
     0
 43
0.0999998
 10
30.00012288
 20
-4.64986624
 10
-29.99979776
 20
-4.64986624
  0
LWPOLYLINE
  5
1A6
330
187
100
AcDbEntity
  8
Mechanical7
100
AcDbPolyline
 90
        2
 70
     1
 43
0.0499999
 10
29.9751242
 20
-4.64986624
 42
1.0
 10
30.02512156
 20
-4.64986624
 42
1.0
  0
LWPOLYLINE
  5
1A7
330
187
100
AcDbEntity
  8
Mechanical7
100
AcDbPolyline
 90
        2
 70
     1
 43
0.0499999
 10
-30.02479644
 20
-4.64986624
 42
1.0
 10
-29.97479908
 20
-4.64986624
 42
1.0
  0
LWPOLYLINE
  5
1A8
330
187
100
AcDbEntity
  8
Mechanical7
100
AcDbPolyline
 90
        2
 70
     0
 43
0.0999998
 10
1.27
 20
0.0
 10
-1.27
 20
0.0
  0
LWPOLYLINE
  5
1A9
330
187
100
AcDbEntity
  8
Mechanical7
100
AcDbPolyline
 90
        2
 70
     1
 43
0.0499999
 10
1.24500132
 20
0.0
 42
1.0
 10
1.29499868
 20
0.0
 42
1.0
  0
LWPOLYLINE
  5
1AA
330
187
100
AcDbEntity
  8
Mechanical7
100
AcDbPolyline
 90
        2
 70
     1
 43
0.0499999
 10
-1.29499868
 20
0.0
 42
1.0
 10
-1.24500132
 20
0.0
 42
1.0
  0
LWPOLYLINE
  5
1AB
330
187
100
AcDbEntity
  8
Mechanical7
100
AcDbPolyline
 90
        2
 70
     0
 43
0.0999998
 10
1.27
 20
0.0
 10
0.0
 20
0.0
  0
LWPOLYLINE
  5
1AC
330
187
100
AcDbEntity
  8
Mechanical7
100
AcDbPolyline
 90
        2
 70
     1
 43
0.0499999
 10
1.24500132
 20
0.0
 42
1.0
 10
1.29499868
 20
0.0
 42
1.0
  0
LWPOLYLINE
  5
1AD
330
187
100
AcDbEntity
  8
Mechanical7
100
AcDbPolyline
 90
        2
 70
     1
 43
0.0499999
 10
-0.02499868
 20
0.0
 42
1.0
 10
0.02499868
 20
0.0
 42
1.0
  0
LWPOLYLINE
  5
1AE
330
187
100
AcDbEntity
  8
Mechanical7
100
AcDbPolyline
 90
        2
 70
     0
 43
0.0999998
 10
0.0
 20
-1.27
 10
0.0
 20
0.0
  0
LWPOLYLINE
  5
1AF
330
187
100
AcDbEntity
  8
Mechanical7
100
AcDbPolyline
 90
        2
 70
     1
 43
0.0499999
 10
-0.02499868
 20
-1.27
 42
1.0
 10
0.02499868
 20
-1.27
 42
1.0
  0
LWPOLYLINE
  5
1B0
330
187
100
AcDbEntity
  8
Mechanical7
100
AcDbPolyline
 90
        2
 70
     1
 43
0.0499999
 10
-0.02499868
 20
0.0
 42
1.0
 10
0.02499868
 20
0.0
 42
1.0
  0
LWPOLYLINE
  5
1B1
330
187
100
AcDbEntity
  8
Mechanical7
100
AcDbPolyline
 90
        2
 70
     0
 43
0.0999998
 10
0.0
 20
-1.27
 10
0.0
 20
1.27
  0
LWPOLYLINE
  5
1B2
330
187
100
AcDbEntity
  8
Mechanical7
100
AcDbPolyline
 90
        2
 70
     1
 43
0.0499999
 10
-0.02499868
 20
-1.27
 42
1.0
 10
0.02499868
 20
-1.27
 42
1.0
  0
LWPOLYLINE
  5
1B3
330
187
100
AcDbEntity
  8
Mechanical7
100
AcDbPolyline
 90
        2
 70
     1
 43
0.0499999
 10
-0.02499868
 20
1.27
 42
1.0
 10
0.02499868
 20
1.27
 42
1.0
  0
LWPOLYLINE
  5
1B4
330
187
100
AcDbEntity
  8
TopOverlay
100
AcDbPolyline
 90
        2
 70
     0
 43
0.3999992
 10
-16.87500054
 20
-6.000000699999999
 10
-16.87500054
 20
-2.00000108
  0
LWPOLYLINE
  5
1B5
330
187
100
AcDbEntity
  8
TopOverlay
100
AcDbPolyline
 90
        2
 70
     1
 43
0.1999996
 10
-16.97500034
 20
-6.000000699999999
 42
1.0
 10
-16.77500074
 20
-6.000000699999999
 42
1.0
  0
LWPOLYLINE
  5
1B6
330
187
100
AcDbEntity
  8
TopOverlay
100
AcDbPolyline
 90
        2
 70
     1
 43
0.1999996
 10
-16.97500034
 20
-2.00000108
 42
1.0
 10
-16.77500074
 20
-2.00000108
 42
1.0
  0
LWPOLYLINE
  5
1B7
330
187
100
AcDbEntity
  8
TopOverlay
100
AcDbPolyline
 90
        2
 70
     0
 43
0.3999992
 10
-16.87500054
 20
2.00000108
 10
-16.87500054
 20
6.000000699999999
  0
LWPOLYLINE
  5
1B8
330
187
100
AcDbEntity
  8
TopOverlay
100
AcDbPolyline
 90
        2
 70
     1
 43
0.1999996
 10
-16.97500034
 20
2.00000108
 42
1.0
 10
-16.77500074
 20
2.00000108
 42
1.0
  0
LWPOLYLINE
  5
1B9
330
187
100
AcDbEntity
  8
TopOverlay
100
AcDbPolyline
 90
        2
 70
     1
 43
0.1999996
 10
-16.97500034
 20
6.000000699999999
 42
1.0
 10
-16.77500074
 20
6.000000699999999
 42
1.0
  0
LWPOLYLINE
  5
1BA
330
187
100
AcDbEntity
  8
TopOverlay
100
AcDbPolyline
 90
        2
 70
     0
 43
0.3999992
 10
16.87500054
 20
-6.000000699999999
 10
16.87500054
 20
-2.00000108
  0
LWPOLYLINE
  5
1BB
330
187
100
AcDbEntity
  8
TopOverlay
100
AcDbPolyline
 90
        2
 70
     1
 43
0.1999996
 10
16.77500074
 20
-6.000000699999999
 42
1.0
 10
16.97500034
 20
-6.000000699999999
 42
1.0
  0
LWPOLYLINE
  5
1BC
330
187
100
AcDbEntity
  8
TopOverlay
100
AcDbPolyline
 90
        2
 70
     1
 43
0.1999996
 10
16.77500074
 20
-2.00000108
 42
1.0
 10
16.97500034
 20
-2.00000108
 42
1.0
  0
LWPOLYLINE
  5
1BD
330
187
100
AcDbEntity
  8
TopOverlay
100
AcDbPolyline
 90
        2
 70
     0
 43
0.3999992
 10
16.87500054
 20
2.00000108
 10
16.87500054
 20
6.000000699999999
  0
LWPOLYLINE
  5
1BE
330
187
100
AcDbEntity
  8
TopOverlay
100
AcDbPolyline
 90
        2
 70
     1
 43
0.1999996
 10
16.77500074
 20
2.00000108
 42
1.0
 10
16.97500034
 20
2.00000108
 42
1.0
  0
LWPOLYLINE
  5
1BF
330
187
100
AcDbEntity
  8
TopOverlay
100
AcDbPolyline
 90
        2
 70
     1
 43
0.1999996
 10
16.77500074
 20
6.000000699999999
 42
1.0
 10
16.97500034
 20
6.000000699999999
 42
1.0
  0
LWPOLYLINE
  5
1C0
330
187
100
AcDbEntity
  8
TopOverlay
100
AcDbPolyline
 90
        2
 70
     0
 43
0.3999992
 10
5.62500018
 20
2.00000108
 10
5.62500018
 20
6.000000699999999
  0
LWPOLYLINE
  5
1C1
330
187
100
AcDbEntity
  8
TopOverlay
100
AcDbPolyline
 90
        2
 70
     1
 43
0.1999996
 10
5.52500038
 20
2.00000108
 42
1.0
 10
5.72499998
 20
2.00000108
 42
1.0
  0
LWPOLYLINE
  5
1C2
330
187
100
AcDbEntity
  8
TopOverlay
100
AcDbPolyline
 90
        2
 70
     1
 43
0.1999996
 10
5.52500038
 20
6.000000699999999
 42
1.0
 10
5.72499998
 20
6.000000699999999
 42
1.0
  0
LWPOLYLINE
  5
1C3
330
187
100
AcDbEntity
  8
TopOverlay
100
AcDbPolyline
 90
        2
 70
     0
 43
0.3999992
 10
5.62500018
 20
-6.000000699999999
 10
5.62500018
 20
-2.00000108
  0
LWPOLYLINE
  5
1C4
330
187
100
AcDbEntity
  8
TopOverlay
100
AcDbPolyline
 90
        2
 70
     1
 43
0.1999996
 10
5.52500038
 20
-6.000000699999999
 42
1.0
 10
5.72499998
 20
-6.000000699999999
 42
1.0
  0
LWPOLYLINE
  5
1C5
330
187
100
AcDbEntity
  8
TopOverlay
100
AcDbPolyline
 90
        2
 70
     1
 43
0.1999996
 10
5.52500038
 20
-2.00000108
 42
1.0
 10
5.72499998
 20
-2.00000108
 42
1.0
  0
LWPOLYLINE
  5
1C6
330
187
100
AcDbEntity
  8
TopOverlay
100
AcDbPolyline
 90
        2
 70
     0
 43
0.5999987999999999
 10
11.25000036
 20
-7.999999239999999
 10
11.25000036
 20
-2.00000108
  0
LWPOLYLINE
  5
1C7
330
187
100
AcDbEntity
  8
TopOverlay
100
AcDbPolyline
 90
        2
 70
     1
 43
0.2999994
 10
11.10000066
 20
-7.999999239999999
 42
1.0
 10
11.40000006
 20
-7.999999239999999
 42
1.0
  0
LWPOLYLINE
  5
1C8
330
187
100
AcDbEntity
  8
TopOverlay
100
AcDbPolyline
 90
        2
 70
     1
 43
0.2999994
 10
11.10000066
 20
-2.00000108
 42
1.0
 10
11.40000006
 20
-2.00000108
 42
1.0
  0
LWPOLYLINE
  5
1C9
330
187
100
AcDbEntity
  8
TopOverlay
100
AcDbPolyline
 90
        2
 70
     0
 43
0.5999987999999999
 10
11.25000036
 20
2.00000108
 10
11.25000036
 20
7.999999239999999
  0
LWPOLYLINE
  5
1CA
330
187
100
AcDbEntity
  8
TopOverlay
100
AcDbPolyline
 90
        2
 70
     1
 43
0.2999994
 10
11.10000066
 20
2.00000108
 42
1.0
 10
11.40000006
 20
2.00000108
 42
1.0
  0
LWPOLYLINE
  5
1CB
330
187
100
AcDbEntity
  8
TopOverlay
100
AcDbPolyline
 90
        2
 70
     1
 43
0.2999994
 10
11.10000066
 20
7.999999239999999
 42
1.0
 10
11.40000006
 20
7.999999239999999
 42
1.0
  0
LWPOLYLINE
  5
1CC
330
187
100
AcDbEntity
  8
TopOverlay
100
AcDbPolyline
 90
        2
 70
     0
 43
0.5999987999999999
 10
-11.25000036
 20
-7.999999239999999
 10
-11.25000036
 20
-2.00000108
  0
LWPOLYLINE
  5
1CD
330
187
100
AcDbEntity
  8
TopOverlay
100
AcDbPolyline
 90
        2
 70
     1
 43
0.2999994
 10
-11.40000006
 20
-7.999999239999999
 42
1.0
 10
-11.10000066
 20
-7.999999239999999
 42
1.0
  0
LWPOLYLINE
  5
1CE
330
187
100
AcDbEntity
  8
TopOverlay
100
AcDbPolyline
 90
        2
 70
     1
 43
0.2999994
 10
-11.40000006
 20
-2.00000108
 42
1.0
 10
-11.10000066
 20
-2.00000108
 42
1.0
  0
LWPOLYLINE
  5
1CF
330
187
100
AcDbEntity
  8
TopOverlay
100
AcDbPolyline
 90
        2
 70
     0
 43
0.5999987999999999
 10
-11.25000036
 20
2.00000108
 10
-11.25000036
 20
7.999999239999999
  0
LWPOLYLINE
  5
1D0
330
187
100
AcDbEntity
  8
TopOverlay
100
AcDbPolyline
 90
        2
 70
     1
 43
0.2999994
 10
-11.40000006
 20
2.00000108
 42
1.0
 10
-11.10000066
 20
2.00000108
 42
1.0
  0
LWPOLYLINE
  5
1D1
330
187
100
AcDbEntity
  8
TopOverlay
100
AcDbPolyline
 90
        2
 70
     1
 43
0.2999994
 10
-11.40000006
 20
7.999999239999999
 42
1.0
 10
-11.10000066
 20
7.999999239999999
 42
1.0
  0
LWPOLYLINE
  5
1D2
330
187
100
AcDbEntity
  8
TopOverlay
100
AcDbPolyline
 90
        2
 70
     0
 43
0.5999987999999999
 10
0.0
 20
2.00000108
 10
0.0
 20
7.999999239999999
  0
LWPOLYLINE
  5
1D3
330
187
100
AcDbEntity
  8
TopOverlay
100
AcDbPolyline
 90
        2
 70
     1
 43
0.2999994
 10
-0.1499997
 20
2.00000108
 42
1.0
 10
0.1499997
 20
2.00000108
 42
1.0
  0
LWPOLYLINE
  5
1D4
330
187
100
AcDbEntity
  8
TopOverlay
100
AcDbPolyline
 90
        2
 70
     1
 43
0.2999994
 10
-0.1499997
 20
7.999999239999999
 42
1.0
 10
0.1499997
 20
7.999999239999999
 42
1.0
  0
LWPOLYLINE
  5
1D5
330
187
100
AcDbEntity
  8
TopOverlay
100
AcDbPolyline
 90
        2
 70
     0
 43
0.5999987999999999
 10
0.0
 20
-7.999999239999999
 10
0.0
 20
-2.00000108
  0
LWPOLYLINE
  5
1D6
330
187
100
AcDbEntity
  8
TopOverlay
100
AcDbPolyline
 90
        2
 70
     1
 43
0.2999994
 10
-0.1499997
 20
-7.999999239999999
 42
1.0
 10
0.1499997
 20
-7.999999239999999
 42
1.0
  0
LWPOLYLINE
  5
1D7
330
187
100
AcDbEntity
  8
TopOverlay
100
AcDbPolyline
 90
        2
 70
     1
 43
0.2999994
 10
-0.1499997
 20
-2.00000108
 42
1.0
 10
0.1499997
 20
-2.00000108
 42
1.0
  0
LWPOLYLINE
  5
1D8
330
187
100
AcDbEntity
  8
TopOverlay
100
AcDbPolyline
 90
        2
 70
     0
 43
0.5999987999999999
 10
-22.50000072
 20
-7.999999239999999
 10
-22.50000072
 20
-2.00000108
  0
LWPOLYLINE
  5
1D9
330
187
100
AcDbEntity
  8
TopOverlay
100
AcDbPolyline
 90
        2
 70
     1
 43
0.2999994
 10
-22.65000042
 20
-7.999999239999999
 42
1.0
 10
-22.35000102
 20
-7.999999239999999
 42
1.0
  0
LWPOLYLINE
  5
1DA
330
187
100
AcDbEntity
  8
TopOverlay
100
AcDbPolyline
 90
        2
 70
     1
 43
0.2999994
 10
-22.65000042
 20
-2.00000108
 42
1.0
 10
-22.35000102
 20
-2.00000108
 42
1.0
  0
LWPOLYLINE
  5
1DB
330
187
100
AcDbEntity
  8
TopOverlay
100
AcDbPolyline
 90
        2
 70
     0
 43
0.5999987999999999
 10
-22.50000072
 20
2.00000108
 10
-22.50000072
 20
7.999999239999999
  0
LWPOLYLINE
  5
1DC
330
187
100
AcDbEntity
  8
TopOverlay
100
AcDbPolyline
 90
        2
 70
     1
 43
0.2999994
 10
-22.65000042
 20
2.00000108
 42
1.0
 10
-22.35000102
 20
2.00000108
 42
1.0
  0
LWPOLYLINE
  5
1DD
330
187
100
AcDbEntity
  8
TopOverlay
100
AcDbPolyline
 90
        2
 70
     1
 43
0.2999994
 10
-22.65000042
 20
7.999999239999999
 42
1.0
 10
-22.35000102
 20
7.999999239999999
 42
1.0
  0
LWPOLYLINE
  5
1DE
330
187
100
AcDbEntity
  8
TopOverlay
100
AcDbPolyline
 90
        2
 70
     0
 43
0.5999987999999999
 10
22.50000072
 20
-7.999999239999999
 10
22.50000072
 20
-2.00000108
  0
LWPOLYLINE
  5
1DF
330
187
100
AcDbEntity
  8
TopOverlay
100
AcDbPolyline
 90
        2
 70
     1
 43
0.2999994
 10
22.35000102
 20
-7.999999239999999
 42
1.0
 10
22.65000042
 20
-7.999999239999999
 42
1.0
  0
LWPOLYLINE
  5
1E0
330
187
100
AcDbEntity
  8
TopOverlay
100
AcDbPolyline
 90
        2
 70
     1
 43
0.2999994
 10
22.35000102
 20
-2.00000108
 42
1.0
 10
22.65000042
 20
-2.00000108
 42
1.0
  0
LWPOLYLINE
  5
1E1
330
187
100
AcDbEntity
  8
TopOverlay
100
AcDbPolyline
 90
        2
 70
     0
 43
0.5999987999999999
 10
22.50000072
 20
2.00000108
 10
22.50000072
 20
7.999999239999999
  0
LWPOLYLINE
  5
1E2
330
187
100
AcDbEntity
  8
TopOverlay
100
AcDbPolyline
 90
        2
 70
     1
 43
0.2999994
 10
22.35000102
 20
2.00000108
 42
1.0
 10
22.65000042
 20
2.00000108
 42
1.0
  0
LWPOLYLINE
  5
1E3
330
187
100
AcDbEntity
  8
TopOverlay
100
AcDbPolyline
 90
        2
 70
     1
 43
0.2999994
 10
22.35000102
 20
7.999999239999999
 42
1.0
 10
22.65000042
 20
7.999999239999999
 42
1.0
  0
LWPOLYLINE
  5
1E4
330
187
100
AcDbEntity
  8
TopOverlay
100
AcDbPolyline
 90
        2
 70
     0
 43
0.3999992
 10
-5.62500018
 20
2.00000108
 10
-5.62500018
 20
6.000000699999999
  0
LWPOLYLINE
  5
1E5
330
187
100
AcDbEntity
  8
TopOverlay
100
AcDbPolyline
 90
        2
 70
     1
 43
0.1999996
 10
-5.72499998
 20
2.00000108
 42
1.0
 10
-5.52500038
 20
2.00000108
 42
1.0
  0
LWPOLYLINE
  5
1E6
330
187
100
AcDbEntity
  8
TopOverlay
100
AcDbPolyline
 90
        2
 70
     1
 43
0.1999996
 10
-5.72499998
 20
6.000000699999999
 42
1.0
 10
-5.52500038
 20
6.000000699999999
 42
1.0
  0
LWPOLYLINE
  5
1E7
330
187
100
AcDbEntity
  8
TopOverlay
100
AcDbPolyline
 90
        2
 70
     0
 43
0.3999992
 10
-5.62500018
 20
-6.000000699999999
 10
-5.62500018
 20
-2.00000108
  0
LWPOLYLINE
  5
1E8
330
187
100
AcDbEntity
  8
TopOverlay
100
AcDbPolyline
 90
        2
 70
     1
 43
0.1999996
 10
-5.72499998
 20
-6.000000699999999
 42
1.0
 10
-5.52500038
 20
-6.000000699999999
 42
1.0
  0
LWPOLYLINE
  5
1E9
330
187
100
AcDbEntity
  8
TopOverlay
100
AcDbPolyline
 90
        2
 70
     1
 43
0.1999996
 10
-5.72499998
 20
-2.00000108
 42
1.0
 10
-5.52500038
 20
-2.00000108
 42
1.0
  0
LWPOLYLINE
  5
1EA
330
187
100
AcDbEntity
  8
BottomOverlay
100
AcDbPolyline
 90
        2
 70
     0
 43
0.1999996
 10
30.607
 20
-5.206999999999999
 10
30.607
 20
-3.302
  0
LWPOLYLINE
  5
1EB
330
187
100
AcDbEntity
  8
BottomOverlay
100
AcDbPolyline
 90
        2
 70
     1
 43
0.0999998
 10
30.5570001
 20
-5.206999999999999
 42
1.0
 10
30.6569999
 20
-5.206999999999999
 42
1.0
  0
LWPOLYLINE
  5
1EC
330
187
100
AcDbEntity
  8
BottomOverlay
100
AcDbPolyline
 90
        2
 70
     1
 43
0.0999998
 10
30.5570001
 20
-3.302
 42
1.0
 10
30.6569999
 20
-3.302
 42
1.0
  0
LWPOLYLINE
  5
1ED
330
187
100
AcDbEntity
  8
BottomOverlay
100
AcDbPolyline
 90
        2
 70
     0
 43
0.1999996
 10
30.607
 20
-5.206999999999999
 10
28.70199999999999
 20
-5.206999999999999
  0
LWPOLYLINE
  5
1EE
330
187
100
AcDbEntity
  8
BottomOverlay
100
AcDbPolyline
 90
        2
 70
     1
 43
0.0999998
 10
30.5570001
 20
-5.206999999999999
 42
1.0
 10
30.6569999
 20
-5.206999999999999
 42
1.0
  0
LWPOLYLINE
  5
1EF
330
187
100
AcDbEntity
  8
BottomOverlay
100
AcDbPolyline
 90
        2
 70
     1
 43
0.0999998
 10
28.6520001
 20
-5.206999999999999
 42
1.0
 10
28.7519999
 20
-5.206999999999999
 42
1.0
  0
LWPOLYLINE
  5
1F0
330
187
100
AcDbEntity
  8
BottomOverlay
100
AcDbPolyline
 90
        2
 70
     0
 43
0.1999996
 10
30.607
 20
3.302
 10
30.607
 20
5.206999999999999
  0
LWPOLYLINE
  5
1F1
330
187
100
AcDbEntity
  8
BottomOverlay
100
AcDbPolyline
 90
        2
 70
     1
 43
0.0999998
 10
30.5570001
 20
3.302
 42
1.0
 10
30.6569999
 20
3.302
 42
1.0
  0
LWPOLYLINE
  5
1F2
330
187
100
AcDbEntity
  8
BottomOverlay
100
AcDbPolyline
 90
        2
 70
     1
 43
0.0999998
 10
30.5570001
 20
5.206999999999999
 42
1.0
 10
30.6569999
 20
5.206999999999999
 42
1.0
  0
LWPOLYLINE
  5
1F3
330
187
100
AcDbEntity
  8
BottomOverlay
100
AcDbPolyline
 90
        2
 70
     0
 43
0.1999996
 10
30.607
 20
5.206999999999999
 10
28.70199999999999
 20
5.206999999999999
  0
LWPOLYLINE
  5
1F4
330
187
100
AcDbEntity
  8
BottomOverlay
100
AcDbPolyline
 90
        2
 70
     1
 43
0.0999998
 10
30.5570001
 20
5.206999999999999
 42
1.0
 10
30.6569999
 20
5.206999999999999
 42
1.0
  0
LWPOLYLINE
  5
1F5
330
187
100
AcDbEntity
  8
BottomOverlay
100
AcDbPolyline
 90
        2
 70
     1
 43
0.0999998
 10
28.6520001
 20
5.206999999999999
 42
1.0
 10
28.7519999
 20
5.206999999999999
 42
1.0
  0
LWPOLYLINE
  5
1F6
330
187
100
AcDbEntity
  8
BottomOverlay
100
AcDbPolyline
 90
        2
 70
     0
 43
0.1999996
 10
-28.70199999999999
 20
-5.206999999999999
 10
-30.607
 20
-5.206999999999999
  0
LWPOLYLINE
  5
1F7
330
187
100
AcDbEntity
  8
BottomOverlay
100
AcDbPolyline
 90
        2
 70
     1
 43
0.0999998
 10
-28.7519999
 20
-5.206999999999999
 42
1.0
 10
-28.6520001
 20
-5.206999999999999
 42
1.0
  0
LWPOLYLINE
  5
1F8
330
187
100
AcDbEntity
  8
BottomOverlay
100
AcDbPolyline
 90
        2
 70
     1
 43
0.0999998
 10
-30.6569999
 20
-5.206999999999999
 42
1.0
 10
-30.5570001
 20
-5.206999999999999
 42
1.0
  0
LWPOLYLINE
  5
1F9
330
187
100
AcDbEntity
  8
BottomOverlay
100
AcDbPolyline
 90
        2
 70
     0
 43
0.1999996
 10
-30.607
 20
-5.206999999999999
 10
-30.607
 20
-3.302
  0
LWPOLYLINE
  5
1FA
330
187
100
AcDbEntity
  8
BottomOverlay
100
AcDbPolyline
 90
        2
 70
     1
 43
0.0999998
 10
-30.6569999
 20
-5.206999999999999
 42
1.0
 10
-30.5570001
 20
-5.206999999999999
 42
1.0
  0
LWPOLYLINE
  5
1FB
330
187
100
AcDbEntity
  8
BottomOverlay
100
AcDbPolyline
 90
        2
 70
     1
 43
0.0999998
 10
-30.6569999
 20
-3.302
 42
1.0
 10
-30.5570001
 20
-3.302
 42
1.0
  0
LWPOLYLINE
  5
1FC
330
187
100
AcDbEntity
  8
BottomOverlay
100
AcDbPolyline
 90
        2
 70
     0
 43
0.1999996
 10
-28.70199999999999
 20
5.206999999999999
 10
-30.607
 20
5.206999999999999
  0
LWPOLYLINE
  5
1FD
330
187
100
AcDbEntity
  8
BottomOverlay
100
AcDbPolyline
 90
        2
 70
     1
 43
0.0999998
 10
-28.7519999
 20
5.206999999999999
 42
1.0
 10
-28.6520001
 20
5.206999999999999
 42
1.0
  0
LWPOLYLINE
  5
1FE
330
187
100
AcDbEntity
  8
BottomOverlay
100
AcDbPolyline
 90
        2
 70
     1
 43
0.0999998
 10
-30.6569999
 20
5.206999999999999
 42
1.0
 10
-30.5570001
 20
5.206999999999999
 42
1.0
  0
LWPOLYLINE
  5
1FF
330
187
100
AcDbEntity
  8
BottomOverlay
100
AcDbPolyline
 90
        2
 70
     0
 43
0.1999996
 10
-30.607
 20
3.302
 10
-30.607
 20
5.206999999999999
  0
LWPOLYLINE
  5
200
330
187
100
AcDbEntity
  8
BottomOverlay
100
AcDbPolyline
 90
        2
 70
     1
 43
0.0999998
 10
-30.6569999
 20
3.302
 42
1.0
 10
-30.5570001
 20
3.302
 42
1.0
  0
LWPOLYLINE
  5
201
330
187
100
AcDbEntity
  8
BottomOverlay
100
AcDbPolyline
 90
        2
 70
     1
 43
0.0999998
 10
-30.6569999
 20
5.206999999999999
 42
1.0
 10
-30.5570001
 20
5.206999999999999
 42
1.0
  0
LWPOLYLINE
  5
202
330
187
100
AcDbEntity
  8
BottomOverlay
100
AcDbPolyline
 90
        2
 70
     1
 43
1.00000054
 10
-29.29700008
 20
4.064
 42
1.0
 10
-29.37699992
 20
4.064
 42
1.0
  0
LWPOLYLINE
  5
203
330
187
100
AcDbEntity
  8
BottomOverlay
100
AcDbPolyline
 90
        2
 70
     1
 43
0.499999
 10
-29.54699958
 20
4.064
 42
1.0
 10
-29.04700058
 20
4.064
 42
1.0
  0
LWPOLYLINE
  5
204
330
187
100
AcDbEntity
  8
BottomOverlay
100
AcDbPolyline
 90
        2
 70
     1
 43
0.499999
 10
-29.62699942
 20
4.064
 42
1.0
 10
-29.12700042
 20
4.064
 42
1.0
  0
LWPOLYLINE
  5
205
330
187
100
AcDbEntity
  8
TopSolder
100
AcDbPolyline
 90
        2
 70
     1
 43
0.1016
 10
27.94919988
 20
0.0
 42
1.0
 10
28.05079988
 20
0.0
 42
1.0
  0
LWPOLYLINE
  5
206
330
187
100
AcDbEntity
  8
BottomSolder
100
AcDbPolyline
 90
        2
 70
     1
 43
0.1016
 10
27.94919988
 20
0.0
 42
1.0
 10
28.05079988
 20
0.0
 42
1.0
  0
LWPOLYLINE
  5
207
330
187
100
AcDbEntity
  8
PadHoleLayer
100
AcDbPolyline
 90
        2
 70
     1
 43
1.20000014
 10
27.40000108
 20
0.0
 42
1.0
 10
28.59999868
 20
0.0
 42
1.0
  0
LWPOLYLINE
  5
208
330
187
100
AcDbEntity
  8
TopSolder
100
AcDbPolyline
 90
        2
 70
     1
 43
0.1016
 10
-28.05079988
 20
0.0
 42
1.0
 10
-27.94919988
 20
0.0
 42
1.0
  0
LWPOLYLINE
  5
209
330
187
100
AcDbEntity
  8
BottomSolder
100
AcDbPolyline
 90
        2
 70
     1
 43
0.1016
 10
-28.05079988
 20
0.0
 42
1.0
 10
-27.94919988
 20
0.0
 42
1.0
  0
LWPOLYLINE
  5
20A
330
187
100
AcDbEntity
  8
PadHoleLayer
100
AcDbPolyline
 90
        2
 70
     1
 43
1.20000014
 10
-28.59999868
 20
0.0
 42
1.0
 10
-27.40000108
 20
0.0
 42
1.0
  0
LWPOLYLINE
  5
20B
330
187
100
AcDbEntity
  8
TopSolder
100
AcDbPolyline
 90
        2
 70
     1
 43
0.1016
 10
-0.0508
 20
0.0
 42
1.0
 10
0.0508
 20
0.0
 42
1.0
  0
LWPOLYLINE
  5
20C
330
187
100
AcDbEntity
  8
BottomSolder
100
AcDbPolyline
 90
        2
 70
     1
 43
0.1016
 10
-0.0508
 20
0.0
 42
1.0
 10
0.0508
 20
0.0
 42
1.0
  0
LWPOLYLINE
  5
20D
330
187
100
AcDbEntity
  8
PadHoleLayer
100
AcDbPolyline
 90
        4
 70
     1
 43
0.5999987999999999
 10
0.90000074
 20
24.5000018
 10
0.90000074
 20
-24.5000018
 42
-1.0
 10
-0.90000074
 20
-24.5000018
 10
-0.90000074
 20
24.5000018
 42
-1.0
  0
LINE
  5
20E
330
187
100
AcDbEntity
  8
TopOverlay
100
AcDbLine
 10
-20.81250092
 20
-7.87500076
 30
0.0
 11
-20.81250092
 21
-7.54177562
 31
0.0
  0
LINE
  5
20F
330
187
100
AcDbEntity
  8
TopOverlay
100
AcDbLine
 10
-20.81250092
 20
-7.54177562
 30
0.0
 11
-20.81250092
 21
-7.70838692
 31
0.0
  0
LINE
  5
210
330
187
100
AcDbEntity
  8
TopOverlay
100
AcDbLine
 10
-20.81250092
 20
-7.70838692
 30
0.0
 11
-21.81217888
 21
-7.70838692
 31
0.0
  0
LINE
  5
211
330
187
100
AcDbEntity
  8
TopOverlay
100
AcDbLine
 10
-21.81217888
 20
-7.70838692
 30
0.0
 11
-21.64556504
 21
-7.87500076
 31
0.0
  0
LINE
  5
212
330
187
100
AcDbEntity
  8
TopOverlay
100
AcDbLine
 10
-21.64556504
 20
-7.041936639999999
 30
0.0
 11
-21.81217888
 21
-6.875322799999999
 31
0.0
  0
LINE
  5
213
330
187
100
AcDbEntity
  8
TopOverlay
100
AcDbLine
 10
-21.81217888
 20
-6.875322799999999
 30
0.0
 11
-21.81217888
 21
-6.54209766
 31
0.0
  0
LINE
  5
214
330
187
100
AcDbEntity
  8
TopOverlay
100
AcDbLine
 10
-21.81217888
 20
-6.54209766
 30
0.0
 11
-21.64556504
 21
-6.375486359999999
 31
0.0
  0
LINE
  5
215
330
187
100
AcDbEntity
  8
TopOverlay
100
AcDbLine
 10
-21.64556504
 20
-6.375486359999999
 30
0.0
 11
-20.97911476
 21
-6.375486359999999
 31
0.0
  0
LINE
  5
216
330
187
100
AcDbEntity
  8
TopOverlay
100
AcDbLine
 10
-20.97911476
 20
-6.375486359999999
 30
0.0
 11
-20.81250092
 21
-6.54209766
 31
0.0
  0
LINE
  5
217
330
187
100
AcDbEntity
  8
TopOverlay
100
AcDbLine
 10
-20.81250092
 20
-6.54209766
 30
0.0
 11
-20.81250092
 21
-6.875322799999999
 31
0.0
  0
LINE
  5
218
330
187
100
AcDbEntity
  8
TopOverlay
100
AcDbLine
 10
-20.81250092
 20
-6.875322799999999
 30
0.0
 11
-20.97911476
 21
-7.041936639999999
 31
0.0
  0
LINE
  5
219
330
187
100
AcDbEntity
  8
TopOverlay
100
AcDbLine
 10
-20.97911476
 20
-7.041936639999999
 30
0.0
 11
-21.64556504
 21
-7.041936639999999
 31
0.0
  0
LINE
  5
21A
330
187
100
AcDbEntity
  8
TopOverlay
100
AcDbLine
 10
-21.64556504
 20
-6.04225868
 30
0.0
 11
-21.81217888
 21
-5.87564484
 31
0.0
  0
LINE
  5
21B
330
187
100
AcDbEntity
  8
TopOverlay
100
AcDbLine
 10
-21.81217888
 20
-5.87564484
 30
0.0
 11
-21.81217888
 21
-5.5424197
 31
0.0
  0
LINE
  5
21C
330
187
100
AcDbEntity
  8
TopOverlay
100
AcDbLine
 10
-21.81217888
 20
-5.5424197
 30
0.0
 11
-21.64556504
 21
-5.375808399999999
 31
0.0
  0
LINE
  5
21D
330
187
100
AcDbEntity
  8
TopOverlay
100
AcDbLine
 10
-21.64556504
 20
-5.375808399999999
 30
0.0
 11
-20.97911476
 21
-5.375808399999999
 31
0.0
  0
LINE
  5
21E
330
187
100
AcDbEntity
  8
TopOverlay
100
AcDbLine
 10
-20.97911476
 20
-5.375808399999999
 30
0.0
 11
-20.81250092
 21
-5.5424197
 31
0.0
  0
LINE
  5
21F
330
187
100
AcDbEntity
  8
TopOverlay
100
AcDbLine
 10
-20.81250092
 20
-5.5424197
 30
0.0
 11
-20.81250092
 21
-5.87564484
 31
0.0
  0
LINE
  5
220
330
187
100
AcDbEntity
  8
TopOverlay
100
AcDbLine
 10
-20.81250092
 20
-5.87564484
 30
0.0
 11
-20.97911476
 21
-6.04225868
 31
0.0
  0
LINE
  5
221
330
187
100
AcDbEntity
  8
TopOverlay
100
AcDbLine
 10
-20.97911476
 20
-6.04225868
 30
0.0
 11
-21.64556504
 21
-6.04225868
 31
0.0
  0
LINE
  5
222
330
187
100
AcDbEntity
  8
TopOverlay
100
AcDbLine
 10
-10.56217852
 20
-7.87500076
 30
0.0
 11
-10.56217852
 21
-7.208550479999999
 31
0.0
  0
LINE
  5
223
330
187
100
AcDbEntity
  8
TopOverlay
100
AcDbLine
 10
-10.56217852
 20
-7.208550479999999
 30
0.0
 11
-10.39556468
 21
-7.208550479999999
 31
0.0
  0
LINE
  5
224
330
187
100
AcDbEntity
  8
TopOverlay
100
AcDbLine
 10
-10.39556468
 20
-7.208550479999999
 30
0.0
 11
-9.729114399999998
 21
-7.87500076
 31
0.0
  0
LINE
  5
225
330
187
100
AcDbEntity
  8
TopOverlay
100
AcDbLine
 10
-9.729114399999998
 20
-7.87500076
 30
0.0
 11
-9.562500559999998
 21
-7.87500076
 31
0.0
  0
LINE
  5
226
330
187
100
AcDbEntity
  8
TopOverlay
100
AcDbLine
 10
-10.56217852
 20
-6.208872519999999
 30
0.0
 11
-10.56217852
 21
-6.875322799999999
 31
0.0
  0
LINE
  5
227
330
187
100
AcDbEntity
  8
TopOverlay
100
AcDbLine
 10
-10.56217852
 20
-6.875322799999999
 30
0.0
 11
-10.06233954
 21
-6.875322799999999
 31
0.0
  0
LINE
  5
228
330
187
100
AcDbEntity
  8
TopOverlay
100
AcDbLine
 10
-10.06233954
 20
-6.875322799999999
 30
0.0
 11
-10.22895084
 21
-6.54209766
 31
0.0
  0
LINE
  5
229
330
187
100
AcDbEntity
  8
TopOverlay
100
AcDbLine
 10
-10.22895084
 20
-6.54209766
 30
0.0
 11
-10.22895084
 21
-6.375483819999999
 31
0.0
  0
LINE
  5
22A
330
187
100
AcDbEntity
  8
TopOverlay
100
AcDbLine
 10
-10.22895084
 20
-6.375483819999999
 30
0.0
 11
-10.06233954
 21
-6.208872519999999
 31
0.0
  0
LINE
  5
22B
330
187
100
AcDbEntity
  8
TopOverlay
100
AcDbLine
 10
-10.06233954
 20
-6.208872519999999
 30
0.0
 11
-9.729114399999998
 21
-6.208872519999999
 31
0.0
  0
LINE
  5
22C
330
187
100
AcDbEntity
  8
TopOverlay
100
AcDbLine
 10
-9.729114399999998
 20
-6.208872519999999
 30
0.0
 11
-9.562500559999998
 21
-6.375483819999999
 31
0.0
  0
LINE
  5
22D
330
187
100
AcDbEntity
  8
TopOverlay
100
AcDbLine
 10
-9.562500559999998
 20
-6.375483819999999
 30
0.0
 11
-9.562500559999998
 21
-6.708708959999999
 31
0.0
  0
LINE
  5
22E
330
187
100
AcDbEntity
  8
TopOverlay
100
AcDbLine
 10
-9.562500559999998
 20
-6.708708959999999
 30
0.0
 11
-9.729114399999998
 21
-6.875322799999999
 31
0.0
  0
LINE
  5
22F
330
187
100
AcDbEntity
  8
TopOverlay
100
AcDbLine
 10
0.6878218399999999
 20
-7.208550479999999
 30
0.0
 11
0.6878218399999999
 21
-7.87500076
 31
0.0
  0
LINE
  5
230
330
187
100
AcDbEntity
  8
TopOverlay
100
AcDbLine
 10
0.6878218399999999
 20
-7.87500076
 30
0.0
 11
1.18766082
 21
-7.87500076
 31
0.0
  0
LINE
  5
231
330
187
100
AcDbEntity
  8
TopOverlay
100
AcDbLine
 10
1.18766082
 20
-7.87500076
 30
0.0
 11
1.02104952
 21
-7.54177562
 31
0.0
  0
LINE
  5
232
330
187
100
AcDbEntity
  8
TopOverlay
100
AcDbLine
 10
1.02104952
 20
-7.54177562
 30
0.0
 11
1.02104952
 21
-7.37516178
 31
0.0
  0
LINE
  5
233
330
187
100
AcDbEntity
  8
TopOverlay
100
AcDbLine
 10
1.02104952
 20
-7.37516178
 30
0.0
 11
1.18766082
 21
-7.208550479999999
 31
0.0
  0
LINE
  5
234
330
187
100
AcDbEntity
  8
TopOverlay
100
AcDbLine
 10
1.18766082
 20
-7.208550479999999
 30
0.0
 11
1.52088596
 21
-7.208550479999999
 31
0.0
  0
LINE
  5
235
330
187
100
AcDbEntity
  8
TopOverlay
100
AcDbLine
 10
1.52088596
 20
-7.208550479999999
 30
0.0
 11
1.6874998
 21
-7.37516178
 31
0.0
  0
LINE
  5
236
330
187
100
AcDbEntity
  8
TopOverlay
100
AcDbLine
 10
1.6874998
 20
-7.37516178
 30
0.0
 11
1.6874998
 21
-7.70838692
 31
0.0
  0
LINE
  5
237
330
187
100
AcDbEntity
  8
TopOverlay
100
AcDbLine
 10
1.6874998
 20
-7.70838692
 30
0.0
 11
1.52088596
 21
-7.87500076
 31
0.0
  0
LINE
  5
238
330
187
100
AcDbEntity
  8
TopOverlay
100
AcDbLine
 10
0.85443568
 20
-6.875322799999999
 30
0.0
 11
0.6878218399999999
 21
-6.708708959999999
 31
0.0
  0
LINE
  5
239
330
187
100
AcDbEntity
  8
TopOverlay
100
AcDbLine
 10
0.6878218399999999
 20
-6.708708959999999
 30
0.0
 11
0.6878218399999999
 21
-6.375483819999999
 31
0.0
  0
LINE
  5
23A
330
187
100
AcDbEntity
  8
TopOverlay
100
AcDbLine
 10
0.6878218399999999
 20
-6.375483819999999
 30
0.0
 11
0.85443568
 21
-6.208872519999999
 31
0.0
  0
LINE
  5
23B
330
187
100
AcDbEntity
  8
TopOverlay
100
AcDbLine
 10
0.85443568
 20
-6.208872519999999
 30
0.0
 11
1.52088596
 21
-6.208872519999999
 31
0.0
  0
LINE
  5
23C
330
187
100
AcDbEntity
  8
TopOverlay
100
AcDbLine
 10
1.52088596
 20
-6.208872519999999
 30
0.0
 11
1.6874998
 21
-6.375483819999999
 31
0.0
  0
LINE
  5
23D
330
187
100
AcDbEntity
  8
TopOverlay
100
AcDbLine
 10
1.6874998
 20
-6.375483819999999
 30
0.0
 11
1.6874998
 21
-6.708708959999999
 31
0.0
  0
LINE
  5
23E
330
187
100
AcDbEntity
  8
TopOverlay
100
AcDbLine
 10
1.6874998
 20
-6.708708959999999
 30
0.0
 11
1.52088596
 21
-6.875322799999999
 31
0.0
  0
LINE
  5
23F
330
187
100
AcDbEntity
  8
TopOverlay
100
AcDbLine
 10
1.52088596
 20
-6.875322799999999
 30
0.0
 11
0.85443568
 21
-6.875322799999999
 31
0.0
  0
LINE
  5
240
330
187
100
AcDbEntity
  8
TopOverlay
100
AcDbLine
 10
12.93750016
 20
-7.208550479999999
 30
0.0
 11
12.93750016
 21
-7.87500076
 31
0.0
  0
LINE
  5
241
330
187
100
AcDbEntity
  8
TopOverlay
100
AcDbLine
 10
12.93750016
 20
-7.87500076
 30
0.0
 11
12.27104988
 21
-7.208550479999999
 31
0.0
  0
LINE
  5
242
330
187
100
AcDbEntity
  8
TopOverlay
100
AcDbLine
 10
12.27104988
 20
-7.208550479999999
 30
0.0
 11
12.10443604
 21
-7.208550479999999
 31
0.0
  0
LINE
  5
243
330
187
100
AcDbEntity
  8
TopOverlay
100
AcDbLine
 10
12.10443604
 20
-7.208550479999999
 30
0.0
 11
11.9378222
 21
-7.37516178
 31
0.0
  0
LINE
  5
244
330
187
100
AcDbEntity
  8
TopOverlay
100
AcDbLine
 10
11.9378222
 20
-7.37516178
 30
0.0
 11
11.9378222
 21
-7.70838692
 31
0.0
  0
LINE
  5
245
330
187
100
AcDbEntity
  8
TopOverlay
100
AcDbLine
 10
11.9378222
 20
-7.70838692
 30
0.0
 11
12.10443604
 21
-7.87500076
 31
0.0
  0
LINE
  5
246
330
187
100
AcDbEntity
  8
TopOverlay
100
AcDbLine
 10
11.9378222
 20
-6.208872519999999
 30
0.0
 11
11.9378222
 21
-6.875322799999999
 31
0.0
  0
LINE
  5
247
330
187
100
AcDbEntity
  8
TopOverlay
100
AcDbLine
 10
11.9378222
 20
-6.875322799999999
 30
0.0
 11
12.43766118
 21
-6.875322799999999
 31
0.0
  0
LINE
  5
248
330
187
100
AcDbEntity
  8
TopOverlay
100
AcDbLine
 10
12.43766118
 20
-6.875322799999999
 30
0.0
 11
12.27104988
 21
-6.54209766
 31
0.0
  0
LINE
  5
249
330
187
100
AcDbEntity
  8
TopOverlay
100
AcDbLine
 10
12.27104988
 20
-6.54209766
 30
0.0
 11
12.27104988
 21
-6.375483819999999
 31
0.0
  0
LINE
  5
24A
330
187
100
AcDbEntity
  8
TopOverlay
100
AcDbLine
 10
12.27104988
 20
-6.375483819999999
 30
0.0
 11
12.43766118
 21
-6.208872519999999
 31
0.0
  0
LINE
  5
24B
330
187
100
AcDbEntity
  8
TopOverlay
100
AcDbLine
 10
12.43766118
 20
-6.208872519999999
 30
0.0
 11
12.77088632
 21
-6.208872519999999
 31
0.0
  0
LINE
  5
24C
330
187
100
AcDbEntity
  8
TopOverlay
100
AcDbLine
 10
12.77088632
 20
-6.208872519999999
 30
0.0
 11
12.93750016
 21
-6.375483819999999
 31
0.0
  0
LINE
  5
24D
330
187
100
AcDbEntity
  8
TopOverlay
100
AcDbLine
 10
12.93750016
 20
-6.375483819999999
 30
0.0
 11
12.93750016
 21
-6.708708959999999
 31
0.0
  0
LINE
  5
24E
330
187
100
AcDbEntity
  8
TopOverlay
100
AcDbLine
 10
12.93750016
 20
-6.708708959999999
 30
0.0
 11
12.77088632
 21
-6.875322799999999
 31
0.0
  0
LINE
  5
24F
330
187
100
AcDbEntity
  8
TopOverlay
100
AcDbLine
 10
23.3544364
 20
-7.312502519999999
 30
0.0
 11
23.18782256
 21
-7.145888679999999
 31
0.0
  0
LINE
  5
250
330
187
100
AcDbEntity
  8
TopOverlay
100
AcDbLine
 10
23.18782256
 20
-7.145888679999999
 30
0.0
 11
23.18782256
 21
-6.812663539999999
 31
0.0
  0
LINE
  5
251
330
187
100
AcDbEntity
  8
TopOverlay
100
AcDbLine
 10
23.18782256
 20
-6.812663539999999
 30
0.0
 11
23.3544364
 21
-6.64605224
 31
0.0
  0
LINE
  5
252
330
187
100
AcDbEntity
  8
TopOverlay
100
AcDbLine
 10
23.3544364
 20
-6.64605224
 30
0.0
 11
24.02088668
 21
-6.64605224
 31
0.0
  0
LINE
  5
253
330
187
100
AcDbEntity
  8
TopOverlay
100
AcDbLine
 10
24.02088668
 20
-6.64605224
 30
0.0
 11
24.18750052
 21
-6.812663539999999
 31
0.0
  0
LINE
  5
254
330
187
100
AcDbEntity
  8
TopOverlay
100
AcDbLine
 10
24.18750052
 20
-6.812663539999999
 30
0.0
 11
24.18750052
 21
-7.145888679999999
 31
0.0
  0
LINE
  5
255
330
187
100
AcDbEntity
  8
TopOverlay
100
AcDbLine
 10
24.18750052
 20
-7.145888679999999
 30
0.0
 11
24.02088668
 21
-7.312502519999999
 31
0.0
  0
LINE
  5
256
330
187
100
AcDbEntity
  8
TopOverlay
100
AcDbLine
 10
24.02088668
 20
-7.312502519999999
 30
0.0
 11
23.3544364
 21
-7.312502519999999
 31
0.0
  0
LINE
  5
257
330
187
100
AcDbEntity
  8
TopOverlay
100
AcDbLine
 10
23.3544364
 20
6.7499992
 30
0.0
 11
23.18782256
 21
6.916613039999999
 31
0.0
  0
LINE
  5
258
330
187
100
AcDbEntity
  8
TopOverlay
100
AcDbLine
 10
23.18782256
 20
6.916613039999999
 30
0.0
 11
23.18782256
 21
7.249838179999999
 31
0.0
  0
LINE
  5
259
330
187
100
AcDbEntity
  8
TopOverlay
100
AcDbLine
 10
23.18782256
 20
7.249838179999999
 30
0.0
 11
23.3544364
 21
7.416449479999999
 31
0.0
  0
LINE
  5
25A
330
187
100
AcDbEntity
  8
TopOverlay
100
AcDbLine
 10
23.3544364
 20
7.416449479999999
 30
0.0
 11
24.02088668
 21
7.416449479999999
 31
0.0
  0
LINE
  5
25B
330
187
100
AcDbEntity
  8
TopOverlay
100
AcDbLine
 10
24.02088668
 20
7.416449479999999
 30
0.0
 11
24.18750052
 21
7.249838179999999
 31
0.0
  0
LINE
  5
25C
330
187
100
AcDbEntity
  8
TopOverlay
100
AcDbLine
 10
24.18750052
 20
7.249838179999999
 30
0.0
 11
24.18750052
 21
6.916613039999999
 31
0.0
  0
LINE
  5
25D
330
187
100
AcDbEntity
  8
TopOverlay
100
AcDbLine
 10
24.18750052
 20
6.916613039999999
 30
0.0
 11
24.02088668
 21
6.7499992
 31
0.0
  0
LINE
  5
25E
330
187
100
AcDbEntity
  8
TopOverlay
100
AcDbLine
 10
24.02088668
 20
6.7499992
 30
0.0
 11
23.3544364
 21
6.7499992
 31
0.0
  0
LINE
  5
25F
330
187
100
AcDbEntity
  8
TopOverlay
100
AcDbLine
 10
12.93750016
 20
6.853951239999999
 30
0.0
 11
12.93750016
 21
6.187500959999999
 31
0.0
  0
LINE
  5
260
330
187
100
AcDbEntity
  8
TopOverlay
100
AcDbLine
 10
12.93750016
 20
6.187500959999999
 30
0.0
 11
12.27104988
 21
6.853951239999999
 31
0.0
  0
LINE
  5
261
330
187
100
AcDbEntity
  8
TopOverlay
100
AcDbLine
 10
12.27104988
 20
6.853951239999999
 30
0.0
 11
12.10443604
 21
6.853951239999999
 31
0.0
  0
LINE
  5
262
330
187
100
AcDbEntity
  8
TopOverlay
100
AcDbLine
 10
12.10443604
 20
6.853951239999999
 30
0.0
 11
11.9378222
 21
6.687339939999999
 31
0.0
  0
LINE
  5
263
330
187
100
AcDbEntity
  8
TopOverlay
100
AcDbLine
 10
11.9378222
 20
6.687339939999999
 30
0.0
 11
11.9378222
 21
6.3541148
 31
0.0
  0
LINE
  5
264
330
187
100
AcDbEntity
  8
TopOverlay
100
AcDbLine
 10
11.9378222
 20
6.3541148
 30
0.0
 11
12.10443604
 21
6.187500959999999
 31
0.0
  0
LINE
  5
265
330
187
100
AcDbEntity
  8
TopOverlay
100
AcDbLine
 10
11.9378222
 20
7.853629199999999
 30
0.0
 11
11.9378222
 21
7.187178919999999
 31
0.0
  0
LINE
  5
266
330
187
100
AcDbEntity
  8
TopOverlay
100
AcDbLine
 10
11.9378222
 20
7.187178919999999
 30
0.0
 11
12.43766118
 21
7.187178919999999
 31
0.0
  0
LINE
  5
267
330
187
100
AcDbEntity
  8
TopOverlay
100
AcDbLine
 10
12.43766118
 20
7.187178919999999
 30
0.0
 11
12.27104988
 21
7.520404059999999
 31
0.0
  0
LINE
  5
268
330
187
100
AcDbEntity
  8
TopOverlay
100
AcDbLine
 10
12.27104988
 20
7.520404059999999
 30
0.0
 11
12.27104988
 21
7.687017899999999
 31
0.0
  0
LINE
  5
269
330
187
100
AcDbEntity
  8
TopOverlay
100
AcDbLine
 10
12.27104988
 20
7.687017899999999
 30
0.0
 11
12.43766118
 21
7.853629199999999
 31
0.0
  0
LINE
  5
26A
330
187
100
AcDbEntity
  8
TopOverlay
100
AcDbLine
 10
12.43766118
 20
7.853629199999999
 30
0.0
 11
12.77088632
 21
7.853629199999999
 31
0.0
  0
LINE
  5
26B
330
187
100
AcDbEntity
  8
TopOverlay
100
AcDbLine
 10
12.77088632
 20
7.853629199999999
 30
0.0
 11
12.93750016
 21
7.687017899999999
 31
0.0
  0
LINE
  5
26C
330
187
100
AcDbEntity
  8
TopOverlay
100
AcDbLine
 10
12.93750016
 20
7.687017899999999
 30
0.0
 11
12.93750016
 21
7.353792759999999
 31
0.0
  0
LINE
  5
26D
330
187
100
AcDbEntity
  8
TopOverlay
100
AcDbLine
 10
12.93750016
 20
7.353792759999999
 30
0.0
 11
12.77088632
 21
7.187178919999999
 31
0.0
  0
LINE
  5
26E
330
187
100
AcDbEntity
  8
TopOverlay
100
AcDbLine
 10
0.6878218399999999
 20
6.853951239999999
 30
0.0
 11
0.6878218399999999
 21
6.187500959999999
 31
0.0
  0
LINE
  5
26F
330
187
100
AcDbEntity
  8
TopOverlay
100
AcDbLine
 10
0.6878218399999999
 20
6.187500959999999
 30
0.0
 11
1.18766082
 21
6.187500959999999
 31
0.0
  0
LINE
  5
270
330
187
100
AcDbEntity
  8
TopOverlay
100
AcDbLine
 10
1.18766082
 20
6.187500959999999
 30
0.0
 11
1.02104952
 21
6.520726099999999
 31
0.0
  0
LINE
  5
271
330
187
100
AcDbEntity
  8
TopOverlay
100
AcDbLine
 10
1.02104952
 20
6.520726099999999
 30
0.0
 11
1.02104952
 21
6.687339939999999
 31
0.0
  0
LINE
  5
272
330
187
100
AcDbEntity
  8
TopOverlay
100
AcDbLine
 10
1.02104952
 20
6.687339939999999
 30
0.0
 11
1.18766082
 21
6.853951239999999
 31
0.0
  0
LINE
  5
273
330
187
100
AcDbEntity
  8
TopOverlay
100
AcDbLine
 10
1.18766082
 20
6.853951239999999
 30
0.0
 11
1.52088596
 21
6.853951239999999
 31
0.0
  0
LINE
  5
274
330
187
100
AcDbEntity
  8
TopOverlay
100
AcDbLine
 10
1.52088596
 20
6.853951239999999
 30
0.0
 11
1.6874998
 21
6.687339939999999
 31
0.0
  0
LINE
  5
275
330
187
100
AcDbEntity
  8
TopOverlay
100
AcDbLine
 10
1.6874998
 20
6.687339939999999
 30
0.0
 11
1.6874998
 21
6.3541148
 31
0.0
  0
LINE
  5
276
330
187
100
AcDbEntity
  8
TopOverlay
100
AcDbLine
 10
1.6874998
 20
6.3541148
 30
0.0
 11
1.52088596
 21
6.187500959999999
 31
0.0
  0
LINE
  5
277
330
187
100
AcDbEntity
  8
TopOverlay
100
AcDbLine
 10
0.85443568
 20
7.187178919999999
 30
0.0
 11
0.6878218399999999
 21
7.353792759999999
 31
0.0
  0
LINE
  5
278
330
187
100
AcDbEntity
  8
TopOverlay
100
AcDbLine
 10
0.6878218399999999
 20
7.353792759999999
 30
0.0
 11
0.6878218399999999
 21
7.687017899999999
 31
0.0
  0
LINE
  5
279
330
187
100
AcDbEntity
  8
TopOverlay
100
AcDbLine
 10
0.6878218399999999
 20
7.687017899999999
 30
0.0
 11
0.85443568
 21
7.853629199999999
 31
0.0
  0
LINE
  5
27A
330
187
100
AcDbEntity
  8
TopOverlay
100
AcDbLine
 10
0.85443568
 20
7.853629199999999
 30
0.0
 11
1.52088596
 21
7.853629199999999
 31
0.0
  0
LINE
  5
27B
330
187
100
AcDbEntity
  8
TopOverlay
100
AcDbLine
 10
1.52088596
 20
7.853629199999999
 30
0.0
 11
1.6874998
 21
7.687017899999999
 31
0.0
  0
LINE
  5
27C
330
187
100
AcDbEntity
  8
TopOverlay
100
AcDbLine
 10
1.6874998
 20
7.687017899999999
 30
0.0
 11
1.6874998
 21
7.353792759999999
 31
0.0
  0
LINE
  5
27D
330
187
100
AcDbEntity
  8
TopOverlay
100
AcDbLine
 10
1.6874998
 20
7.353792759999999
 30
0.0
 11
1.52088596
 21
7.187178919999999
 31
0.0
  0
LINE
  5
27E
330
187
100
AcDbEntity
  8
TopOverlay
100
AcDbLine
 10
1.52088596
 20
7.187178919999999
 30
0.0
 11
0.85443568
 21
7.187178919999999
 31
0.0
  0
LINE
  5
27F
330
187
100
AcDbEntity
  8
TopOverlay
100
AcDbLine
 10
-10.56217852
 20
6.187500959999999
 30
0.0
 11
-10.56217852
 21
6.853951239999999
 31
0.0
  0
LINE
  5
280
330
187
100
AcDbEntity
  8
TopOverlay
100
AcDbLine
 10
-10.56217852
 20
6.853951239999999
 30
0.0
 11
-10.39556468
 21
6.853951239999999
 31
0.0
  0
LINE
  5
281
330
187
100
AcDbEntity
  8
TopOverlay
100
AcDbLine
 10
-10.39556468
 20
6.853951239999999
 30
0.0
 11
-9.729114399999998
 21
6.187500959999999
 31
0.0
  0
LINE
  5
282
330
187
100
AcDbEntity
  8
TopOverlay
100
AcDbLine
 10
-9.729114399999998
 20
6.187500959999999
 30
0.0
 11
-9.562500559999998
 21
6.187500959999999
 31
0.0
  0
LINE
  5
283
330
187
100
AcDbEntity
  8
TopOverlay
100
AcDbLine
 10
-10.56217852
 20
7.853629199999999
 30
0.0
 11
-10.56217852
 21
7.187178919999999
 31
0.0
  0
LINE
  5
284
330
187
100
AcDbEntity
  8
TopOverlay
100
AcDbLine
 10
-10.56217852
 20
7.187178919999999
 30
0.0
 11
-10.06233954
 21
7.187178919999999
 31
0.0
  0
LINE
  5
285
330
187
100
AcDbEntity
  8
TopOverlay
100
AcDbLine
 10
-10.06233954
 20
7.187178919999999
 30
0.0
 11
-10.22895084
 21
7.520404059999999
 31
0.0
  0
LINE
  5
286
330
187
100
AcDbEntity
  8
TopOverlay
100
AcDbLine
 10
-10.22895084
 20
7.520404059999999
 30
0.0
 11
-10.22895084
 21
7.687017899999999
 31
0.0
  0
LINE
  5
287
330
187
100
AcDbEntity
  8
TopOverlay
100
AcDbLine
 10
-10.22895084
 20
7.687017899999999
 30
0.0
 11
-10.06233954
 21
7.853629199999999
 31
0.0
  0
LINE
  5
288
330
187
100
AcDbEntity
  8
TopOverlay
100
AcDbLine
 10
-10.06233954
 20
7.853629199999999
 30
0.0
 11
-9.729114399999998
 21
7.853629199999999
 31
0.0
  0
LINE
  5
289
330
187
100
AcDbEntity
  8
TopOverlay
100
AcDbLine
 10
-9.729114399999998
 20
7.853629199999999
 30
0.0
 11
-9.562500559999998
 21
7.687017899999999
 31
0.0
  0
LINE
  5
28A
330
187
100
AcDbEntity
  8
TopOverlay
100
AcDbLine
 10
-9.562500559999998
 20
7.687017899999999
 30
0.0
 11
-9.562500559999998
 21
7.353792759999999
 31
0.0
  0
LINE
  5
28B
330
187
100
AcDbEntity
  8
TopOverlay
100
AcDbLine
 10
-9.562500559999998
 20
7.353792759999999
 30
0.0
 11
-9.729114399999998
 21
7.187178919999999
 31
0.0
  0
LINE
  5
28C
330
187
100
AcDbEntity
  8
TopOverlay
100
AcDbLine
 10
-20.81250092
 20
6.187500959999999
 30
0.0
 11
-20.81250092
 21
6.520726099999999
 31
0.0
  0
LINE
  5
28D
330
187
100
AcDbEntity
  8
TopOverlay
100
AcDbLine
 10
-20.81250092
 20
6.520726099999999
 30
0.0
 11
-20.81250092
 21
6.3541148
 31
0.0
  0
LINE
  5
28E
330
187
100
AcDbEntity
  8
TopOverlay
100
AcDbLine
 10
-20.81250092
 20
6.3541148
 30
0.0
 11
-21.81217888
 21
6.3541148
 31
0.0
  0
LINE
  5
28F
330
187
100
AcDbEntity
  8
TopOverlay
100
AcDbLine
 10
-21.81217888
 20
6.3541148
 30
0.0
 11
-21.64556504
 21
6.187500959999999
 31
0.0
  0
LINE
  5
290
330
187
100
AcDbEntity
  8
TopOverlay
100
AcDbLine
 10
-21.64556504
 20
7.020565079999999
 30
0.0
 11
-21.81217888
 21
7.187178919999999
 31
0.0
  0
LINE
  5
291
330
187
100
AcDbEntity
  8
TopOverlay
100
AcDbLine
 10
-21.81217888
 20
7.187178919999999
 30
0.0
 11
-21.81217888
 21
7.520404059999999
 31
0.0
  0
LINE
  5
292
330
187
100
AcDbEntity
  8
TopOverlay
100
AcDbLine
 10
-21.81217888
 20
7.520404059999999
 30
0.0
 11
-21.64556504
 21
7.687015359999999
 31
0.0
  0
LINE
  5
293
330
187
100
AcDbEntity
  8
TopOverlay
100
AcDbLine
 10
-21.64556504
 20
7.687015359999999
 30
0.0
 11
-20.97911476
 21
7.687015359999999
 31
0.0
  0
LINE
  5
294
330
187
100
AcDbEntity
  8
TopOverlay
100
AcDbLine
 10
-20.97911476
 20
7.687015359999999
 30
0.0
 11
-20.81250092
 21
7.520404059999999
 31
0.0
  0
LINE
  5
295
330
187
100
AcDbEntity
  8
TopOverlay
100
AcDbLine
 10
-20.81250092
 20
7.520404059999999
 30
0.0
 11
-20.81250092
 21
7.187178919999999
 31
0.0
  0
LINE
  5
296
330
187
100
AcDbEntity
  8
TopOverlay
100
AcDbLine
 10
-20.81250092
 20
7.187178919999999
 30
0.0
 11
-20.97911476
 21
7.020565079999999
 31
0.0
  0
LINE
  5
297
330
187
100
AcDbEntity
  8
TopOverlay
100
AcDbLine
 10
-20.97911476
 20
7.020565079999999
 30
0.0
 11
-21.64556504
 21
7.020565079999999
 31
0.0
  0
LINE
  5
298
330
187
100
AcDbEntity
  8
TopOverlay
100
AcDbLine
 10
-21.64556504
 20
8.02024304
 30
0.0
 11
-21.81217888
 21
8.18685688
 31
0.0
  0
LINE
  5
299
330
187
100
AcDbEntity
  8
TopOverlay
100
AcDbLine
 10
-21.81217888
 20
8.18685688
 30
0.0
 11
-21.81217888
 21
8.52008202
 31
0.0
  0
LINE
  5
29A
330
187
100
AcDbEntity
  8
TopOverlay
100
AcDbLine
 10
-21.81217888
 20
8.52008202
 30
0.0
 11
-21.64556504
 21
8.68669332
 31
0.0
  0
LINE
  5
29B
330
187
100
AcDbEntity
  8
TopOverlay
100
AcDbLine
 10
-21.64556504
 20
8.68669332
 30
0.0
 11
-20.97911476
 21
8.68669332
 31
0.0
  0
LINE
  5
29C
330
187
100
AcDbEntity
  8
TopOverlay
100
AcDbLine
 10
-20.97911476
 20
8.68669332
 30
0.0
 11
-20.81250092
 21
8.52008202
 31
0.0
  0
LINE
  5
29D
330
187
100
AcDbEntity
  8
TopOverlay
100
AcDbLine
 10
-20.81250092
 20
8.52008202
 30
0.0
 11
-20.81250092
 21
8.18685688
 31
0.0
  0
LINE
  5
29E
330
187
100
AcDbEntity
  8
TopOverlay
100
AcDbLine
 10
-20.81250092
 20
8.18685688
 30
0.0
 11
-20.97911476
 21
8.02024304
 31
0.0
  0
LINE
  5
29F
330
187
100
AcDbEntity
  8
TopOverlay
100
AcDbLine
 10
-20.97911476
 20
8.02024304
 30
0.0
 11
-21.64556504
 21
8.02024304
 31
0.0
  0
ENDBLK
  5
189
330
187
100
AcDbEntity
  8
0
100
AcDbBlockEnd
  0
ENDSEC
  0
SECTION
  2
ENTITIES
  0
LWPOLYLINE
  5
7C
330
1F
100
AcDbEntity
  8
Mechanical1
100
AcDbPolyline
 90
        2
 70
     0
 43
0.127
 10
4.100001959999999
 20
1.00000054
 10
24.400002
 20
1.00000054
  0
LWPOLYLINE
  5
7D
330
1F
100
AcDbEntity
  8
Mechanical1
100
AcDbPolyline
 90
        2
 70
     1
 43
0.0635
 10
4.06825196
 20
1.00000054
 42
1.0
 10
4.13175196
 20
1.00000054
 42
1.0
  0
LWPOLYLINE
  5
7E
330
1F
100
AcDbEntity
  8
Mechanical1
100
AcDbPolyline
 90
        2
 70
     1
 43
0.0635
 10
24.368252
 20
1.00000054
 42
1.0
 10
24.431752
 20
1.00000054
 42
1.0
  0
LWPOLYLINE
  5
7F
330
1F
100
AcDbEntity
  8
Mechanical1
100
AcDbPolyline
 90
        2
 70
     0
 43
0.127
 10
24.400002
 20
1.00000054
 10
24.400002
 20
129.50000008
  0
LWPOLYLINE
  5
80
330
1F
100
AcDbEntity
  8
Mechanical1
100
AcDbPolyline
 90
        2
 70
     1
 43
0.0635
 10
24.368252
 20
1.00000054
 42
1.0
 10
24.431752
 20
1.00000054
 42
1.0
  0
LWPOLYLINE
  5
81
330
1F
100
AcDbEntity
  8
Mechanical1
100
AcDbPolyline
 90
        2
 70
     1
 43
0.0635
 10
24.368252
 20
129.50000008
 42
1.0
 10
24.431752
 20
129.50000008
 42
1.0
  0
LWPOLYLINE
  5
82
330
1F
100
AcDbEntity
  8
Mechanical1
100
AcDbPolyline
 90
        2
 70
     0
 43
0.127
 10
4.100001959999999
 20
129.50000008
 10
24.400002
 20
129.50000008
  0
LWPOLYLINE
  5
83
330
1F
100
AcDbEntity
  8
Mechanical1
100
AcDbPolyline
 90
        2
 70
     1
 43
0.0635
 10
4.06825196
 20
129.50000008
 42
1.0
 10
4.13175196
 20
129.50000008
 42
1.0
  0
LWPOLYLINE
  5
84
330
1F
100
AcDbEntity
  8
Mechanical1
100
AcDbPolyline
 90
        2
 70
     1
 43
0.0635
 10
24.368252
 20
129.50000008
 42
1.0
 10
24.431752
 20
129.50000008
 42
1.0
  0
LWPOLYLINE
  5
85
330
1F
100
AcDbEntity
  8
Mechanical1
100
AcDbPolyline
 90
        2
 70
     0
 43
0.127
 10
4.100001959999999
 20
1.00000054
 10
4.100001959999999
 20
129.50000008
  0
LWPOLYLINE
  5
86
330
1F
100
AcDbEntity
  8
Mechanical1
100
AcDbPolyline
 90
        2
 70
     1
 43
0.0635
 10
4.06825196
 20
1.00000054
 42
1.0
 10
4.13175196
 20
1.00000054
 42
1.0
  0
LWPOLYLINE
  5
87
330
1F
100
AcDbEntity
  8
Mechanical1
100
AcDbPolyline
 90
        2
 70
     1
 43
0.0635
 10
4.06825196
 20
129.50000008
 42
1.0
 10
4.13175196
 20
129.50000008
 42
1.0
  0
LWPOLYLINE
  5
88
330
1F
100
AcDbEntity
  8
TopSolder
100
AcDbPolyline
 90
        2
 70
     1
 43
0.1016
 10
14.19920198
 20
13.2499989
 42
1.0
 10
14.30080198
 20
13.2499989
 42
1.0
  0
LWPOLYLINE
  5
89
330
1F
100
AcDbEntity
  8
BottomSolder
100
AcDbPolyline
 90
        2
 70
     1
 43
0.1016
 10
14.19920198
 20
13.2499989
 42
1.0
 10
14.30080198
 20
13.2499989
 42
1.0
  0
LWPOLYLINE
  5
8A
330
1F
100
AcDbEntity
  8
PadHoleLayer
100
AcDbPolyline
 90
        2
 70
     1
 43
1.20000014
 10
13.65000318
 20
13.2499989
 42
1.0
 10
14.85000078
 20
13.2499989
 42
1.0
  0
LWPOLYLINE
  5
8B
330
1F
100
AcDbEntity
  8
TopSolder
100
AcDbPolyline
 90
        2
 70
     1
 43
0.1016
 10
14.19920198
 20
69.24999866
 42
1.0
 10
14.30080198
 20
69.24999866
 42
1.0
  0
LWPOLYLINE
  5
8C
330
1F
100
AcDbEntity
  8
BottomSolder
100
AcDbPolyline
 90
        2
 70
     1
 43
0.1016
 10
14.19920198
 20
69.24999866
 42
1.0
 10
14.30080198
 20
69.24999866
 42
1.0
  0
LWPOLYLINE
  5
8D
330
1F
100
AcDbEntity
  8
PadHoleLayer
100
AcDbPolyline
 90
        2
 70
     1
 43
1.20000014
 10
13.65000318
 20
69.24999866
 42
1.0
 10
14.85000078
 20
69.24999866
 42
1.0
  0
LWPOLYLINE
  5
8E
330
1F
100
AcDbEntity
  8
TopSolder
100
AcDbPolyline
 90
        2
 70
     1
 43
0.1016
 10
11.5492022
 20
3.99999962
 42
1.0
 10
11.6508022
 20
3.99999962
 42
1.0
  0
LWPOLYLINE
  5
8F
330
1F
100
AcDbEntity
  8
BottomSolder
100
AcDbPolyline
 90
        2
 70
     1
 43
0.1016
 10
11.5492022
 20
3.99999962
 42
1.0
 10
11.6508022
 20
3.99999962
 42
1.0
  0
LWPOLYLINE
  5
90
330
1F
100
AcDbEntity
  8
PadHoleLayer
100
AcDbPolyline
 90
        2
 70
     1
 43
1.59999934
 10
10.80000126
 20
3.99999962
 42
1.0
 10
12.40000314
 20
3.99999962
 42
1.0
  0
LWPOLYLINE
  5
91
330
1F
100
AcDbEntity
  8
TopSolder
100
AcDbPolyline
 90
        2
 70
     1
 43
0.1016
 10
11.5492022
 20
126.500001
 42
1.0
 10
11.6508022
 20
126.500001
 42
1.0
  0
LWPOLYLINE
  5
92
330
1F
100
AcDbEntity
  8
BottomSolder
100
AcDbPolyline
 90
        2
 70
     1
 43
0.1016
 10
11.5492022
 20
126.500001
 42
1.0
 10
11.6508022
 20
126.500001
 42
1.0
  0
LWPOLYLINE
  5
93
330
1F
100
AcDbEntity
  8
PadHoleLayer
100
AcDbPolyline
 90
        2
 70
     1
 43
1.59999934
 10
10.80000126
 20
126.500001
 42
1.0
 10
12.40000314
 20
126.500001
 42
1.0
  0
LWPOLYLINE
  5
94
330
1F
100
AcDbEntity
  8
TopSolder
100
AcDbPolyline
 90
        2
 70
     1
 43
0.1016
 10
14.19920198
 20
77.25000044
 42
1.0
 10
14.30080198
 20
77.25000044
 42
1.0
  0
LWPOLYLINE
  5
95
330
1F
100
AcDbEntity
  8
BottomSolder
100
AcDbPolyline
 90
        2
 70
     1
 43
0.1016
 10
14.19920198
 20
77.25000044
 42
1.0
 10
14.30080198
 20
77.25000044
 42
1.0
  0
LWPOLYLINE
  5
96
330
1F
100
AcDbEntity
  8
PadHoleLayer
100
AcDbPolyline
 90
        2
 70
     1
 43
2.54999998
 10
12.97500326
 20
77.25000044
 42
1.0
 10
15.5250007
 20
77.25000044
 42
1.0
  0
LWPOLYLINE
  5
97
330
1F
100
AcDbEntity
  8
TopSolder
100
AcDbPolyline
 90
        2
 70
     1
 43
0.1016
 10
14.19920198
 20
113.74999856
 42
1.0
 10
14.30080198
 20
113.74999856
 42
1.0
  0
LWPOLYLINE
  5
98
330
1F
100
AcDbEntity
  8
BottomSolder
100
AcDbPolyline
 90
        2
 70
     1
 43
0.1016
 10
14.19920198
 20
113.74999856
 42
1.0
 10
14.30080198
 20
113.74999856
 42
1.0
  0
LWPOLYLINE
  5
99
330
1F
100
AcDbEntity
  8
PadHoleLayer
100
AcDbPolyline
 90
        2
 70
     1
 43
2.99999908
 10
12.75000244
 20
113.74999856
 42
1.0
 10
15.75000152
 20
113.74999856
 42
1.0
  0
LWPOLYLINE
  5
9A
330
1F
100
AcDbEntity
  8
TopSolder
100
AcDbPolyline
 90
        2
 70
     1
 43
0.1016
 10
14.19920198
 20
101.2500007
 42
1.0
 10
14.30080198
 20
101.2500007
 42
1.0
  0
LWPOLYLINE
  5
9B
330
1F
100
AcDbEntity
  8
BottomSolder
100
AcDbPolyline
 90
        2
 70
     1
 43
0.1016
 10
14.19920198
 20
101.2500007
 42
1.0
 10
14.30080198
 20
101.2500007
 42
1.0
  0
LWPOLYLINE
  5
9C
330
1F
100
AcDbEntity
  8
PadHoleLayer
100
AcDbPolyline
 90
        2
 70
     1
 43
2.99999908
 10
12.75000244
 20
101.2500007
 42
1.0
 10
15.75000152
 20
101.2500007
 42
1.0
  0
LWPOLYLINE
  5
9D
330
1F
100
AcDbEntity
  8
TopSolder
100
AcDbPolyline
 90
        2
 70
     1
 43
0.1016
 10
14.19920198
 20
88.24999876
 42
1.0
 10
14.30080198
 20
88.24999876
 42
1.0
  0
LWPOLYLINE
  5
9E
330
1F
100
AcDbEntity
  8
BottomSolder
100
AcDbPolyline
 90
        2
 70
     1
 43
0.1016
 10
14.19920198
 20
88.24999876
 42
1.0
 10
14.30080198
 20
88.24999876
 42
1.0
  0
LWPOLYLINE
  5
9F
330
1F
100
AcDbEntity
  8
PadHoleLayer
100
AcDbPolyline
 90
        2
 70
     1
 43
3.99999962
 10
12.25000344
 20
88.24999876
 42
1.0
 10
16.25000052
 20
88.24999876
 42
1.0
  0
LINE
  5
A0
330
1F
100
AcDbEntity
  8
TopOverlay
100
AcDbLine
 10
20.45000228
 20
114.94957198
 30
0.0
 11
20.45000228
 21
112.95000016
 31
0.0
  0
LINE
  5
A1
330
1F
100
AcDbEntity
  8
TopOverlay
100
AcDbLine
 10
20.86896004
 20
114.94957198
 30
0.0
 11
20.86896004
 21
112.95000016
 31
0.0
  0
LINE
  5
A2
330
1F
100
AcDbEntity
  8
TopOverlay
100
AcDbLine
 10
20.86896004
 20
114.94957198
 30
0.0
 11
22.20200792
 21
112.95000016
 31
0.0
  0
LINE
  5
A3
330
1F
100
AcDbEntity
  8
TopOverlay
100
AcDbLine
 10
22.20200792
 20
114.94957198
 30
0.0
 11
22.20200792
 21
112.95000016
 31
0.0
  0
LINE
  5
A4
330
1F
100
AcDbEntity
  8
TopOverlay
100
AcDbLine
 10
17.8665251
 20
77.34957098
 30
0.0
 11
17.8665251
 21
75.34999916
 31
0.0
  0
LINE
  5
A5
330
1F
100
AcDbEntity
  8
TopOverlay
100
AcDbLine
 10
17.20000116
 20
77.34957098
 30
0.0
 11
18.53304904
 21
77.34957098
 31
0.0
  0
LINE
  5
A6
330
1F
100
AcDbEntity
  8
TopOverlay
100
AcDbLine
 10
18.77109276
 20
76.68304704
 30
0.0
 11
18.77109276
 21
75.34999916
 31
0.0
  0
LINE
  5
A7
330
1F
100
AcDbEntity
  8
TopOverlay
100
AcDbLine
 10
18.77109276
 20
76.11174008
 30
0.0
 11
18.86630974
 21
76.39739356
 31
0.0
  0
LINE
  5
A8
330
1F
100
AcDbEntity
  8
TopOverlay
100
AcDbLine
 10
18.86630974
 20
76.39739356
 30
0.0
 11
19.05674624
 21
76.58783006
 31
0.0
  0
LINE
  5
A9
330
1F
100
AcDbEntity
  8
TopOverlay
100
AcDbLine
 10
19.05674624
 20
76.58783006
 30
0.0
 11
19.24718274
 21
76.68304704
 31
0.0
  0
LINE
  5
AA
330
1F
100
AcDbEntity
  8
TopOverlay
100
AcDbLine
 10
19.24718274
 20
76.68304704
 30
0.0
 11
19.53283368
 21
76.68304704
 31
0.0
  0
LINE
  5
AB
330
1F
100
AcDbEntity
  8
TopOverlay
100
AcDbLine
 10
19.90418422
 20
77.34957098
 30
0.0
 11
19.9994012
 21
77.254354
 31
0.0
  0
LINE
  5
AC
330
1F
100
AcDbEntity
  8
TopOverlay
100
AcDbLine
 10
19.9994012
 20
77.254354
 30
0.0
 11
20.09461818
 21
77.34957098
 31
0.0
  0
LINE
  5
AD
330
1F
100
AcDbEntity
  8
TopOverlay
100
AcDbLine
 10
20.09461818
 20
77.34957098
 30
0.0
 11
19.9994012
 21
77.4447905
 31
0.0
  0
LINE
  5
AE
330
1F
100
AcDbEntity
  8
TopOverlay
100
AcDbLine
 10
19.9994012
 20
77.4447905
 30
0.0
 11
19.90418422
 21
77.34957098
 31
0.0
  0
LINE
  5
AF
330
1F
100
AcDbEntity
  8
TopOverlay
100
AcDbLine
 10
19.9994012
 20
76.68304704
 30
0.0
 11
19.9994012
 21
75.34999916
 31
0.0
  0
LINE
  5
B0
330
1F
100
AcDbEntity
  8
TopOverlay
100
AcDbLine
 10
21.58953772
 20
76.68304704
 30
0.0
 11
21.58953772
 21
75.15956266
 31
0.0
  0
LINE
  5
B1
330
1F
100
AcDbEntity
  8
TopOverlay
100
AcDbLine
 10
21.58953772
 20
75.15956266
 30
0.0
 11
21.4943182
 21
74.87390917999998
 31
0.0
  0
LINE
  5
B2
330
1F
100
AcDbEntity
  8
TopOverlay
100
AcDbLine
 10
21.4943182
 20
74.87390917999998
 30
0.0
 11
21.39910122
 21
74.7786922
 31
0.0
  0
LINE
  5
B3
330
1F
100
AcDbEntity
  8
TopOverlay
100
AcDbLine
 10
21.39910122
 20
74.7786922
 30
0.0
 11
21.20866472
 21
74.68347522
 31
0.0
  0
LINE
  5
B4
330
1F
100
AcDbEntity
  8
TopOverlay
100
AcDbLine
 10
21.20866472
 20
74.68347522
 30
0.0
 11
20.92301378
 21
74.68347522
 31
0.0
  0
LINE
  5
B5
330
1F
100
AcDbEntity
  8
TopOverlay
100
AcDbLine
 10
20.92301378
 20
74.68347522
 30
0.0
 11
20.73257728
 21
74.7786922
 31
0.0
  0
LINE
  5
B6
330
1F
100
AcDbEntity
  8
TopOverlay
100
AcDbLine
 10
21.58953772
 20
76.39739356
 30
0.0
 11
21.39910122
 21
76.58783006
 31
0.0
  0
LINE
  5
B7
330
1F
100
AcDbEntity
  8
TopOverlay
100
AcDbLine
 10
21.39910122
 20
76.58783006
 30
0.0
 11
21.20866472
 21
76.68304704
 31
0.0
  0
LINE
  5
B8
330
1F
100
AcDbEntity
  8
TopOverlay
100
AcDbLine
 10
21.20866472
 20
76.68304704
 30
0.0
 11
20.92301378
 21
76.68304704
 31
0.0
  0
LINE
  5
B9
330
1F
100
AcDbEntity
  8
TopOverlay
100
AcDbLine
 10
20.92301378
 20
76.68304704
 30
0.0
 11
20.73257728
 21
76.58783006
 31
0.0
  0
LINE
  5
BA
330
1F
100
AcDbEntity
  8
TopOverlay
100
AcDbLine
 10
20.73257728
 20
76.58783006
 30
0.0
 11
20.54214078
 21
76.39739356
 31
0.0
  0
LINE
  5
BB
330
1F
100
AcDbEntity
  8
TopOverlay
100
AcDbLine
 10
20.54214078
 20
76.39739356
 30
0.0
 11
20.4469238
 21
76.11174008
 31
0.0
  0
LINE
  5
BC
330
1F
100
AcDbEntity
  8
TopOverlay
100
AcDbLine
 10
20.4469238
 20
76.11174008
 30
0.0
 11
20.4469238
 21
75.92130612
 31
0.0
  0
LINE
  5
BD
330
1F
100
AcDbEntity
  8
TopOverlay
100
AcDbLine
 10
20.4469238
 20
75.92130612
 30
0.0
 11
20.54214078
 21
75.63565264
 31
0.0
  0
LINE
  5
BE
330
1F
100
AcDbEntity
  8
TopOverlay
100
AcDbLine
 10
20.54214078
 20
75.63565264
 30
0.0
 11
20.73257728
 21
75.44521614
 31
0.0
  0
LINE
  5
BF
330
1F
100
AcDbEntity
  8
TopOverlay
100
AcDbLine
 10
20.73257728
 20
75.44521614
 30
0.0
 11
20.92301378
 21
75.34999916
 31
0.0
  0
LINE
  5
C0
330
1F
100
AcDbEntity
  8
TopOverlay
100
AcDbLine
 10
20.92301378
 20
75.34999916
 30
0.0
 11
21.20866472
 21
75.34999916
 31
0.0
  0
LINE
  5
C1
330
1F
100
AcDbEntity
  8
TopOverlay
100
AcDbLine
 10
21.20866472
 20
75.34999916
 30
0.0
 11
21.39910122
 21
75.44521614
 31
0.0
  0
LINE
  5
C2
330
1F
100
AcDbEntity
  8
TopOverlay
100
AcDbLine
 10
21.39910122
 20
75.44521614
 30
0.0
 11
21.58953772
 21
75.63565264
 31
0.0
  0
LINE
  5
C3
330
1F
100
AcDbEntity
  8
TopOverlay
100
AcDbLine
 10
23.26536876
 20
76.68304704
 30
0.0
 11
23.26536876
 21
75.15956266
 31
0.0
  0
LINE
  5
C4
330
1F
100
AcDbEntity
  8
TopOverlay
100
AcDbLine
 10
23.26536876
 20
75.15956266
 30
0.0
 11
23.17014924
 21
74.87390917999998
 31
0.0
  0
LINE
  5
C5
330
1F
100
AcDbEntity
  8
TopOverlay
100
AcDbLine
 10
23.17014924
 20
74.87390917999998
 30
0.0
 11
23.07493226
 21
74.7786922
 31
0.0
  0
LINE
  5
C6
330
1F
100
AcDbEntity
  8
TopOverlay
100
AcDbLine
 10
23.07493226
 20
74.7786922
 30
0.0
 11
22.88449576
 21
74.68347522
 31
0.0
  0
LINE
  5
C7
330
1F
100
AcDbEntity
  8
TopOverlay
100
AcDbLine
 10
22.88449576
 20
74.68347522
 30
0.0
 11
22.59884482
 21
74.68347522
 31
0.0
  0
LINE
  5
C8
330
1F
100
AcDbEntity
  8
TopOverlay
100
AcDbLine
 10
22.59884482
 20
74.68347522
 30
0.0
 11
22.40840832
 21
74.7786922
 31
0.0
  0
LINE
  5
C9
330
1F
100
AcDbEntity
  8
TopOverlay
100
AcDbLine
 10
23.26536876
 20
76.39739356
 30
0.0
 11
23.07493226
 21
76.58783006
 31
0.0
  0
LINE
  5
CA
330
1F
100
AcDbEntity
  8
TopOverlay
100
AcDbLine
 10
23.07493226
 20
76.58783006
 30
0.0
 11
22.88449576
 21
76.68304704
 31
0.0
  0
LINE
  5
CB
330
1F
100
AcDbEntity
  8
TopOverlay
100
AcDbLine
 10
22.88449576
 20
76.68304704
 30
0.0
 11
22.59884482
 21
76.68304704
 31
0.0
  0
LINE
  5
CC
330
1F
100
AcDbEntity
  8
TopOverlay
100
AcDbLine
 10
22.59884482
 20
76.68304704
 30
0.0
 11
22.40840832
 21
76.58783006
 31
0.0
  0
LINE
  5
CD
330
1F
100
AcDbEntity
  8
TopOverlay
100
AcDbLine
 10
22.40840832
 20
76.58783006
 30
0.0
 11
22.21797182
 21
76.39739356
 31
0.0
  0
LINE
  5
CE
330
1F
100
AcDbEntity
  8
TopOverlay
100
AcDbLine
 10
22.21797182
 20
76.39739356
 30
0.0
 11
22.12275484
 21
76.11174008
 31
0.0
  0
LINE
  5
CF
330
1F
100
AcDbEntity
  8
TopOverlay
100
AcDbLine
 10
22.12275484
 20
76.11174008
 30
0.0
 11
22.12275484
 21
75.92130612
 31
0.0
  0
LINE
  5
D0
330
1F
100
AcDbEntity
  8
TopOverlay
100
AcDbLine
 10
22.12275484
 20
75.92130612
 30
0.0
 11
22.21797182
 21
75.63565264
 31
0.0
  0
LINE
  5
D1
330
1F
100
AcDbEntity
  8
TopOverlay
100
AcDbLine
 10
22.21797182
 20
75.63565264
 30
0.0
 11
22.40840832
 21
75.44521614
 31
0.0
  0
LINE
  5
D2
330
1F
100
AcDbEntity
  8
TopOverlay
100
AcDbLine
 10
22.40840832
 20
75.44521614
 30
0.0
 11
22.59884482
 21
75.34999916
 31
0.0
  0
LINE
  5
D3
330
1F
100
AcDbEntity
  8
TopOverlay
100
AcDbLine
 10
22.59884482
 20
75.34999916
 30
0.0
 11
22.88449576
 21
75.34999916
 31
0.0
  0
LINE
  5
D4
330
1F
100
AcDbEntity
  8
TopOverlay
100
AcDbLine
 10
22.88449576
 20
75.34999916
 30
0.0
 11
23.07493226
 21
75.44521614
 31
0.0
  0
LINE
  5
D5
330
1F
100
AcDbEntity
  8
TopOverlay
100
AcDbLine
 10
23.07493226
 20
75.44521614
 30
0.0
 11
23.26536876
 21
75.63565264
 31
0.0
  0
LINE
  5
D6
330
1F
100
AcDbEntity
  8
TopOverlay
100
AcDbLine
 10
20.45000228
 20
88.14957224
 30
0.0
 11
20.45000228
 21
86.15000042
 31
0.0
  0
LINE
  5
D7
330
1F
100
AcDbEntity
  8
TopOverlay
100
AcDbLine
 10
20.45000228
 20
86.15000042
 30
0.0
 11
21.5926162
 21
86.15000042
 31
0.0
  0
LINE
  5
D8
330
1F
100
AcDbEntity
  8
TopOverlay
100
AcDbLine
 10
21.811615
 20
87.10217784
 30
0.0
 11
22.66857544
 21
87.10217784
 31
0.0
  0
LINE
  5
D9
330
1F
100
AcDbEntity
  8
TopOverlay
100
AcDbLine
 10
22.66857544
 20
87.10217784
 30
0.0
 11
22.95422892
 21
87.19739482
 31
0.0
  0
LINE
  5
DA
330
1F
100
AcDbEntity
  8
TopOverlay
100
AcDbLine
 10
22.95422892
 20
87.19739482
 30
0.0
 11
23.0494459
 21
87.29261434
 31
0.0
  0
LINE
  5
DB
330
1F
100
AcDbEntity
  8
TopOverlay
100
AcDbLine
 10
23.0494459
 20
87.29261434
 30
0.0
 11
23.14466288
 21
87.4830483
 31
0.0
  0
LINE
  5
DC
330
1F
100
AcDbEntity
  8
TopOverlay
100
AcDbLine
 10
23.14466288
 20
87.4830483
 30
0.0
 11
23.14466288
 21
87.76870178
 31
0.0
  0
LINE
  5
DD
330
1F
100
AcDbEntity
  8
TopOverlay
100
AcDbLine
 10
23.14466288
 20
87.76870178
 30
0.0
 11
23.0494459
 21
87.95913827999999
 31
0.0
  0
LINE
  5
DE
330
1F
100
AcDbEntity
  8
TopOverlay
100
AcDbLine
 10
23.0494459
 20
87.95913827999999
 30
0.0
 11
22.95422892
 21
88.05435526
 31
0.0
  0
LINE
  5
DF
330
1F
100
AcDbEntity
  8
TopOverlay
100
AcDbLine
 10
22.95422892
 20
88.05435526
 30
0.0
 11
22.66857544
 21
88.14957224
 31
0.0
  0
LINE
  5
E0
330
1F
100
AcDbEntity
  8
TopOverlay
100
AcDbLine
 10
22.66857544
 20
88.14957224
 30
0.0
 11
21.811615
 21
88.14957224
 31
0.0
  0
LINE
  5
E1
330
1F
100
AcDbEntity
  8
TopOverlay
100
AcDbLine
 10
21.811615
 20
88.14957224
 30
0.0
 11
21.811615
 21
86.15000042
 31
0.0
  0
LINE
  5
E2
330
1F
100
AcDbEntity
  8
TopOverlay
100
AcDbLine
 10
5.60534058
 20
88.14957224
 30
0.0
 11
5.60534058
 21
86.15000042
 31
0.0
  0
LINE
  5
E3
330
1F
100
AcDbEntity
  8
TopOverlay
100
AcDbLine
 10
5.60534058
 20
86.15000042
 30
0.0
 11
6.7479545
 21
86.15000042
 31
0.0
  0
LINE
  5
E4
330
1F
100
AcDbEntity
  8
TopOverlay
100
AcDbLine
 10
6.9669533
 20
87.10217784
 30
0.0
 11
7.82391374
 21
87.10217784
 31
0.0
  0
LINE
  5
E5
330
1F
100
AcDbEntity
  8
TopOverlay
100
AcDbLine
 10
7.82391374
 20
87.10217784
 30
0.0
 11
8.10956722
 21
87.19739482
 31
0.0
  0
LINE
  5
E6
330
1F
100
AcDbEntity
  8
TopOverlay
100
AcDbLine
 10
8.10956722
 20
87.19739482
 30
0.0
 11
8.204784199999999
 21
87.29261434
 31
0.0
  0
LINE
  5
E7
330
1F
100
AcDbEntity
  8
TopOverlay
100
AcDbLine
 10
8.204784199999999
 20
87.29261434
 30
0.0
 11
8.300001179999999
 21
87.4830483
 31
0.0
  0
LINE
  5
E8
330
1F
100
AcDbEntity
  8
TopOverlay
100
AcDbLine
 10
8.300001179999999
 20
87.4830483
 30
0.0
 11
8.300001179999999
 21
87.76870178
 31
0.0
  0
LINE
  5
E9
330
1F
100
AcDbEntity
  8
TopOverlay
100
AcDbLine
 10
8.300001179999999
 20
87.76870178
 30
0.0
 11
8.204784199999999
 21
87.95913827999999
 31
0.0
  0
LINE
  5
EA
330
1F
100
AcDbEntity
  8
TopOverlay
100
AcDbLine
 10
8.204784199999999
 20
87.95913827999999
 30
0.0
 11
8.10956722
 21
88.05435526
 31
0.0
  0
LINE
  5
EB
330
1F
100
AcDbEntity
  8
TopOverlay
100
AcDbLine
 10
8.10956722
 20
88.05435526
 30
0.0
 11
7.82391374
 21
88.14957224
 31
0.0
  0
LINE
  5
EC
330
1F
100
AcDbEntity
  8
TopOverlay
100
AcDbLine
 10
7.82391374
 20
88.14957224
 30
0.0
 11
6.9669533
 21
88.14957224
 31
0.0
  0
LINE
  5
ED
330
1F
100
AcDbEntity
  8
TopOverlay
100
AcDbLine
 10
6.9669533
 20
88.14957224
 30
0.0
 11
6.9669533
 21
86.15000042
 31
0.0
  0
LINE
  5
EE
330
1F
100
AcDbEntity
  8
TopOverlay
100
AcDbLine
 10
20.45000228
 20
98.78783138
 30
0.0
 11
20.45000228
 21
97.55000048
 31
0.0
  0
LINE
  5
EF
330
1F
100
AcDbEntity
  8
TopOverlay
100
AcDbLine
 10
20.45000228
 20
97.55000048
 30
0.0
 11
22.4495741
 21
97.55000048
 31
0.0
  0
LINE
  5
F0
330
1F
100
AcDbEntity
  8
TopOverlay
100
AcDbLine
 10
22.4495741
 20
97.55000048
 30
0.0
 11
22.4495741
 21
98.78783138
 31
0.0
  0
LINE
  5
F1
330
1F
100
AcDbEntity
  8
TopOverlay
100
AcDbLine
 10
21.4021797
 20
97.55000048
 30
0.0
 11
21.4021797
 21
98.31174139999999
 31
0.0
  0
LINE
  5
F2
330
1F
100
AcDbEntity
  8
TopOverlay
100
AcDbLine
 10
21.11652622
 20
99.12109208
 30
0.0
 11
22.4495741
 21
100.16848648
 31
0.0
  0
LINE
  5
F3
330
1F
100
AcDbEntity
  8
TopOverlay
100
AcDbLine
 10
21.11652622
 20
100.16848648
 30
0.0
 11
22.4495741
 21
99.12109208
 31
0.0
  0
LINE
  5
F4
330
1F
100
AcDbEntity
  8
TopOverlay
100
AcDbLine
 10
20.45000228
 20
100.87309772
 30
0.0
 11
22.06870364
 21
100.87309772
 31
0.0
  0
LINE
  5
F5
330
1F
100
AcDbEntity
  8
TopOverlay
100
AcDbLine
 10
22.06870364
 20
100.87309772
 30
0.0
 11
22.35435712
 21
100.9683147
 31
0.0
  0
LINE
  5
F6
330
1F
100
AcDbEntity
  8
TopOverlay
100
AcDbLine
 10
22.35435712
 20
100.9683147
 30
0.0
 11
22.4495741
 21
101.1587512
 31
0.0
  0
LINE
  5
F7
330
1F
100
AcDbEntity
  8
TopOverlay
100
AcDbLine
 10
22.4495741
 20
101.1587512
 30
0.0
 11
22.4495741
 21
101.34918516
 31
0.0
  0
LINE
  5
F8
330
1F
100
AcDbEntity
  8
TopOverlay
100
AcDbLine
 10
21.11652622
 20
100.58744424
 30
0.0
 11
21.11652622
 21
101.25396818
 31
0.0
  0
LINE
  5
F9
330
1F
100
AcDbEntity
  8
TopOverlay
100
AcDbLine
 10
21.68783318
 20
101.63483864
 30
0.0
 11
21.68783318
 21
102.77745256
 31
0.0
  0
LINE
  5
FA
330
1F
100
AcDbEntity
  8
TopOverlay
100
AcDbLine
 10
21.68783318
 20
102.77745256
 30
0.0
 11
21.49739668
 21
102.77745256
 31
0.0
  0
LINE
  5
FB
330
1F
100
AcDbEntity
  8
TopOverlay
100
AcDbLine
 10
21.49739668
 20
102.77745256
 30
0.0
 11
21.30696018
 21
102.68223304
 31
0.0
  0
LINE
  5
FC
330
1F
100
AcDbEntity
  8
TopOverlay
100
AcDbLine
 10
21.30696018
 20
102.68223304
 30
0.0
 11
21.2117432
 21
102.58701606
 31
0.0
  0
LINE
  5
FD
330
1F
100
AcDbEntity
  8
TopOverlay
100
AcDbLine
 10
21.2117432
 20
102.58701606
 30
0.0
 11
21.11652622
 21
102.39657956
 31
0.0
  0
LINE
  5
FE
330
1F
100
AcDbEntity
  8
TopOverlay
100
AcDbLine
 10
21.11652622
 20
102.39657956
 30
0.0
 11
21.11652622
 21
102.11092862
 31
0.0
  0
LINE
  5
FF
330
1F
100
AcDbEntity
  8
TopOverlay
100
AcDbLine
 10
21.11652622
 20
102.11092862
 30
0.0
 11
21.2117432
 21
101.92049212
 31
0.0
  0
LINE
  5
100
330
1F
100
AcDbEntity
  8
TopOverlay
100
AcDbLine
 10
21.2117432
 20
101.92049212
 30
0.0
 11
21.4021797
 21
101.73005562
 31
0.0
  0
LINE
  5
101
330
1F
100
AcDbEntity
  8
TopOverlay
100
AcDbLine
 10
21.4021797
 20
101.73005562
 30
0.0
 11
21.68783318
 21
101.63483864
 31
0.0
  0
LINE
  5
102
330
1F
100
AcDbEntity
  8
TopOverlay
100
AcDbLine
 10
21.68783318
 20
101.63483864
 30
0.0
 11
21.87826714
 21
101.63483864
 31
0.0
  0
LINE
  5
103
330
1F
100
AcDbEntity
  8
TopOverlay
100
AcDbLine
 10
21.87826714
 20
101.63483864
 30
0.0
 11
22.16392062
 21
101.73005562
 31
0.0
  0
LINE
  5
104
330
1F
100
AcDbEntity
  8
TopOverlay
100
AcDbLine
 10
22.16392062
 20
101.73005562
 30
0.0
 11
22.35435712
 21
101.92049212
 31
0.0
  0
LINE
  5
105
330
1F
100
AcDbEntity
  8
TopOverlay
100
AcDbLine
 10
22.35435712
 20
101.92049212
 30
0.0
 11
22.4495741
 21
102.11092862
 31
0.0
  0
LINE
  5
106
330
1F
100
AcDbEntity
  8
TopOverlay
100
AcDbLine
 10
22.4495741
 20
102.11092862
 30
0.0
 11
22.4495741
 21
102.39657956
 31
0.0
  0
LINE
  5
107
330
1F
100
AcDbEntity
  8
TopOverlay
100
AcDbLine
 10
22.4495741
 20
102.39657956
 30
0.0
 11
22.35435712
 21
102.58701606
 31
0.0
  0
LINE
  5
108
330
1F
100
AcDbEntity
  8
TopOverlay
100
AcDbLine
 10
22.35435712
 20
102.58701606
 30
0.0
 11
22.16392062
 21
102.77745256
 31
0.0
  0
LINE
  5
109
330
1F
100
AcDbEntity
  8
TopOverlay
100
AcDbLine
 10
21.11652622
 20
103.20593024
 30
0.0
 11
22.4495741
 21
103.20593024
 31
0.0
  0
LINE
  5
10A
330
1F
100
AcDbEntity
  8
TopOverlay
100
AcDbLine
 10
21.49739668
 20
103.20593024
 30
0.0
 11
21.2117432
 21
103.49158372
 31
0.0
  0
LINE
  5
10B
330
1F
100
AcDbEntity
  8
TopOverlay
100
AcDbLine
 10
21.2117432
 20
103.49158372
 30
0.0
 11
21.11652622
 21
103.68202022
 31
0.0
  0
LINE
  5
10C
330
1F
100
AcDbEntity
  8
TopOverlay
100
AcDbLine
 10
21.11652622
 20
103.68202022
 30
0.0
 11
21.11652622
 21
103.96767116
 31
0.0
  0
LINE
  5
10D
330
1F
100
AcDbEntity
  8
TopOverlay
100
AcDbLine
 10
21.11652622
 20
103.96767116
 30
0.0
 11
21.2117432
 21
104.15810766
 31
0.0
  0
LINE
  5
10E
330
1F
100
AcDbEntity
  8
TopOverlay
100
AcDbLine
 10
21.2117432
 20
104.15810766
 30
0.0
 11
21.49739668
 21
104.25332464
 31
0.0
  0
LINE
  5
10F
330
1F
100
AcDbEntity
  8
TopOverlay
100
AcDbLine
 10
21.49739668
 20
104.25332464
 30
0.0
 11
22.4495741
 21
104.25332464
 31
0.0
  0
LINE
  5
110
330
1F
100
AcDbEntity
  8
TopOverlay
100
AcDbLine
 10
20.45000228
 20
105.91963576
 30
0.0
 11
22.4495741
 21
105.91963576
 31
0.0
  0
LINE
  5
111
330
1F
100
AcDbEntity
  8
TopOverlay
100
AcDbLine
 10
21.4021797
 20
105.91963576
 30
0.0
 11
21.2117432
 21
105.72919926
 31
0.0
  0
LINE
  5
112
330
1F
100
AcDbEntity
  8
TopOverlay
100
AcDbLine
 10
21.2117432
 20
105.72919926
 30
0.0
 11
21.11652622
 21
105.53876276
 31
0.0
  0
LINE
  5
113
330
1F
100
AcDbEntity
  8
TopOverlay
100
AcDbLine
 10
21.11652622
 20
105.53876276
 30
0.0
 11
21.11652622
 21
105.25311182
 31
0.0
  0
LINE
  5
114
330
1F
100
AcDbEntity
  8
TopOverlay
100
AcDbLine
 10
21.11652622
 20
105.25311182
 30
0.0
 11
21.2117432
 21
105.06267532
 31
0.0
  0
LINE
  5
115
330
1F
100
AcDbEntity
  8
TopOverlay
100
AcDbLine
 10
21.2117432
 20
105.06267532
 30
0.0
 11
21.4021797
 21
104.87223882
 31
0.0
  0
LINE
  5
116
330
1F
100
AcDbEntity
  8
TopOverlay
100
AcDbLine
 10
21.4021797
 20
104.87223882
 30
0.0
 11
21.68783318
 21
104.77702184
 31
0.0
  0
LINE
  5
117
330
1F
100
AcDbEntity
  8
TopOverlay
100
AcDbLine
 10
21.68783318
 20
104.77702184
 30
0.0
 11
21.87826714
 21
104.77702184
 31
0.0
  0
LINE
  5
118
330
1F
100
AcDbEntity
  8
TopOverlay
100
AcDbLine
 10
21.87826714
 20
104.77702184
 30
0.0
 11
22.16392062
 21
104.87223882
 31
0.0
  0
LINE
  5
119
330
1F
100
AcDbEntity
  8
TopOverlay
100
AcDbLine
 10
22.16392062
 20
104.87223882
 30
0.0
 11
22.35435712
 21
105.06267532
 31
0.0
  0
LINE
  5
11A
330
1F
100
AcDbEntity
  8
TopOverlay
100
AcDbLine
 10
22.35435712
 20
105.06267532
 30
0.0
 11
22.4495741
 21
105.25311182
 31
0.0
  0
LINE
  5
11B
330
1F
100
AcDbEntity
  8
TopOverlay
100
AcDbLine
 10
22.4495741
 20
105.25311182
 30
0.0
 11
22.4495741
 21
105.53876276
 31
0.0
  0
LINE
  5
11C
330
1F
100
AcDbEntity
  8
TopOverlay
100
AcDbLine
 10
22.4495741
 20
105.53876276
 30
0.0
 11
22.35435712
 21
105.72919926
 31
0.0
  0
LINE
  5
11D
330
1F
100
AcDbEntity
  8
TopOverlay
100
AcDbLine
 10
22.35435712
 20
105.72919926
 30
0.0
 11
22.16392062
 21
105.91963576
 31
0.0
  0
LINE
  5
11E
330
1F
100
AcDbEntity
  8
TopOverlay
100
AcDbLine
 10
6.30042936
 20
97.55000048
 30
0.0
 11
8.300001179999999
 21
97.55000048
 31
0.0
  0
LINE
  5
11F
330
1F
100
AcDbEntity
  8
TopOverlay
100
AcDbLine
 10
8.300001179999999
 20
97.55000048
 30
0.0
 11
8.300001179999999
 21
98.6926144
 31
0.0
  0
LINE
  5
120
330
1F
100
AcDbEntity
  8
TopOverlay
100
AcDbLine
 10
6.30042936
 20
99.1020497
 30
0.0
 11
6.39564634
 21
99.19726668
 31
0.0
  0
LINE
  5
121
330
1F
100
AcDbEntity
  8
TopOverlay
100
AcDbLine
 10
6.39564634
 20
99.19726668
 30
0.0
 11
6.30042936
 21
99.29248366
 31
0.0
  0
LINE
  5
122
330
1F
100
AcDbEntity
  8
TopOverlay
100
AcDbLine
 10
6.30042936
 20
99.29248366
 30
0.0
 11
6.20520984
 21
99.19726668
 31
0.0
  0
LINE
  5
123
330
1F
100
AcDbEntity
  8
TopOverlay
100
AcDbLine
 10
6.20520984
 20
99.19726668
 30
0.0
 11
6.30042936
 21
99.1020497
 31
0.0
  0
LINE
  5
124
330
1F
100
AcDbEntity
  8
TopOverlay
100
AcDbLine
 10
6.9669533
 20
99.19726668
 30
0.0
 11
8.300001179999999
 21
99.19726668
 31
0.0
  0
LINE
  5
125
330
1F
100
AcDbEntity
  8
TopOverlay
100
AcDbLine
 10
6.9669533
 20
99.64478927999998
 30
0.0
 11
8.300001179999999
 21
99.64478927999998
 31
0.0
  0
LINE
  5
126
330
1F
100
AcDbEntity
  8
TopOverlay
100
AcDbLine
 10
7.34782376
 20
99.64478927999998
 30
0.0
 11
7.06217028
 21
99.93044275999999
 31
0.0
  0
LINE
  5
127
330
1F
100
AcDbEntity
  8
TopOverlay
100
AcDbLine
 10
7.06217028
 20
99.93044275999999
 30
0.0
 11
6.9669533
 21
100.12087926
 31
0.0
  0
LINE
  5
128
330
1F
100
AcDbEntity
  8
TopOverlay
100
AcDbLine
 10
6.9669533
 20
100.12087926
 30
0.0
 11
6.9669533
 21
100.4065302
 31
0.0
  0
LINE
  5
129
330
1F
100
AcDbEntity
  8
TopOverlay
100
AcDbLine
 10
6.9669533
 20
100.4065302
 30
0.0
 11
7.06217028
 21
100.5969667
 31
0.0
  0
LINE
  5
12A
330
1F
100
AcDbEntity
  8
TopOverlay
100
AcDbLine
 10
7.06217028
 20
100.5969667
 30
0.0
 11
7.34782376
 21
100.69218368
 31
0.0
  0
LINE
  5
12B
330
1F
100
AcDbEntity
  8
TopOverlay
100
AcDbLine
 10
7.34782376
 20
100.69218368
 30
0.0
 11
8.300001179999999
 21
100.69218368
 31
0.0
  0
LINE
  5
12C
330
1F
100
AcDbEntity
  8
TopOverlay
100
AcDbLine
 10
7.34782376
 20
100.69218368
 30
0.0
 11
7.06217028
 21
100.97783716
 31
0.0
  0
LINE
  5
12D
330
1F
100
AcDbEntity
  8
TopOverlay
100
AcDbLine
 10
7.06217028
 20
100.97783716
 30
0.0
 11
6.9669533
 21
101.16827366
 31
0.0
  0
LINE
  5
12E
330
1F
100
AcDbEntity
  8
TopOverlay
100
AcDbLine
 10
6.9669533
 20
101.16827366
 30
0.0
 11
6.9669533
 21
101.45392714
 31
0.0
  0
LINE
  5
12F
330
1F
100
AcDbEntity
  8
TopOverlay
100
AcDbLine
 10
6.9669533
 20
101.45392714
 30
0.0
 11
7.06217028
 21
101.6443611
 31
0.0
  0
LINE
  5
130
330
1F
100
AcDbEntity
  8
TopOverlay
100
AcDbLine
 10
7.06217028
 20
101.6443611
 30
0.0
 11
7.34782376
 21
101.73958062
 31
0.0
  0
LINE
  5
131
330
1F
100
AcDbEntity
  8
TopOverlay
100
AcDbLine
 10
7.34782376
 20
101.73958062
 30
0.0
 11
8.300001179999999
 21
101.73958062
 31
0.0
  0
LINE
  5
132
330
1F
100
AcDbEntity
  8
TopOverlay
100
AcDbLine
 10
6.30042936
 20
102.55845376
 30
0.0
 11
6.39564634
 21
102.65367074
 31
0.0
  0
LINE
  5
133
330
1F
100
AcDbEntity
  8
TopOverlay
100
AcDbLine
 10
6.39564634
 20
102.65367074
 30
0.0
 11
6.30042936
 21
102.74888772
 31
0.0
  0
LINE
  5
134
330
1F
100
AcDbEntity
  8
TopOverlay
100
AcDbLine
 10
6.30042936
 20
102.74888772
 30
0.0
 11
6.20520984
 21
102.65367074
 31
0.0
  0
LINE
  5
135
330
1F
100
AcDbEntity
  8
TopOverlay
100
AcDbLine
 10
6.20520984
 20
102.65367074
 30
0.0
 11
6.30042936
 21
102.55845376
 31
0.0
  0
LINE
  5
136
330
1F
100
AcDbEntity
  8
TopOverlay
100
AcDbLine
 10
6.9669533
 20
102.65367074
 30
0.0
 11
8.300001179999999
 21
102.65367074
 31
0.0
  0
LINE
  5
137
330
1F
100
AcDbEntity
  8
TopOverlay
100
AcDbLine
 10
6.30042936
 20
103.38684682
 30
0.0
 11
7.91913072
 21
103.38684682
 31
0.0
  0
LINE
  5
138
330
1F
100
AcDbEntity
  8
TopOverlay
100
AcDbLine
 10
7.91913072
 20
103.38684682
 30
0.0
 11
8.204784199999999
 21
103.4820638
 31
0.0
  0
LINE
  5
139
330
1F
100
AcDbEntity
  8
TopOverlay
100
AcDbLine
 10
8.204784199999999
 20
103.4820638
 30
0.0
 11
8.300001179999999
 21
103.6725003
 31
0.0
  0
LINE
  5
13A
330
1F
100
AcDbEntity
  8
TopOverlay
100
AcDbLine
 10
8.300001179999999
 20
103.6725003
 30
0.0
 11
8.300001179999999
 21
103.86293426
 31
0.0
  0
LINE
  5
13B
330
1F
100
AcDbEntity
  8
TopOverlay
100
AcDbLine
 10
6.9669533
 20
103.10119334
 30
0.0
 11
6.9669533
 21
103.76771728
 31
0.0
  0
LINE
  5
13C
330
1F
100
AcDbEntity
  8
TopOverlay
100
AcDbLine
 10
6.54799554
 20
114.94957198
 30
0.0
 11
6.54799554
 21
112.95000016
 31
0.0
  0
LINE
  5
13D
330
1F
100
AcDbEntity
  8
TopOverlay
100
AcDbLine
 10
6.9669533
 20
114.94957198
 30
0.0
 11
6.9669533
 21
112.95000016
 31
0.0
  0
LINE
  5
13E
330
1F
100
AcDbEntity
  8
TopOverlay
100
AcDbLine
 10
6.9669533
 20
114.94957198
 30
0.0
 11
8.300001179999999
 21
112.95000016
 31
0.0
  0
LINE
  5
13F
330
1F
100
AcDbEntity
  8
TopOverlay
100
AcDbLine
 10
8.300001179999999
 20
114.94957198
 30
0.0
 11
8.300001179999999
 21
112.95000016
 31
0.0
  0
LINE
  5
140
330
1F
100
AcDbEntity
  8
TopOverlay
100
AcDbLine
 10
15.61652706
 20
127.29957268
 30
0.0
 11
15.61652706
 21
125.30000086
 31
0.0
  0
LINE
  5
141
330
1F
100
AcDbEntity
  8
TopOverlay
100
AcDbLine
 10
14.95000312
 20
127.29957268
 30
0.0
 11
16.283051
 21
127.29957268
 31
0.0
  0
LINE
  5
142
330
1F
100
AcDbEntity
  8
TopOverlay
100
AcDbLine
 10
16.52109472
 20
127.29957268
 30
0.0
 11
16.52109472
 21
125.30000086
 31
0.0
  0
LINE
  5
143
330
1F
100
AcDbEntity
  8
TopOverlay
100
AcDbLine
 10
17.8541426
 20
127.29957268
 30
0.0
 11
16.52109472
 21
125.9665248
 31
0.0
  0
LINE
  5
144
330
1F
100
AcDbEntity
  8
TopOverlay
100
AcDbLine
 10
16.9971847
 20
126.44261478
 30
0.0
 11
17.8541426
 21
125.30000086
 31
0.0
  0
LINE
  5
145
330
1F
100
AcDbEntity
  8
TopOverlay
100
AcDbLine
 10
18.30166774
 20
126.91870222
 30
0.0
 11
18.49210424
 21
127.0139192
 31
0.0
  0
LINE
  5
146
330
1F
100
AcDbEntity
  8
TopOverlay
100
AcDbLine
 10
18.49210424
 20
127.0139192
 30
0.0
 11
18.77775772
 21
127.29957268
 31
0.0
  0
LINE
  5
147
330
1F
100
AcDbEntity
  8
TopOverlay
100
AcDbLine
 10
18.77775772
 20
127.29957268
 30
0.0
 11
18.77775772
 21
125.30000086
 31
0.0
  0
LINE
  5
148
330
1F
100
AcDbEntity
  8
TopOverlay
100
AcDbLine
 10
20.33932686
 20
127.29957268
 30
0.0
 11
20.05367338
 21
127.2043557
 31
0.0
  0
LINE
  5
149
330
1F
100
AcDbEntity
  8
TopOverlay
100
AcDbLine
 10
20.05367338
 20
127.2043557
 30
0.0
 11
19.86323688
 21
126.91870222
 31
0.0
  0
LINE
  5
14A
330
1F
100
AcDbEntity
  8
TopOverlay
100
AcDbLine
 10
19.86323688
 20
126.91870222
 30
0.0
 11
19.7680199
 21
126.44261478
 31
0.0
  0
LINE
  5
14B
330
1F
100
AcDbEntity
  8
TopOverlay
100
AcDbLine
 10
19.7680199
 20
126.44261478
 30
0.0
 11
19.7680199
 21
126.1569613
 31
0.0
  0
LINE
  5
14C
330
1F
100
AcDbEntity
  8
TopOverlay
100
AcDbLine
 10
19.7680199
 20
126.1569613
 30
0.0
 11
19.86323688
 21
125.68087132
 31
0.0
  0
LINE
  5
14D
330
1F
100
AcDbEntity
  8
TopOverlay
100
AcDbLine
 10
19.86323688
 20
125.68087132
 30
0.0
 11
20.05367338
 21
125.39521784
 31
0.0
  0
LINE
  5
14E
330
1F
100
AcDbEntity
  8
TopOverlay
100
AcDbLine
 10
20.05367338
 20
125.39521784
 30
0.0
 11
20.33932686
 21
125.30000086
 31
0.0
  0
LINE
  5
14F
330
1F
100
AcDbEntity
  8
TopOverlay
100
AcDbLine
 10
20.33932686
 20
125.30000086
 30
0.0
 11
20.52976082
 21
125.30000086
 31
0.0
  0
LINE
  5
150
330
1F
100
AcDbEntity
  8
TopOverlay
100
AcDbLine
 10
20.52976082
 20
125.30000086
 30
0.0
 11
20.8154143
 21
125.39521784
 31
0.0
  0
LINE
  5
151
330
1F
100
AcDbEntity
  8
TopOverlay
100
AcDbLine
 10
20.8154143
 20
125.39521784
 30
0.0
 11
21.0058508
 21
125.68087132
 31
0.0
  0
LINE
  5
152
330
1F
100
AcDbEntity
  8
TopOverlay
100
AcDbLine
 10
21.0058508
 20
125.68087132
 30
0.0
 11
21.10106778
 21
126.1569613
 31
0.0
  0
LINE
  5
153
330
1F
100
AcDbEntity
  8
TopOverlay
100
AcDbLine
 10
21.10106778
 20
126.1569613
 30
0.0
 11
21.10106778
 21
126.44261478
 31
0.0
  0
LINE
  5
154
330
1F
100
AcDbEntity
  8
TopOverlay
100
AcDbLine
 10
21.10106778
 20
126.44261478
 30
0.0
 11
21.0058508
 21
126.91870222
 31
0.0
  0
LINE
  5
155
330
1F
100
AcDbEntity
  8
TopOverlay
100
AcDbLine
 10
21.0058508
 20
126.91870222
 30
0.0
 11
20.8154143
 21
127.2043557
 31
0.0
  0
LINE
  5
156
330
1F
100
AcDbEntity
  8
TopOverlay
100
AcDbLine
 10
20.8154143
 20
127.2043557
 30
0.0
 11
20.52976082
 21
127.29957268
 31
0.0
  0
LINE
  5
157
330
1F
100
AcDbEntity
  8
TopOverlay
100
AcDbLine
 10
20.52976082
 20
127.29957268
 30
0.0
 11
20.33932686
 21
127.29957268
 31
0.0
  0
LINE
  5
158
330
1F
100
AcDbEntity
  8
TopOverlay
100
AcDbLine
 10
22.50077034
 20
127.29957268
 30
0.0
 11
21.54859292
 21
125.9665248
 31
0.0
  0
LINE
  5
159
330
1F
100
AcDbEntity
  8
TopOverlay
100
AcDbLine
 10
21.54859292
 20
125.9665248
 30
0.0
 11
22.97686032
 21
125.9665248
 31
0.0
  0
LINE
  5
15A
330
1F
100
AcDbEntity
  8
TopOverlay
100
AcDbLine
 10
22.50077034
 20
127.29957268
 30
0.0
 11
22.50077034
 21
125.30000086
 31
0.0
  0
LINE
  5
15B
330
1F
100
AcDbEntity
  8
TopOverlay
100
AcDbLine
 10
5.4500018
 20
123.0491443
 30
0.0
 11
5.4500018
 21
120.19261204
 31
0.0
  0
LINE
  5
15C
330
1F
100
AcDbEntity
  8
TopOverlay
100
AcDbLine
 10
5.4500018
 20
120.19261204
 30
0.0
 11
5.6404383
 21
119.62130762
 31
0.0
  0
LINE
  5
15D
330
1F
100
AcDbEntity
  8
TopOverlay
100
AcDbLine
 10
5.6404383
 20
119.62130762
 30
0.0
 11
6.02130876
 21
119.24043716
 31
0.0
  0
LINE
  5
15E
330
1F
100
AcDbEntity
  8
TopOverlay
100
AcDbLine
 10
6.02130876
 20
119.24043716
 30
0.0
 11
6.59261318
 21
119.05000066
 31
0.0
  0
LINE
  5
15F
330
1F
100
AcDbEntity
  8
TopOverlay
100
AcDbLine
 10
6.59261318
 20
119.05000066
 30
0.0
 11
6.973483639999999
 21
119.05000066
 31
0.0
  0
LINE
  5
160
330
1F
100
AcDbEntity
  8
TopOverlay
100
AcDbLine
 10
6.973483639999999
 20
119.05000066
 30
0.0
 11
7.5447906
 21
119.24043716
 31
0.0
  0
LINE
  5
161
330
1F
100
AcDbEntity
  8
TopOverlay
100
AcDbLine
 10
7.5447906
 20
119.24043716
 30
0.0
 11
7.925661059999999
 21
119.62130762
 31
0.0
  0
LINE
  5
162
330
1F
100
AcDbEntity
  8
TopOverlay
100
AcDbLine
 10
7.925661059999999
 20
119.62130762
 30
0.0
 11
8.11609756
 21
120.19261204
 31
0.0
  0
LINE
  5
163
330
1F
100
AcDbEntity
  8
TopOverlay
100
AcDbLine
 10
8.11609756
 20
120.19261204
 30
0.0
 11
8.11609756
 21
123.0491443
 31
0.0
  0
LINE
  5
164
330
1F
100
AcDbEntity
  8
TopOverlay
100
AcDbLine
 10
9.22062164
 20
121.71609642
 30
0.0
 11
9.22062164
 21
119.05000066
 31
0.0
  0
LINE
  5
165
330
1F
100
AcDbEntity
  8
TopOverlay
100
AcDbLine
 10
9.22062164
 20
120.9543555
 30
0.0
 11
9.791928599999999
 21
121.52565992
 31
0.0
  0
LINE
  5
166
330
1F
100
AcDbEntity
  8
TopOverlay
100
AcDbLine
 10
9.791928599999999
 20
121.52565992
 30
0.0
 11
10.17279906
 21
121.71609642
 31
0.0
  0
LINE
  5
167
330
1F
100
AcDbEntity
  8
TopOverlay
100
AcDbLine
 10
10.17279906
 20
121.71609642
 30
0.0
 11
10.74410348
 21
121.71609642
 31
0.0
  0
LINE
  5
168
330
1F
100
AcDbEntity
  8
TopOverlay
100
AcDbLine
 10
10.74410348
 20
121.71609642
 30
0.0
 11
11.12497648
 21
121.52565992
 31
0.0
  0
LINE
  5
169
330
1F
100
AcDbEntity
  8
TopOverlay
100
AcDbLine
 10
11.12497648
 20
121.52565992
 30
0.0
 11
11.31541044
 21
120.9543555
 31
0.0
  0
LINE
  5
16A
330
1F
100
AcDbEntity
  8
TopOverlay
100
AcDbLine
 10
11.31541044
 20
120.9543555
 30
0.0
 11
11.31541044
 21
119.05000066
 31
0.0
  0
LINE
  5
16B
330
1F
100
AcDbEntity
  8
TopOverlay
100
AcDbLine
 10
13.88628668
 20
123.0491443
 30
0.0
 11
13.50541622
 21
123.0491443
 31
0.0
  0
LINE
  5
16C
330
1F
100
AcDbEntity
  8
TopOverlay
100
AcDbLine
 10
13.50541622
 20
123.0491443
 30
0.0
 11
13.12454576
 21
122.8587078
 31
0.0
  0
LINE
  5
16D
330
1F
100
AcDbEntity
  8
TopOverlay
100
AcDbLine
 10
13.12454576
 20
122.8587078
 30
0.0
 11
12.9341118
 21
122.28740084
 31
0.0
  0
LINE
  5
16E
330
1F
100
AcDbEntity
  8
TopOverlay
100
AcDbLine
 10
12.9341118
 20
122.28740084
 30
0.0
 11
12.9341118
 21
119.05000066
 31
0.0
  0
LINE
  5
16F
330
1F
100
AcDbEntity
  8
TopOverlay
100
AcDbLine
 10
12.36280484
 20
121.71609642
 30
0.0
 11
13.69585272
 21
121.71609642
 31
0.0
  0
LINE
  5
170
330
1F
100
AcDbEntity
  8
TopOverlay
100
AcDbLine
 10
14.45759364
 20
121.71609642
 30
0.0
 11
14.45759364
 21
119.81174158
 31
0.0
  0
LINE
  5
171
330
1F
100
AcDbEntity
  8
TopOverlay
100
AcDbLine
 10
14.45759364
 20
119.81174158
 30
0.0
 11
14.64803014
 21
119.24043716
 31
0.0
  0
LINE
  5
172
330
1F
100
AcDbEntity
  8
TopOverlay
100
AcDbLine
 10
14.64803014
 20
119.24043716
 30
0.0
 11
15.0289006
 21
119.05000066
 31
0.0
  0
LINE
  5
173
330
1F
100
AcDbEntity
  8
TopOverlay
100
AcDbLine
 10
15.0289006
 20
119.05000066
 30
0.0
 11
15.60020502
 21
119.05000066
 31
0.0
  0
LINE
  5
174
330
1F
100
AcDbEntity
  8
TopOverlay
100
AcDbLine
 10
15.60020502
 20
119.05000066
 30
0.0
 11
15.98107548
 21
119.24043716
 31
0.0
  0
LINE
  5
175
330
1F
100
AcDbEntity
  8
TopOverlay
100
AcDbLine
 10
15.98107548
 20
119.24043716
 30
0.0
 11
16.55238244
 21
119.81174158
 31
0.0
  0
LINE
  5
176
330
1F
100
AcDbEntity
  8
TopOverlay
100
AcDbLine
 10
16.55238244
 20
121.71609642
 30
0.0
 11
16.55238244
 21
119.05000066
 31
0.0
  0
LINE
  5
177
330
1F
100
AcDbEntity
  8
TopOverlay
100
AcDbLine
 10
19.88500214
 20
121.14478946
 30
0.0
 11
19.50413168
 21
121.52565992
 31
0.0
  0
LINE
  5
178
330
1F
100
AcDbEntity
  8
TopOverlay
100
AcDbLine
 10
19.50413168
 20
121.52565992
 30
0.0
 11
19.12325868
 21
121.71609642
 31
0.0
  0
LINE
  5
179
330
1F
100
AcDbEntity
  8
TopOverlay
100
AcDbLine
 10
19.12325868
 20
121.71609642
 30
0.0
 11
18.55195426
 21
121.71609642
 31
0.0
  0
LINE
  5
17A
330
1F
100
AcDbEntity
  8
TopOverlay
100
AcDbLine
 10
18.55195426
 20
121.71609642
 30
0.0
 11
18.1710838
 21
121.52565992
 31
0.0
  0
LINE
  5
17B
330
1F
100
AcDbEntity
  8
TopOverlay
100
AcDbLine
 10
18.1710838
 20
121.52565992
 30
0.0
 11
17.79021334
 21
121.14478946
 31
0.0
  0
LINE
  5
17C
330
1F
100
AcDbEntity
  8
TopOverlay
100
AcDbLine
 10
17.79021334
 20
121.14478946
 30
0.0
 11
17.59977684
 21
120.5734825
 31
0.0
  0
LINE
  5
17D
330
1F
100
AcDbEntity
  8
TopOverlay
100
AcDbLine
 10
17.59977684
 20
120.5734825
 30
0.0
 11
17.59977684
 21
120.19261204
 31
0.0
  0
LINE
  5
17E
330
1F
100
AcDbEntity
  8
TopOverlay
100
AcDbLine
 10
17.59977684
 20
120.19261204
 30
0.0
 11
17.79021334
 21
119.62130762
 31
0.0
  0
LINE
  5
17F
330
1F
100
AcDbEntity
  8
TopOverlay
100
AcDbLine
 10
17.79021334
 20
119.62130762
 30
0.0
 11
18.1710838
 21
119.24043716
 31
0.0
  0
LINE
  5
180
330
1F
100
AcDbEntity
  8
TopOverlay
100
AcDbLine
 10
18.1710838
 20
119.24043716
 30
0.0
 11
18.55195426
 21
119.05000066
 31
0.0
  0
LINE
  5
181
330
1F
100
AcDbEntity
  8
TopOverlay
100
AcDbLine
 10
18.55195426
 20
119.05000066
 30
0.0
 11
19.12325868
 21
119.05000066
 31
0.0
  0
LINE
  5
182
330
1F
100
AcDbEntity
  8
TopOverlay
100
AcDbLine
 10
19.12325868
 20
119.05000066
 30
0.0
 11
19.50413168
 21
119.24043716
 31
0.0
  0
LINE
  5
183
330
1F
100
AcDbEntity
  8
TopOverlay
100
AcDbLine
 10
19.50413168
 20
119.24043716
 30
0.0
 11
19.88500214
 21
119.62130762
 31
0.0
  0
LINE
  5
184
330
1F
100
AcDbEntity
  8
TopOverlay
100
AcDbLine
 10
20.74196004
 20
123.0491443
 30
0.0
 11
20.74196004
 21
119.05000066
 31
0.0
  0
LINE
  5
185
330
1F
100
AcDbEntity
  8
TopOverlay
100
AcDbLine
 10
22.64631488
 20
121.71609642
 30
0.0
 11
20.74196004
 21
119.81174158
 31
0.0
  0
LINE
  5
186
330
1F
100
AcDbEntity
  8
TopOverlay
100
AcDbLine
 10
21.50370096
 20
120.5734825
 30
0.0
 11
22.83674884
 21
119.05000066
 31
0.0
  0
INSERT
  5
2A0
330
1F
100
AcDbEntity
  8
0
100
AcDbBlockReference
  2
PTA4543_PANEL_1
 10
14.25000198
 20
41.24999878
 30
0.0
 50
270.0
  0
ENDSEC
  0
SECTION
  2
OBJECTS
  0
DICTIONARY
  5
C
330
0
100
AcDbDictionary
281
     1
  3
ACAD_DETAILVIEWSTYLE
350
2A8
  3
ACAD_GROUP
350
D
  3
ACAD_LAYOUT
350
1A
  3
ACAD_MATERIAL
350
43
  3
ACAD_MLEADERSTYLE
350
6B
  3
ACAD_MLINESTYLE
350
17
  3
ACAD_PLOTSETTINGS
350
19
  3
ACAD_PLOTSTYLENAME
350
E
  3
ACAD_SCALELIST
350
47
  3
ACAD_SECTIONVIEWSTYLE
350
2A9
  3
ACAD_TABLESTYLE
350
69
  3
ACAD_VISUALSTYLE
350
2A
  3
ACDB_RECOMPOSE_DATA
350
2A5
  3
AcDbVariableDictionary
350
2A1
  0
SUN
  5
6D
330
29
100
AcDbSun
 90
        1
290
     0
 63
     7
421
 16777215
 40
1.0
291
     1
 91
  2455826
 92
 54000000
292
     0
 70
     2
 71
   256
280
     1
  0
DICTIONARY
  5
2A8
102
{ACAD_REACTORS
330
C
102
}
330
C
100
AcDbDictionary
281
     1
  0
DICTIONARY
  5
D
102
{ACAD_REACTORS
330
C
102
}
330
C
100
AcDbDictionary
281
     1
  0
DICTIONARY
  5
1A
102
{ACAD_REACTORS
330
C
102
}
330
C
100
AcDbDictionary
281
     1
  3
Layout1
350
1E
  3
Layout2
350
26
  3
Model
350
22
  0
DICTIONARY
  5
43
102
{ACAD_REACTORS
330
C
102
}
330
C
100
AcDbDictionary
281
     1
  3
ByBlock
350
45
  3
ByLayer
350
44
  3
Global
350
46
  0
DICTIONARY
  5
6B
102
{ACAD_REACTORS
330
C
102
}
330
C
100
AcDbDictionary
281
     1
  3
Standard
350
6C
  0
DICTIONARY
  5
17
102
{ACAD_REACTORS
330
C
102
}
330
C
100
AcDbDictionary
281
     1
  3
Standard
350
18
  0
DICTIONARY
  5
19
102
{ACAD_REACTORS
330
C
102
}
330
C
100
AcDbDictionary
281
     1
  0
ACDBDICTIONARYWDFLT
  5
E
102
{ACAD_REACTORS
330
C
102
}
330
C
100
AcDbDictionary
281
     1
  3
Normal
350
F
100
AcDbDictionaryWithDefault
340
F
  0
DICTIONARY
  5
47
102
{ACAD_REACTORS
330
C
102
}
330
C
100
AcDbDictionary
281
     1
  3
A0
350
48
  3
A1
350
49
  3
A2
350
4A
  3
A3
350
4B
  3
A4
350
4C
  3
A5
350
4D
  3
A6
350
4E
  3
A7
350
4F
  3
A8
350
50
  3
A9
350
51
  3
B0
350
52
  3
B1
350
53
  3
B2
350
54
  3
B3
350
55
  3
B4
350
56
  3
B5
350
57
  3
B6
350
58
  3
B7
350
59
  3
B8
350
5A
  3
B9
350
5B
  3
C0
350
5C
  3
C1
350
5D
  3
C2
350
5E
  3
C3
350
5F
  3
C4
350
60
  3
C5
350
61
  3
C6
350
62
  3
C7
350
63
  3
C8
350
64
  3
C9
350
65
  3
D0
350
66
  3
D1
350
67
  3
D2
350
68
  0
DICTIONARY
  5
2A9
102
{ACAD_REACTORS
330
C
102
}
330
C
100
AcDbDictionary
281
     1
  0
DICTIONARY
  5
69
102
{ACAD_REACTORS
330
C
102
}
330
C
100
AcDbDictionary
281
     1
  3
Standard
350
6A
  0
DICTIONARY
  5
2A
102
{ACAD_REACTORS
330
C
102
}
330
C
100
AcDbDictionary
281
     1
  3
2dWireframe
350
2F
  3
Basic
350
32
  3
Brighten
350
36
  3
ColorChange
350
3A
  3
Conceptual
350
34
  3
Dim
350
35
  3
EdgeColorOff
350
3D
  3
Facepattern
350
39
  3
Flat
350
2B
  3
FlatWithEdges
350
2C
  3
Gouraud
350
2D
  3
GouraudWithEdges
350
2E
  3
Hidden
350
31
  3
JitterOff
350
3B
  3
Linepattern
350
38
  3
OverhangOff
350
3C
  3
Realistic
350
33
  3
Shaded
350
42
  3
Shaded with edges
350
41
  3
Shades of Gray
350
3E
  3
Sketchy
350
3F
  3
Thicken
350
37
  3
Wireframe
350
30
  3
X-Ray
350
40
  0
XRECORD
  5
2A5
102
{ACAD_REACTORS
330
C
102
}
330
C
100
AcDbXrecord
280
     1
 90
        1
330
6A
  0
DICTIONARY
  5
2A1
102
{ACAD_REACTORS
330
C
102
}
330
C
100
AcDbDictionary
281
     1
  3
CANNOSCALE
350
2A2
  3
CMLEADERSTYLE
350
2A7
  3
CTABLESTYLE
350
2A6
  0
LAYOUT
  5
1E
102
{ACAD_REACTORS
330
1A
102
}
330
1A
100
AcDbPlotSettings
  1

  2
none_device
  4

  6

 40
0.0
 41
0.0
 42
0.0
 43
0.0
 44
0.0
 45
0.0
 46
0.0
 47
0.0
 48
0.0
 49
0.0
140
0.0
141
0.0
142
1.0
143
1.0
 70
   688
 72
     1
 73
     0
 74
     5
  7

 75
    16
 76
     0
 77
     2
 78
   300
147
1.0
148
0.0
149
0.0
100
AcDbLayout
  1
Layout1
 70
     1
 71
     1
 10
0.0
 20
0.0
 11
420.0
 21
297.0
 12
0.0
 22
0.0
 32
0.0
 14
1.000000000000000E+20
 24
1.000000000000000E+20
 34
1.000000000000000E+20
 15
-1.000000000000000E+20
 25
-1.000000000000000E+20
 35
-1.000000000000000E+20
146
0.0
 13
0.0
 23
0.0
 33
0.0
 16
1.0
 26
0.0
 36
0.0
 17
0.0
 27
1.0
 37
0.0
 76
     0
330
1B
  0
LAYOUT
  5
26
102
{ACAD_REACTORS
330
1A
102
}
330
1A
100
AcDbPlotSettings
  1

  2
none_device
  4

  6

 40
0.0
 41
0.0
 42
0.0
 43
0.0
 44
0.0
 45
0.0
 46
0.0
 47
0.0
 48
0.0
 49
0.0
140
0.0
141
0.0
142
1.0
143
1.0
 70
   688
 72
     1
 73
     0
 74
     5
  7

 75
    16
 76
     0
 77
     2
 78
   300
147
1.0
148
0.0
149
0.0
100
AcDbLayout
  1
Layout2
 70
     1
 71
     2
 10
0.0
 20
0.0
 11
0.0
 21
0.0
 12
0.0
 22
0.0
 32
0.0
 14
0.0
 24
0.0
 34
0.0
 15
0.0
 25
0.0
 35
0.0
146
0.0
 13
0.0
 23
0.0
 33
0.0
 16
1.0
 26
0.0
 36
0.0
 17
0.0
 27
1.0
 37
0.0
 76
     0
330
23
  0
LAYOUT
  5
22
102
{ACAD_REACTORS
330
1A
102
}
330
1A
100
AcDbPlotSettings
  1

  2
none_device
  4
Letter_(8.50_x_11.00_Inches)
  6

 40
6.35
 41
6.35
 42
6.35000508
 43
6.35000508
 44
215.9
 45
279.4
 46
0.0
 47
0.0
 48
0.0
 49
0.0
140
0.0
141
0.0
142
1.0
143
1.0
 70
  1712
 72
     1
 73
     0
 74
     0
  7

 75
     0
 76
     0
 77
     2
 78
   300
147
1.0
148
0.0
149
0.0
100
AcDbLayout
  1
Model
 70
     1
 71
     0
 10
4.03650196
 20
0.93650054
 11
24.463502
 21
129.56350008
 12
0.0
 22
0.0
 32
0.0
 14
1.000000000000000E+20
 24
1.000000000000000E+20
 34
1.000000000000000E+20
 15
-1.000000000000000E+20
 25
-1.000000000000000E+20
 35
-1.000000000000000E+20
146
0.0
 13
0.0
 23
0.0
 33
0.0
 16
1.0
 26
0.0
 36
0.0
 17
0.0
 27
1.0
 37
0.0
 76
     0
330
1F
331
29
  0
MATERIAL
  5
45
102
{ACAD_REACTORS
330
43
102
}
330
43
100
AcDbMaterial
  1
ByBlock
 72
     1
 94
      127
  0
MATERIAL
  5
44
102
{ACAD_REACTORS
330
43
102
}
330
43
100
AcDbMaterial
  1
ByLayer
 72
     1
 94
      127
  0
MATERIAL
  5
46
102
{ACAD_REACTORS
330
43
102
}
330
43
100
AcDbMaterial
  1
Global
 72
     1
 94
      127
  0
MLEADERSTYLE
  5
6C
102
{ACAD_REACTORS
330
6B
102
}
330
6B
100
AcDbMLeaderStyle
179
     2
170
     2
171
     1
172
     0
 90
        2
 40
0.0
 41
0.0
173
     1
 91
-1056964608
340
14
 92
       -2
290
     1
 42
2.0
291
     1
 43
8.0
  3
Standard
341
0
 44
4.0
300

342
11
174
     1
178
     6
175
     1
176
     0
 93
-1056964608
 45
4.0
292
     0
297
     0
 46
4.0
343
0
 94
-1056964608
 47
1.0
 49
1.0
140
1.0
293
     1
141
0.0
294
     1
177
     0
142
1.0
295
     0
296
     0
143
3.75
271
     0
272
     9
273
     9
298
     0
  0
MLINESTYLE
  5
18
102
{ACAD_REACTORS
330
17
102
}
330
17
100
AcDbMlineStyle
  2
Standard
 70
     0
  3

 62
   256
 51
90.0
 52
90.0
 71
     2
 49
0.5
 62
   256
  6
BYLAYER
 49
-0.5
 62
   256
  6
BYLAYER
  0
ACDBPLACEHOLDER
  5
F
102
{ACAD_REACTORS
330
E
102
}
330
E
  0
SCALE
  5
48
102
{ACAD_REACTORS
330
47
102
}
330
47
100
AcDbScale
 70
     0
300
1:1
140
1.0
141
1.0
290
     1
  0
SCALE
  5
49
102
{ACAD_REACTORS
330
47
102
}
330
47
100
AcDbScale
 70
     0
300
1:2
140
1.0
141
2.0
290
     0
  0
SCALE
  5
4A
102
{ACAD_REACTORS
330
47
102
}
330
47
100
AcDbScale
 70
     0
300
1:4
140
1.0
141
4.0
290
     0
  0
SCALE
  5
4B
102
{ACAD_REACTORS
330
47
102
}
330
47
100
AcDbScale
 70
     0
300
1:5
140
1.0
141
5.0
290
     0
  0
SCALE
  5
4C
102
{ACAD_REACTORS
330
47
102
}
330
47
100
AcDbScale
 70
     0
300
1:8
140
1.0
141
8.0
290
     0
  0
SCALE
  5
4D
102
{ACAD_REACTORS
330
47
102
}
330
47
100
AcDbScale
 70
     0
300
1:10
140
1.0
141
10.0
290
     0
  0
SCALE
  5
4E
102
{ACAD_REACTORS
330
47
102
}
330
47
100
AcDbScale
 70
     0
300
1:16
140
1.0
141
16.0
290
     0
  0
SCALE
  5
4F
102
{ACAD_REACTORS
330
47
102
}
330
47
100
AcDbScale
 70
     0
300
1:20
140
1.0
141
20.0
290
     0
  0
SCALE
  5
50
102
{ACAD_REACTORS
330
47
102
}
330
47
100
AcDbScale
 70
     0
300
1:30
140
1.0
141
30.0
290
     0
  0
SCALE
  5
51
102
{ACAD_REACTORS
330
47
102
}
330
47
100
AcDbScale
 70
     0
300
1:40
140
1.0
141
40.0
290
     0
  0
SCALE
  5
52
102
{ACAD_REACTORS
330
47
102
}
330
47
100
AcDbScale
 70
     0
300
1:50
140
1.0
141
50.0
290
     0
  0
SCALE
  5
53
102
{ACAD_REACTORS
330
47
102
}
330
47
100
AcDbScale
 70
     0
300
1:100
140
1.0
141
100.0
290
     0
  0
SCALE
  5
54
102
{ACAD_REACTORS
330
47
102
}
330
47
100
AcDbScale
 70
     0
300
2:1
140
2.0
141
1.0
290
     0
  0
SCALE
  5
55
102
{ACAD_REACTORS
330
47
102
}
330
47
100
AcDbScale
 70
     0
300
4:1
140
4.0
141
1.0
290
     0
  0
SCALE
  5
56
102
{ACAD_REACTORS
330
47
102
}
330
47
100
AcDbScale
 70
     0
300
8:1
140
8.0
141
1.0
290
     0
  0
SCALE
  5
57
102
{ACAD_REACTORS
330
47
102
}
330
47
100
AcDbScale
 70
     0
300
10:1
140
10.0
141
1.0
290
     0
  0
SCALE
  5
58
102
{ACAD_REACTORS
330
47
102
}
330
47
100
AcDbScale
 70
     0
300
100:1
140
100.0
141
1.0
290
     0
  0
SCALE
  5
59
102
{ACAD_REACTORS
330
47
102
}
330
47
100
AcDbScale
 70
     0
300
1/128" = 1'-0"
140
0.0078125
141
12.0
290
     0
  0
SCALE
  5
5A
102
{ACAD_REACTORS
330
47
102
}
330
47
100
AcDbScale
 70
     0
300
1/64" = 1'-0"
140
0.015625
141
12.0
290
     0
  0
SCALE
  5
5B
102
{ACAD_REACTORS
330
47
102
}
330
47
100
AcDbScale
 70
     0
300
1/32" = 1'-0"
140
0.03125
141
12.0
290
     0
  0
SCALE
  5
5C
102
{ACAD_REACTORS
330
47
102
}
330
47
100
AcDbScale
 70
     0
300
1/16" = 1'-0"
140
0.0625
141
12.0
290
     0
  0
SCALE
  5
5D
102
{ACAD_REACTORS
330
47
102
}
330
47
100
AcDbScale
 70
     0
300
3/32" = 1'-0"
140
0.09375
141
12.0
290
     0
  0
SCALE
  5
5E
102
{ACAD_REACTORS
330
47
102
}
330
47
100
AcDbScale
 70
     0
300
1/8" = 1'-0"
140
0.125
141
12.0
290
     0
  0
SCALE
  5
5F
102
{ACAD_REACTORS
330
47
102
}
330
47
100
AcDbScale
 70
     0
300
3/16" = 1'-0"
140
0.1875
141
12.0
290
     0
  0
SCALE
  5
60
102
{ACAD_REACTORS
330
47
102
}
330
47
100
AcDbScale
 70
     0
300
1/4" = 1'-0"
140
0.25
141
12.0
290
     0
  0
SCALE
  5
61
102
{ACAD_REACTORS
330
47
102
}
330
47
100
AcDbScale
 70
     0
300
3/8" = 1'-0"
140
0.375
141
12.0
290
     0
  0
SCALE
  5
62
102
{ACAD_REACTORS
330
47
102
}
330
47
100
AcDbScale
 70
     0
300
1/2" = 1'-0"
140
0.5
141
12.0
290
     0
  0
SCALE
  5
63
102
{ACAD_REACTORS
330
47
102
}
330
47
100
AcDbScale
 70
     0
300
3/4" = 1'-0"
140
0.75
141
12.0
290
     0
  0
SCALE
  5
64
102
{ACAD_REACTORS
330
47
102
}
330
47
100
AcDbScale
 70
     0
300
1" = 1'-0"
140
1.0
141
12.0
290
     0
  0
SCALE
  5
65
102
{ACAD_REACTORS
330
47
102
}
330
47
100
AcDbScale
 70
     0
300
1-1/2" = 1'-0"
140
1.5
141
12.0
290
     0
  0
SCALE
  5
66
102
{ACAD_REACTORS
330
47
102
}
330
47
100
AcDbScale
 70
     0
300
3" = 1'-0"
140
3.0
141
12.0
290
     0
  0
SCALE
  5
67
102
{ACAD_REACTORS
330
47
102
}
330
47
100
AcDbScale
 70
     0
300
6" = 1'-0"
140
6.0
141
12.0
290
     0
  0
SCALE
  5
68
102
{ACAD_REACTORS
330
47
102
}
330
47
100
AcDbScale
 70
     0
300
1'-0" = 1'-0"
140
12.0
141
12.0
290
     0
  0
TABLESTYLE
  5
6A
102
{ACAD_REACTORS
330
69
102
}
102
{ACAD_XDICTIONARY
360
2A3
102
}
330
69
100
AcDbTableStyle
  3
Standard
 70
     0
 71
     0
 40
0.06
 41
0.06
280
     0
281
     0
  7
Standard
140
4.5
170
     2
 62
     0
 63
   257
283
     0
 90
        4
 91
        0
  1

274
    -2
284
     1
 64
     0
275
    -2
285
     1
 65
     0
276
    -2
286
     1
 66
     0
277
    -2
287
     1
 67
     0
278
    -2
288
     1
 68
     0
279
    -2
289
     1
 69
     0
  7
Standard
140
6.0
170
     5
 62
     0
 63
   257
283
     0
 90
        4
 91
        0
  1

274
    -2
284
     1
 64
     0
275
    -2
285
     1
 65
     0
276
    -2
286
     1
 66
     0
277
    -2
287
     1
 67
     0
278
    -2
288
     1
 68
     0
279
    -2
289
     1
 69
     0
  7
Standard
140
4.5
170
     5
 62
     0
 63
   257
283
     0
 90
        4
 91
        0
  1

274
    -2
284
     1
 64
     0
275
    -2
285
     1
 65
     0
276
    -2
286
     1
 66
     0
277
    -2
287
     1
 67
     0
278
    -2
288
     1
 68
     0
279
    -2
289
     1
 69
     0
  0
VISUALSTYLE
  5
2F
102
{ACAD_REACTORS
330
2A
102
}
330
2A
100
AcDbVisualStyle
  2
2dWireframe
 70
     4
177
     3
291
     0
 70
    58
 90
        0
176
     1
 90
        2
176
     1
 90
        0
176
     1
 90
        0
176
     1
 40
0.6
176
     1
 40
30.0
176
     1
 62
     7
420
 16777215
176
     1
 90
        1
176
     1
 90
        4
176
     1
 62
     7
176
     1
 62
   257
176
     1
 90
        1
176
     1
 90
        1
176
     1
 40
1.0
176
     1
 90
        0
176
     1
 62
   257
176
     1
 40
1.0
176
     1
 90
        1
176
     1
 90
        6
176
     1
 90
        2
176
     1
 62
     7
176
     1
 90
        5
176
     1
 90
        0
176
     1
 90
        0
176
     1
290
     0
176
     1
 90
        1
176
     1
 40
0.0
176
     1
 90
        0
176
     1
290
     1
176
     1
290
     1
176
     1
290
     0
176
     1
290
     0
176
     1
290
     0
176
     1
290
     0
176
     1
290
     0
176
     1
290
     0
176
     1
290
     0
176
     1
 90
       50
176
     1
 40
0.0
176
     1
 40
1.0
176
     1
 90
        0
176
     1
 62
    18
420
        0
176
     1
 90
       50
176
     1
 90
        3
176
     1
 62
     5
420
      255
176
     1
290
     0
176
     1
 90
       50
176
     1
 90
       50
176
     1
 90
       50
176
     1
290
     0
176
     1
 90
       50
176
     1
 62
   256
176
     0
 40
1.0
176
     0
 90
        2
176
     1
  1
strokes_ogs.tif
176
     1
290
     0
176
     1
 40
1.0
176
     1
 40
1.0
176
     1
  0
VISUALSTYLE
  5
32
102
{ACAD_REACTORS
330
2A
102
}
330
2A
100
AcDbVisualStyle
  2
Basic
 70
     7
177
     3
291
     1
 70
    58
 90
        1
176
     1
 90
        0
176
     1
 90
        1
176
     1
 90
        0
176
     1
 40
0.6
176
     1
 40
30.0
176
     1
 62
     7
420
 16777215
176
     1
 90
        0
176
     1
 90
        4
176
     1
 62
     7
176
     1
 62
   257
176
     1
 90
        1
176
     1
 90
        1
176
     1
 40
1.0
176
     1
 90
        8
176
     1
 62
     7
176
     1
 40
1.0
176
     1
 90
        1
176
     1
 90
        6
176
     1
 90
        2
176
     1
 62
     7
176
     1
 90
        5
176
     1
 90
        0
176
     1
 90
        0
176
     1
290
     0
176
     1
 90
        1
176
     1
 40
0.0
176
     1
 90
        0
176
     1
290
     0
176
     1
290
     1
176
     1
290
     1
176
     1
290
     0
176
     1
290
     0
176
     1
290
     0
176
     1
290
     0
176
     1
290
     0
176
     1
290
     0
176
     1
 90
       50
176
     1
 40
0.0
176
     1
 40
1.0
176
     1
 90
        0
176
     1
 62
    18
420
        0
176
     1
 90
       50
176
     1
 90
        3
176
     1
 62
     5
420
      255
176
     1
290
     0
176
     1
 90
       50
176
     1
 90
       50
176
     1
 90
       50
176
     1
290
     0
176
     1
 90
       50
176
     1
 62
   256
176
     0
 40
1.0
176
     0
 90
        2
176
     1
  1
strokes_ogs.tif
176
     1
290
     0
176
     1
 40
1.0
176
     1
 40
1.0
176
     1
  0
VISUALSTYLE
  5
36
102
{ACAD_REACTORS
330
2A
102
}
330
2A
100
AcDbVisualStyle
  2
Brighten
 70
    12
177
     3
291
     1
 70
    58
 90
        2
176
     1
 90
        2
176
     1
 90
        0
176
     1
 90
        0
176
     1
 40
0.6
176
     1
 40
30.0
176
     1
 62
     7
420
 16777215
176
     1
 90
        1
176
     1
 90
        4
176
     1
 62
     7
176
     1
 62
   257
176
     1
 90
        1
176
     1
 90
        1
176
     1
 40
1.0
176
     1
 90
        8
176
     1
 62
     7
176
     1
 40
1.0
176
     1
 90
        1
176
     1
 90
        6
176
     1
 90
        2
176
     1
 62
     7
176
     1
 90
        5
176
     1
 90
        0
176
     1
 90
        0
176
     1
290
     0
176
     1
 90
        1
176
     1
 40
50.0
176
     1
 90
        0
176
     1
290
     0
176
     1
290
     1
176
     1
290
     1
176
     1
290
     0
176
     1
290
     0
176
     1
290
     0
176
     1
290
     0
176
     1
290
     0
176
     1
290
     0
176
     1
 90
       50
176
     1
 40
0.0
176
     1
 40
1.0
176
     1
 90
        0
176
     1
 62
    18
420
        0
176
     1
 90
       50
176
     1
 90
        3
176
     1
 62
     5
420
      255
176
     1
290
     0
176
     1
 90
       50
176
     1
 90
       50
176
     1
 90
       50
176
     1
290
     0
176
     1
 90
       50
176
     1
 62
   256
176
     0
 40
1.0
176
     0
 90
        2
176
     1
  1
strokes_ogs.tif
176
     1
290
     0
176
     1
 40
1.0
176
     1
 40
1.0
176
     1
  0
VISUALSTYLE
  5
3A
102
{ACAD_REACTORS
330
2A
102
}
330
2A
100
AcDbVisualStyle
  2
ColorChange
 70
    16
177
     3
291
     1
 70
    58
 90
        2
176
     1
 90
        2
176
     1
 90
        3
176
     1
 90
        0
176
     1
 40
0.6
176
     1
 40
30.0
176
     1
 62
     8
420
  8421504
176
     1
 90
        1
176
     1
 90
        4
176
     1
 62
     7
176
     1
 62
   257
176
     1
 90
        1
176
     1
 90
        1
176
     1
 40
1.0
176
     1
 90
        8
176
     1
 62
     8
420
  8421504
176
     1
 40
1.0
176
     1
 90
        1
176
     1
 90
        6
176
     1
 90
        2
176
     1
 62
     7
176
     1
 90
        5
176
     1
 90
        0
176
     1
 90
        0
176
     1
290
     0
176
     1
 90
        1
176
     1
 40
0.0
176
     1
 90
        0
176
     1
290
     0
176
     1
290
     1
176
     1
290
     1
176
     1
290
     0
176
     1
290
     0
176
     1
290
     0
176
     1
290
     0
176
     1
290
     0
176
     1
290
     0
176
     1
 90
       50
176
     1
 40
0.0
176
     1
 40
1.0
176
     1
 90
        0
176
     1
 62
    18
420
        0
176
     1
 90
       50
176
     1
 90
        3
176
     1
 62
     5
420
      255
176
     1
290
     0
176
     1
 90
       50
176
     1
 90
       50
176
     1
 90
       50
176
     1
290
     0
176
     1
 90
       50
176
     1
 62
   256
176
     0
 40
1.0
176
     0
 90
        2
176
     1
  1
strokes_ogs.tif
176
     1
290
     0
176
     1
 40
1.0
176
     1
 40
1.0
176
     1
  0
VISUALSTYLE
  5
34
102
{ACAD_REACTORS
330
2A
102
}
330
2A
100
AcDbVisualStyle
  2
Conceptual
 70
     9
177
     3
291
     0
 70
    58
 90
        3
176
     1
 90
        2
176
     1
 90
        0
176
     1
 90
        0
176
     1
 40
0.6
176
     1
 40
30.0
176
     1
 62
     7
420
 16777215
176
     1
 90
        2
176
     1
 90
        2
176
     1
 62
     7
176
     1
 62
   257
176
     1
 90
        1
176
     1
 90
        1
176
     1
 40
179.0
176
     1
 90
        8
176
     1
 62
     7
176
     1
 40
1.0
176
     1
 90
        1
176
     1
 90
        6
176
     1
 90
        2
176
     1
 62
     7
176
     1
 90
        3
176
     1
 90
        0
176
     1
 90
        0
176
     1
290
     0
176
     1
 90
        1
176
     1
 40
0.0
176
     1
 90
        0
176
     1
290
     0
176
     1
290
     1
176
     1
290
     1
176
     1
290
     0
176
     1
290
     0
176
     1
290
     0
176
     1
290
     0
176
     1
290
     0
176
     1
290
     0
176
     1
 90
       50
176
     1
 40
0.0
176
     1
 40
1.0
176
     1
 90
        0
176
     1
 62
    18
420
        0
176
     1
 90
       50
176
     1
 90
        3
176
     1
 62
     5
420
      255
176
     1
290
     0
176
     1
 90
       50
176
     1
 90
       50
176
     1
 90
       50
176
     1
290
     0
176
     1
 90
       50
176
     1
 62
   256
176
     0
 40
1.0
176
     0
 90
        2
176
     1
  1
strokes_ogs.tif
176
     1
290
     0
176
     1
 40
1.0
176
     1
 40
1.0
176
     1
  0
VISUALSTYLE
  5
35
102
{ACAD_REACTORS
330
2A
102
}
330
2A
100
AcDbVisualStyle
  2
Dim
 70
    11
177
     3
291
     1
 70
    58
 90
        2
176
     1
 90
        2
176
     1
 90
        0
176
     1
 90
        0
176
     1
 40
0.6
176
     1
 40
30.0
176
     1
 62
     7
420
 16777215
176
     1
 90
        1
176
     1
 90
        4
176
     1
 62
     7
176
     1
 62
   257
176
     1
 90
        1
176
     1
 90
        1
176
     1
 40
1.0
176
     1
 90
        8
176
     1
 62
     7
176
     1
 40
1.0
176
     1
 90
        1
176
     1
 90
        6
176
     1
 90
        2
176
     1
 62
     7
176
     1
 90
        5
176
     1
 90
        0
176
     1
 90
        0
176
     1
290
     0
176
     1
 90
        1
176
     1
 40
-50.0
176
     1
 90
        0
176
     1
290
     0
176
     1
290
     1
176
     1
290
     1
176
     1
290
     0
176
     1
290
     0
176
     1
290
     0
176
     1
290
     0
176
     1
290
     0
176
     1
290
     0
176
     1
 90
       50
176
     1
 40
0.0
176
     1
 40
1.0
176
     1
 90
        0
176
     1
 62
    18
420
        0
176
     1
 90
       50
176
     1
 90
        3
176
     1
 62
     5
420
      255
176
     1
290
     0
176
     1
 90
       50
176
     1
 90
       50
176
     1
 90
       50
176
     1
290
     0
176
     1
 90
       50
176
     1
 62
   256
176
     0
 40
1.0
176
     0
 90
        2
176
     1
  1
strokes_ogs.tif
176
     1
290
     0
176
     1
 40
1.0
176
     1
 40
1.0
176
     1
  0
VISUALSTYLE
  5
3D
102
{ACAD_REACTORS
330
2A
102
}
330
2A
100
AcDbVisualStyle
  2
EdgeColorOff
 70
    22
177
     3
291
     1
 70
    58
 90
        2
176
     0
 90
        2
176
     0
 90
        0
176
     0
 90
        0
176
     0
 40
0.6
176
     0
 40
30.0
176
     0
 62
     7
420
 16777215
176
     0
 90
        1
176
     0
 90
        4
176
     0
 62
     7
176
     0
 62
   257
176
     0
 90
        1
176
     0
 90
        1
176
     0
 40
1.0
176
     0
 90
        8
176
     2
 62
     7
176
     0
 40
1.0
176
     0
 90
        1
176
     0
 90
        6
176
     0
 90
        2
176
     0
 62
     7
176
     0
 90
        5
176
     0
 90
        0
176
     0
 90
        0
176
     0
290
     0
176
     0
 90
        1
176
     0
 40
0.0
176
     0
 90
        0
176
     0
290
     0
176
     0
290
     1
176
     0
290
     1
176
     0
290
     0
176
     0
290
     0
176
     0
290
     0
176
     0
290
     0
176
     0
290
     0
176
     0
290
     0
176
     0
 90
       50
176
     0
 40
0.0
176
     0
 40
1.0
176
     0
 90
        0
176
     0
 62
    18
420
        0
176
     0
 90
       50
176
     0
 90
        3
176
     0
 62
     5
420
      255
176
     0
290
     0
176
     0
 90
       50
176
     0
 90
       50
176
     0
 90
       50
176
     0
290
     0
176
     0
 90
       50
176
     0
 62
   256
176
     0
 40
1.0
176
     0
 90
        2
176
     0
  1
strokes_ogs.tif
176
     0
290
     0
176
     0
 40
1.0
176
     0
 40
1.0
176
     0
  0
VISUALSTYLE
  5
39
102
{ACAD_REACTORS
330
2A
102
}
330
2A
100
AcDbVisualStyle
  2
Facepattern
 70
    15
177
     3
291
     1
 70
    58
 90
        2
176
     1
 90
        2
176
     1
 90
        0
176
     1
 90
        0
176
     1
 40
0.6
176
     1
 40
30.0
176
     1
 62
     7
420
 16777215
176
     1
 90
        1
176
     1
 90
        4
176
     1
 62
     7
176
     1
 62
   257
176
     1
 90
        1
176
     1
 90
        1
176
     1
 40
1.0
176
     1
 90
        8
176
     1
 62
     7
176
     1
 40
1.0
176
     1
 90
        1
176
     1
 90
        6
176
     1
 90
        2
176
     1
 62
     7
176
     1
 90
        5
176
     1
 90
        0
176
     1
 90
        0
176
     1
290
     0
176
     1
 90
        1
176
     1
 40
0.0
176
     1
 90
        0
176
     1
290
     0
176
     1
290
     1
176
     1
290
     1
176
     1
290
     0
176
     1
290
     0
176
     1
290
     0
176
     1
290
     0
176
     1
290
     0
176
     1
290
     0
176
     1
 90
       50
176
     1
 40
0.0
176
     1
 40
1.0
176
     1
 90
        0
176
     1
 62
    18
420
        0
176
     1
 90
       50
176
     1
 90
        3
176
     1
 62
     5
420
      255
176
     1
290
     0
176
     1
 90
       50
176
     1
 90
       50
176
     1
 90
       50
176
     1
290
     0
176
     1
 90
       50
176
     1
 62
   256
176
     0
 40
1.0
176
     0
 90
        2
176
     1
  1
strokes_ogs.tif
176
     1
290
     0
176
     1
 40
1.0
176
     1
 40
1.0
176
     1
  0
VISUALSTYLE
  5
2B
102
{ACAD_REACTORS
330
2A
102
}
330
2A
100
AcDbVisualStyle
  2
Flat
 70
     0
177
     3
291
     1
 70
    58
 90
        2
176
     1
 90
        1
176
     1
 90
        1
176
     1
 90
        2
176
     1
 40
0.6
176
     1
 40
30.0
176
     1
 62
     7
420
 16777215
176
     1
 90
        0
176
     1
 90
        0
176
     1
 62
     7
176
     1
 62
   257
176
     1
 90
        1
176
     1
 90
        1
176
     1
 40
1.0
176
     1
 90
        8
176
     1
 62
     7
176
     1
 40
1.0
176
     1
 90
        1
176
     1
 90
        6
176
     1
 90
        2
176
     1
 62
     7
176
     1
 90
        5
176
     1
 90
        0
176
     1
 90
        0
176
     1
290
     0
176
     1
 90
       13
176
     1
 40
0.0
176
     1
 90
        0
176
     1
290
     0
176
     1
290
     1
176
     1
290
     1
176
     1
290
     0
176
     1
290
     0
176
     1
290
     0
176
     1
290
     0
176
     1
290
     0
176
     1
290
     0
176
     1
 90
       50
176
     1
 40
0.0
176
     1
 40
1.0
176
     1
 90
        0
176
     1
 62
    18
420
        0
176
     1
 90
       50
176
     1
 90
        3
176
     1
 62
     5
420
      255
176
     1
290
     0
176
     1
 90
       50
176
     1
 90
       50
176
     1
 90
       50
176
     1
290
     0
176
     1
 90
       50
176
     1
 62
   256
176
     0
 40
1.0
176
     0
 90
        2
176
     1
  1
strokes_ogs.tif
176
     1
290
     0
176
     1
 40
1.0
176
     1
 40
1.0
176
     1
  0
VISUALSTYLE
  5
2C
102
{ACAD_REACTORS
330
2A
102
}
330
2A
100
AcDbVisualStyle
  2
FlatWithEdges
 70
     1
177
     3
291
     1
 70
    58
 90
        2
176
     1
 90
        1
176
     1
 90
        1
176
     1
 90
        2
176
     1
 40
0.6
176
     1
 40
30.0
176
     1
 62
     7
420
 16777215
176
     1
 90
        1
176
     1
 90
        0
176
     1
 62
     7
176
     1
 62
   257
176
     1
 90
        1
176
     1
 90
        1
176
     1
 40
1.0
176
     1
 90
        0
176
     1
 62
   257
176
     1
 40
1.0
176
     1
 90
        1
176
     1
 90
        6
176
     1
 90
        2
176
     1
 62
     7
176
     1
 90
        5
176
     1
 90
        0
176
     1
 90
        0
176
     1
290
     0
176
     1
 90
       13
176
     1
 40
0.0
176
     1
 90
        0
176
     1
290
     0
176
     1
290
     1
176
     1
290
     1
176
     1
290
     0
176
     1
290
     0
176
     1
290
     0
176
     1
290
     0
176
     1
290
     0
176
     1
290
     0
176
     1
 90
       50
176
     1
 40
0.0
176
     1
 40
1.0
176
     1
 90
        0
176
     1
 62
    18
420
        0
176
     1
 90
       50
176
     1
 90
        3
176
     1
 62
     5
420
      255
176
     1
290
     0
176
     1
 90
       50
176
     1
 90
       50
176
     1
 90
       50
176
     1
290
     0
176
     1
 90
       50
176
     1
 62
   256
176
     0
 40
1.0
176
     0
 90
        2
176
     1
  1
strokes_ogs.tif
176
     1
290
     0
176
     1
 40
1.0
176
     1
 40
1.0
176
     1
  0
VISUALSTYLE
  5
2D
102
{ACAD_REACTORS
330
2A
102
}
330
2A
100
AcDbVisualStyle
  2
Gouraud
 70
     2
177
     3
291
     1
 70
    58
 90
        2
176
     1
 90
        2
176
     1
 90
        1
176
     1
 90
        2
176
     1
 40
0.6
176
     1
 40
30.0
176
     1
 62
     7
420
 16777215
176
     1
 90
        0
176
     1
 90
        0
176
     1
 62
     7
176
     1
 62
   257
176
     1
 90
        1
176
     1
 90
        1
176
     1
 40
1.0
176
     1
 90
        0
176
     1
 62
     7
176
     1
 40
1.0
176
     1
 90
        1
176
     1
 90
        6
176
     1
 90
        2
176
     1
 62
     7
176
     1
 90
        5
176
     1
 90
        0
176
     1
 90
        0
176
     1
290
     0
176
     1
 90
       13
176
     1
 40
0.0
176
     1
 90
        0
176
     1
290
     0
176
     1
290
     1
176
     1
290
     1
176
     1
290
     0
176
     1
290
     0
176
     1
290
     0
176
     1
290
     0
176
     1
290
     0
176
     1
290
     0
176
     1
 90
       50
176
     1
 40
0.0
176
     1
 40
1.0
176
     1
 90
        0
176
     1
 62
    18
420
        0
176
     1
 90
       50
176
     1
 90
        3
176
     1
 62
     5
420
      255
176
     1
290
     0
176
     1
 90
       50
176
     1
 90
       50
176
     1
 90
       50
176
     1
290
     0
176
     1
 90
       50
176
     1
 62
   256
176
     0
 40
1.0
176
     0
 90
        2
176
     1
  1
strokes_ogs.tif
176
     1
290
     0
176
     1
 40
1.0
176
     1
 40
1.0
176
     1
  0
VISUALSTYLE
  5
2E
102
{ACAD_REACTORS
330
2A
102
}
330
2A
100
AcDbVisualStyle
  2
GouraudWithEdges
 70
     3
177
     3
291
     1
 70
    58
 90
        2
176
     1
 90
        2
176
     1
 90
        1
176
     1
 90
        2
176
     1
 40
0.6
176
     1
 40
30.0
176
     1
 62
     7
420
 16777215
176
     1
 90
        1
176
     1
 90
        0
176
     1
 62
     7
176
     1
 62
   257
176
     1
 90
        1
176
     1
 90
        1
176
     1
 40
1.0
176
     1
 90
        0
176
     1
 62
   257
176
     1
 40
1.0
176
     1
 90
        1
176
     1
 90
        6
176
     1
 90
        2
176
     1
 62
     7
176
     1
 90
        5
176
     1
 90
        0
176
     1
 90
        0
176
     1
290
     0
176
     1
 90
       13
176
     1
 40
0.0
176
     1
 90
        0
176
     1
290
     0
176
     1
290
     1
176
     1
290
     1
176
     1
290
     0
176
     1
290
     0
176
     1
290
     0
176
     1
290
     0
176
     1
290
     0
176
     1
290
     0
176
     1
 90
       50
176
     1
 40
0.0
176
     1
 40
1.0
176
     1
 90
        0
176
     1
 62
    18
420
        0
176
     1
 90
       50
176
     1
 90
        3
176
     1
 62
     5
420
      255
176
     1
290
     0
176
     1
 90
       50
176
     1
 90
       50
176
     1
 90
       50
176
     1
290
     0
176
     1
 90
       50
176
     1
 62
   256
176
     0
 40
1.0
176
     0
 90
        2
176
     1
  1
strokes_ogs.tif
176
     1
290
     0
176
     1
 40
1.0
176
     1
 40
1.0
176
     1
  0
VISUALSTYLE
  5
31
102
{ACAD_REACTORS
330
2A
102
}
330
2A
100
AcDbVisualStyle
  2
Hidden
 70
     6
177
     3
291
     0
 70
    58
 90
        1
176
     1
 90
        2
176
     1
 90
        2
176
     1
 90
        0
176
     1
 40
0.6
176
     1
 40
30.0
176
     1
 62
     7
420
 16777215
176
     1
 90
        2
176
     1
 90
        2
176
     1
 62
     7
176
     1
 62
   257
176
     1
 90
        2
176
     1
 90
        1
176
     1
 40
40.0
176
     1
 90
        0
176
     1
 62
   257
176
     1
 40
1.0
176
     1
 90
        1
176
     1
 90
        6
176
     1
 90
        2
176
     1
 62
     7
176
     1
 90
        3
176
     1
 90
        0
176
     1
 90
        0
176
     1
290
     0
176
     1
 90
        1
176
     1
 40
0.0
176
     1
 90
        0
176
     1
290
     0
176
     1
290
     1
176
     1
290
     1
176
     1
290
     0
176
     1
290
     0
176
     1
290
     0
176
     1
290
     0
176
     1
290
     0
176
     1
290
     0
176
     1
 90
       50
176
     1
 40
0.0
176
     1
 40
1.0
176
     1
 90
        0
176
     1
 62
    18
420
        0
176
     1
 90
       50
176
     1
 90
        3
176
     1
 62
     5
420
      255
176
     1
290
     0
176
     1
 90
       50
176
     1
 90
       50
176
     1
 90
       50
176
     1
290
     0
176
     1
 90
       50
176
     1
 62
   256
176
     0
 40
1.0
176
     0
 90
        2
176
     1
  1
strokes_ogs.tif
176
     1
290
     0
176
     1
 40
1.0
176
     1
 40
1.0
176
     1
  0
VISUALSTYLE
  5
3B
102
{ACAD_REACTORS
330
2A
102
}
330
2A
100
AcDbVisualStyle
  2
JitterOff
 70
    20
177
     3
291
     1
 70
    58
 90
        2
176
     0
 90
        2
176
     0
 90
        0
176
     0
 90
        0
176
     0
 40
0.6
176
     0
 40
30.0
176
     0
 62
     7
420
 16777215
176
     0
 90
        1
176
     0
 90
        4
176
     0
 62
     7
176
     0
 62
   257
176
     0
 90
        1
176
     0
 90
        1
176
     0
 40
1.0
176
     0
 90
       10
176
     2
 62
     7
176
     0
 40
1.0
176
     0
 90
        1
176
     0
 90
        6
176
     0
 90
        2
176
     0
 62
     7
176
     0
 90
        5
176
     0
 90
        0
176
     0
 90
        0
176
     0
290
     0
176
     0
 90
        1
176
     0
 40
0.0
176
     0
 90
        0
176
     0
290
     0
176
     0
290
     1
176
     0
290
     1
176
     0
290
     0
176
     0
290
     0
176
     0
290
     0
176
     0
290
     0
176
     0
290
     0
176
     0
290
     0
176
     0
 90
       50
176
     0
 40
0.0
176
     0
 40
1.0
176
     0
 90
        0
176
     0
 62
    18
420
        0
176
     0
 90
       50
176
     0
 90
        3
176
     0
 62
     5
420
      255
176
     0
290
     0
176
     0
 90
       50
176
     0
 90
       50
176
     0
 90
       50
176
     0
290
     0
176
     0
 90
       50
176
     0
 62
   256
176
     0
 40
1.0
176
     0
 90
        2
176
     0
  1
strokes_ogs.tif
176
     0
290
     0
176
     0
 40
1.0
176
     0
 40
1.0
176
     0
  0
VISUALSTYLE
  5
38
102
{ACAD_REACTORS
330
2A
102
}
330
2A
100
AcDbVisualStyle
  2
Linepattern
 70
    14
177
     3
291
     1
 70
    58
 90
        2
176
     1
 90
        2
176
     1
 90
        0
176
     1
 90
        0
176
     1
 40
0.6
176
     1
 40
30.0
176
     1
 62
     7
420
 16777215
176
     1
 90
        1
176
     1
 90
        4
176
     1
 62
     7
176
     1
 62
   257
176
     1
 90
        7
176
     1
 90
        7
176
     1
 40
1.0
176
     1
 90
        8
176
     1
 62
     7
176
     1
 40
1.0
176
     1
 90
        1
176
     1
 90
        6
176
     1
 90
        2
176
     1
 62
     7
176
     1
 90
        5
176
     1
 90
        0
176
     1
 90
        0
176
     1
290
     0
176
     1
 90
        1
176
     1
 40
0.0
176
     1
 90
        0
176
     1
290
     0
176
     1
290
     1
176
     1
290
     1
176
     1
290
     0
176
     1
290
     0
176
     1
290
     0
176
     1
290
     0
176
     1
290
     0
176
     1
290
     0
176
     1
 90
       50
176
     1
 40
0.0
176
     1
 40
1.0
176
     1
 90
        0
176
     1
 62
    18
420
        0
176
     1
 90
       50
176
     1
 90
        3
176
     1
 62
     5
420
      255
176
     1
290
     0
176
     1
 90
       50
176
     1
 90
       50
176
     1
 90
       50
176
     1
290
     0
176
     1
 90
       50
176
     1
 62
   256
176
     0
 40
1.0
176
     0
 90
        2
176
     1
  1
strokes_ogs.tif
176
     1
290
     0
176
     1
 40
1.0
176
     1
 40
1.0
176
     1
  0
VISUALSTYLE
  5
3C
102
{ACAD_REACTORS
330
2A
102
}
330
2A
100
AcDbVisualStyle
  2
OverhangOff
 70
    21
177
     3
291
     1
 70
    58
 90
        2
176
     0
 90
        2
176
     0
 90
        0
176
     0
 90
        0
176
     0
 40
0.6
176
     0
 40
30.0
176
     0
 62
     7
420
 16777215
176
     0
 90
        1
176
     0
 90
        4
176
     0
 62
     7
176
     0
 62
   257
176
     0
 90
        1
176
     0
 90
        1
176
     0
 40
1.0
176
     0
 90
        9
176
     2
 62
     7
176
     0
 40
1.0
176
     0
 90
        1
176
     0
 90
        6
176
     0
 90
        2
176
     0
 62
     7
176
     0
 90
        5
176
     0
 90
        0
176
     0
 90
        0
176
     0
290
     0
176
     0
 90
        1
176
     0
 40
0.0
176
     0
 90
        0
176
     0
290
     0
176
     0
290
     1
176
     0
290
     1
176
     0
290
     0
176
     0
290
     0
176
     0
290
     0
176
     0
290
     0
176
     0
290
     0
176
     0
290
     0
176
     0
 90
       50
176
     0
 40
0.0
176
     0
 40
1.0
176
     0
 90
        0
176
     0
 62
    18
420
        0
176
     0
 90
       50
176
     0
 90
        3
176
     0
 62
     5
420
      255
176
     0
290
     0
176
     0
 90
       50
176
     0
 90
       50
176
     0
 90
       50
176
     0
290
     0
176
     0
 90
       50
176
     0
 62
   256
176
     0
 40
1.0
176
     0
 90
        2
176
     0
  1
strokes_ogs.tif
176
     0
290
     0
176
     0
 40
1.0
176
     0
 40
1.0
176
     0
  0
VISUALSTYLE
  5
33
102
{ACAD_REACTORS
330
2A
102
}
330
2A
100
AcDbVisualStyle
  2
Realistic
 70
     8
177
     3
291
     0
 70
    58
 90
        2
176
     1
 90
        3
176
     1
 90
        0
176
     1
 90
        2
176
     1
 40
0.6
176
     1
 40
30.0
176
     1
 62
     7
420
 16777215
176
     1
 90
        0
176
     1
 90
        0
176
     1
 62
     7
176
     1
 62
   257
176
     1
 90
        1
176
     1
 90
        1
176
     1
 40
1.0
176
     1
 90
        8
176
     1
 62
   257
176
     1
 40
1.0
176
     1
 90
        1
176
     1
 90
        6
176
     1
 90
        2
176
     1
 62
     7
176
     1
 90
        3
176
     1
 90
        0
176
     1
 90
        0
176
     1
290
     0
176
     1
 90
       13
176
     1
 40
0.0
176
     1
 90
        0
176
     1
290
     0
176
     1
290
     1
176
     1
290
     1
176
     1
290
     0
176
     1
290
     0
176
     1
290
     0
176
     1
290
     0
176
     1
290
     0
176
     1
290
     0
176
     1
 90
       50
176
     1
 40
0.0
176
     1
 40
1.0
176
     1
 90
        0
176
     1
 62
    18
420
        0
176
     1
 90
       50
176
     1
 90
        3
176
     1
 62
     5
420
      255
176
     1
290
     0
176
     1
 90
       50
176
     1
 90
       50
176
     1
 90
       50
176
     1
290
     0
176
     1
 90
       50
176
     1
 62
   256
176
     0
 40
1.0
176
     0
 90
        2
176
     1
  1
strokes_ogs.tif
176
     1
290
     0
176
     1
 40
1.0
176
     1
 40
1.0
176
     1
  0
VISUALSTYLE
  5
42
102
{ACAD_REACTORS
330
2A
102
}
330
2A
100
AcDbVisualStyle
  2
Shaded
 70
    27
177
     3
291
     0
 70
    58
 90
        2
176
     1
 90
        2
176
     1
 90
        1
176
     1
 90
        2
176
     1
 40
0.6
176
     1
 40
30.0
176
     1
 62
     7
420
 16777215
176
     1
 90
        0
176
     1
 90
        4
176
     1
 62
     7
176
     1
 62
   257
176
     1
 90
        1
176
     1
 90
        1
176
     1
 40
1.0
176
     1
 90
        8
176
     1
 62
   257
176
     1
 40
1.0
176
     1
 90
        1
176
     1
 90
        6
176
     1
 90
        2
176
     1
 62
     8
420
  7895160
176
     1
 90
        3
176
     1
 90
        0
176
     1
 90
        0
176
     1
290
     0
176
     1
 90
        5
176
     1
 40
0.0
176
     1
 90
        0
176
     1
290
     0
176
     1
290
     1
176
     1
290
     1
176
     1
290
     0
176
     1
290
     0
176
     1
290
     0
176
     1
290
     0
176
     1
290
     0
176
     1
290
     0
176
     1
 90
       50
176
     1
 40
0.0
176
     1
 40
1.0
176
     1
 90
        0
176
     1
 62
    18
420
        0
176
     1
 90
       50
176
     1
 90
        3
176
     1
 62
     5
420
      255
176
     1
290
     0
176
     1
 90
       50
176
     1
 90
       50
176
     1
 90
       50
176
     1
290
     0
176
     1
 90
       50
176
     1
 62
   256
176
     0
 40
1.0
176
     0
 90
        2
176
     1
  1
strokes_ogs.tif
176
     1
290
     0
176
     1
 40
1.0
176
     1
 40
1.0
176
     1
  0
VISUALSTYLE
  5
41
102
{ACAD_REACTORS
330
2A
102
}
330
2A
100
AcDbVisualStyle
  2
Shaded with edges
 70
    26
177
     3
291
     0
 70
    58
 90
        2
176
     1
 90
        2
176
     1
 90
        1
176
     1
 90
        2
176
     1
 40
0.6
176
     1
 40
30.0
176
     1
 62
     7
420
 16777215
176
     1
 90
        1
176
     1
 90
       10
176
     1
 62
     7
176
     1
 62
   257
176
     1
 90
        2
176
     1
 90
        1
176
     1
 40
1.0
176
     1
 90
        8
176
     1
 62
   257
176
     1
 40
1.0
176
     1
 90
        1
176
     1
 90
        6
176
     1
 90
        2
176
     1
 62
     7
176
     1
 90
        3
176
     1
 90
        0
176
     1
 90
        0
176
     1
290
     0
176
     1
 90
        5
176
     1
 40
0.0
176
     1
 90
        0
176
     1
290
     0
176
     1
290
     1
176
     1
290
     1
176
     1
290
     0
176
     1
290
     0
176
     1
290
     0
176
     1
290
     0
176
     1
290
     0
176
     1
290
     0
176
     1
 90
       50
176
     1
 40
0.0
176
     1
 40
1.0
176
     1
 90
        0
176
     1
 62
    18
420
        0
176
     1
 90
       50
176
     1
 90
        3
176
     1
 62
     5
420
      255
176
     1
290
     0
176
     1
 90
       50
176
     1
 90
       50
176
     1
 90
       50
176
     1
290
     0
176
     1
 90
       50
176
     1
 62
   256
176
     0
 40
1.0
176
     0
 90
        2
176
     1
  1
strokes_ogs.tif
176
     1
290
     0
176
     1
 40
1.0
176
     1
 40
1.0
176
     1
  0
VISUALSTYLE
  5
3E
102
{ACAD_REACTORS
330
2A
102
}
330
2A
100
AcDbVisualStyle
  2
Shades of Gray
 70
    23
177
     3
291
     0
 70
    58
 90
        2
176
     1
 90
        2
176
     1
 90
        3
176
     1
 90
        0
176
     1
 40
0.6
176
     1
 40
30.0
176
     1
 62
     7
420
 16777215
176
     1
 90
        2
176
     1
 90
        2
176
     1
 62
     7
176
     1
 62
     7
176
     1
 90
        1
176
     1
 90
        1
176
     1
 40
40.0
176
     1
 90
        8
176
     1
 62
     7
176
     1
 40
1.0
176
     1
 90
        1
176
     1
 90
        6
176
     1
 90
        2
176
     1
 62
     7
176
     1
 90
        3
176
     1
 90
        0
176
     1
 90
        0
176
     1
290
     0
176
     1
 90
        1
176
     1
 40
0.0
176
     1
 90
        0
176
     1
290
     0
176
     1
290
     1
176
     1
290
     1
176
     1
290
     0
176
     1
290
     0
176
     1
290
     0
176
     1
290
     0
176
     1
290
     0
176
     1
290
     0
176
     1
 90
       50
176
     1
 40
0.0
176
     1
 40
1.0
176
     1
 90
        0
176
     1
 62
    18
420
        0
176
     1
 90
       50
176
     1
 90
        3
176
     1
 62
     5
420
      255
176
     1
290
     0
176
     1
 90
       50
176
     1
 90
       50
176
     1
 90
       50
176
     1
290
     0
176
     1
 90
       50
176
     1
 62
   256
176
     0
 40
1.0
176
     0
 90
        2
176
     1
  1
strokes_ogs.tif
176
     1
290
     0
176
     1
 40
1.0
176
     1
 40
1.0
176
     1
  0
VISUALSTYLE
  5
3F
102
{ACAD_REACTORS
330
2A
102
}
330
2A
100
AcDbVisualStyle
  2
Sketchy
 70
    24
177
     3
291
     0
 70
    58
 90
        1
176
     1
 90
        2
176
     1
 90
        2
176
     1
 90
        0
176
     1
 40
0.6
176
     1
 40
30.0
176
     1
 62
     7
420
 16777215
176
     1
 90
        2
176
     1
 90
        2
176
     1
 62
     7
176
     1
 62
     7
176
     1
 90
        1
176
     1
 90
        1
176
     1
 40
40.0
176
     1
 90
       11
176
     1
 62
     7
176
     1
 40
1.0
176
     1
 90
        1
176
     1
 90
        6
176
     1
 90
        2
176
     1
 62
     7
176
     1
 90
        6
176
     1
 90
        0
176
     1
 90
        0
176
     1
290
     0
176
     1
 90
        1
176
     1
 40
0.0
176
     1
 90
        0
176
     1
290
     0
176
     1
290
     1
176
     1
290
     1
176
     1
290
     0
176
     1
290
     0
176
     1
290
     0
176
     1
290
     0
176
     1
290
     0
176
     1
290
     0
176
     1
 90
       50
176
     1
 40
0.0
176
     1
 40
1.0
176
     1
 90
        0
176
     1
 62
    18
420
        0
176
     1
 90
       50
176
     1
 90
        3
176
     1
 62
     5
420
      255
176
     1
290
     0
176
     1
 90
       50
176
     1
 90
       50
176
     1
 90
       50
176
     1
290
     0
176
     1
 90
       50
176
     1
 62
   256
176
     0
 40
1.0
176
     0
 90
        2
176
     1
  1
strokes_ogs.tif
176
     1
290
     0
176
     1
 40
1.0
176
     1
 40
1.0
176
     1
  0
VISUALSTYLE
  5
37
102
{ACAD_REACTORS
330
2A
102
}
330
2A
100
AcDbVisualStyle
  2
Thicken
 70
    13
177
     3
291
     1
 70
    58
 90
        2
176
     1
 90
        2
176
     1
 90
        0
176
     1
 90
        0
176
     1
 40
0.6
176
     1
 40
30.0
176
     1
 62
     7
420
 16777215
176
     1
 90
        1
176
     1
 90
        4
176
     1
 62
     7
176
     1
 62
   257
176
     1
 90
        1
176
     1
 90
        1
176
     1
 40
1.0
176
     1
 90
       12
176
     1
 62
     7
176
     1
 40
1.0
176
     1
 90
        1
176
     1
 90
        6
176
     1
 90
        2
176
     1
 62
     7
176
     1
 90
        5
176
     1
 90
        0
176
     1
 90
        0
176
     1
290
     0
176
     1
 90
        1
176
     1
 40
0.0
176
     1
 90
        0
176
     1
290
     0
176
     1
290
     1
176
     1
290
     1
176
     1
290
     0
176
     1
290
     0
176
     1
290
     0
176
     1
290
     0
176
     1
290
     0
176
     1
290
     0
176
     1
 90
       50
176
     1
 40
0.0
176
     1
 40
1.0
176
     1
 90
        0
176
     1
 62
    18
420
        0
176
     1
 90
       50
176
     1
 90
        3
176
     1
 62
     5
420
      255
176
     1
290
     0
176
     1
 90
       50
176
     1
 90
       50
176
     1
 90
       50
176
     1
290
     0
176
     1
 90
       50
176
     1
 62
   256
176
     0
 40
1.0
176
     0
 90
        2
176
     1
  1
strokes_ogs.tif
176
     1
290
     0
176
     1
 40
1.0
176
     1
 40
1.0
176
     1
  0
VISUALSTYLE
  5
30
102
{ACAD_REACTORS
330
2A
102
}
330
2A
100
AcDbVisualStyle
  2
Wireframe
 70
     5
177
     3
291
     0
 70
    58
 90
        0
176
     1
 90
        2
176
     1
 90
        0
176
     1
 90
        0
176
     1
 40
0.6
176
     1
 40
30.0
176
     1
 62
     7
420
 16777215
176
     1
 90
        1
176
     1
 90
        4
176
     1
 62
     7
176
     1
 62
   257
176
     1
 90
        1
176
     1
 90
        1
176
     1
 40
1.0
176
     1
 90
        0
176
     1
 62
   257
176
     1
 40
1.0
176
     1
 90
        1
176
     1
 90
        6
176
     1
 90
        2
176
     1
 62
     7
176
     1
 90
        3
176
     1
 90
        0
176
     1
 90
        0
176
     1
290
     0
176
     1
 90
        1
176
     1
 40
0.0
176
     1
 90
        0
176
     1
290
     0
176
     1
290
     1
176
     1
290
     1
176
     1
290
     0
176
     1
290
     0
176
     1
290
     0
176
     1
290
     0
176
     1
290
     0
176
     1
290
     0
176
     1
 90
       50
176
     1
 40
0.0
176
     1
 40
1.0
176
     1
 90
        0
176
     1
 62
    18
420
        0
176
     1
 90
       50
176
     1
 90
        3
176
     1
 62
     5
420
      255
176
     1
290
     0
176
     1
 90
       50
176
     1
 90
       50
176
     1
 90
       50
176
     1
290
     0
176
     1
 90
       50
176
     1
 62
   256
176
     0
 40
1.0
176
     0
 90
        2
176
     1
  1
strokes_ogs.tif
176
     1
290
     0
176
     1
 40
1.0
176
     1
 40
1.0
176
     1
  0
VISUALSTYLE
  5
40
102
{ACAD_REACTORS
330
2A
102
}
330
2A
100
AcDbVisualStyle
  2
X-Ray
 70
    25
177
     3
291
     0
 70
    58
 90
        2
176
     1
 90
        2
176
     1
 90
        1
176
     1
 90
        1
176
     1
 40
0.5
176
     1
 40
30.0
176
     1
 62
     7
420
 16777215
176
     1
 90
        1
176
     1
 90
        0
176
     1
 62
     7
176
     1
 62
   257
176
     1
 90
        1
176
     1
 90
        1
176
     1
 40
1.0
176
     1
 90
        8
176
     1
 62
     7
176
     1
 40
1.0
176
     1
 90
        1
176
     1
 90
        6
176
     1
 90
        2
176
     1
 62
     7
176
     1
 90
        3
176
     1
 90
        0
176
     1
 90
        0
176
     1
290
     0
176
     1
 90
       13
176
     1
 40
0.0
176
     1
 90
        0
176
     1
290
     0
176
     1
290
     1
176
     1
290
     1
176
     1
290
     0
176
     1
290
     0
176
     1
290
     0
176
     1
290
     0
176
     1
290
     0
176
     1
290
     0
176
     1
 90
       50
176
     1
 40
0.0
176
     1
 40
1.0
176
     1
 90
        0
176
     1
 62
    18
420
        0
176
     1
 90
       50
176
     1
 90
        3
176
     1
 62
     5
420
      255
176
     1
290
     0
176
     1
 90
       50
176
     1
 90
       50
176
     1
 90
       50
176
     1
290
     0
176
     1
 90
       50
176
     1
 62
   256
176
     0
 40
1.0
176
     0
 90
        2
176
     1
  1
strokes_ogs.tif
176
     1
290
     0
176
     1
 40
1.0
176
     1
 40
1.0
176
     1
  0
DICTIONARYVAR
  5
2A2
102
{ACAD_REACTORS
330
2A1
102
}
330
2A1
100
DictionaryVariables
280
     0
  1
1:1
  0
DICTIONARYVAR
  5
2A7
102
{ACAD_REACTORS
330
2A1
102
}
330
2A1
100
DictionaryVariables
280
     0
  1
Standard
  0
DICTIONARYVAR
  5
2A6
102
{ACAD_REACTORS
330
2A1
102
}
330
2A1
100
DictionaryVariables
280
     0
  1
Standard
  0
DICTIONARY
  5
2A3
330
6A
100
AcDbDictionary
280
     1
281
     1
  3
ACAD_ROUNDTRIP_2008_TABLESTYLE_CELLSTYLEMAP
360
2A4
  0
CELLSTYLEMAP
  5
2A4
102
{ACAD_REACTORS
330
2A3
102
}
330
2A3
100
AcDbCellStyleMap
 90
        3
300
CELLSTYLE
  1
TABLEFORMAT_BEGIN
 90
        5
170
     1
 91
        0
 92
    32768
 62
   257
 93
        1
300
CONTENTFORMAT
  1
CONTENTFORMAT_BEGIN
 90
        0
 91
        0
 92
        4
 93
        0
300

 40
0.0
140
1.0
 94
        5
 62
     0
340
11
144
6.0
309
CONTENTFORMAT_END
171
     1
301
MARGIN
  1
CELLMARGIN_BEGIN
 40
1.5
 40
1.5
 40
1.5
 40
1.5
 40
1.5
 40
1.5
309
CELLMARGIN_END
 94
        6
 95
        1
302
GRIDFORMAT
  1
GRIDFORMAT_BEGIN
 90
        0
 91
        1
 62
     0
 92
       -2
340
14
 93
        0
 40
0.045
309
GRIDFORMAT_END
 95
        2
302
GRIDFORMAT
  1
GRIDFORMAT_BEGIN
 90
        0
 91
        1
 62
     0
 92
       -2
340
14
 93
        0
 40
0.045
309
GRIDFORMAT_END
 95
        4
302
GRIDFORMAT
  1
GRIDFORMAT_BEGIN
 90
        0
 91
        1
 62
     0
 92
       -2
340
14
 93
        0
 40
0.045
309
GRIDFORMAT_END
 95
        8
302
GRIDFORMAT
  1
GRIDFORMAT_BEGIN
 90
        0
 91
        1
 62
     0
 92
       -2
340
14
 93
        0
 40
0.045
309
GRIDFORMAT_END
 95
       16
302
GRIDFORMAT
  1
GRIDFORMAT_BEGIN
 90
        0
 91
        1
 62
     0
 92
       -2
340
14
 93
        0
 40
0.045
309
GRIDFORMAT_END
 95
       32
302
GRIDFORMAT
  1
GRIDFORMAT_BEGIN
 90
        0
 91
        1
 62
     0
 92
       -2
340
14
 93
        0
 40
0.045
309
GRIDFORMAT_END
309
TABLEFORMAT_END
  1
CELLSTYLE_BEGIN
 90
        1
 91
        1
300
_TITLE
309
CELLSTYLE_END
300
CELLSTYLE
  1
TABLEFORMAT_BEGIN
 90
        5
170
     1
 91
        0
 92
        0
 62
   257
 93
        1
300
CONTENTFORMAT
  1
CONTENTFORMAT_BEGIN
 90
        0
 91
        0
 92
        4
 93
        0
300

 40
0.0
140
1.0
 94
        5
 62
     0
340
11
144
4.5
309
CONTENTFORMAT_END
171
     1
301
MARGIN
  1
CELLMARGIN_BEGIN
 40
1.5
 40
1.5
 40
1.5
 40
1.5
 40
1.5
 40
1.5
309
CELLMARGIN_END
 94
        6
 95
        1
302
GRIDFORMAT
  1
GRIDFORMAT_BEGIN
 90
        0
 91
        1
 62
     0
 92
       -2
340
14
 93
        0
 40
0.045
309
GRIDFORMAT_END
 95
        2
302
GRIDFORMAT
  1
GRIDFORMAT_BEGIN
 90
        0
 91
        1
 62
     0
 92
       -2
340
14
 93
        0
 40
0.045
309
GRIDFORMAT_END
 95
        4
302
GRIDFORMAT
  1
GRIDFORMAT_BEGIN
 90
        0
 91
        1
 62
     0
 92
       -2
340
14
 93
        0
 40
0.045
309
GRIDFORMAT_END
 95
        8
302
GRIDFORMAT
  1
GRIDFORMAT_BEGIN
 90
        0
 91
        1
 62
     0
 92
       -2
340
14
 93
        0
 40
0.045
309
GRIDFORMAT_END
 95
       16
302
GRIDFORMAT
  1
GRIDFORMAT_BEGIN
 90
        0
 91
        1
 62
     0
 92
       -2
340
14
 93
        0
 40
0.045
309
GRIDFORMAT_END
 95
       32
302
GRIDFORMAT
  1
GRIDFORMAT_BEGIN
 90
        0
 91
        1
 62
     0
 92
       -2
340
14
 93
        0
 40
0.045
309
GRIDFORMAT_END
309
TABLEFORMAT_END
  1
CELLSTYLE_BEGIN
 90
        2
 91
        1
300
_HEADER
309
CELLSTYLE_END
300
CELLSTYLE
  1
TABLEFORMAT_BEGIN
 90
        5
170
     1
 91
        0
 92
        0
 62
   257
 93
        1
300
CONTENTFORMAT
  1
CONTENTFORMAT_BEGIN
 90
        0
 91
        0
 92
        4
 93
        0
300

 40
0.0
140
1.0
 94
        2
 62
     0
340
11
144
4.5
309
CONTENTFORMAT_END
171
     1
301
MARGIN
  1
CELLMARGIN_BEGIN
 40
1.5
 40
1.5
 40
1.5
 40
1.5
 40
1.5
 40
1.5
309
CELLMARGIN_END
 94
        6
 95
        1
302
GRIDFORMAT
  1
GRIDFORMAT_BEGIN
 90
        0
 91
        1
 62
     0
 92
       -2
340
14
 93
        0
 40
0.045
309
GRIDFORMAT_END
 95
        2
302
GRIDFORMAT
  1
GRIDFORMAT_BEGIN
 90
        0
 91
        1
 62
     0
 92
       -2
340
14
 93
        0
 40
0.045
309
GRIDFORMAT_END
 95
        4
302
GRIDFORMAT
  1
GRIDFORMAT_BEGIN
 90
        0
 91
        1
 62
     0
 92
       -2
340
14
 93
        0
 40
0.045
309
GRIDFORMAT_END
 95
        8
302
GRIDFORMAT
  1
GRIDFORMAT_BEGIN
 90
        0
 91
        1
 62
     0
 92
       -2
340
14
 93
        0
 40
0.045
309
GRIDFORMAT_END
 95
       16
302
GRIDFORMAT
  1
GRIDFORMAT_BEGIN
 90
        0
 91
        1
 62
     0
 92
       -2
340
14
 93
        0
 40
0.045
309
GRIDFORMAT_END
 95
       32
302
GRIDFORMAT
  1
GRIDFORMAT_BEGIN
 90
        0
 91
        1
 62
     0
 92
       -2
340
14
 93
        0
 40
0.045
309
GRIDFORMAT_END
309
TABLEFORMAT_END
  1
CELLSTYLE_BEGIN
 90
        3
 91
        2
300
_DATA
309
CELLSTYLE_END
  0
ENDSEC
  0
EOF
